
<svg id='majica1' width="284px" height="225px" viewBox="0 0 284 225" version="1.1" xmlns="http://www.w3.org/2000/svg" xmlns:xlink="http://www.w3.org/1999/xlink">
    <g id="Page-1" stroke="none" stroke-width="1" fill="none" fill-rule="evenodd">
        <g id="majica" transform="translate(51.000000, 0.000000)" fill="#FFFFFF" stroke="#979797">
            <rect id="Rectangle" x="0.5" y="0.5" width="181" height="224"></rect>
        </g>
        <g id="rukavi" transform="translate(233.000000, 0.000000)" fill="#FFFFFF" stroke="#979797">
            <rect id="Rectangle" x="0.5" y="0.5" width="50" height="56"></rect>
        </g>
        <g id="rukavi" fill="#FFFFFF" stroke="#979797">
            <rect id="Rectangle" x="0.5" y="0.5" width="50" height="56"></rect>
        </g>
        <path d="M150,119.958036 C157.023073,111.555431 172.298094,103.731995 178,99.4580359 C194.40557,87.1609661 203.738903,107.660966 206,160.958036 C199,131.958036 189.666667,111.458036 178,99.4580359" id="Path" fill="#989898" opacity="0.283365885"></path>
        <path d="M79.8999133,50.1404654 C86.9229862,41.7378604 102.198007,33.9144248 107.899913,29.6404654 C124.305483,17.3433956 133.638816,37.8433956 135.899913,91.1404654 C128.899913,62.1404654 119.56658,41.6404654 107.899913,29.6404654" id="Path" fill="#B1B1B1" opacity="0.283365885" transform="translate(107.899913, 58.661447) rotate(87.000000) translate(-107.899913, -58.661447) "></path>
        <path d="M71.8999133,163.140465 C78.9229862,154.73786 94.1980071,146.914425 99.8999133,142.640465 C116.305483,130.343396 125.638816,150.843396 127.899913,204.140465 C120.899913,175.140465 111.56658,154.640465 99.8999133,142.640465" id="Path" fill="#989898" opacity="0.283365885" transform="translate(99.899913, 171.661447) rotate(40.000000) translate(-99.899913, -171.661447) "></path>
    </g>
</svg>