<?xml version="1.0" encoding="utf-8"?>
<!-- Generator: Adobe Illustrator 19.0.0, SVG Export Plug-In . SVG Version: 6.00 Build 0)  -->
<svg version="1.1" xmlns="http://www.w3.org/2000/svg" xmlns:xlink="http://www.w3.org/1999/xlink" x="0px" y="0px"
	 viewBox="0 0 2464 841.9" style="enable-background:new 0 0 2464 841.9;" xml:space="preserve">
<style type="text/css">
	.st0{fill:none;stroke:#A7A9AC;stroke-miterlimit:10;}
	.st1{fill:none;stroke:#939598;stroke-miterlimit:10;}
	.st2{fill:none;stroke:#939598;stroke-width:0.5;stroke-miterlimit:10;}
	.st3{fill:none;stroke:#000000;stroke-width:0.5;stroke-miterlimit:10;}
	.st4{fill:none;stroke:#000000;stroke-miterlimit:10;}
	.st5{fill:none;stroke:#000000;}
	.st6{fill:#BCBEC0;}
	.st7{fill:#FFFFFF;stroke:#000000;stroke-miterlimit:10;}
	.st8{fill:#323334;}
	.st9{fill:#FFFFFF;}
	.st10{fill:#979797;}
	.st11{fill:url(#XMLID_4_);}
	.st12{fill:#D0D2D3;}
	.st13{fill:#4B4C4D;}
	.st14{fill:none;stroke:#808285;stroke-width:0.5;stroke-miterlimit:10;stroke-dasharray:3,3;}
	.st15{fill:none;stroke:#939598;stroke-width:0.5;stroke-miterlimit:10;stroke-dasharray:1.5,1.5;}
	.st16{fill:none;stroke:#939598;stroke-width:0.25;stroke-miterlimit:10;}
	.st17{fill:url(#XMLID_5_);}
	.st18{fill:none;stroke:#6D6E71;stroke-width:0.5;stroke-miterlimit:10;stroke-dasharray:3,3;}
	.st19{fill:none;stroke:#6D6E71;stroke-width:0.5;stroke-miterlimit:10;stroke-dasharray:1.5,1.5;}
	.st20{opacity:0.5;}
	.st21{fill:#A7A9AC;}
	.st22{fill:none;stroke:#6D6E71;stroke-width:0.5;stroke-miterlimit:10;}
	.st23{fill:none;stroke:#6D6E71;stroke-width:0.5;stroke-miterlimit:10;stroke-dasharray:2.9029,2.9029;}
	.st24{fill:none;stroke:#6D6E71;stroke-width:0.5;stroke-miterlimit:10;stroke-dasharray:2.8761,2.8761;}
	.st25{fill:#FFFFFF;stroke:#000000;}
	.st26{fill:url(#XMLID_6_);}
	.st27{fill:none;stroke:#6D6E71;stroke-width:0.5;stroke-miterlimit:10;stroke-dasharray:2.4936,2.4936;}
	.st28{fill:none;stroke:#808285;stroke-width:0.5;stroke-miterlimit:10;}
	.st29{fill:none;stroke:#808285;stroke-width:0.5;stroke-miterlimit:10;stroke-dasharray:3.0146,3.0146;}
	.st30{fill:none;stroke:#808285;stroke-width:0.5;stroke-miterlimit:10;stroke-dasharray:3.0009,3.0009;}
	.st31{fill:none;stroke:#6D6E71;stroke-width:0.5;stroke-miterlimit:10;stroke-dasharray:3.307,3.307;}
	.st32{fill:none;stroke:#6D6E71;stroke-width:0.5;stroke-miterlimit:10;stroke-dasharray:3.2754,3.2754;}
	.st33{fill:none;stroke:#000000;stroke-width:0.25;stroke-miterlimit:10;}
	.st34{fill:none;stroke:#6D6E71;stroke-width:0.5;stroke-miterlimit:10;stroke-dasharray:2.9827,2.9827;}
	.st35{fill:none;stroke:#6D6E71;stroke-width:0.5;stroke-miterlimit:10;stroke-dasharray:2.9609,2.9609;}
	.st36{fill:none;stroke:#6D6E71;stroke-width:0.5;stroke-miterlimit:10;stroke-dasharray:3.0236,3.0236;}
	.st37{fill:none;stroke:#6D6E71;stroke-width:0.5;stroke-miterlimit:10;stroke-dasharray:2.9944,2.9944;}
	.st38{fill:url(#XMLID_15_);}
	.st39{fill:url(#XMLID_66_);}
	.st40{fill:none;stroke:#6D6E71;stroke-width:0.5;stroke-miterlimit:10;stroke-dasharray:3.0146,3.0146;}
	.st41{fill:none;stroke:#6D6E71;stroke-width:0.5;stroke-miterlimit:10;stroke-dasharray:3.0009,3.0009;}
	.st42{fill:none;stroke:#6D6E71;stroke-width:0.5;stroke-miterlimit:10;stroke-dasharray:3.0291,3.0291;}
	.st43{fill:none;stroke:#6D6E71;stroke-width:0.5;stroke-miterlimit:10;stroke-dasharray:3.0747,3.0747;}
	.st44{fill:none;stroke:#6D6E71;stroke-width:0.5;stroke-miterlimit:10;stroke-dasharray:2.9787,2.9787;}
	.st45{fill:none;stroke:#6D6E71;stroke-width:0.5;stroke-miterlimit:10;stroke-dasharray:2.9735,2.9735;}
	.st46{fill:none;stroke:#6D6E71;stroke-width:0.5;stroke-miterlimit:10;stroke-dasharray:2.8376,2.8376;}
	.st47{fill:none;stroke:#6D6E71;stroke-width:0.5;stroke-miterlimit:10;stroke-dasharray:2.8167,2.8167;}
	.st48{fill:none;stroke:#6D6E71;stroke-width:0.5;stroke-miterlimit:10;stroke-dasharray:2.9835,2.9835;}
</style>
<g id="atletiko_x5F_3">
	<g id="ledja_1_">
		<g id="senka_3_" class="st20">
			<path id="XMLID_237_" class="st6" d="M1496.4,170c0,0,1.6-0.8,2.8-3.6c0.4-1,0.5-2.1,0.6-3.2c0.2-1.1,0.6-2,1.2-2.9
				c0.7-1.1,1.7-2,2.6-2.9c1.2-1.2,2.4-2.3,3.7-3.3c1.9-1.4,3.3-2.3,3.3-2.3s-4.6,1.6-6.5,3.1c-1.3,1.1-2.8,1.9-3.9,3.1
				c-2,2.5-1.4,6.1-2.5,9C1497.1,169,1496.4,170,1496.4,170z"/>
			<path id="XMLID_236_" class="st6" d="M1516.9,178.4c0,0,1.6-1.5,2.5-4.4c0.3-1,0.2-1.9,0.3-2.9c0-1,0.3-1.9,0.9-3
				c0.7-1.3,1.5-2.5,2.4-3.7c1.1-1.6,2.3-3.1,3.6-4.6c1.9-2.2,3.3-3.6,3.3-3.6s-4.8,3.8-6.6,6c-1.2,1.5-2.8,3-3.8,4.6
				c-1.9,3.1-0.8,5.6-1.5,8.5C1517.5,177.3,1516.9,178.4,1516.9,178.4z"/>
			<path id="XMLID_235_" class="st6" d="M1526.6,140.8c-0.3,0.4-0.6,0.9-0.9,1.5c-0.5,1-0.5,1.9-0.7,2.8c-0.2,0.9-0.6,1.9-1.3,2.8
				c-0.8,1.2-1.9,2.3-3,3.3c-1.4,1.4-2.7,2.8-4.2,4.1c-2.2,1.9-3.8,3.1-3.8,3.1s5.3-3,7.4-5c1.5-1.3,3.2-2.6,4.4-4
				c2.3-2.7,1.6-5.3,2.7-8C1527,141.2,1526.8,141,1526.6,140.8z"/>
			<path id="XMLID_234_" class="st6" d="M1469.6,107.9c-0.4,0.9-0.9,1.8-1.4,2.6c-1.4,2.5-3.2,8.4-3.2,8.4s0.8-1.8,2.1-4.4
				c0.9-1.8,1.9-3.4,3-5.1c0.3-0.4,0.5-0.8,0.8-1.2C1470.4,108.2,1470,108.1,1469.6,107.9z"/>
			<g id="XMLID_220_">
				<path id="XMLID_233_" class="st6" d="M1254.5,156.1c0,0,0.3,2,2.7,4.1c0.9,0.8,1.9,1.2,3,1.7c1,0.5,1.9,1.3,2.5,2.2
					c0.8,1.1,1.5,2.4,2.1,3.7c0.8,1.6,1.5,3.3,2.1,5c0.8,2.5,1.2,4.2,1.2,4.2s-0.1-5.4-1-7.9c-0.6-1.7-0.9-3.5-1.9-5.1
					c-1.8-3-5.6-3.6-8.1-5.6C1255.2,157.1,1254.5,156.1,1254.5,156.1z"/>
				<path id="XMLID_232_" class="st6" d="M1267.6,157.3c0,0-0.1,1.9,1.8,4.4c0.7,0.9,1.6,1.5,2.5,2.3c0.9,0.7,1.5,1.6,2,2.6
					c0.6,1.2,0.9,2.6,1.2,3.9c0.4,1.7,0.8,3.3,1,5c0.2,2.5,0.3,4.1,0.3,4.1s1.1-4.9,0.7-7.4c-0.3-1.7-0.2-3.4-0.8-5.1
					c-1.1-3.1-4.7-4.5-6.7-7C1268.1,158.3,1267.6,157.3,1267.6,157.3z"/>
				<g id="XMLID_221_">
					<path id="XMLID_231_" class="st6" d="M1381.9,256.4c0,0,3.7,2.1,12.5,3.6c3.4,0.6,6.9,1.4,10.3,2.2c6.1,1.5,11.9,3.9,17.9,5.9
						c6.1,2,12.3,3.9,18.2,6.6c5.5,2.5,9.2,4.3,9.2,4.3c-2.6-1.9-5.4-3.7-8.2-5.3c-3.9-2.3-8-4.1-11.9-6.2
						c-3.4-1.9-6.6-4.3-10.2-5.6c-9.1-3.2-18.9-2.2-28.3-3.6C1385.1,257.2,1381.9,256.4,1381.9,256.4z"/>
					<path id="XMLID_230_" class="st6" d="M1353.2,271.2c0,0,5,2.3,16.4,3.3c4.5,0.4,9,1.1,13.5,1.7c8,1.2,15.8,3.8,23.6,5.6
						c8.1,1.9,16.2,3.7,24,6.5c7.4,2.7,12.3,4.5,12.3,4.5c-3.6-2.2-7.3-4.2-11.1-6c-5.2-2.5-10.7-4.4-16-6.8
						c-4.5-2.1-8.9-4.8-13.7-6.1c-12-3.2-24.5-0.8-36.7-1.6C1357.5,272,1353.2,271.2,1353.2,271.2z"/>
					<g id="XMLID_228_">
						<path id="XMLID_229_" class="st21" d="M1338.9,183.6c0,0,3.6,0.8,11.4,2c3.1,0.5,6.1,1.2,9,2c5.2,1.4,9.9,3.8,14.5,6.1
							c4.7,2.4,9.1,5,12.9,8.2c3.6,3,5.6,5.2,5.6,5.2c-1.4-1.9-3-3.8-4.7-5.5c-2.4-2.4-5.2-4.5-8-6.7c-2.4-1.9-4.7-4-7.6-5.4
							c-7.2-3.6-16-4.1-24.5-5C1342,183.9,1338.9,183.6,1338.9,183.6z"/>
					</g>
					<path id="XMLID_227_" class="st21" d="M1303.8,188.1c0.3-0.9,0.5-1.9,0.8-2.8c0.9-2.8,1.5-8.8,1.5-8.8s-0.5,1.9-1.3,4.7
						c-0.5,1.9-1.2,3.7-1.9,5.5c-0.2,0.4-0.4,0.9-0.5,1.3C1302.8,188,1303.3,188,1303.8,188.1z"/>
					<path id="XMLID_226_" class="st21" d="M1306.5,192.4c0.7-0.1,1.4-0.3,2-0.4c2-0.5,6.2-0.4,6.2-0.4s-1.4,0.2-3.4,0.6
						c-1.4,0.3-2.7,0.7-4.1,1.1c-0.3,0.1-0.7,0.2-1,0.3C1306.4,193.2,1306.5,192.8,1306.5,192.4z"/>
					<path id="XMLID_225_" class="st21" d="M1485.6,188.1c-0.3-0.9-0.5-1.9-0.8-2.8c-0.9-2.8-1.5-8.8-1.5-8.8s0.5,1.9,1.3,4.7
						c0.5,1.9,1.2,3.7,1.9,5.5c0.2,0.4,0.4,0.9,0.5,1.3C1486.5,188,1486,188,1485.6,188.1z"/>
					<path id="XMLID_224_" class="st21" d="M1482.8,192.5c-0.7-0.1-1.4-0.3-2-0.4c-2-0.5-6.2-0.4-6.2-0.4s1.4,0.2,3.4,0.6
						c1.4,0.3,2.7,0.7,4.1,1.1c0.3,0.1,0.7,0.2,1,0.3C1482.9,193.2,1482.8,192.8,1482.8,192.5z"/>
					<path id="XMLID_223_" class="st6" d="M1368.3,295.4c0,0,24.7,1.5,29.8,2.5s25.5,3.8,34.2,6c8.7,2.2,29,9.5,29,9.5
						s-22.5,5.8-30.7,8.8c-8.2,3-13.8,6-21.7,8.5s-22.3,9.2-26.2,11.3c-3.8,2.2-6.7,2.7-6.7,2.7s23.8-13.5,26.8-15.5s5-3.7,10.8-6
						c5.8-2.3,15.5-5.2,21.3-6c5.8-0.8,13.2-3.3,13.2-3.3s-14.5-5-26.3-7.3c-11.8-2.3-24.7-5.8-29.8-6.7
						C1387,299.1,1368.3,295.4,1368.3,295.4z"/>
					<path id="XMLID_222_" class="st21" d="M1387.5,178.1c2.2,2.3,5.8,2.7,8.4,4.6c1.6,1.1,2.8,2.7,4.5,3.7c0.9,0.5,1.8,0.9,2.7,1.4
						c1.7,1.2,2.8,3.1,4.3,4.5c1.5,1.3,3.3,2.1,5.2,2.8c3.5,1.3,7.2,2.4,11,2.2c-2.5-1.6-5.3-2.7-8.2-3.2c-1.9-0.3-4-0.5-5.6-1.7
						c-2-1.6-2.6-4.6-4.7-6.1c-1.6-1.1-3.8-1.2-5.1-2.5c-0.8-0.8-1.2-1.9-2.1-2.6c-0.8-0.6-1.8-0.8-2.8-1
						C1392.6,179.6,1390,178.6,1387.5,178.1"/>
				</g>
			</g>
		</g>
		<g id="linije_3_">
			<g id="XMLID_139_">
				<path id="XMLID_141_" class="st18" d="M1394.6,137.4c0,0,18.7,0.6,29.9,2c11.2,1.4,25,4,33.7,9.4c5.3,3.3,9.8,7,11.5,12.2
					c0.9,2.7,0.4,5.7,0.7,8.6c1.1,7.9,7.3,14.5,14.3,20.1"/>
				<path id="XMLID_140_" class="st18" d="M1394.6,137.4c0,0-18.7,0.6-29.9,2c-11.2,1.4-24.7,4.2-33.4,9.6
					c-5.3,3.3-10.1,6.8-11.8,12c-0.9,2.7-0.4,5.7-0.7,8.6c-1.1,7.9-7.3,14.5-14.3,20.1"/>
			</g>
			<path id="XMLID_215_" class="st18" d="M1547.6,154.4c-0.2,0.8-3.5,6.4-5.2,8.4s-7.3,7.7-10.6,10.9c-3.3,3.2-6.1,9.8-7.1,13.3
				c-1,3.5-6.6,10.8-8.1,11.4"/>
			<path id="XMLID_214_" class="st18" d="M1545.3,152.9c-0.2,0.8-3.6,6.5-5.3,8.6c-1.7,2.1-7.4,7.9-10.8,11.1
				c-3.4,3.2-6.2,9.9-7.2,13.4s-6.7,11-8.2,11.6"/>
			<path id="XMLID_217_" class="st18" d="M1239.7,155.1c0.2,0.8,3.5,6.4,5.2,8.4c1.7,2,7.3,7.7,10.6,10.9c3.3,3.2,6.1,9.8,7.1,13.3
				c1,3.5,6.6,10.8,8.1,11.4"/>
			<path id="XMLID_216_" class="st18" d="M1242,153.6c0.2,0.8,3.6,6.5,5.3,8.6c1.7,2.1,7.4,7.9,10.8,11.1c3.4,3.2,6.2,9.9,7.2,13.4
				c1,3.5,6.7,11,8.2,11.6"/>
			<g id="XMLID_516_">
				<g id="XMLID_868_">
					<path id="XMLID_1029_" class="st22" d="M1434.2,97.3c-0.5,0-1,0-1.5,0.1"/>
					<path id="XMLID_1028_" class="st34" d="M1429.8,98.2c-1.3,0.5-2.6,1.2-4,1.9c-3.4,1.9-19,6.2-29,6.7"/>
					<path id="XMLID_1027_" class="st22" d="M1395.4,106.9c-0.5,0-1,0-1.5,0v0.1c-0.5,0-1,0-1.5,0"/>
					<path id="XMLID_1026_" class="st35" d="M1389.4,106.8c-10-0.9-24-4.8-27.2-6.6c-1.9-1.1-3.8-2-5.5-2.4"/>
					<path id="XMLID_1025_" class="st22" d="M1355.3,97.4c-0.5-0.1-1-0.1-1.5-0.1"/>
				</g>
			</g>
			<g id="XMLID_79_">
				<path id="XMLID_80_" class="st3" d="M1394.6,135.4c0,0,19.2,0.6,30.7,2c11.5,1.4,25.4,4.2,34.3,9.6c5.4,3.3,10.4,7.6,12.1,12.7
					c0.9,2.7,0.4,5.7,0.8,8.6c1.1,7.9,6.5,13.8,13.7,19.3"/>
				<path id="XMLID_81_" class="st3" d="M1394.6,135.4c0,0-19.2,0.6-30.7,2c-11.5,1.4-25.4,4.2-34.3,9.6
					c-5.4,3.3-10.4,7.6-12.1,12.7c-0.9,2.7-0.4,5.7-0.8,8.6c-1.1,7.9-6.5,13.8-13.7,19.3"/>
			</g>
			<g id="XMLID_82_">
				<line id="XMLID_117_" class="st3" x1="1386" y1="95.2" x2="1386" y2="135.7"/>
				<line id="XMLID_83_" class="st18" x1="1388" y1="95.3" x2="1388" y2="135.8"/>
				<line id="XMLID_119_" class="st3" x1="1403.1" y1="95.2" x2="1403.1" y2="135.7"/>
				<line id="XMLID_121_" class="st18" x1="1401.1" y1="95.2" x2="1401.1" y2="135.7"/>
			</g>
			<path id="XMLID_132_" class="st4" d="M1487.7,398.4c1.2-0.8,2.3-0.5,2.7-0.6c1.2-0.3,3.5-2.5,3.1-3.5s-6-20.1-6.3-24.4
				s-0.1-9-0.4-10.6s-1.5-12.7-1.6-16.3s-1.8-13.4-1.8-15.5s-0.2-12.4-0.2-15.9s1.4-15.6,0.8-18s-1.6-4.9-1.8-7.9s0.1-30.5-0.4-35
				s-1.1-22.4-1.1-29s0.1-15.1,0.4-19.1s2.6-13.9,4.3-15.3c2.3,1.2,5.6,3.1,7.4,3.7s11.9,2,18.6,5.2s11.1,5.6,12.6,5.1
				s6.9-7.8,7.9-11.1s3.7-9.8,6.9-12.9s8.8-8.7,10.4-10.7s4.9-7.5,5.1-8.3c0,0-2.8-2.3-8.3-5.8s-17.2-10.3-19.1-11.8
				s-7.1-4.3-7.9-4.7s-4.6-2.5-4.9-3.2s-1.6-1.8-2.6-2.1s-7.9-3.9-10.2-5.2s-13.8-7.6-14.6-8.3s-3.8-3.9-6.1-4.8s-5.4-3.3-12.6-5.1
				s-18.9-5.8-20-6.3s-3.2-2.5-4.4-2.4s-5.6-0.4-7.9-1.4s-7.7-3.3-8.5-3.7s-2.3-2.1-4-2.6s-4.3,0.2-6.8,1.3s-15.4,3.6-21.9,3.4v0
				c-6.6,0.1-19.1-2.3-21.7-3.4c-2.6-1.1-5.1-1.8-6.8-1.3s-3.2,2.1-4,2.6s-6.1,2.8-8.5,3.7s-6.8,1.5-7.9,1.4s-3.3,1.9-4.4,2.4
				s-12.8,4.5-20,6.3s-10.3,4.1-12.6,5.1s-5.2,4.1-6.1,4.8s-12.4,7.1-14.6,8.3s-9.3,4.9-10.2,5.2s-2.3,1.4-2.6,2.1s-4.1,2.8-4.9,3.2
				s-6,3.2-7.9,4.7s-13.6,8.2-19.1,11.8s-8.3,5.8-8.3,5.8c0.2,0.8,3.4,6.3,5.1,8.3s7.1,7.6,10.4,10.7s5.9,9.6,6.9,12.9
				s6.4,10.6,7.9,11.1s5.9-1.9,12.6-5.1s16.9-4.6,18.6-5.2s5.1-2.5,7.4-3.7c1.7,1.4,4,11.3,4.3,15.3s0.3,12.6,0.4,19.1
				s-0.5,24.5-1.1,29s-0.3,31.9-0.4,35s-1.1,5.6-1.8,7.9s0.8,14.5,0.8,18s-0.2,13.8-0.2,15.9s-1.7,11.9-1.8,15.5s-1.3,14.8-1.6,16.3
				s-0.1,6.3-0.4,10.6s-5.9,23.4-6.3,24.4s2,3,3.2,3.3c0.4,0.1,1.3,0.3,2.4,0.7"/>
			<path id="XMLID_180_" class="st4" d="M1235.9,160.2c0,0,2.2,6.2,4,9.6s5.1,6.1,8.2,9.9s4.8,5.3,6.1,7.6s3,5.3,4.5,7.1
				s3.2,3.3,3.2,3.3"/>
			<path id="XMLID_179_" class="st4" d="M1552.5,161.9c0,0-2.3,6.2-4.1,9.6c-1.8,3.4-5.2,6.1-8.3,9.9s-4.8,5.3-6.1,7.6
				c-1.3,2.3-3.1,5.3-4.6,7.1c-1.5,1.8-3.2,3.3-3.2,3.3"/>
			<g id="XMLID_176_">
				<path id="XMLID_178_" class="st4" d="M1300.6,398.1c0,0,4.4,2.6,10.2,3.7s7.9,1.8,14.4,2.6s14.8,2.4,17.6,2.4s12,0.8,16,0.9
					s12.4,0.5,15.1,1s10,2.4,13.3,2.4s7.2,0,7.2,0"/>
				<path id="XMLID_177_" class="st4" d="M1488.3,398.1c0,0-4.4,2.6-10.2,3.7s-7.9,1.8-14.4,2.6s-14.8,2.4-17.6,2.4s-12,0.8-16,0.9
					s-12.4,0.5-15.1,1s-10,2.4-13.3,2.4s-7.2,0-7.2,0"/>
			</g>
			<g id="XMLID_499_">
				<path id="XMLID_502_" class="st14" d="M1297,392.6c0,0,4.5,2.7,10.6,3.8c6.1,1.2,8.2,1.8,14.9,2.7c6.8,0.9,15.3,2.5,18.3,2.5
					s12.5,0.8,16.6,0.9c4.2,0.1,12.9,0.5,15.7,1c2.9,0.5,10.4,2.5,13.8,2.5s7.5,0,7.5,0"/>
				<path id="XMLID_501_" class="st14" d="M1492,392.6c0,0-4.5,2.7-10.6,3.8c-6.1,1.2-8.2,1.8-14.9,2.7c-6.8,0.9-15.3,2.5-18.3,2.5
					s-12.5,0.8-16.6,0.9c-4.2,0.1-12.9,0.5-15.7,1c-2.9,0.5-10.4,2.5-13.8,2.5s-7.5,0-7.5,0"/>
			</g>
			<g id="XMLID_504_">
				<path id="XMLID_506_" class="st14" d="M1297,390.6c0,0,4.5,2.7,10.6,3.8c6.1,1.2,8.2,1.8,14.9,2.7c6.8,0.9,15.3,2.5,18.3,2.5
					s12.5,0.8,16.6,0.9c4.2,0.1,12.9,0.5,15.7,1c2.9,0.5,10.4,2.5,13.8,2.5s7.5,0,7.5,0"/>
				<path id="XMLID_505_" class="st14" d="M1492,390.6c0,0-4.5,2.7-10.6,3.8c-6.1,1.2-8.2,1.8-14.9,2.7c-6.8,0.9-15.3,2.5-18.3,2.5
					s-12.5,0.8-16.6,0.9c-4.2,0.1-12.9,0.5-15.7,1c-2.9,0.5-10.4,2.5-13.8,2.5s-7.5,0-7.5,0"/>
			</g>
		</g>
		<g id="stampa_1_">
			<g id="XMLID_1669_">
				<path id="XMLID_1670_" class="st25" d="M1361.5,186.5l13.6,0l0.4,0.4l0,103.8l-0.4,0.4l-18.6,0l-0.8,0.2
					c-0.6-0.2-0.9-0.4-0.9-0.7l0-79.3l-0.4-0.4l-11.3,0l-0.4-0.4l0-1.1c0-10.9,4.4-18.3,13.2-22.2
					C1358.2,186.8,1360.1,186.5,1361.5,186.5z"/>
				<path id="XMLID_1672_" class="st25" d="M1410.4,186.6l3.6,0c12,0,20.3,5,25,15c1.1,3.6,1.7,6.8,1.7,9.6l0,55
					c0,10.9-4.6,18.5-13.9,22.6c-4.2,1.7-8.9,2.6-14.1,2.6h-0.8c-12.9,0-21.6-4.5-26.1-13.6c-1.6-3.5-2.3-7.6-2.3-12.6l0-52.9
					c0-11.5,4.8-19.3,14.3-23.3C1402,187.4,1406.2,186.6,1410.4,186.6z M1404.2,213.1l0,50.4c0,5.6,1.1,8.9,3.2,9.9
					c1.3,0.7,2.6,1,3.9,1l1.7,0c4.7,0,7.1-3.3,7.1-9.8l0-52.7c0-4-1.6-6.6-4.9-7.9l-3-0.4C1406.8,203.5,1404.2,206.7,1404.2,213.1z"
					/>
			</g>
			<g id="XMLID_1652_">
				<path id="XMLID_1653_" class="st25" d="M1343.1,150.4h6.3c2.9,0,5,1.5,6.4,4.4c0.2,0.7,0.3,1.4,0.3,2.1v0.7
					c0,2.3-1.3,4.2-3.9,5.8c-1,0.4-1.9,0.6-2.8,0.6h-1.6v8.5l-0.2,0.2h-4.5l-0.2-0.2v-21.9L1343.1,150.4z M1347.8,155.2v3.9h1.4
					c0.8,0,1.3-0.6,1.6-1.8v-0.5c-0.3-1.1-0.9-1.6-1.6-1.6h-1.2L1347.8,155.2L1347.8,155.2z"/>
				<path id="XMLID_1656_" class="st25" d="M1358,150.4h6.2c3.2,0,5.4,1.7,6.6,5.1l0.2,1.5c0,1.7-0.7,3.3-2,4.7
					c1.3,1,1.9,2.3,1.9,3.6v7.1l-0.2,0.2l-4.4-0.1h-0.2v-6.3c0-1.5-0.8-2.3-2.4-2.3h-1v8.3l-0.3,0.2h-4.4l-0.2-0.2v-21.8L1358,150.4
					z M1362.6,155.2v3.6l0.2,0.2h1.1c1,0,1.6-0.7,1.7-2c-0.2-1.2-0.8-1.8-1.7-1.8H1362.6z"/>
				<path id="XMLID_1659_" class="st25" d="M1379.5,150.3h4.3l0.2,0.2v4.6l-0.2,0.2h-5c-0.9,0.1-1.3,0.5-1.3,1.3v1.8l-0.1,0.6
					l0.1,0.1h6.5v4.9h-6.6v2c0,1.2,0.6,1.8,1.8,1.8h4.6l0.2,0.2v4.5l-0.2,0.2h-4.9c-2.9,0-4.9-1.5-5.9-4.4c-0.2-0.7-0.4-1.3-0.4-1.7
					V157c0-3.6,1.8-5.7,5.4-6.6L1379.5,150.3z"/>
				<path id="XMLID_1661_" class="st25" d="M1385.8,150.4h13l0.2,0.2v4.5c-0.3,0.6-2,3.6-5.2,8.9c-1.3,2.1-2,3.3-2.1,3.6h7.1
					l0.2,0.2v4.6l-0.2,0.2h-2.5l-10.6-0.1l-0.1-0.1v-4.6l7.5-12.4v-0.2h-7.3l-0.2-0.2v-4.5L1385.8,150.4z"/>
				<path id="XMLID_1663_" class="st25" d="M1400.9,150.3h4.5l0.2,0.2V161v4.8v6.6l-0.2,0.2h-4.5l-0.2-0.2v-21.9L1400.9,150.3z"/>
				<path id="XMLID_1665_" class="st25" d="M1407.5,150.3h5.5c1.1,0,2.2,0.2,3.2,0.5v-0.1c0-0.3,0.1-0.4,0.2-0.4h4.8
					c2.8,0,4.8,1.4,5.9,4.1c0.3,0.8,0.4,1.6,0.4,2.4v15.6l-0.2,0.2h-4.5l-0.2-0.2v-15.8c0-0.9-0.4-1.4-1.3-1.4h-1.5v17.2l-0.2,0.2
					h-4.5l-0.2-0.2v-15.7c0-1-0.4-1.5-1.3-1.5h-1.5v17.2l-0.2,0.2h-4.5l-0.2-0.2v-21.9L1407.5,150.3z"/>
				<path id="XMLID_1667_" class="st25" d="M1436.2,150.3h4.3l0.2,0.2v4.6l-0.2,0.2h-5c-0.9,0.1-1.3,0.5-1.3,1.3v1.8l-0.1,0.6
					l0.1,0.1h6.5v4.9h-6.6v2c0,1.2,0.6,1.8,1.8,1.8h4.6l0.2,0.2v4.5l-0.2,0.2h-4.9c-2.9,0-4.9-1.5-5.9-4.4c-0.2-0.7-0.4-1.3-0.4-1.7
					V157c0-3.6,1.8-5.7,5.4-6.6L1436.2,150.3z"/>
			</g>
			<g id="XMLID_1641_">
				<g id="XMLID_1793_">
					<path id="XMLID_1802_" class="st25" d="M1357.1,303.3h4.5l0.2,0.2v8.6h1.2c1.3,0,1.9-0.7,1.9-2.2v-6.4l0.2-0.2h4.6l0.2,0.2v5.6
						c0,2.9-0.6,4.7-1.7,5.4c0.7,0.7,1.2,1.4,1.5,2.4c0.1,0.9,0.2,2.2,0.2,3.9v4.7l-0.2,0.2h-4.6l-0.2-0.2v-6.2c0-1.1-0.3-1.8-1-2.2
						l-1.3-0.1h-0.7l-0.1,0.1h-0.1l0.1,0.1v8.3l-0.2,0.2h-4.5l-0.2-0.2v-22L1357.1,303.3z"/>
					<path id="XMLID_1800_" class="st25" d="M1379.7,303.4h4.5l0.2,0.2v17.2l0.1-0.1h5.1l0.2,0.2v4.6l-0.2,0.2h-9.9l-0.2-0.2v-21.9
						L1379.7,303.4z"/>
					<path id="XMLID_1798_" class="st25" d="M1399.6,303.4h4.3l0.2,0.2V319c0,0.9,0.5,1.4,1.6,1.6c0.9,0,1.4-0.5,1.5-1.6v-15.4
						l0.2-0.2h4.4l0.2,0.2v15c0,3.3-1,5.4-3,6.3c-0.8,0.5-1.9,0.8-3,0.8h-0.2c-3,0-5-1.3-6-3.8l-0.3-1.5v-16.8L1399.6,303.4z"/>
					<path id="XMLID_1794_" class="st25" d="M1421.7,303.3h6.3c2.7,0,4.8,1.4,6,4.2c0.3,0.7,0.4,1.5,0.4,2.3c0,1.6-0.6,3.1-1.9,4.5
						c1.3,1.2,1.9,2.7,1.9,4.6c0,2.6-1.3,4.7-3.8,6.2c-0.9,0.4-1.9,0.5-2.8,0.5h-6.1l-0.2-0.2v-21.9L1421.7,303.3z M1426.7,308.2
						v3.8h0.9c1.3-0.2,1.9-0.9,1.9-1.9c-0.3-1.2-0.8-1.8-1.6-1.8H1426.7z M1426.7,316.9v3.7h0.7c1.4-0.1,2.1-0.8,2.1-2
						c-0.3-1.2-0.9-1.7-1.8-1.7H1426.7z"/>
				</g>
			</g>
		</g>
		<path id="seven_x5F_znak" d="M1398.5,98.7l-7.3,8.2l5.2-7.1l-3.5,0l0.3-1.1L1398.5,98.7z M1395.1,100.5l-4.5,5.7l3.1-4.9l-1.3,0
			l0.2-0.7L1395.1,100.5z"/>
	</g>
	<g id="prednjica_1_">
		<g id="senka_2_" class="st20">
			<path id="XMLID_38_" class="st6" d="M1161,170c0,0,1.6-0.8,2.8-3.6c0.4-1,0.5-2.1,0.6-3.2c0.2-1.1,0.6-2,1.2-2.9
				c0.7-1.1,1.7-2,2.6-2.9c1.2-1.2,2.4-2.3,3.7-3.3c1.9-1.4,3.3-2.3,3.3-2.3s-4.6,1.6-6.5,3.1c-1.3,1.1-2.8,1.9-3.9,3.1
				c-2,2.5-1.4,6.1-2.5,9C1161.6,169,1161,170,1161,170z"/>
			<path id="XMLID_39_" class="st6" d="M1181.4,178.4c0,0,1.6-1.5,2.5-4.4c0.3-1,0.2-1.9,0.3-2.9c0-1,0.3-1.9,0.9-3
				c0.7-1.3,1.5-2.5,2.4-3.7c1.1-1.6,2.3-3.1,3.6-4.6c1.9-2.2,3.3-3.6,3.3-3.6s-4.8,3.8-6.6,6c-1.2,1.5-2.8,3-3.8,4.6
				c-1.9,3.1-0.8,5.6-1.5,8.5C1182,177.3,1181.4,178.4,1181.4,178.4z"/>
			<path id="XMLID_55_" class="st6" d="M1191.1,140.8c-0.3,0.4-0.6,0.9-0.9,1.5c-0.5,1-0.5,1.9-0.7,2.8c-0.2,0.9-0.6,1.9-1.3,2.8
				c-0.8,1.2-1.9,2.3-3,3.3c-1.4,1.4-2.7,2.8-4.2,4.1c-2.2,1.9-3.8,3.1-3.8,3.1s5.3-3,7.4-5c1.5-1.3,3.2-2.6,4.4-4
				c2.3-2.7,1.6-5.3,2.7-8C1191.5,141.2,1191.3,141,1191.1,140.8z"/>
			<path id="XMLID_54_" class="st6" d="M1134.1,107.9c-0.4,0.9-0.9,1.8-1.4,2.6c-1.4,2.5-3.2,8.4-3.2,8.4s0.8-1.8,2.1-4.4
				c0.9-1.8,1.9-3.4,3-5.1c0.3-0.4,0.5-0.8,0.8-1.2C1134.9,108.2,1134.5,108.1,1134.1,107.9z"/>
			<g id="XMLID_77_">
				<path id="XMLID_30_" class="st6" d="M919,156.1c0,0,0.3,2,2.7,4.1c0.9,0.8,1.9,1.2,3,1.7c1,0.5,1.9,1.3,2.5,2.2
					c0.8,1.1,1.5,2.4,2.1,3.7c0.8,1.6,1.5,3.3,2.1,5c0.8,2.5,1.2,4.2,1.2,4.2s-0.1-5.4-1-7.9c-0.6-1.7-0.9-3.5-1.9-5.1
					c-1.8-3-5.6-3.6-8.1-5.6C919.8,157.1,919,156.1,919,156.1z"/>
				<path id="XMLID_37_" class="st6" d="M932.1,157.3c0,0-0.1,1.9,1.8,4.4c0.7,0.9,1.6,1.5,2.5,2.3c0.9,0.7,1.5,1.6,2,2.6
					c0.6,1.2,0.9,2.6,1.2,3.9c0.4,1.7,0.8,3.3,1,5c0.2,2.5,0.3,4.1,0.3,4.1s1.1-4.9,0.7-7.4c-0.3-1.7-0.2-3.4-0.8-5.1
					c-1.1-3.1-4.7-4.5-6.7-7C932.6,158.3,932.1,157.3,932.1,157.3z"/>
				<g id="XMLID_74_">
					<path id="XMLID_40_" class="st6" d="M1046.4,256.4c0,0,3.7,2.1,12.5,3.6c3.4,0.6,6.9,1.4,10.3,2.2c6.1,1.5,11.9,3.9,17.9,5.9
						c6.1,2,12.3,3.9,18.2,6.6c5.5,2.5,9.2,4.3,9.2,4.3c-2.6-1.9-5.4-3.7-8.2-5.3c-3.9-2.3-8-4.1-11.9-6.2
						c-3.4-1.9-6.6-4.3-10.2-5.6c-9.1-3.2-18.9-2.2-28.3-3.6C1049.6,257.2,1046.4,256.4,1046.4,256.4z"/>
					<path id="XMLID_41_" class="st6" d="M1017.7,271.2c0,0,5,2.3,16.4,3.3c4.5,0.4,9,1.1,13.5,1.7c8,1.2,15.8,3.8,23.6,5.6
						c8.1,1.9,16.2,3.7,24,6.5c7.4,2.7,12.3,4.5,12.3,4.5c-3.6-2.2-7.3-4.2-11.1-6c-5.2-2.5-10.7-4.4-16-6.8
						c-4.5-2.1-8.9-4.8-13.7-6.1c-12-3.2-24.5-0.8-36.7-1.6C1022,272,1017.7,271.2,1017.7,271.2z"/>
					<g id="XMLID_67_">
						<path id="XMLID_71_" class="st21" d="M1003.5,183.6c0,0,3.6,0.8,11.4,2c3.1,0.5,6.1,1.2,9,2c5.2,1.4,9.9,3.8,14.5,6.1
							c4.7,2.4,9.1,5,12.9,8.2c3.6,3,5.6,5.2,5.6,5.2c-1.4-1.9-3-3.8-4.7-5.5c-2.4-2.4-5.2-4.5-8-6.7c-2.4-1.9-4.7-4-7.6-5.4
							c-7.2-3.6-16-4.1-24.5-5C1006.5,183.9,1003.5,183.6,1003.5,183.6z"/>
					</g>
					<path id="XMLID_42_" class="st21" d="M968.3,188.1c0.3-0.9,0.5-1.9,0.8-2.8c0.9-2.8,1.5-8.8,1.5-8.8s-0.5,1.9-1.3,4.7
						c-0.5,1.9-1.2,3.7-1.9,5.5c-0.2,0.4-0.4,0.9-0.5,1.3C967.4,188,967.8,188,968.3,188.1z"/>
					<path id="XMLID_43_" class="st21" d="M971,192.4c0.7-0.1,1.4-0.3,2-0.4c2-0.5,6.2-0.4,6.2-0.4s-1.4,0.2-3.4,0.6
						c-1.4,0.3-2.7,0.7-4.1,1.1c-0.3,0.1-0.7,0.2-1,0.3C970.9,193.2,971,192.8,971,192.4z"/>
					<path id="XMLID_57_" class="st21" d="M1150.1,188.1c-0.3-0.9-0.5-1.9-0.8-2.8c-0.9-2.8-1.5-8.8-1.5-8.8s0.5,1.9,1.3,4.7
						c0.5,1.9,1.2,3.7,1.9,5.5c0.2,0.4,0.4,0.9,0.5,1.3C1151,188,1150.5,188,1150.1,188.1z"/>
					<path id="XMLID_56_" class="st21" d="M1147.3,192.5c-0.7-0.1-1.4-0.3-2-0.4c-2-0.5-6.2-0.4-6.2-0.4s1.4,0.2,3.4,0.6
						c1.4,0.3,2.7,0.7,4.1,1.1c0.3,0.1,0.7,0.2,1,0.3C1147.4,193.2,1147.3,192.8,1147.3,192.5z"/>
					<path id="XMLID_36_" class="st6" d="M1032.8,295.4c0,0,24.7,1.5,29.8,2.5c5.2,1,25.5,3.8,34.2,6c8.7,2.2,29,9.5,29,9.5
						s-22.5,5.8-30.7,8.8c-8.2,3-13.8,6-21.7,8.5c-7.8,2.5-22.3,9.2-26.2,11.3c-3.8,2.2-6.7,2.7-6.7,2.7s23.8-13.5,26.8-15.5
						s5-3.7,10.8-6s15.5-5.2,21.3-6c5.8-0.8,13.2-3.3,13.2-3.3s-14.5-5-26.3-7.3c-11.8-2.3-24.7-5.8-29.8-6.7
						C1051.5,299.1,1032.8,295.4,1032.8,295.4z"/>
					<path id="XMLID_59_" class="st21" d="M1052,178.1c2.2,2.3,5.8,2.7,8.4,4.6c1.6,1.1,2.8,2.7,4.5,3.7c0.9,0.5,1.8,0.9,2.7,1.4
						c1.7,1.2,2.8,3.1,4.3,4.5c1.5,1.3,3.3,2.1,5.2,2.8c3.5,1.3,7.2,2.4,11,2.2c-2.5-1.6-5.3-2.7-8.2-3.2c-1.9-0.3-4-0.5-5.6-1.7
						c-2-1.6-2.6-4.6-4.7-6.1c-1.6-1.1-3.8-1.2-5.1-2.5c-0.8-0.8-1.2-1.9-2.1-2.6c-0.8-0.6-1.8-0.8-2.8-1
						C1057.1,179.6,1054.5,178.6,1052,178.1"/>
				</g>
			</g>
		</g>
		<g id="linije_2_">
			<g id="XMLID_18_">
				<g id="XMLID_753_">
					<path id="XMLID_760_" class="st22" d="M1088.6,101c-0.5,0-1,0.1-1.5,0.2"/>
					<path id="XMLID_759_" class="st36" d="M1084.2,102c-0.5,0.2-1,0.4-1.5,0.6c-2.4,1-13.3,3.2-20.7,3.6"/>
					<path id="XMLID_758_" class="st22" d="M1060.4,106.2c-0.5,0-1,0-1.5,0v0c-0.5,0-1,0-1.5,0"/>
					<path id="XMLID_756_" class="st37" d="M1054.4,106.1c-7.3-0.6-16.7-2.5-19-3.5c-1-0.4-2-0.8-3-1.1"/>
					<path id="XMLID_755_" class="st22" d="M1031.1,101.2c-0.5-0.1-1-0.1-1.5-0.1"/>
				</g>
			</g>
			<path id="XMLID_33_" class="st18" d="M1212.1,154.4c-0.2,0.8-3.5,6.4-5.2,8.4c-1.7,2-7.3,7.7-10.6,10.9
				c-3.3,3.2-6.1,9.8-7.1,13.3c-1,3.5-6.6,10.8-8.1,11.4"/>
			<path id="XMLID_32_" class="st18" d="M1209.8,152.9c-0.2,0.8-3.6,6.5-5.3,8.6c-1.7,2.1-7.4,7.9-10.8,11.1
				c-3.4,3.2-6.2,9.9-7.2,13.4c-1,3.5-6.7,11-8.2,11.6"/>
			<path id="XMLID_45_" class="st18" d="M969.6,189.6c0,0,15.3-10.8,15.5-20.3c0.2-9.5-1.1-21,4.2-31.1c5.3-10.1,18.3-17,26.2-20.1
				c2.4-1,4.9-1.8,7.1-2.5"/>
			<path id="XMLID_27_" class="st18" d="M904.2,155.1c0.2,0.8,3.5,6.4,5.2,8.4c1.7,2,7.3,7.7,10.6,10.9c3.3,3.2,6.1,9.8,7.1,13.3
				c1,3.5,6.6,10.8,8.1,11.4"/>
			<path id="XMLID_31_" class="st18" d="M906.5,153.6c0.2,0.8,3.6,6.5,5.3,8.6c1.7,2.1,7.4,7.9,10.8,11.1c3.4,3.2,6.2,9.9,7.2,13.4
				c1,3.5,6.7,11,8.2,11.6"/>
			<g id="XMLID_17_">
				<line id="XMLID_19_" class="st18" x1="1050.5" y1="95.1" x2="1050.5" y2="105.6"/>
				<line id="XMLID_21_" class="st18" x1="1052.5" y1="95.2" x2="1052.5" y2="105.7"/>
				<line id="XMLID_20_" class="st18" x1="1067.6" y1="95.1" x2="1067.6" y2="105.6"/>
				<line id="XMLID_22_" class="st18" x1="1065.6" y1="95.1" x2="1065.6" y2="105.6"/>
			</g>
			<line id="XMLID_75_" class="st18" x1="1052.5" y1="109.4" x2="1052.5" y2="136"/>
			<line id="XMLID_76_" class="st18" x1="1065.6" y1="109.3" x2="1065.6" y2="135.9"/>
			<g id="XMLID_25_">
				<g id="XMLID_1021_">
					<path id="XMLID_1024_" class="st28" d="M961.9,390.4c-0.1,0.4,0.1,0.9,0.4,1.4"/>
					<path id="XMLID_1023_" class="st29" d="M964.6,393.7c0.1,0.1,0.3,0.1,0.4,0.1c1.2,0.3,6.3,0.3,9.5,0.8
						c3.3,0.4,6.7,0.9,10.7,1.7c4,0.8,15,1.1,21.4,0.9c6.4-0.1,16.4,0.5,20.7,0.8c4.3,0.3,21.4,0.7,25.5,0.6
						c3.8-0.1,6.2-0.3,6.5-0.4c0.7,0.1,3,0.3,6.4,0.4c4.1,0.1,21.2-0.3,25.6-0.6c4.3-0.3,14.3-0.9,20.7-0.8s17.4-0.2,21.4-0.9
						c4-0.8,7.4-1.3,10.7-1.7c3.3-0.4,8.4-0.4,9.5-0.8c0.4-0.1,1.1-0.5,1.6-1"/>
					<path id="XMLID_1022_" class="st28" d="M1156.2,391.7c0.4-0.5,0.6-1,0.4-1.4"/>
				</g>
			</g>
			<g id="XMLID_26_">
				<g id="XMLID_871_">
					<path id="XMLID_874_" class="st28" d="M962.3,388.4c-0.1,0.4,0.1,0.9,0.4,1.4"/>
					<path id="XMLID_873_" class="st30" d="M965,391.7c0.1,0.1,0.3,0.1,0.4,0.1c1.2,0.3,6.3,0.3,9.5,0.8c3.2,0.4,6.7,0.9,10.7,1.7
						c4,0.8,14.9,1.1,21.3,0.9s16.3,0.5,20.6,0.8s21.3,0.7,25.4,0.6c3.8-0.1,6.2-0.3,6.5-0.4c0.7,0.1,2.9,0.3,6.3,0.4
						c4.1,0.1,21.1-0.3,25.4-0.6c4.3-0.3,14.2-0.9,20.6-0.8c6.4,0.1,17.3-0.2,21.3-0.9c4-0.8,7.4-1.3,10.7-1.7s8.3-0.4,9.5-0.8
						c0.4-0.1,1.1-0.5,1.6-1"/>
					<path id="XMLID_872_" class="st28" d="M1155.7,389.7c0.4-0.5,0.6-1,0.4-1.4"/>
				</g>
			</g>
			<g id="XMLID_60_">
				<path id="XMLID_62_" class="st14" d="M975.6,398.8c5.9,1.1,7.9,1.5,14.4,2.4s14.8,2.4,17.6,2.4s12,0.8,16,0.9s12.4,0.5,15.1,1
					s10,2.4,13.3,2.4s7.2,0,7.2,0"/>
				<path id="XMLID_61_" class="st14" d="M1144.3,398.7c-0.5,0.1-1,0-1.5,0.1c-5.9,1.1-7.9,1.5-14.4,2.4s-14.8,2.4-17.6,2.4
					s-12,0.8-16,0.9s-12.4,0.5-15.1,1s-10,2.4-13.3,2.4s-7.2,0-7.2,0"/>
			</g>
			<g id="XMLID_63_">
				<path id="XMLID_65_" class="st14" d="M1007.6,401.6c2.9,0,12,0.8,16,0.9s12.4,0.5,15.1,1s10,2.4,13.3,2.4s7.2,0,7.2,0"/>
				<path id="XMLID_64_" class="st14" d="M1110.8,401.6c-2.9,0-12,0.8-16,0.9s-12.4,0.5-15.1,1s-10,2.4-13.3,2.4s-7.2,0-7.2,0"/>
			</g>
			<path id="XMLID_7_" class="st4" d="M1210.6,152.5c-5.6-3.6-17.2-10.3-19.1-11.8s-7.1-4.3-7.9-4.7s-4.6-2.5-4.9-3.2
				s-1.6-1.8-2.6-2.1s-7.9-3.9-10.2-5.2s-13.8-7.6-14.6-8.3s-3.8-3.9-6.1-4.8s-5.4-3.3-12.6-5.1s-18.9-5.8-20-6.3s-3.2-2.5-4.4-2.4
				s-5.6-0.4-7.9-1.4s-7.7-3.3-8.5-3.7c-0.8-0.4-2.3-2.1-4-2.6s-4.3,0.2-6.8,1.3s-15.4,3.6-21.9,3.4v0c-6.6,0.1-19.1-2.3-21.7-3.4
				c-2.6-1.1-5.1-1.8-6.8-1.3s-3.2,2.1-4,2.6s-6.1,2.8-8.5,3.7s-6.8,1.5-7.9,1.4s-3.3,1.9-4.4,2.4s-12.8,4.5-20,6.3
				s-10.3,4.1-12.6,5.1s-5.2,4.1-6.1,4.8s-12.4,7.1-14.6,8.3s-9.3,4.9-10.2,5.2s-2.3,1.4-2.6,2.1s-4.1,2.8-4.9,3.2s-6,3.2-7.9,4.7
				s-13.6,8.2-19.1,11.8s-8.3,5.8-8.3,5.8c0.2,0.8,3.4,6.3,5.1,8.3s7.1,7.6,10.4,10.7s5.9,9.6,6.9,12.9s6.4,10.6,7.9,11.1
				s5.9-1.9,12.6-5.1s16.9-4.6,18.6-5.2s5.1-2.5,7.4-3.7c1.7,1.4,4,11.3,4.3,15.3s0.3,12.6,0.4,19.1s-0.5,24.5-1.1,29
				s-0.3,31.9-0.4,35s-1.1,5.6-1.8,7.9s0.8,14.5,0.8,18s-0.2,13.8-0.2,15.9s-1.7,11.9-1.8,15.5s-1.3,14.8-1.6,16.3
				s-0.1,6.3-0.4,10.6s-5.9,23.4-6.3,24.4s1.9,3.2,3.1,3.5s6.4,0.3,9.7,0.8s6.8,0.9,10.9,1.7s15.2,1.1,21.7,0.9s16.6,0.5,21,0.8
				s21.8,0.7,25.9,0.6c3.9-0.1,6.3-0.3,6.6-0.4c0.7,0.1,3,0.3,6.5,0.4c4.2,0.1,21.6-0.3,25.9-0.6c4.4-0.3,14.5-0.9,21-0.8
				s17.6-0.2,21.7-0.9s7.6-1.3,10.9-1.7s8.5-0.4,9.7-0.8s3.5-2.5,3.1-3.5s-6-20.1-6.3-24.4s-0.1-9-0.4-10.6s-1.5-12.7-1.6-16.3
				s-1.8-13.4-1.8-15.5s-0.2-12.4-0.2-15.9s1.4-15.6,0.8-18s-1.6-4.9-1.8-7.9s0.1-30.5-0.4-35s-1.1-22.4-1.1-29s0.1-15.1,0.4-19.1
				s2.6-13.9,4.3-15.3c2.3,1.2,5.6,3.1,7.4,3.7s11.9,2,18.6,5.2s11.1,5.6,12.6,5.1s6.9-7.8,7.9-11.1s3.7-9.8,6.9-12.9
				s8.8-8.7,10.4-10.7s4.9-7.5,5.1-8.3C1218.9,158.3,1216.2,156,1210.6,152.5z"/>
			<path id="XMLID_3_" class="st3" d="M968.3,187.4c0,0,14.3-10.8,14.5-20.3c0.2-9.5-1.1-20,4.2-30.1c5.3-10.1,19.3-18,27.2-21.1
				c7.8-3.1,16.1-5.2,16.1-5.2"/>
			<path id="XMLID_46_" class="st18" d="M1147.8,189.6c0,0-15.3-10.8-15.5-20.3s1.1-21-4.2-31.1c-5.3-10.1-18.3-17-26.2-20.1
				c-2.4-1-4.9-1.8-7.1-2.5"/>
			<path id="XMLID_9_" class="st4" d="M1031.5,91c0,0-3.8,13.4-1.7,19.9"/>
			<path id="XMLID_10_" class="st3" d="M1020.2,96.6c0,0-3.6,8.6-0.3,17.3"/>
			<path id="XMLID_13_" class="st3" d="M1149.8,187.2c0,0-14.3-10.8-14.5-20.3c-0.2-9.5,1.1-20-4.2-30.1s-19.3-18-27.2-21.1
				s-16.1-5.2-16.1-5.2"/>
			<path id="XMLID_12_" class="st4" d="M1086.6,90.8c0,0,3.8,13.4,1.7,19.9"/>
			<path id="XMLID_11_" class="st3" d="M1097.9,96.4c0,0,3.6,8.6,0.3,17.3"/>
			<path id="XMLID_16_" class="st4" d="M1088.3,110.6c-1.6,14.5-14.1,25.8-29.2,25.8c-15.1,0-27.5-11.2-29.2-25.6"/>
			<path id="XMLID_14_" class="st3" d="M1096.1,112.9c-2.6,14.7-18.2,26-37.1,26c-18.8,0-34.3-11.2-37-25.8"/>
			<path id="XMLID_8_" class="st3" d="M1088.8,104.4c-1.7,0-4,0.6-6.2,1.5c-2.8,1.1-16.6,3.9-23.7,3.7v0c-7.2,0.1-20.7-2.5-23.4-3.7
				c-2.3-0.9-4.5-1.6-6.3-1.5"/>
			<line id="XMLID_23_" class="st3" x1="1053.5" y1="109.4" x2="1053.5" y2="136"/>
			<line id="XMLID_24_" class="st3" x1="1064.6" y1="109.3" x2="1064.6" y2="135.9"/>
			<path id="XMLID_28_" class="st4" d="M900.4,160.2c0,0,2.2,6.2,4,9.6s5.1,6.1,8.2,9.9s4.8,5.3,6.1,7.6s3,5.3,4.5,7.1
				s3.2,3.3,3.2,3.3"/>
			<path id="XMLID_29_" class="st4" d="M1217,161.9c0,0-2.3,6.2-4.1,9.6c-1.8,3.4-5.2,6.1-8.3,9.9c-3.1,3.9-4.8,5.3-6.1,7.6
				c-1.3,2.3-3.1,5.3-4.6,7.1c-1.5,1.8-3.2,3.3-3.2,3.3"/>
			<g id="XMLID_58_">
				<path id="XMLID_34_" class="st4" d="M965.1,398.1c0,0,4.4,2.6,10.2,3.7s7.9,1.8,14.4,2.6s14.8,2.4,17.6,2.4s12,0.8,16,0.9
					s12.4,0.5,15.1,1s10,2.4,13.3,2.4s7.2,0,7.2,0"/>
				<path id="XMLID_35_" class="st4" d="M1152.9,398.1c0,0-4.4,2.6-10.2,3.7s-7.9,1.8-14.4,2.6s-14.8,2.4-17.6,2.4s-12,0.8-16,0.9
					s-12.4,0.5-15.1,1s-10,2.4-13.3,2.4s-7.2,0-7.2,0"/>
			</g>
		</g>
		<g id="seven_x5F_logo_1_">
			<path id="XMLID_49_" d="M997,161.5l1-0.1c0,0.4,0,0.7,0.1,0.9c0.1,0.2,0.3,0.3,0.6,0.3c0.3,0,0.6-0.1,0.8-0.2
				c0.2-0.2,0.3-0.4,0.4-0.6c0-0.1,0-0.3,0-0.4c0-0.1-0.1-0.2-0.3-0.3c-0.1,0-0.3-0.1-0.7-0.3c-0.5-0.2-0.8-0.4-0.9-0.6
				c-0.2-0.3-0.2-0.7-0.1-1.2c0.1-0.3,0.2-0.6,0.4-0.8c0.2-0.3,0.5-0.5,0.8-0.6c0.3-0.1,0.6-0.2,1-0.2c0.6,0,1,0.2,1.2,0.5
				c0.2,0.3,0.3,0.8,0.1,1.3l-1,0c0-0.3,0-0.5-0.1-0.7c-0.1-0.1-0.3-0.2-0.5-0.2c-0.3,0-0.5,0.1-0.7,0.2c-0.1,0.1-0.2,0.2-0.3,0.4
				c0,0.1,0,0.3,0,0.4c0.1,0.1,0.3,0.3,0.8,0.4c0.4,0.1,0.7,0.3,0.9,0.4c0.2,0.1,0.3,0.3,0.4,0.6c0.1,0.3,0,0.6-0.1,0.9
				c-0.1,0.3-0.3,0.7-0.5,0.9c-0.2,0.3-0.5,0.5-0.8,0.7c-0.3,0.1-0.7,0.2-1.1,0.2c-0.6,0-1-0.2-1.2-0.5
				C997,162.7,996.9,162.2,997,161.5 M1008.4,163.4l1.4-5.3l-2.9,5.3h-1l-0.1-5.1l0,0.2h-2.6l-0.4,1.3h2.4l-0.3,1h-2.4l-0.4,1.6h2.7
				l-0.3,1h-3.6l1.6-5.9h3.3h0.2h0.8l0,4.4l2.3-4.4h0.8h0.2h3.3l-0.3,1h-2.6l-0.4,1.3h2.4l-0.3,1h-2.4l-0.4,1.6h2.7l-0.3,1H1008.4z
				 M1014.1,157.6h0.9c0.3,1.3,0.6,2.6,0.9,3.9c0.4-1.1,0.7-2.7,1-3.8h0.9c-0.5,2-1.1,3.9-1.6,5.9h-0.9c-0.3-1.3-0.6-2.6-0.9-3.9
				c-0.4,1.1-0.7,2.7-1,3.8h-0.9C1013,161.5,1013.5,159.5,1014.1,157.6z"/>
			<path id="XMLID_44_" d="M1025.8,157.5l-9.4,10.5l6.6-9h-4.4l0.4-1.4H1025.8z M1021.5,159.9l-5.8,7.2l4-6.3h-1.7l0.3-0.9H1021.5z"
				/>
		</g>
		<g id="grb_1_">
			<circle id="XMLID_53_" class="st7" cx="1104.1" cy="160.2" r="14"/>
			<g id="XMLID_1698_">
				<path id="XMLID_1699_" d="M1095.6,156.3l-0.2,0.6l0,0c0,0,0,0,0,0l-0.2,0.5c0,0.1-0.1,0.2-0.1,0.2s-0.1,0.1-0.2,0.2
					c-0.1,0-0.2,0.1-0.3,0.1c-0.1,0-0.2,0-0.3,0l-1.9-0.6c-0.1,0-0.2-0.1-0.2-0.1c-0.1-0.1-0.1-0.1-0.2-0.2c0-0.1-0.1-0.2-0.1-0.3
					c0-0.1,0-0.2,0-0.3l0.1-0.4c0-0.1,0.1-0.2,0.1-0.2c0.1-0.1,0.1-0.1,0.2-0.2c0.1,0,0.2-0.1,0.3-0.1c0.1,0,0.2,0,0.3,0l0.3,0.1
					l-0.2,0.6l-0.3-0.1c0,0,0,0-0.1,0c0,0,0,0,0,0l-0.1,0.4c0,0,0,0,0,0.1c0,0,0,0,0.1,0l1.9,0.6c0,0,0,0,0.1,0c0,0,0,0,0-0.1
					l0.1-0.4c0,0,0,0,0-0.1c0,0,0,0,0,0l-0.4-0.1l-0.1,0.4l-0.6-0.2l0.3-1L1095.6,156.3z"/>
				<path id="XMLID_1701_" d="M1096.9,154.4l-1-0.3l-0.1,0.1l0.8,0.6l-0.4,0.5l-2.7-2.1l0.7-0.9c0.1-0.1,0.1-0.1,0.2-0.2
					s0.2-0.1,0.3-0.1c0.1,0,0.2,0,0.3,0c0.1,0,0.2,0.1,0.3,0.1l0.7,0.5c0.1,0.1,0.2,0.2,0.2,0.3c0,0.1,0.1,0.3,0,0.4l1.1,0.4
					L1096.9,154.4z M1094.3,153.1l0.9,0.7l0.3-0.4c0,0,0-0.1,0-0.1c0,0,0-0.1,0-0.1l-0.7-0.5c0,0-0.1,0-0.1,0s-0.1,0-0.1,0
					L1094.3,153.1z"/>
				<path id="XMLID_1704_" d="M1096.2,150.3l0.9-0.6c0.1-0.1,0.2-0.1,0.3-0.1c0.1,0,0.2,0,0.3,0s0.2,0.1,0.3,0.1
					c0.1,0.1,0.2,0.1,0.2,0.2l0.2,0.4c0,0.1,0.1,0.1,0.1,0.2s0,0.1,0,0.2c0.1,0,0.1,0.1,0.2,0.1c0.1,0,0.1,0.1,0.2,0.2l0.4,0.5
					c0.1,0.1,0.1,0.2,0.1,0.3s0,0.2,0,0.3s0,0.2-0.1,0.3c-0.1,0.1-0.1,0.2-0.2,0.2l-0.9,0.6L1096.2,150.3z M1097,150.4l0.4,0.6
					l0.4-0.3c0,0,0,0,0-0.1c0,0,0-0.1,0-0.1l-0.2-0.4c0,0,0,0-0.1,0s-0.1,0-0.1,0L1097,150.4z M1097.8,151.5l0.5,0.7l0.4-0.3
					c0,0,0,0,0-0.1c0,0,0-0.1,0-0.1l-0.4-0.5c0,0,0,0-0.1,0c0,0-0.1,0-0.1,0L1097.8,151.5z"/>
				<path id="XMLID_1708_" d="M1103.3,150.9l-0.6,0l-0.1-3.4l0.6,0l0.1,1.5l0.7-1.6l0.7,0l-0.7,1.7l0.9,1.7l-0.7,0l-0.5-0.9
					l-0.3,0.6L1103.3,150.9z"/>
				<path id="XMLID_1710_" d="M1106.9,147.8l0.6,0.2l-0.8,2.7l1.1,0.3l-0.2,0.6l-1.7-0.5L1106.9,147.8z"/>
				<path id="XMLID_1712_" d="M1109.5,151.8C1109.5,151.8,1109.5,151.8,1109.5,151.8c0,0.1,0,0.1,0,0.2l0.3,0.2c0,0,0.1,0,0.1,0
					c0,0,0.1,0,0.1,0l1.5-2.2l0.5,0.3l-1.5,2.2c-0.1,0.1-0.1,0.1-0.2,0.2c-0.1,0-0.2,0.1-0.3,0.1c-0.1,0-0.2,0-0.3,0
					c-0.1,0-0.2-0.1-0.3-0.1l-0.3-0.2c-0.1-0.1-0.1-0.1-0.2-0.2c-0.1-0.1-0.1-0.2-0.1-0.3s0-0.2,0-0.3c0-0.1,0.1-0.2,0.1-0.3
					l1.5-2.2l0.5,0.3L1109.5,151.8z"/>
				<path id="XMLID_1714_" d="M1113.6,151.8l0.7,0.9c0.1,0.1,0.1,0.2,0.1,0.3s0,0.2,0,0.3s0,0.2-0.1,0.3c0,0.1-0.1,0.2-0.2,0.2
					l-0.3,0.3c-0.1,0-0.1,0.1-0.2,0.1c-0.1,0-0.1,0-0.2,0c0,0.1-0.1,0.1-0.1,0.2c0,0.1-0.1,0.1-0.2,0.2l-0.5,0.4
					c-0.1,0.1-0.2,0.1-0.3,0.1c-0.1,0-0.2,0-0.3,0s-0.2,0-0.3-0.1c-0.1,0-0.2-0.1-0.2-0.2l-0.6-0.9L1113.6,151.8z M1112.5,153.5
					l-0.7,0.5l0.3,0.4c0,0,0,0,0.1,0c0,0,0.1,0,0.1,0l0.5-0.4c0,0,0,0,0-0.1c0,0,0-0.1,0-0.1L1112.5,153.5z M1113.5,152.7l-0.5,0.4
					l0.3,0.4c0,0,0,0,0.1,0c0,0,0.1,0,0.1,0l0.3-0.3c0,0,0,0,0-0.1c0,0,0-0.1,0-0.1L1113.5,152.7z"/>
				<path id="XMLID_1718_" d="M1115.1,155.5c0.1,0,0.2,0,0.3,0c0.1,0,0.2,0,0.3,0.1c0.1,0,0.2,0.1,0.2,0.2s0.1,0.2,0.2,0.3l0.1,0.3
					c0,0.1,0,0.2,0,0.3s0,0.2-0.1,0.3c0,0.1-0.1,0.2-0.2,0.2c-0.1,0.1-0.2,0.1-0.3,0.1l-2.5,0.9l-0.2-0.6l0.8-0.3l-0.2-0.5l-0.8,0.3
					l-0.2-0.6L1115.1,155.5z M1114.1,156.5l0.2,0.5l1.2-0.4c0,0,0.1,0,0.1-0.1s0-0.1,0-0.1l-0.1-0.3c0,0,0-0.1-0.1-0.1
					c0,0-0.1,0-0.1,0L1114.1,156.5z"/>
			</g>
			<g id="XMLID_1675_">
				<path id="XMLID_1676_" d="M1092.2,165.2l-0.2-0.6l0,0c0,0,0,0,0,0l-0.2-0.5c0-0.1,0-0.2,0-0.3c0-0.1,0-0.2,0.1-0.3
					c0-0.1,0.1-0.1,0.2-0.2c0.1-0.1,0.2-0.1,0.3-0.1l1.9-0.6c0.1,0,0.2,0,0.3,0c0.1,0,0.2,0,0.3,0.1c0.1,0,0.2,0.1,0.2,0.2
					c0.1,0.1,0.1,0.1,0.1,0.2l0.1,0.4c0,0.1,0,0.2,0,0.3c0,0.1,0,0.2-0.1,0.3c0,0.1-0.1,0.2-0.2,0.2s-0.2,0.1-0.2,0.1l-0.3,0.1
					l-0.2-0.6l0.3-0.1c0,0,0,0,0,0c0,0,0,0,0-0.1l-0.1-0.4c0,0,0,0-0.1,0c0,0,0,0-0.1,0l-1.9,0.6c0,0,0,0-0.1,0c0,0,0,0,0,0.1
					l0.1,0.4c0,0,0,0,0,0c0,0,0,0,0.1,0l0.4-0.1l-0.1-0.4l0.6-0.2l0.3,1L1092.2,165.2z"/>
				<path id="XMLID_1678_" d="M1094.1,168.2l0.6-0.9l-0.1-0.1l-0.8,0.6l-0.4-0.5l2.7-2.1l0.7,0.9c0.1,0.1,0.1,0.2,0.1,0.3
					s0,0.2,0,0.3s0,0.2-0.1,0.3c0,0.1-0.1,0.2-0.2,0.2l-0.7,0.5c-0.1,0.1-0.2,0.1-0.4,0.1c-0.1,0-0.3,0-0.4-0.1l-0.6,1L1094.1,168.2
					z M1095.9,166.1l-0.9,0.7l0.3,0.4c0,0,0,0,0.1,0s0.1,0,0.1,0l0.7-0.5c0,0,0,0,0-0.1c0,0,0-0.1,0-0.1L1095.9,166.1z"/>
				<path id="XMLID_1681_" d="M1098.1,167.6l0.9,0.6c0.1,0.1,0.1,0.1,0.2,0.2c0.1,0.1,0.1,0.2,0.1,0.3c0,0.1,0,0.2,0,0.3
					s-0.1,0.2-0.1,0.3l-0.2,0.4c0,0.1-0.1,0.1-0.2,0.2c-0.1,0-0.1,0.1-0.2,0.1c0,0.1,0,0.1,0,0.2c0,0.1-0.1,0.1-0.1,0.2l-0.4,0.5
					c-0.1,0.1-0.1,0.1-0.2,0.2s-0.2,0.1-0.3,0.1c-0.1,0-0.2,0-0.3,0c-0.1,0-0.2-0.1-0.3-0.1l-0.9-0.6L1098.1,167.6z M1097.5,169.5
					l-0.5,0.7l0.4,0.3c0,0,0.1,0,0.1,0s0.1,0,0.1,0l0.4-0.5c0,0,0-0.1,0-0.1c0,0,0-0.1,0-0.1L1097.5,169.5z M1098.2,168.4l-0.4,0.6
					l0.4,0.3c0,0,0.1,0,0.1,0c0,0,0.1,0,0.1-0.1l0.2-0.4c0,0,0-0.1,0-0.1c0,0,0-0.1-0.1-0.1L1098.2,168.4z"/>
				<path id="XMLID_1685_" d="M1103,173l-0.6,0l0.2-3.4l0.6,0l-0.1,1.5l0.8-1.5l0.7,0l-0.9,1.6l0.7,1.7l-0.7,0l-0.4-1l-0.3,0.6
					L1103,173z"/>
				<path id="XMLID_1687_" d="M1105.9,169.5l0.6-0.2l0.8,2.7l1.1-0.3l0.2,0.6l-1.7,0.5L1105.9,169.5z"/>
				<path id="XMLID_1689_" d="M1110.7,170.4C1110.7,170.4,1110.7,170.4,1110.7,170.4c0.1,0.1,0.1,0,0.2,0l0.3-0.2c0,0,0,0,0-0.1
					c0,0,0-0.1,0-0.1l-1.5-2.2l0.5-0.3l1.5,2.2c0.1,0.1,0.1,0.2,0.1,0.3c0,0.1,0,0.2,0,0.3c0,0.1,0,0.2-0.1,0.3
					c-0.1,0.1-0.1,0.2-0.2,0.2l-0.3,0.2c-0.1,0.1-0.2,0.1-0.3,0.1c-0.1,0-0.2,0-0.3,0s-0.2-0.1-0.3-0.1c-0.1-0.1-0.2-0.1-0.2-0.2
					l-1.5-2.2l0.5-0.3L1110.7,170.4z"/>
				<path id="XMLID_1691_" d="M1111.1,166.6l0.6-0.9c0.1-0.1,0.1-0.1,0.2-0.2s0.2-0.1,0.3-0.1s0.2,0,0.3,0c0.1,0,0.2,0.1,0.3,0.1
					l0.3,0.3c0.1,0,0.1,0.1,0.2,0.2s0.1,0.1,0.1,0.2c0.1,0,0.1,0,0.2,0c0.1,0,0.1,0.1,0.2,0.1l0.5,0.4c0.1,0.1,0.1,0.1,0.2,0.2
					c0,0.1,0.1,0.2,0.1,0.3c0,0.1,0,0.2,0,0.3c0,0.1-0.1,0.2-0.1,0.3l-0.6,0.9L1111.1,166.6z M1111.9,166.5l0.5,0.4l0.3-0.4
					c0,0,0-0.1,0-0.1c0,0,0-0.1,0-0.1l-0.3-0.3c0,0-0.1,0-0.1,0c0,0-0.1,0-0.1,0L1111.9,166.5z M1113,167.3l0.7,0.5l0.3-0.4
					c0,0,0-0.1,0-0.1c0,0,0-0.1,0-0.1l-0.5-0.4c0,0-0.1,0-0.1,0s-0.1,0-0.1,0L1113,167.3z"/>
				<path id="XMLID_1695_" d="M1113.4,164.3c-0.1,0-0.2-0.1-0.2-0.1c-0.1-0.1-0.1-0.1-0.2-0.2c0-0.1-0.1-0.2-0.1-0.3s0-0.2,0-0.3
					l0.1-0.3c0-0.1,0.1-0.2,0.1-0.2c0.1-0.1,0.1-0.1,0.2-0.2s0.2-0.1,0.3-0.1c0.1,0,0.2,0,0.3,0l2.5,0.8l-0.2,0.6l-0.8-0.3l-0.2,0.5
					l0.8,0.3l-0.2,0.6L1113.4,164.3z M1114.8,164.1l0.2-0.5l-1.2-0.4c0,0-0.1,0-0.1,0c0,0-0.1,0-0.1,0.1l-0.1,0.3c0,0,0,0.1,0,0.1
					c0,0,0,0.1,0.1,0.1L1114.8,164.1z"/>
			</g>
			<circle id="XMLID_73_" cx="1092.7" cy="160.1" r="0.8"/>
			<circle id="XMLID_85_" cx="1115.1" cy="160.1" r="0.8"/>
			<g id="XMLID_84_">
				<g id="XMLID_89_">
					<g id="XMLID_93_">
						<g id="XMLID_94_">
							<circle id="XMLID_116_" class="st8" cx="1104.1" cy="160.1" r="6.3"/>
							<path id="XMLID_115_" class="st9" d="M1098.9,159.5c0,0-0.4,0.7-0.5,1.7c-0.1,0.5-0.1,0.7,0.3,1.2c0.7,1,1,1.3,1.2,1.2
								c0.2,0,1.4-0.3,1.7-0.4c0.2-0.1,0.2-0.1,0.3-0.6c0.1-0.4,0.3-1,0.3-1.4c0-0.3,0-0.3-0.3-0.7c-0.3-0.4-1-1.3-1.1-1.5
								c-0.1-0.2-0.2-0.1-0.5-0.1s-0.8,0.2-1.1,0.2C1098.9,159.4,1098.9,159.4,1098.9,159.5z"/>
							<path id="XMLID_114_" class="st9" d="M1099.4,156.1c0,0-0.3,0.4-0.6,0.9c-0.2,0.3-0.1,0.7,0,1.5c0.1,0.8,0.2,0.8,0.5,0.7
								c0.3-0.1,1.1-0.2,1.3-0.3c0.2,0,0.4-0.4,0.6-0.7c0.2-0.3,1-1.4,1.2-1.5c0.2-0.1,0.1-0.3,0.1-0.6c0-0.4-0.2-1.1-0.3-1.1
								c-0.1,0-0.9,0-1.1,0C1100.7,154.8,1099.9,155.4,1099.4,156.1z"/>
							<path id="XMLID_113_" class="st9" d="M1102.3,161.3c0,0-0.3,1.2-0.4,1.7c0,0.3-0.1,0.3,0.5,0.7c0.6,0.4,0.8,0.6,1,0.7
								c0.2,0.1,0.3,0.1,0.9,0c0.5-0.1,1-0.2,1.3-0.3c0.2-0.1,0.5-0.8,0.7-1.3c0.2-0.5,0.3-0.9,0.1-1.1c-0.2-0.2-0.5-0.4-0.8-0.7
								c-0.3-0.2-0.6-0.5-0.8-0.5c-0.1,0.1-1.5,0.4-2,0.5C1102.5,161.1,1102.3,161.2,1102.3,161.3z"/>
							<path id="XMLID_112_" class="st9" d="M1103.4,166.1c0,0,0.2-1,0.3-1.3c0-0.3,0.1-0.3,0.5-0.3c0.4-0.1,1.3-0.3,1.5-0.4
								c0.2-0.1,0.3-0.1,0.6,0.1c0.3,0.2,0.9,0.7,1.2,0.9c0.2,0.1-0.6,0.6-1.5,0.9C1104.7,166.3,1103.3,166.3,1103.4,166.1z"/>
							<path id="XMLID_111_" class="st9" d="M1102.5,156.4c0,0-0.1-0.7-0.2-1.2c0-0.4,0-0.4,0.5-0.6c0.5-0.2,1.8-0.5,2.1-0.5
								c0.3,0,0.6,0.1,1.3,0.4c0.7,0.3,0.9,0.5,0.9,0.7c0,0.2,0.1,1.1,0.1,1.6c0,0.3-0.1,0.3-0.6,0.5c-0.5,0.2-1,0.4-1.1,0.5
								c-0.2,0.1-0.4-0.1-0.9-0.4c-0.4-0.3-1.3-0.6-1.6-0.7C1102.6,156.5,1102.5,156.5,1102.5,156.4z"/>
							<path id="XMLID_110_" class="st9" d="M1105.4,158c0,0-0.3,1.2-0.4,1.8c-0.1,0.6-0.1,0.7,0.3,0.9c0.3,0.3,0.7,0.6,1,0.8
								c0.2,0.2,0.3,0.3,1,0.2c0.8-0.2,1.1-0.3,1.3-0.4c0.3-0.1,0.3-0.2,0.4-0.7s0.2-1.2,0.2-1.6c0-0.4,0-0.4-0.3-0.8
								c-0.3-0.3-0.9-0.8-1.1-1c-0.2-0.2-0.4-0.2-0.7-0.1c-0.3,0.1-1,0.4-1.3,0.5C1105.5,157.8,1105.4,157.8,1105.4,158z"/>
							<path id="XMLID_109_" class="st9" d="M1109.9,158.5c0,0-0.4,0.1-0.5,0.2c-0.1,0.1-0.1,0.5-0.2,0.9c0,0.4-0.2,1.2-0.3,1.5
								c-0.1,0.2,0.2,0.3,0.4,0.6c0.3,0.5,0.5,0.7,0.5,0.7c0.1-0.1,0.5-1,0.5-2.6C1110.2,159.1,1110.1,158.4,1109.9,158.5z"/>
							<path id="XMLID_108_" class="st9" d="M1098.2,161.9c0,0,0.1-0.2,0.1-0.1c0.1,0.1,0.6,1.1,1.1,1.6c0.2,0.2,0.2,0.2,0.2,0.5
								c0,0.3,0,0.4-0.2,0.2C1099.3,164,1098.4,162.9,1098.2,161.9z"/>
							<path id="XMLID_107_" class="st9" d="M1105.4,153.9c0,0-0.1,0-0.1,0s0.2,0.1,0.5,0.3c0.4,0.2,0.9,0.4,1.2,0.6
								c0.2,0.1,0.2,0.1,0.4,0.1c0.1-0.1,0.2-0.1,0-0.2C1107.1,154.6,1106.1,154.1,1105.4,153.9z"/>
							<path id="XMLID_106_" class="st10" d="M1105.2,164.3c0,0-0.8,0.2-1.3,0.3c-0.3,0-0.3,0.6-0.4,1.2c0,0,0.2-0.7,0.3-1
								C1103.9,164.6,1104.3,164.7,1105.2,164.3z"/>
							<path id="XMLID_105_" class="st9" d="M1099.7,155.9c0,0,0.7-0.7,1-0.9c0.3-0.2,1.4-0.1,1.4-0.1s-0.8,0-1.1,0
								C1100.6,155,1099.7,155.9,1099.7,155.9z"/>
							<path id="XMLID_104_" class="st9" d="M1103.6,154.4c0,0,1.1-0.3,1.4-0.3c0.3,0,1,0.3,1.8,0.7c-0.8-0.4-1.5-0.6-1.7-0.6
								C1104.8,154.2,1103.6,154.4,1103.6,154.4z"/>
							<path id="XMLID_103_" class="st9" d="M1099.5,159.3c0,0,1-0.3,1.1-0.2c0.1,0,1.3,1.6,1.3,1.6s-1-1.2-1.3-1.4
								C1100.3,159.2,1099.5,159.3,1099.5,159.3z"/>
							
								<linearGradient id="XMLID_15_" gradientUnits="userSpaceOnUse" x1="1106.8519" y1="160.9252" x2="1109.1647" y2="159.4417" gradientTransform="matrix(1 -1.800000e-003 1.800000e-003 1 -0.141 1.0156)">
								<stop  offset="0.2851" style="stop-color:#9E9E9E"/>
								<stop  offset="0.3829" style="stop-color:#AAAAAA"/>
								<stop  offset="0.559" style="stop-color:#CACAC9"/>
								<stop  offset="0.6938" style="stop-color:#E6E6E5"/>
								<stop  offset="0.7298" style="stop-color:#EAEAEA"/>
								<stop  offset="0.87" style="stop-color:#F8F8F7"/>
								<stop  offset="1" style="stop-color:#FFFFFF"/>
							</linearGradient>
							<path id="XMLID_102_" class="st38" d="M1108.1,157.7c0,0,0.7,0.6,0.9,0.8c0.2,0.2,0.2,0.2,0,1.7c0.1-0.9,0.1-1.3,0-1.5
								C1108.8,158.4,1108.1,157.7,1108.1,157.7z"/>
							<g id="XMLID_95_">
								<path id="XMLID_101_" class="st9" d="M1102.1,161.9c0,0-0.2,0.7-0.2,1c-0.1,0.3-0.4,0.3-1.2,0.4c0.8-0.3,1-0.3,1.1-0.5
									C1101.8,162.7,1102.1,161.9,1102.1,161.9z"/>
								<path id="XMLID_100_" class="st9" d="M1102.1,162.4c0,0,0.2-0.7,0.2-1c0.1-0.3,0.6-0.3,1.2-0.5c0,0-0.5,0.2-0.9,0.3
									C1102.3,161.4,1102.3,161.8,1102.1,162.4z"/>
								<path id="XMLID_99_" class="st9" d="M1102.4,163.6c0,0,0.6,0.4,0.9,0.6c0.3,0.2,0.4,0.2,1.1,0c0.7-0.2,0.9-0.2,0.9-0.2
									s-1,0.2-1.5,0.2C1103.3,164.3,1102.4,163.6,1102.4,163.6z"/>
								<path id="XMLID_98_" class="st9" d="M1105.1,160c0,0,0.3-1.5,0.4-1.9c0.1-0.4,0.7-0.6,1.4-0.8c0,0-0.8,0.4-1.1,0.6
									C1105.5,158.1,1105.5,158.3,1105.1,160z"/>
								<path id="XMLID_97_" class="st9" d="M1105.7,161.2c0,0,0.5,0.4,0.6,0.5c0.1,0.1,0.1,0.5-0.3,1.6c0.2-0.7,0.5-1.3,0.2-1.6
									C1105.9,161.5,1105.7,161.2,1105.7,161.2z"/>
								<path id="XMLID_96_" class="st9" d="M1098.7,162.6c0,0,0.4,0.5,0.6,0.8c0.2,0.2,0.3,0.3,0.3,0.7c0-0.3-0.1-0.4-0.2-0.6
									C1099.3,163.4,1098.7,162.6,1098.7,162.6z"/>
							</g>
						</g>
					</g>
					<path id="XMLID_90_" class="st12" d="M1104.1,153.8c-3.5,0-6.2,2.8-6.2,6.3c0,3.5,2.8,6.2,6.3,6.2c3.5,0,6.2-2.8,6.2-6.3
						C1110.3,156.6,1107.5,153.8,1104.1,153.8z M1104,165c-3.2,0-5.7-2.4-5.7-5.4c0-3,2.5-5.4,5.7-5.4c3.2,0,5.7,2.4,5.7,5.4
						C1109.7,162.6,1107.2,165,1104,165z"/>
				</g>
				<g id="XMLID_86_">
					
						<ellipse id="XMLID_88_" transform="matrix(0.7632 -0.6461 0.6461 0.7632 159.3623 749.7104)" class="st13" cx="1102.6" cy="157.4" rx="0.6" ry="0.5"/>
					
						<ellipse id="XMLID_87_" transform="matrix(0.7632 -0.6461 0.6461 0.7632 158.573 749.3585)" class="st13" cx="1101.8" cy="158.3" rx="0.3" ry="0.2"/>
				</g>
			</g>
		</g>
	</g>
</g>
</svg>
