<?xml version="1.0" encoding="utf-8"?>
<!-- Generator: Adobe Illustrator 19.0.0, SVG Export Plug-In . SVG Version: 6.00 Build 0)  -->
<svg version="1.1" xmlns="http://www.w3.org/2000/svg" xmlns:xlink="http://www.w3.org/1999/xlink" x="0px" y="0px"
	 viewBox="0 0 2464 841.9" style="enable-background:new 0 0 2464 841.9;" xml:space="preserve">
<style type="text/css">
	.st0{fill:none;stroke:#A7A9AC;stroke-miterlimit:10;}
	.st1{fill:none;stroke:#939598;stroke-miterlimit:10;}
	.st2{fill:none;stroke:#939598;stroke-width:0.5;stroke-miterlimit:10;}
	.st3{fill:none;stroke:#000000;stroke-width:0.5;stroke-miterlimit:10;}
	.st4{fill:none;stroke:#000000;stroke-miterlimit:10;}
	.st5{fill:none;stroke:#000000;}
	.st6{fill:#BCBEC0;}
	.st7{fill:#FFFFFF;stroke:#000000;stroke-miterlimit:10;}
	.st8{fill:#323334;}
	.st9{fill:#FFFFFF;}
	.st10{fill:#979797;}
	.st11{fill:url(#XMLID_4_);}
	.st12{fill:#D0D2D3;}
	.st13{fill:#4B4C4D;}
	.st14{fill:none;stroke:#808285;stroke-width:0.5;stroke-miterlimit:10;stroke-dasharray:3,3;}
	.st15{fill:none;stroke:#939598;stroke-width:0.5;stroke-miterlimit:10;stroke-dasharray:1.5,1.5;}
	.st16{fill:none;stroke:#939598;stroke-width:0.25;stroke-miterlimit:10;}
	.st17{fill:url(#XMLID_5_);}
	.st18{fill:none;stroke:#6D6E71;stroke-width:0.5;stroke-miterlimit:10;stroke-dasharray:3,3;}
	.st19{fill:none;stroke:#6D6E71;stroke-width:0.5;stroke-miterlimit:10;stroke-dasharray:1.5,1.5;}
	.st20{opacity:0.5;}
	.st21{fill:#A7A9AC;}
	.st22{fill:none;stroke:#6D6E71;stroke-width:0.5;stroke-miterlimit:10;}
	.st23{fill:none;stroke:#6D6E71;stroke-width:0.5;stroke-miterlimit:10;stroke-dasharray:2.9029,2.9029;}
	.st24{fill:none;stroke:#6D6E71;stroke-width:0.5;stroke-miterlimit:10;stroke-dasharray:2.8761,2.8761;}
	.st25{fill:#FFFFFF;stroke:#000000;}
	.st26{fill:url(#XMLID_6_);}
	.st27{fill:none;stroke:#6D6E71;stroke-width:0.5;stroke-miterlimit:10;stroke-dasharray:2.4936,2.4936;}
	.st28{fill:none;stroke:#808285;stroke-width:0.5;stroke-miterlimit:10;}
	.st29{fill:none;stroke:#808285;stroke-width:0.5;stroke-miterlimit:10;stroke-dasharray:3.0146,3.0146;}
	.st30{fill:none;stroke:#808285;stroke-width:0.5;stroke-miterlimit:10;stroke-dasharray:3.0009,3.0009;}
	.st31{fill:none;stroke:#6D6E71;stroke-width:0.5;stroke-miterlimit:10;stroke-dasharray:3.307,3.307;}
	.st32{fill:none;stroke:#6D6E71;stroke-width:0.5;stroke-miterlimit:10;stroke-dasharray:3.2754,3.2754;}
	.st33{fill:none;stroke:#000000;stroke-width:0.25;stroke-miterlimit:10;}
	.st34{fill:none;stroke:#6D6E71;stroke-width:0.5;stroke-miterlimit:10;stroke-dasharray:2.9827,2.9827;}
	.st35{fill:none;stroke:#6D6E71;stroke-width:0.5;stroke-miterlimit:10;stroke-dasharray:2.9609,2.9609;}
	.st36{fill:none;stroke:#6D6E71;stroke-width:0.5;stroke-miterlimit:10;stroke-dasharray:3.0236,3.0236;}
	.st37{fill:none;stroke:#6D6E71;stroke-width:0.5;stroke-miterlimit:10;stroke-dasharray:2.9944,2.9944;}
	.st38{fill:url(#XMLID_15_);}
	.st39{fill:url(#XMLID_66_);}
	.st40{fill:none;stroke:#6D6E71;stroke-width:0.5;stroke-miterlimit:10;stroke-dasharray:3.0146,3.0146;}
	.st41{fill:none;stroke:#6D6E71;stroke-width:0.5;stroke-miterlimit:10;stroke-dasharray:3.0009,3.0009;}
	.st42{fill:none;stroke:#6D6E71;stroke-width:0.5;stroke-miterlimit:10;stroke-dasharray:3.0291,3.0291;}
	.st43{fill:none;stroke:#6D6E71;stroke-width:0.5;stroke-miterlimit:10;stroke-dasharray:3.0747,3.0747;}
	.st44{fill:none;stroke:#6D6E71;stroke-width:0.5;stroke-miterlimit:10;stroke-dasharray:2.9787,2.9787;}
	.st45{fill:none;stroke:#6D6E71;stroke-width:0.5;stroke-miterlimit:10;stroke-dasharray:2.9735,2.9735;}
	.st46{fill:none;stroke:#6D6E71;stroke-width:0.5;stroke-miterlimit:10;stroke-dasharray:2.8376,2.8376;}
	.st47{fill:none;stroke:#6D6E71;stroke-width:0.5;stroke-miterlimit:10;stroke-dasharray:2.8167,2.8167;}
	.st48{fill:none;stroke:#6D6E71;stroke-width:0.5;stroke-miterlimit:10;stroke-dasharray:2.9835,2.9835;}
</style>
<g id="atletiko_x5F_2">
	<g id="prednjica">
		<g id="senka_1_" class="st20">
			<path id="XMLID_799_" class="st6" d="M721,170c0,0,1.6-0.8,2.8-3.6c0.4-1,0.5-2.1,0.6-3.2c0.2-1.1,0.6-2,1.2-2.9
				c0.7-1.1,1.7-2,2.6-2.9c1.2-1.2,2.4-2.3,3.7-3.3c1.9-1.4,3.3-2.3,3.3-2.3s-4.6,1.6-6.5,3.1c-1.3,1.1-2.8,1.9-3.9,3.1
				c-2,2.5-1.4,6.1-2.5,9C721.6,169,721,170,721,170z"/>
			<path id="XMLID_798_" class="st6" d="M741.4,178.4c0,0,1.6-1.5,2.5-4.4c0.3-1,0.2-1.9,0.3-2.9c0-1,0.3-1.9,0.9-3
				c0.7-1.3,1.5-2.5,2.4-3.7c1.1-1.6,2.3-3.1,3.6-4.6c1.9-2.2,3.3-3.6,3.3-3.6s-4.8,3.8-6.6,6c-1.2,1.5-2.8,3-3.8,4.6
				c-1.9,3.1-0.8,5.6-1.5,8.5C742,177.3,741.4,178.4,741.4,178.4z"/>
			<path id="XMLID_797_" class="st6" d="M751.1,140.8c-0.3,0.4-0.6,0.9-0.9,1.5c-0.5,1-0.5,1.9-0.7,2.8c-0.2,0.9-0.6,1.9-1.3,2.8
				c-0.8,1.2-1.9,2.3-3,3.3c-1.4,1.4-2.7,2.8-4.2,4.1c-2.2,1.9-3.8,3.1-3.8,3.1s5.3-3,7.4-5c1.5-1.3,3.2-2.6,4.4-4
				c2.3-2.7,1.6-5.3,2.7-8C751.5,141.2,751.3,141,751.1,140.8z"/>
			<path id="XMLID_796_" class="st6" d="M694.1,107.9c-0.4,0.9-0.9,1.8-1.4,2.6c-1.4,2.5-3.2,8.4-3.2,8.4s0.8-1.8,2.1-4.4
				c0.9-1.8,1.9-3.4,3-5.1c0.3-0.4,0.5-0.8,0.8-1.2C694.9,108.2,694.5,108.1,694.1,107.9z"/>
			<g id="XMLID_782_">
				<path id="XMLID_795_" class="st6" d="M479,156.1c0,0,0.3,2,2.7,4.1c0.9,0.8,1.9,1.2,3,1.7c1,0.5,1.9,1.3,2.5,2.2
					c0.8,1.1,1.5,2.4,2.1,3.7c0.8,1.6,1.5,3.3,2.1,5c0.8,2.5,1.2,4.2,1.2,4.2s-0.1-5.4-1-7.9c-0.6-1.7-0.9-3.5-1.9-5.1
					c-1.8-3-5.6-3.6-8.1-5.6C479.8,157.1,479,156.1,479,156.1z"/>
				<path id="XMLID_794_" class="st6" d="M492.1,157.3c0,0-0.1,1.9,1.8,4.4c0.7,0.9,1.6,1.5,2.5,2.3c0.9,0.7,1.5,1.6,2,2.6
					c0.6,1.2,0.9,2.6,1.2,3.9c0.4,1.7,0.8,3.3,1,5c0.2,2.5,0.3,4.1,0.3,4.1s1.1-4.9,0.7-7.4c-0.3-1.7-0.2-3.4-0.8-5.1
					c-1.1-3.1-4.7-4.5-6.7-7C492.6,158.3,492.1,157.3,492.1,157.3z"/>
				<g id="XMLID_783_">
					<path id="XMLID_793_" class="st6" d="M606.4,256.4c0,0,3.7,2.1,12.5,3.6c3.4,0.6,6.9,1.4,10.3,2.2c6.1,1.5,11.9,3.9,17.9,5.9
						c6.1,2,12.3,3.9,18.2,6.6c5.5,2.5,9.2,4.3,9.2,4.3c-2.6-1.9-5.4-3.7-8.2-5.3c-3.9-2.3-8-4.1-11.9-6.2
						c-3.4-1.9-6.6-4.3-10.2-5.6c-9.1-3.2-18.9-2.2-28.3-3.6C609.6,257.2,606.4,256.4,606.4,256.4z"/>
					<path id="XMLID_792_" class="st6" d="M577.7,271.2c0,0,5,2.3,16.4,3.3c4.5,0.4,9,1.1,13.5,1.7c8,1.2,15.8,3.8,23.6,5.6
						c8.1,1.9,16.2,3.7,24,6.5c7.4,2.7,12.3,4.5,12.3,4.5c-3.6-2.2-7.3-4.2-11.1-6c-5.2-2.5-10.7-4.4-16-6.8
						c-4.5-2.1-8.9-4.8-13.7-6.1c-12-3.2-24.5-0.8-36.7-1.6C582,272,577.7,271.2,577.7,271.2z"/>
					<g id="XMLID_790_">
						<path id="XMLID_791_" class="st21" d="M563.5,183.6c0,0,3.6,0.8,11.4,2c3.1,0.5,6.1,1.2,9,2c5.2,1.4,9.9,3.8,14.5,6.1
							c4.7,2.4,9.1,5,12.9,8.2c3.6,3,5.6,5.2,5.6,5.2c-1.4-1.9-3-3.8-4.7-5.5c-2.4-2.4-5.2-4.5-8-6.7c-2.4-1.9-4.7-4-7.6-5.4
							c-7.2-3.6-16-4.1-24.5-5C566.5,183.9,563.5,183.6,563.5,183.6z"/>
					</g>
					<path id="XMLID_789_" class="st21" d="M528.3,188.1c0.3-0.9,0.5-1.9,0.8-2.8c0.9-2.8,1.5-8.8,1.5-8.8s-0.5,1.9-1.3,4.7
						c-0.5,1.9-1.2,3.7-1.9,5.5c-0.2,0.4-0.4,0.9-0.5,1.3C527.4,188,527.8,188,528.3,188.1z"/>
					<path id="XMLID_788_" class="st21" d="M531,192.4c0.7-0.1,1.4-0.3,2-0.4c2-0.5,6.2-0.4,6.2-0.4s-1.4,0.2-3.4,0.6
						c-1.4,0.3-2.7,0.7-4.1,1.1c-0.3,0.1-0.7,0.2-1,0.3C530.9,193.2,531,192.8,531,192.4z"/>
					<path id="XMLID_787_" class="st21" d="M710.1,188.1c-0.3-0.9-0.5-1.9-0.8-2.8c-0.9-2.8-1.5-8.8-1.5-8.8s0.5,1.9,1.3,4.7
						c0.5,1.9,1.2,3.7,1.9,5.5c0.2,0.4,0.4,0.9,0.5,1.3C711,188,710.5,188,710.1,188.1z"/>
					<path id="XMLID_786_" class="st21" d="M707.3,192.5c-0.7-0.1-1.4-0.3-2-0.4c-2-0.5-6.2-0.4-6.2-0.4s1.4,0.2,3.4,0.6
						c1.4,0.3,2.7,0.7,4.1,1.1c0.3,0.1,0.7,0.2,1,0.3C707.4,193.2,707.3,192.8,707.3,192.5z"/>
					<path id="XMLID_785_" class="st6" d="M592.8,295.4c0,0,24.7,1.5,29.8,2.5c5.2,1,25.5,3.8,34.2,6c8.7,2.2,29,9.5,29,9.5
						s-22.5,5.8-30.7,8.8c-8.2,3-13.8,6-21.7,8.5s-22.3,9.2-26.2,11.3c-3.8,2.2-6.7,2.7-6.7,2.7s23.8-13.5,26.8-15.5s5-3.7,10.8-6
						c5.8-2.3,15.5-5.2,21.3-6c5.8-0.8,13.2-3.3,13.2-3.3s-14.5-5-26.3-7.3c-11.8-2.3-24.7-5.8-29.8-6.7
						C611.5,299.1,592.8,295.4,592.8,295.4z"/>
					<path id="XMLID_784_" class="st21" d="M612,178.1c2.2,2.3,5.8,2.7,8.4,4.6c1.6,1.1,2.8,2.7,4.5,3.7c0.9,0.5,1.8,0.9,2.7,1.4
						c1.7,1.2,2.8,3.1,4.3,4.5c1.5,1.3,3.3,2.1,5.2,2.8c3.5,1.3,7.2,2.4,11,2.2c-2.5-1.6-5.3-2.7-8.2-3.2c-1.9-0.3-4-0.5-5.6-1.7
						c-2-1.6-2.6-4.6-4.7-6.1c-1.6-1.1-3.8-1.2-5.1-2.5c-0.8-0.8-1.2-1.9-2.1-2.6c-0.8-0.6-1.8-0.8-2.8-1
						C617.1,179.6,614.5,178.6,612,178.1"/>
				</g>
			</g>
		</g>
		<g id="seven_x5F_logo">
			<path id="XMLID_728_" d="M557,161.5l1-0.1c0,0.4,0,0.7,0.1,0.9c0.1,0.2,0.3,0.3,0.6,0.3c0.3,0,0.6-0.1,0.8-0.2
				c0.2-0.2,0.3-0.4,0.4-0.6c0-0.1,0-0.3,0-0.4c0-0.1-0.1-0.2-0.3-0.3c-0.1,0-0.3-0.1-0.7-0.3c-0.5-0.2-0.8-0.4-0.9-0.6
				c-0.2-0.3-0.2-0.7-0.1-1.2c0.1-0.3,0.2-0.6,0.4-0.8c0.2-0.3,0.5-0.5,0.8-0.6c0.3-0.1,0.6-0.2,1-0.2c0.6,0,1,0.2,1.2,0.5
				c0.2,0.3,0.3,0.8,0.1,1.3l-1,0c0-0.3,0-0.5-0.1-0.7c-0.1-0.1-0.3-0.2-0.5-0.2c-0.3,0-0.5,0.1-0.7,0.2c-0.1,0.1-0.2,0.2-0.3,0.4
				c0,0.1,0,0.3,0,0.4c0.1,0.1,0.3,0.3,0.8,0.4c0.4,0.1,0.7,0.3,0.9,0.4c0.2,0.1,0.3,0.3,0.4,0.6c0.1,0.3,0,0.6-0.1,0.9
				c-0.1,0.3-0.3,0.7-0.5,0.9c-0.2,0.3-0.5,0.5-0.8,0.7c-0.3,0.1-0.7,0.2-1.1,0.2c-0.6,0-1-0.2-1.2-0.5
				C557,162.7,556.9,162.2,557,161.5 M568.4,163.4l1.4-5.3l-2.9,5.3h-1l-0.1-5.1l0,0.2h-2.6l-0.4,1.3h2.4l-0.3,1h-2.4l-0.4,1.6h2.7
				l-0.3,1h-3.6l1.6-5.9h3.3h0.2h0.8l0,4.4l2.3-4.4h0.8h0.2h3.3l-0.3,1h-2.6l-0.4,1.3h2.4l-0.3,1h-2.4l-0.4,1.6h2.7l-0.3,1H568.4z
				 M574.1,157.6h0.9c0.3,1.3,0.6,2.6,0.9,3.9c0.4-1.1,0.7-2.7,1-3.8h0.9c-0.5,2-1.1,3.9-1.6,5.9h-0.9c-0.3-1.3-0.6-2.6-0.9-3.9
				c-0.4,1.1-0.7,2.7-1,3.8h-0.9C573,161.5,573.5,159.5,574.1,157.6z"/>
			<path id="XMLID_725_" d="M585.8,157.5l-9.4,10.5l6.6-9h-4.4l0.4-1.4H585.8z M581.5,159.9l-5.8,7.2l4-6.3H578l0.3-0.9H581.5z"/>
		</g>
		<g id="grb">
			<circle id="XMLID_723_" class="st7" cx="664.1" cy="160.2" r="14"/>
			<g id="XMLID_1517_">
				<path id="XMLID_1518_" d="M655.6,156.3l-0.2,0.6l0,0c0,0,0,0,0,0l-0.2,0.5c0,0.1-0.1,0.2-0.1,0.2s-0.1,0.1-0.2,0.2
					c-0.1,0-0.2,0.1-0.3,0.1c-0.1,0-0.2,0-0.3,0l-1.9-0.6c-0.1,0-0.2-0.1-0.2-0.1c-0.1-0.1-0.1-0.1-0.2-0.2c0-0.1-0.1-0.2-0.1-0.3
					c0-0.1,0-0.2,0-0.3l0.1-0.4c0-0.1,0.1-0.2,0.1-0.2c0.1-0.1,0.1-0.1,0.2-0.2c0.1,0,0.2-0.1,0.3-0.1c0.1,0,0.2,0,0.3,0l0.3,0.1
					l-0.2,0.6l-0.3-0.1c0,0,0,0-0.1,0c0,0,0,0,0,0l-0.1,0.4c0,0,0,0,0,0.1c0,0,0,0,0.1,0l1.9,0.6c0,0,0,0,0.1,0c0,0,0,0,0-0.1
					l0.1-0.4c0,0,0,0,0-0.1c0,0,0,0,0,0l-0.4-0.1l-0.1,0.4l-0.6-0.2l0.3-1L655.6,156.3z"/>
				<path id="XMLID_1520_" d="M656.9,154.4l-1-0.3l-0.1,0.1l0.8,0.6l-0.4,0.5l-2.7-2.1l0.7-0.9c0.1-0.1,0.1-0.1,0.2-0.2
					s0.2-0.1,0.3-0.1c0.1,0,0.2,0,0.3,0c0.1,0,0.2,0.1,0.3,0.1l0.7,0.5c0.1,0.1,0.2,0.2,0.2,0.3c0,0.1,0.1,0.3,0,0.4l1.1,0.4
					L656.9,154.4z M654.3,153.1l0.9,0.7l0.3-0.4c0,0,0-0.1,0-0.1c0,0,0-0.1,0-0.1l-0.7-0.5c0,0-0.1,0-0.1,0s-0.1,0-0.1,0
					L654.3,153.1z"/>
				<path id="XMLID_1523_" d="M656.2,150.3l0.9-0.6c0.1-0.1,0.2-0.1,0.3-0.1c0.1,0,0.2,0,0.3,0s0.2,0.1,0.3,0.1
					c0.1,0.1,0.2,0.1,0.2,0.2l0.2,0.4c0,0.1,0.1,0.1,0.1,0.2s0,0.1,0,0.2c0.1,0,0.1,0.1,0.2,0.1c0.1,0,0.1,0.1,0.2,0.2l0.4,0.5
					c0.1,0.1,0.1,0.2,0.1,0.3s0,0.2,0,0.3s0,0.2-0.1,0.3c-0.1,0.1-0.1,0.2-0.2,0.2l-0.9,0.6L656.2,150.3z M657,150.4l0.4,0.6
					l0.4-0.3c0,0,0,0,0-0.1c0,0,0-0.1,0-0.1l-0.2-0.4c0,0,0,0-0.1,0s-0.1,0-0.1,0L657,150.4z M657.8,151.5l0.5,0.7l0.4-0.3
					c0,0,0,0,0-0.1c0,0,0-0.1,0-0.1l-0.4-0.5c0,0,0,0-0.1,0c0,0-0.1,0-0.1,0L657.8,151.5z"/>
				<path id="XMLID_1527_" d="M663.3,150.9l-0.6,0l-0.1-3.4l0.6,0l0.1,1.5l0.7-1.6l0.7,0l-0.7,1.7l0.9,1.7l-0.7,0l-0.5-0.9l-0.3,0.6
					L663.3,150.9z"/>
				<path id="XMLID_1529_" d="M666.9,147.8l0.6,0.2l-0.8,2.7l1.1,0.3l-0.2,0.6l-1.7-0.5L666.9,147.8z"/>
				<path id="XMLID_1531_" d="M669.5,151.8C669.5,151.8,669.5,151.8,669.5,151.8c0,0.1,0,0.1,0,0.2l0.3,0.2c0,0,0.1,0,0.1,0
					c0,0,0.1,0,0.1,0l1.5-2.2l0.5,0.3l-1.5,2.2c-0.1,0.1-0.1,0.1-0.2,0.2c-0.1,0-0.2,0.1-0.3,0.1c-0.1,0-0.2,0-0.3,0
					c-0.1,0-0.2-0.1-0.3-0.1l-0.3-0.2c-0.1-0.1-0.1-0.1-0.2-0.2c-0.1-0.1-0.1-0.2-0.1-0.3s0-0.2,0-0.3c0-0.1,0.1-0.2,0.1-0.3
					l1.5-2.2l0.5,0.3L669.5,151.8z"/>
				<path id="XMLID_1533_" d="M673.6,151.8l0.7,0.9c0.1,0.1,0.1,0.2,0.1,0.3s0,0.2,0,0.3s0,0.2-0.1,0.3c0,0.1-0.1,0.2-0.2,0.2
					l-0.3,0.3c-0.1,0-0.1,0.1-0.2,0.1c-0.1,0-0.1,0-0.2,0c0,0.1-0.1,0.1-0.1,0.2c0,0.1-0.1,0.1-0.2,0.2l-0.5,0.4
					c-0.1,0.1-0.2,0.1-0.3,0.1c-0.1,0-0.2,0-0.3,0s-0.2,0-0.3-0.1c-0.1,0-0.2-0.1-0.2-0.2l-0.6-0.9L673.6,151.8z M672.5,153.5
					l-0.7,0.5l0.3,0.4c0,0,0,0,0.1,0c0,0,0.1,0,0.1,0l0.5-0.4c0,0,0,0,0-0.1c0,0,0-0.1,0-0.1L672.5,153.5z M673.5,152.7l-0.5,0.4
					l0.3,0.4c0,0,0,0,0.1,0c0,0,0.1,0,0.1,0l0.3-0.3c0,0,0,0,0-0.1c0,0,0-0.1,0-0.1L673.5,152.7z"/>
				<path id="XMLID_1537_" d="M675.1,155.5c0.1,0,0.2,0,0.3,0c0.1,0,0.2,0,0.3,0.1c0.1,0,0.2,0.1,0.2,0.2s0.1,0.2,0.2,0.3l0.1,0.3
					c0,0.1,0,0.2,0,0.3s0,0.2-0.1,0.3c0,0.1-0.1,0.2-0.2,0.2c-0.1,0.1-0.2,0.1-0.3,0.1l-2.5,0.9l-0.2-0.6l0.8-0.3l-0.2-0.5l-0.8,0.3
					l-0.2-0.6L675.1,155.5z M674.1,156.5l0.2,0.5l1.2-0.4c0,0,0.1,0,0.1-0.1s0-0.1,0-0.1l-0.1-0.3c0,0,0-0.1-0.1-0.1
					c0,0-0.1,0-0.1,0L674.1,156.5z"/>
			</g>
			<g id="XMLID_721_">
				<path id="XMLID_722_" d="M652.2,165.2l-0.2-0.6l0,0c0,0,0,0,0,0l-0.2-0.5c0-0.1,0-0.2,0-0.3c0-0.1,0-0.2,0.1-0.3
					c0-0.1,0.1-0.1,0.2-0.2c0.1-0.1,0.2-0.1,0.3-0.1l1.9-0.6c0.1,0,0.2,0,0.3,0c0.1,0,0.2,0,0.3,0.1c0.1,0,0.2,0.1,0.2,0.2
					c0.1,0.1,0.1,0.1,0.1,0.2l0.1,0.4c0,0.1,0,0.2,0,0.3c0,0.1,0,0.2-0.1,0.3c0,0.1-0.1,0.2-0.2,0.2s-0.2,0.1-0.2,0.1l-0.3,0.1
					l-0.2-0.6l0.3-0.1c0,0,0,0,0,0c0,0,0,0,0-0.1l-0.1-0.4c0,0,0,0-0.1,0c0,0,0,0-0.1,0l-1.9,0.6c0,0,0,0-0.1,0c0,0,0,0,0,0.1
					l0.1,0.4c0,0,0,0,0,0c0,0,0,0,0.1,0l0.4-0.1l-0.1-0.4l0.6-0.2l0.3,1L652.2,165.2z"/>
				<path id="XMLID_1541_" d="M654.1,168.2l0.6-0.9l-0.1-0.1l-0.8,0.6l-0.4-0.5l2.7-2.1l0.7,0.9c0.1,0.1,0.1,0.2,0.1,0.3
					s0,0.2,0,0.3s0,0.2-0.1,0.3c0,0.1-0.1,0.2-0.2,0.2l-0.7,0.5c-0.1,0.1-0.2,0.1-0.4,0.1c-0.1,0-0.3,0-0.4-0.1l-0.6,1L654.1,168.2z
					 M655.9,166.1l-0.9,0.7l0.3,0.4c0,0,0,0,0.1,0s0.1,0,0.1,0l0.7-0.5c0,0,0,0,0-0.1c0,0,0-0.1,0-0.1L655.9,166.1z"/>
				<path id="XMLID_1544_" d="M658.1,167.6l0.9,0.6c0.1,0.1,0.1,0.1,0.2,0.2c0.1,0.1,0.1,0.2,0.1,0.3c0,0.1,0,0.2,0,0.3
					s-0.1,0.2-0.1,0.3l-0.2,0.4c0,0.1-0.1,0.1-0.2,0.2c-0.1,0-0.1,0.1-0.2,0.1c0,0.1,0,0.1,0,0.2c0,0.1-0.1,0.1-0.1,0.2l-0.4,0.5
					c-0.1,0.1-0.1,0.1-0.2,0.2s-0.2,0.1-0.3,0.1c-0.1,0-0.2,0-0.3,0c-0.1,0-0.2-0.1-0.3-0.1l-0.9-0.6L658.1,167.6z M657.5,169.5
					l-0.5,0.7l0.4,0.3c0,0,0.1,0,0.1,0s0.1,0,0.1,0l0.4-0.5c0,0,0-0.1,0-0.1c0,0,0-0.1,0-0.1L657.5,169.5z M658.2,168.4l-0.4,0.6
					l0.4,0.3c0,0,0.1,0,0.1,0c0,0,0.1,0,0.1-0.1l0.2-0.4c0,0,0-0.1,0-0.1c0,0,0-0.1-0.1-0.1L658.2,168.4z"/>
				<path id="XMLID_1548_" d="M663,173l-0.6,0l0.2-3.4l0.6,0l-0.1,1.5l0.8-1.5l0.7,0l-0.9,1.6l0.7,1.7l-0.7,0l-0.4-1l-0.3,0.6
					L663,173z"/>
				<path id="XMLID_1550_" d="M665.9,169.5l0.6-0.2l0.8,2.7l1.1-0.3l0.2,0.6l-1.7,0.5L665.9,169.5z"/>
				<path id="XMLID_1552_" d="M670.7,170.4C670.7,170.4,670.7,170.4,670.7,170.4c0.1,0.1,0.1,0,0.2,0l0.3-0.2c0,0,0,0,0-0.1
					c0,0,0-0.1,0-0.1l-1.5-2.2l0.5-0.3l1.5,2.2c0.1,0.1,0.1,0.2,0.1,0.3c0,0.1,0,0.2,0,0.3c0,0.1,0,0.2-0.1,0.3
					c-0.1,0.1-0.1,0.2-0.2,0.2l-0.3,0.2c-0.1,0.1-0.2,0.1-0.3,0.1c-0.1,0-0.2,0-0.3,0s-0.2-0.1-0.3-0.1c-0.1-0.1-0.2-0.1-0.2-0.2
					l-1.5-2.2l0.5-0.3L670.7,170.4z"/>
				<path id="XMLID_1554_" d="M671.1,166.6l0.6-0.9c0.1-0.1,0.1-0.1,0.2-0.2s0.2-0.1,0.3-0.1s0.2,0,0.3,0c0.1,0,0.2,0.1,0.3,0.1
					l0.3,0.3c0.1,0,0.1,0.1,0.2,0.2s0.1,0.1,0.1,0.2c0.1,0,0.1,0,0.2,0c0.1,0,0.1,0.1,0.2,0.1l0.5,0.4c0.1,0.1,0.1,0.1,0.2,0.2
					c0,0.1,0.1,0.2,0.1,0.3c0,0.1,0,0.2,0,0.3c0,0.1-0.1,0.2-0.1,0.3l-0.6,0.9L671.1,166.6z M671.9,166.5l0.5,0.4l0.3-0.4
					c0,0,0-0.1,0-0.1c0,0,0-0.1,0-0.1l-0.3-0.3c0,0-0.1,0-0.1,0c0,0-0.1,0-0.1,0L671.9,166.5z M673,167.3l0.7,0.5l0.3-0.4
					c0,0,0-0.1,0-0.1c0,0,0-0.1,0-0.1l-0.5-0.4c0,0-0.1,0-0.1,0s-0.1,0-0.1,0L673,167.3z"/>
				<path id="XMLID_1558_" d="M673.4,164.3c-0.1,0-0.2-0.1-0.2-0.1c-0.1-0.1-0.1-0.1-0.2-0.2c0-0.1-0.1-0.2-0.1-0.3s0-0.2,0-0.3
					l0.1-0.3c0-0.1,0.1-0.2,0.1-0.2c0.1-0.1,0.1-0.1,0.2-0.2s0.2-0.1,0.3-0.1c0.1,0,0.2,0,0.3,0l2.5,0.8l-0.2,0.6l-0.8-0.3l-0.2,0.5
					l0.8,0.3l-0.2,0.6L673.4,164.3z M674.8,164.1l0.2-0.5l-1.2-0.4c0,0-0.1,0-0.1,0c0,0-0.1,0-0.1,0.1l-0.1,0.3c0,0,0,0.1,0,0.1
					c0,0,0,0.1,0.1,0.1L674.8,164.1z"/>
			</g>
			<circle id="XMLID_718_" cx="652.7" cy="160.1" r="0.8"/>
			<circle id="XMLID_717_" cx="675.1" cy="160.1" r="0.8"/>
			<g id="XMLID_685_">
				<g id="XMLID_689_">
					<g id="XMLID_693_">
						<g id="XMLID_694_">
							<circle id="XMLID_716_" class="st8" cx="664.1" cy="160.1" r="6.3"/>
							<path id="XMLID_715_" class="st9" d="M658.9,159.5c0,0-0.4,0.7-0.5,1.7c-0.1,0.5-0.1,0.7,0.3,1.2c0.7,1,1,1.3,1.2,1.2
								c0.2,0,1.4-0.3,1.7-0.4c0.2-0.1,0.2-0.1,0.3-0.6c0.1-0.4,0.3-1,0.3-1.4c0-0.3,0-0.3-0.3-0.7c-0.3-0.4-1-1.3-1.1-1.5
								c-0.1-0.2-0.2-0.1-0.5-0.1c-0.3,0.1-0.8,0.2-1.1,0.2C658.9,159.4,658.9,159.4,658.9,159.5z"/>
							<path id="XMLID_714_" class="st9" d="M659.4,156.1c0,0-0.3,0.4-0.6,0.9c-0.2,0.3-0.1,0.7,0,1.5c0.1,0.8,0.2,0.8,0.5,0.7
								c0.3-0.1,1.1-0.2,1.3-0.3c0.2,0,0.4-0.4,0.6-0.7c0.2-0.3,1-1.4,1.2-1.5c0.2-0.1,0.1-0.3,0.1-0.6c0-0.4-0.2-1.1-0.3-1.1
								c-0.1,0-0.9,0-1.1,0C660.7,154.8,659.9,155.4,659.4,156.1z"/>
							<path id="XMLID_713_" class="st9" d="M662.3,161.3c0,0-0.3,1.2-0.4,1.7c0,0.3-0.1,0.3,0.5,0.7c0.6,0.4,0.8,0.6,1,0.7
								c0.2,0.1,0.3,0.1,0.9,0c0.5-0.1,1-0.2,1.3-0.3c0.2-0.1,0.5-0.8,0.7-1.3c0.2-0.5,0.3-0.9,0.1-1.1c-0.2-0.2-0.5-0.4-0.8-0.7
								c-0.3-0.2-0.6-0.5-0.8-0.5c-0.1,0.1-1.5,0.4-2,0.5C662.5,161.1,662.3,161.2,662.3,161.3z"/>
							<path id="XMLID_712_" class="st9" d="M663.4,166.1c0,0,0.2-1,0.3-1.3c0-0.3,0.1-0.3,0.5-0.3c0.4-0.1,1.3-0.3,1.5-0.4
								c0.2-0.1,0.3-0.1,0.6,0.1c0.3,0.2,0.9,0.7,1.2,0.9c0.2,0.1-0.6,0.6-1.5,0.9C664.7,166.3,663.3,166.3,663.4,166.1z"/>
							<path id="XMLID_711_" class="st9" d="M662.5,156.4c0,0-0.1-0.7-0.2-1.2c0-0.4,0-0.4,0.5-0.6c0.5-0.2,1.8-0.5,2.1-0.5
								c0.3,0,0.6,0.1,1.3,0.4c0.7,0.3,0.9,0.5,0.9,0.7c0,0.2,0.1,1.1,0.1,1.6c0,0.3-0.1,0.3-0.6,0.5c-0.5,0.2-1,0.4-1.1,0.5
								c-0.2,0.1-0.4-0.1-0.9-0.4c-0.4-0.3-1.3-0.6-1.6-0.7C662.6,156.5,662.5,156.5,662.5,156.4z"/>
							<path id="XMLID_710_" class="st9" d="M665.4,158c0,0-0.3,1.2-0.4,1.8c-0.1,0.6-0.1,0.7,0.3,0.9c0.3,0.3,0.7,0.6,1,0.8
								c0.2,0.2,0.3,0.3,1,0.2c0.8-0.2,1.1-0.3,1.3-0.4c0.3-0.1,0.3-0.2,0.4-0.7s0.2-1.2,0.2-1.6c0-0.4,0-0.4-0.3-0.8
								c-0.3-0.3-0.9-0.8-1.1-1c-0.2-0.2-0.4-0.2-0.7-0.1c-0.3,0.1-1,0.4-1.3,0.5C665.5,157.8,665.4,157.8,665.4,158z"/>
							<path id="XMLID_709_" class="st9" d="M669.9,158.5c0,0-0.4,0.1-0.5,0.2c-0.1,0.1-0.1,0.5-0.2,0.9c0,0.4-0.2,1.2-0.3,1.5
								c-0.1,0.2,0.2,0.3,0.4,0.6c0.3,0.5,0.5,0.7,0.5,0.7c0.1-0.1,0.5-1,0.5-2.6C670.2,159.1,670.1,158.4,669.9,158.5z"/>
							<path id="XMLID_708_" class="st9" d="M658.2,161.9c0,0,0.1-0.2,0.1-0.1c0.1,0.1,0.6,1.1,1.1,1.6c0.2,0.2,0.2,0.2,0.2,0.5
								c0,0.3,0,0.4-0.2,0.2S658.4,162.9,658.2,161.9z"/>
							<path id="XMLID_707_" class="st9" d="M665.4,153.9c0,0-0.1,0-0.1,0c0,0,0.2,0.1,0.5,0.3c0.4,0.2,0.9,0.4,1.2,0.6
								c0.2,0.1,0.2,0.1,0.4,0.1c0.1-0.1,0.2-0.1,0-0.2C667.1,154.6,666.1,154.1,665.4,153.9z"/>
							<path id="XMLID_706_" class="st10" d="M665.2,164.3c0,0-0.8,0.2-1.3,0.3c-0.3,0-0.3,0.6-0.4,1.2c0,0,0.2-0.7,0.3-1
								C663.9,164.6,664.3,164.7,665.2,164.3z"/>
							<path id="XMLID_705_" class="st9" d="M659.7,155.9c0,0,0.7-0.7,1-0.9c0.3-0.2,1.4-0.1,1.4-0.1s-0.8,0-1.1,0
								C660.6,155,659.7,155.9,659.7,155.9z"/>
							<path id="XMLID_704_" class="st9" d="M663.6,154.4c0,0,1.1-0.3,1.4-0.3c0.3,0,1,0.3,1.8,0.7c-0.8-0.4-1.5-0.6-1.7-0.6
								C664.8,154.2,663.6,154.4,663.6,154.4z"/>
							<path id="XMLID_703_" class="st9" d="M659.5,159.3c0,0,1-0.3,1.1-0.2c0.1,0,1.3,1.6,1.3,1.6s-1-1.2-1.3-1.4
								C660.3,159.2,659.5,159.3,659.5,159.3z"/>
							
								<linearGradient id="XMLID_66_" gradientUnits="userSpaceOnUse" x1="666.8533" y1="160.1332" x2="669.166" y2="158.6497" gradientTransform="matrix(1 -1.800000e-003 1.800000e-003 1 -0.141 1.0156)">
								<stop  offset="0.2851" style="stop-color:#9E9E9E"/>
								<stop  offset="0.3829" style="stop-color:#AAAAAA"/>
								<stop  offset="0.559" style="stop-color:#CACAC9"/>
								<stop  offset="0.6938" style="stop-color:#E6E6E5"/>
								<stop  offset="0.7298" style="stop-color:#EAEAEA"/>
								<stop  offset="0.87" style="stop-color:#F8F8F7"/>
								<stop  offset="1" style="stop-color:#FFFFFF"/>
							</linearGradient>
							<path id="XMLID_702_" class="st39" d="M668.1,157.7c0,0,0.7,0.6,0.9,0.8c0.2,0.2,0.2,0.2,0,1.7c0.1-0.9,0.1-1.3,0-1.5
								C668.8,158.4,668.1,157.7,668.1,157.7z"/>
							<g id="XMLID_695_">
								<path id="XMLID_701_" class="st9" d="M662.1,161.9c0,0-0.2,0.7-0.2,1c-0.1,0.3-0.4,0.3-1.2,0.4c0.8-0.3,1-0.3,1.1-0.5
									C661.8,162.7,662.1,161.9,662.1,161.9z"/>
								<path id="XMLID_700_" class="st9" d="M662.1,162.4c0,0,0.2-0.7,0.2-1c0.1-0.3,0.6-0.3,1.2-0.5c0,0-0.5,0.2-0.9,0.3
									C662.3,161.4,662.3,161.8,662.1,162.4z"/>
								<path id="XMLID_699_" class="st9" d="M662.4,163.6c0,0,0.6,0.4,0.9,0.6c0.3,0.2,0.4,0.2,1.1,0c0.7-0.2,0.9-0.2,0.9-0.2
									s-1,0.2-1.5,0.2C663.3,164.3,662.4,163.6,662.4,163.6z"/>
								<path id="XMLID_698_" class="st9" d="M665.1,160c0,0,0.3-1.5,0.4-1.9c0.1-0.4,0.7-0.6,1.4-0.8c0,0-0.8,0.4-1.1,0.6
									C665.5,158.1,665.5,158.3,665.1,160z"/>
								<path id="XMLID_697_" class="st9" d="M665.7,161.2c0,0,0.5,0.4,0.6,0.5c0.1,0.1,0.1,0.5-0.3,1.6c0.2-0.7,0.5-1.3,0.2-1.6
									C665.9,161.5,665.7,161.2,665.7,161.2z"/>
								<path id="XMLID_696_" class="st9" d="M658.7,162.6c0,0,0.4,0.5,0.6,0.8c0.2,0.2,0.3,0.3,0.3,0.7c0-0.3-0.1-0.4-0.2-0.6
									C659.3,163.4,658.7,162.6,658.7,162.6z"/>
							</g>
						</g>
					</g>
					<path id="XMLID_690_" class="st12" d="M664.1,153.8c-3.5,0-6.2,2.8-6.2,6.3c0,3.5,2.8,6.2,6.3,6.2c3.5,0,6.2-2.8,6.2-6.3
						C670.3,156.6,667.5,153.8,664.1,153.8z M664,165c-3.2,0-5.7-2.4-5.7-5.4c0-3,2.5-5.4,5.7-5.4c3.2,0,5.7,2.4,5.7,5.4
						C669.7,162.6,667.2,165,664,165z"/>
				</g>
				<g id="XMLID_686_">
					
						<ellipse id="XMLID_688_" transform="matrix(0.7632 -0.6461 0.6461 0.7632 55.1855 465.4171)" class="st13" cx="662.6" cy="157.4" rx="0.6" ry="0.5"/>
					
						<ellipse id="XMLID_687_" transform="matrix(0.7632 -0.6461 0.6461 0.7632 54.3974 465.0665)" class="st13" cx="661.8" cy="158.3" rx="0.3" ry="0.2"/>
				</g>
			</g>
		</g>
		<g id="linije_1_">
			<g id="XMLID_749_">
				<g id="XMLID_876_">
					<path id="XMLID_879_" class="st22" d="M521.9,390.4c-0.1,0.4,0.1,0.9,0.4,1.4"/>
					<path id="XMLID_878_" class="st40" d="M524.6,393.7c0.1,0.1,0.3,0.1,0.4,0.1c1.2,0.3,6.3,0.3,9.5,0.8s6.7,0.9,10.7,1.7
						c4,0.8,15,1.1,21.4,0.9c6.4-0.1,16.4,0.5,20.7,0.8s21.4,0.7,25.5,0.6c3.8-0.1,6.2-0.3,6.5-0.4c0.7,0.1,3,0.3,6.4,0.4
						c4.1,0.1,21.2-0.3,25.5-0.6c4.3-0.3,14.3-0.9,20.7-0.8c6.4,0.1,17.4-0.2,21.4-0.9c4-0.8,7.4-1.3,10.7-1.7
						c3.3-0.4,8.4-0.4,9.5-0.8c0.4-0.1,1.1-0.5,1.6-1"/>
					<path id="XMLID_877_" class="st22" d="M716.2,391.7c0.4-0.5,0.6-1,0.4-1.4"/>
				</g>
			</g>
			<g id="XMLID_743_">
				<g id="XMLID_803_">
					<path id="XMLID_806_" class="st22" d="M522.3,388.4c-0.1,0.4,0.1,0.9,0.4,1.4"/>
					<path id="XMLID_805_" class="st41" d="M525,391.7c0.1,0.1,0.3,0.1,0.4,0.1c1.2,0.3,6.3,0.3,9.5,0.8c3.2,0.4,6.7,0.9,10.7,1.7
						c4,0.8,14.9,1.1,21.3,0.9c6.4-0.1,16.3,0.5,20.6,0.8s21.3,0.7,25.4,0.6c3.8-0.1,6.2-0.3,6.5-0.4c0.7,0.1,2.9,0.3,6.3,0.4
						c4.1,0.1,21.1-0.3,25.4-0.6c4.3-0.3,14.2-0.9,20.6-0.8s17.3-0.2,21.3-0.9s7.4-1.3,10.7-1.7s8.3-0.4,9.5-0.8
						c0.4-0.1,1.1-0.5,1.6-1"/>
					<path id="XMLID_804_" class="st22" d="M715.7,389.7c0.4-0.5,0.6-1,0.4-1.4"/>
				</g>
			</g>
			<g id="XMLID_777_">
				<g id="XMLID_1490_">
					<path id="XMLID_1493_" class="st22" d="M772.1,154.4c0,0.2-0.3,0.7-0.7,1.3"/>
					<path id="XMLID_1492_" class="st42" d="M769.9,158.4c-1,1.7-2.2,3.5-3,4.5c-1.7,2-7.3,7.7-10.6,10.9c-3.3,3.2-6.1,9.8-7.1,13.3
						c-0.7,2.4-3.7,6.8-5.9,9.4"/>
					<path id="XMLID_1491_" class="st22" d="M742.2,197.6c-0.5,0.5-0.9,0.8-1.2,0.9"/>
				</g>
			</g>
			<g id="XMLID_776_">
				<g id="XMLID_1485_">
					<path id="XMLID_1488_" class="st22" d="M769.8,152.9c0,0.2-0.3,0.7-0.7,1.3"/>
					<path id="XMLID_1487_" class="st43" d="M767.6,156.9c-1.1,1.7-2.3,3.6-3.1,4.6c-1.7,2.1-7.4,7.9-10.8,11.1
						c-3.4,3.2-6.2,9.9-7.2,13.4c-0.7,2.5-3.8,6.9-6,9.5"/>
					<path id="XMLID_1486_" class="st22" d="M739.5,196.6c-0.5,0.5-0.9,0.8-1.2,0.9"/>
				</g>
			</g>
			<path id="XMLID_779_" class="st18" d="M464.2,155.1c0.2,0.8,3.5,6.4,5.2,8.4c1.7,2,7.3,7.7,10.6,10.9c3.3,3.2,6.1,9.8,7.1,13.3
				c1,3.5,6.6,10.8,8.1,11.4"/>
			<path id="XMLID_778_" class="st18" d="M466.5,153.6c0.2,0.8,3.6,6.5,5.3,8.6c1.7,2.1,7.4,7.9,10.8,11.1c3.4,3.2,6.2,9.9,7.2,13.4
				c1,3.5,6.7,11,8.2,11.6"/>
			<g id="XMLID_1442_">
				<g id="XMLID_1481_">
					<path id="XMLID_1484_" class="st22" d="M699.7,174.4c-0.2,0.5-0.3,0.9-0.4,1.4"/>
					<path id="XMLID_1483_" class="st44" d="M698.5,178.7c-0.8,3.3-1.4,6.6-1.5,8.7c-0.4,4.6-0.4,14.5-0.4,22.1
						c-0.1,7.6,0.6,28.3,1.2,33.5c0.6,5.2,0.4,36.9,0.5,40.4c0.1,3.5,1.2,6.4,2,9.2c0.8,2.7-0.9,16.7-0.9,20.8
						c0,4,0.2,15.9,0.2,18.3c0,2.5,1.9,13.7,2,17.9c0.1,4.2,1.5,17,1.8,18.8c0.3,1.8,0.1,7.3,0.4,12.2c0.2,2.5,2,9.6,3.7,16"/>
					<path id="XMLID_1482_" class="st22" d="M707.9,398c0.1,0.5,0.3,1,0.4,1.4"/>
				</g>
			</g>
			<g id="XMLID_1469_">
				<g id="XMLID_1476_">
					<path id="XMLID_1479_" class="st22" d="M538,174.8c0.1,0.5,0.3,0.9,0.4,1.4"/>
					<path id="XMLID_1478_" class="st45" d="M539.2,179.1c0.8,3.4,1.5,6.9,1.6,9c0.4,4.6,0.4,14.5,0.4,22c0.1,7.5-0.6,28.2-1.2,33.4
						c-0.6,5.2-0.4,36.7-0.5,40.3c-0.1,3.5-1.2,6.4-2,9.1c-0.8,2.7,0.9,16.7,0.9,20.7s-0.2,15.8-0.2,18.3c0,2.4-1.9,13.7-2,17.8
						c-0.1,4.2-1.5,17-1.8,18.8s-0.1,7.3-0.4,12.2c-0.2,2.5-2,9.5-3.7,15.9"/>
					<path id="XMLID_1477_" class="st22" d="M529.9,398c-0.1,0.5-0.3,1-0.4,1.4"/>
				</g>
			</g>
			<line id="XMLID_757_" class="st18" x1="619" y1="95.8" x2="619" y2="132.3"/>
			<g id="XMLID_735_">
				<path id="XMLID_737_" class="st14" d="M535.6,398.8c5.9,1.1,7.9,1.5,14.4,2.4s14.8,2.4,17.6,2.4s12,0.8,16,0.9s12.4,0.5,15.1,1
					s10,2.4,13.3,2.4s7.2,0,7.2,0"/>
				<path id="XMLID_736_" class="st14" d="M704.3,398.7c-0.5,0.1-1,0-1.5,0.1c-5.9,1.1-7.9,1.5-14.4,2.4s-14.8,2.4-17.6,2.4
					s-12,0.8-16,0.9s-12.4,0.5-15.1,1s-10,2.4-13.3,2.4s-7.2,0-7.2,0"/>
			</g>
			<g id="XMLID_732_">
				<path id="XMLID_734_" class="st14" d="M567.6,401.6c2.9,0,12,0.8,16,0.9s12.4,0.5,15.1,1s10,2.4,13.3,2.4s7.2,0,7.2,0"/>
				<path id="XMLID_733_" class="st14" d="M670.8,401.6c-2.9,0-12,0.8-16,0.9s-12.4,0.5-15.1,1s-10,2.4-13.3,2.4s-7.2,0-7.2,0"/>
			</g>
			<path id="XMLID_780_" class="st4" d="M770.6,152.5c-5.6-3.6-17.2-10.3-19.1-11.8s-7.1-4.3-7.9-4.7s-4.6-2.5-4.9-3.2
				s-1.6-1.8-2.6-2.1s-7.9-3.9-10.2-5.2s-13.8-7.6-14.6-8.3s-3.8-3.9-6.1-4.8s-5.4-3.3-12.6-5.1s-18.9-5.8-20-6.3s-3.2-2.5-4.4-2.4
				s-5.6-0.4-7.9-1.4s-7.7-3.3-8.5-3.7c-0.8-0.4-2.3-2.1-4-2.6s-4.3,0.2-6.8,1.3S625.6,96,619,95.8v0c-6.6,0.1-19.1-2.3-21.7-3.4
				c-2.6-1.1-5.1-1.8-6.8-1.3s-3.2,2.1-4,2.6s-6.1,2.8-8.5,3.7s-6.8,1.5-7.9,1.4s-3.3,1.9-4.4,2.4s-12.8,4.5-20,6.3
				s-10.3,4.1-12.6,5.1s-5.2,4.1-6.1,4.8s-12.4,7.1-14.6,8.3c-2.3,1.3-9.3,4.9-10.2,5.2s-2.3,1.4-2.6,2.1s-4.1,2.8-4.9,3.2
				s-6,3.2-7.9,4.7s-13.6,8.2-19.1,11.8s-8.3,5.8-8.3,5.8c0.2,0.8,3.4,6.3,5.1,8.3s7.1,7.6,10.4,10.7s5.9,9.6,6.9,12.9
				s6.4,10.6,7.9,11.1s5.9-1.9,12.6-5.1s16.9-4.6,18.6-5.2s5.1-2.5,7.4-3.7c1.7,1.4,4,11.3,4.3,15.3s0.3,12.6,0.4,19.1
				s-0.5,24.5-1.1,29s-0.3,31.9-0.4,35s-1.1,5.6-1.8,7.9s0.8,14.5,0.8,18s-0.2,13.8-0.2,15.9s-1.7,11.9-1.8,15.5s-1.3,14.8-1.6,16.3
				s-0.1,6.3-0.4,10.6s-5.9,23.4-6.3,24.4s1.9,3.2,3.1,3.5s6.4,0.3,9.7,0.8s6.8,0.9,10.9,1.7s15.2,1.1,21.7,0.9s16.6,0.5,21,0.8
				s21.8,0.7,25.9,0.6c3.9-0.1,6.3-0.3,6.6-0.4c0.7,0.1,3,0.3,6.5,0.4c4.2,0.1,21.6-0.3,25.9-0.6c4.4-0.3,14.5-0.9,21-0.8
				s17.6-0.2,21.7-0.9s7.6-1.3,10.9-1.7s8.5-0.4,9.7-0.8s3.5-2.5,3.1-3.5s-6-20.1-6.3-24.4s-0.1-9-0.4-10.6s-1.5-12.7-1.6-16.3
				s-1.8-13.4-1.8-15.5s-0.2-12.4-0.2-15.9s1.4-15.6,0.8-18s-1.6-4.9-1.8-7.9s0.1-30.5-0.4-35s-1.1-22.4-1.1-29s0.1-15.1,0.4-19.1
				s2.6-13.9,4.3-15.3c2.3,1.2,5.6,3.1,7.4,3.7s11.9,2,18.6,5.2s11.1,5.6,12.6,5.1s6.9-7.8,7.9-11.1s3.7-9.8,6.9-12.9
				s8.8-8.7,10.4-10.7s4.9-7.5,5.1-8.3C778.9,158.3,776.2,156,770.6,152.5z"/>
			<path id="XMLID_775_" class="st3" d="M536,177.2c3.4-3.6,6.7-8.2,6.8-12.6c0.2-9.1-1.1-19.1,4.2-28.8s19.3-17.2,27.1-20.2
				c7.8-2.9,16.1-4.9,16.1-4.9"/>
			<path id="XMLID_774_" class="st18" d="M536.9,180.2c4-3.7,8-8.7,8.1-13.4c0.2-9.1-1.1-20.1,4.2-29.7c5.2-9.6,18.3-16.3,26.1-19.2
				c2.4-0.9,4.9-1.7,7.1-2.4"/>
			<path id="XMLID_773_" class="st18" d="M700.5,180.4c-4-3.8-8.3-8.9-8.4-13.6c-0.2-9.1,1.1-20.1-4.2-29.7s-18.3-16.3-26.1-19.2
				c-2.4-0.9-4.9-1.7-7.1-2.4"/>
			<path id="XMLID_772_" class="st4" d="M591.5,91c0,0-3.8,13.4-1.7,19.9"/>
			<path id="XMLID_771_" class="st3" d="M580.2,96.6c0,0-3.6,8.6-0.3,17.3"/>
			<path id="XMLID_770_" class="st3" d="M702.1,177.4c-3.5-3.7-6.9-8.5-7-13c-0.2-9.1,1.1-19.1-4.2-28.8s-19.3-17.2-27.1-20.2
				c-7.8-2.9-16.1-4.9-16.1-4.9"/>
			<path id="XMLID_769_" class="st4" d="M646.6,90.8c0,0,3.8,13.4,1.7,19.9"/>
			<path id="XMLID_768_" class="st3" d="M657.9,96.4c0,0,3.6,8.6,0.3,17.3"/>
			<path id="XMLID_767_" class="st4" d="M648.3,110.6c-1.6,12.2-14.1,21.7-29.2,21.7c-15.1,0-27.5-9.4-29.2-21.6"/>
			<path id="XMLID_766_" class="st18" d="M656.1,112.9c-2.6,14.7-18.2,26-37.1,26c-18.8,0-34.3-11.2-37-25.8"/>
			<path id="XMLID_765_" class="st3" d="M648.8,104.4c-1.7,0-4,0.6-6.2,1.5c-2.8,1.1-16.6,3.9-23.7,3.7v0
				c-7.2,0.1-20.7-2.5-23.4-3.7c-2.3-0.9-4.5-1.6-6.3-1.5"/>
			<g id="XMLID_764_">
				<g id="XMLID_763_">
					<path id="XMLID_1019_" class="st22" d="M648.6,101c-0.5,0-1,0.1-1.5,0.2"/>
					<path id="XMLID_1018_" class="st36" d="M644.2,102c-0.5,0.2-1,0.4-1.5,0.6c-2.4,1-13.3,3.2-20.7,3.6"/>
					<path id="XMLID_881_" class="st22" d="M620.4,106.2c-0.5,0-1,0-1.5,0v0c-0.5,0-1,0-1.5,0"/>
					<path id="XMLID_880_" class="st37" d="M614.4,106.1c-7.3-0.6-16.7-2.5-19-3.5c-1-0.4-2-0.8-3-1.1"/>
					<path id="XMLID_801_" class="st22" d="M591.1,101.2c-0.5-0.1-1-0.1-1.5-0.1"/>
				</g>
			</g>
			<path id="XMLID_742_" class="st4" d="M460.4,160.2c0,0,2.2,6.2,4,9.6s5.1,6.1,8.2,9.9s4.8,5.3,6.1,7.6s3,5.3,4.5,7.1
				s3.2,3.3,3.2,3.3"/>
			<path id="XMLID_741_" class="st4" d="M777,161.9c0,0-2.3,6.2-4.1,9.6c-1.8,3.4-5.2,6.1-8.3,9.9c-3.1,3.9-4.8,5.3-6.1,7.6
				c-1.3,2.3-3.1,5.3-4.6,7.1c-1.5,1.8-3.2,3.3-3.2,3.3"/>
			<g id="XMLID_738_">
				<path id="XMLID_740_" class="st4" d="M525.1,398.1c0,0,4.4,2.6,10.2,3.7s7.9,1.8,14.4,2.6s14.8,2.4,17.6,2.4s12,0.8,16,0.9
					s12.4,0.5,15.1,1s10,2.4,13.3,2.4s7.2,0,7.2,0"/>
				<path id="XMLID_739_" class="st4" d="M712.9,398.1c0,0-4.4,2.6-10.2,3.7s-7.9,1.8-14.4,2.6s-14.8,2.4-17.6,2.4s-12,0.8-16,0.9
					s-12.4,0.5-15.1,1s-10,2.4-13.3,2.4s-7.2,0-7.2,0"/>
			</g>
			<g id="XMLID_830_">
				<g id="XMLID_1466_">
					<path id="XMLID_1475_" class="st3" d="M536,176.9c1.4,4.2,2.6,10.2,2.8,13.2c0.4,4.6,0.4,14.3,0.4,21.8s-0.6,27.9-1.2,33.1
						c-0.6,5.1-0.4,36.4-0.5,39.9c-0.1,3.5-1.2,6.3-2,9c-0.8,2.7,0.9,16.5,0.9,20.5s-0.2,15.7-0.2,18.1s-1.9,13.5-2,17.7
						c-0.1,4.1-1.5,16.8-1.8,18.6s-0.1,7.2-0.4,12c-0.2,2.9-2.5,11.7-4.5,18.6"/>
					<path id="XMLID_1468_" class="st3" d="M485.9,197.3c1.5,0.6,5.9-1.9,12.6-5.1s16.9-4.6,18.6-5.2s5.1-2.5,7.4-3.7"/>
					<path id="XMLID_1467_" class="st3" d="M524.4,183.4c3-1.7,7.9-3.5,11.5-6.4"/>
				</g>
				<g id="XMLID_1452_">
					<path id="XMLID_1465_" class="st3" d="M701.6,176.9c-1.4,4.2-2.6,10.2-2.8,13.2c-0.4,4.6-0.4,14.3-0.4,21.8s0.6,27.9,1.2,33.1
						c0.6,5.1,0.4,36.4,0.5,39.9c0.1,3.5,1.2,6.3,2,9c0.8,2.7-0.9,16.5-0.9,20.5s0.2,15.7,0.2,18.1s1.9,13.5,2,17.7
						c0.1,4.1,1.5,16.8,1.8,18.6s0.1,7.2,0.4,12c0.2,2.9,2.5,11.7,4.5,18.6"/>
					<path id="XMLID_1459_" class="st3" d="M751.6,197.3c-1.5,0.6-5.9-1.9-12.6-5.1s-16.9-4.6-18.6-5.2s-5.1-2.5-7.4-3.7"/>
					<path id="XMLID_1453_" class="st3" d="M713.2,183.4c-3-1.7-7.9-3.5-11.5-6.4"/>
				</g>
			</g>
		</g>
	</g>
	<g id="ledja">
		<g id="senka" class="st20">
			<path id="XMLID_859_" class="st6" d="M382.5,170c0,0,1.6-0.8,2.8-3.6c0.4-1,0.5-2.1,0.6-3.2c0.2-1.1,0.6-2,1.2-2.9
				c0.7-1.1,1.7-2,2.6-2.9c1.2-1.2,2.4-2.3,3.7-3.3c1.9-1.4,3.3-2.3,3.3-2.3s-4.6,1.6-6.5,3.1c-1.3,1.1-2.8,1.9-3.9,3.1
				c-2,2.5-1.4,6.1-2.5,9C383.2,169,382.5,170,382.5,170z"/>
			<path id="XMLID_858_" class="st6" d="M403,178.4c0,0,1.6-1.5,2.5-4.4c0.3-1,0.2-1.9,0.3-2.9c0-1,0.3-1.9,0.9-3
				c0.7-1.3,1.5-2.5,2.4-3.7c1.1-1.6,2.3-3.1,3.6-4.6c1.9-2.2,3.3-3.6,3.3-3.6s-4.8,3.8-6.6,6c-1.2,1.5-2.8,3-3.8,4.6
				c-1.9,3.1-0.8,5.6-1.5,8.5C403.6,177.3,403,178.4,403,178.4z"/>
			<path id="XMLID_857_" class="st6" d="M412.6,140.8c-0.3,0.4-0.6,0.9-0.9,1.5c-0.5,1-0.5,1.9-0.7,2.8c-0.2,0.9-0.6,1.9-1.3,2.8
				c-0.8,1.2-1.9,2.3-3,3.3c-1.4,1.4-2.7,2.8-4.2,4.1c-2.2,1.9-3.8,3.1-3.8,3.1s5.3-3,7.4-5c1.5-1.3,3.2-2.6,4.4-4
				c2.3-2.7,1.6-5.3,2.7-8C413.1,141.2,412.9,141,412.6,140.8z"/>
			<path id="XMLID_856_" class="st6" d="M355.6,107.9c-0.4,0.9-0.9,1.8-1.4,2.6c-1.4,2.5-3.2,8.4-3.2,8.4s0.8-1.8,2.1-4.4
				c0.9-1.8,1.9-3.4,3-5.1c0.3-0.4,0.5-0.8,0.8-1.2C356.5,108.2,356,108.1,355.6,107.9z"/>
			<g id="XMLID_842_">
				<path id="XMLID_855_" class="st6" d="M140.6,156.1c0,0,0.3,2,2.7,4.1c0.9,0.8,1.9,1.2,3,1.7c1,0.5,1.9,1.3,2.5,2.2
					c0.8,1.1,1.5,2.4,2.1,3.7c0.8,1.6,1.5,3.3,2.1,5c0.8,2.5,1.2,4.2,1.2,4.2s-0.1-5.4-1-7.9c-0.6-1.7-0.9-3.5-1.9-5.1
					c-1.8-3-5.6-3.6-8.1-5.6C141.3,157.1,140.6,156.1,140.6,156.1z"/>
				<path id="XMLID_854_" class="st6" d="M153.7,157.3c0,0-0.1,1.9,1.8,4.4c0.7,0.9,1.6,1.5,2.5,2.3c0.9,0.7,1.5,1.6,2,2.6
					c0.6,1.2,0.9,2.6,1.2,3.9c0.4,1.7,0.8,3.3,1,5c0.2,2.5,0.3,4.1,0.3,4.1s1.1-4.9,0.7-7.4c-0.3-1.7-0.2-3.4-0.8-5.1
					c-1.1-3.1-4.7-4.5-6.7-7C154.2,158.3,153.7,157.3,153.7,157.3z"/>
				<g id="XMLID_843_">
					<path id="XMLID_853_" class="st6" d="M268,256.4c0,0,3.7,2.1,12.5,3.6c3.4,0.6,6.9,1.4,10.3,2.2c6.1,1.5,11.9,3.9,17.9,5.9
						c6.1,2,12.3,3.9,18.2,6.6c5.5,2.5,9.2,4.3,9.2,4.3c-2.6-1.9-5.4-3.7-8.2-5.3c-3.9-2.3-8-4.1-11.9-6.2
						c-3.4-1.9-6.6-4.3-10.2-5.6c-9.1-3.2-18.9-2.2-28.3-3.6C271.2,257.2,268,256.4,268,256.4z"/>
					<path id="XMLID_852_" class="st6" d="M239.3,271.2c0,0,5,2.3,16.4,3.3c4.5,0.4,9,1.1,13.5,1.7c8,1.2,15.8,3.8,23.6,5.6
						c8.1,1.9,16.2,3.7,24,6.5c7.4,2.7,12.3,4.5,12.3,4.5c-3.6-2.2-7.3-4.2-11.1-6c-5.2-2.5-10.7-4.4-16-6.8
						c-4.5-2.1-8.9-4.8-13.7-6.1c-12-3.2-24.5-0.8-36.7-1.6C243.6,272,239.3,271.2,239.3,271.2z"/>
					<g id="XMLID_850_">
						<path id="XMLID_851_" class="st21" d="M225,183.6c0,0,3.6,0.8,11.4,2c3.1,0.5,6.1,1.2,9,2c5.2,1.4,9.9,3.8,14.5,6.1
							c4.7,2.4,9.1,5,12.9,8.2c3.6,3,5.6,5.2,5.6,5.2c-1.4-1.9-3-3.8-4.7-5.5c-2.4-2.4-5.2-4.5-8-6.7c-2.4-1.9-4.7-4-7.6-5.4
							c-7.2-3.6-16-4.1-24.5-5C228.1,183.9,225,183.6,225,183.6z"/>
					</g>
					<path id="XMLID_849_" class="st21" d="M189.8,188.1c0.3-0.9,0.5-1.9,0.8-2.8c0.9-2.8,1.5-8.8,1.5-8.8s-0.5,1.9-1.3,4.7
						c-0.5,1.9-1.2,3.7-1.9,5.5c-0.2,0.4-0.4,0.9-0.5,1.3C188.9,188,189.4,188,189.8,188.1z"/>
					<path id="XMLID_848_" class="st21" d="M192.6,192.4c0.7-0.1,1.4-0.3,2-0.4c2-0.5,6.2-0.4,6.2-0.4s-1.4,0.2-3.4,0.6
						c-1.4,0.3-2.7,0.7-4.1,1.1c-0.3,0.1-0.7,0.2-1,0.3C192.5,193.2,192.6,192.8,192.6,192.4z"/>
					<path id="XMLID_847_" class="st21" d="M371.6,188.1c-0.3-0.9-0.5-1.9-0.8-2.8c-0.9-2.8-1.5-8.8-1.5-8.8s0.5,1.9,1.3,4.7
						c0.5,1.9,1.2,3.7,1.9,5.5c0.2,0.4,0.4,0.9,0.5,1.3C372.6,188,372.1,188,371.6,188.1z"/>
					<path id="XMLID_846_" class="st21" d="M368.9,192.5c-0.7-0.1-1.4-0.3-2-0.4c-2-0.5-6.2-0.4-6.2-0.4s1.4,0.2,3.4,0.6
						c1.4,0.3,2.7,0.7,4.1,1.1c0.3,0.1,0.7,0.2,1,0.3C369,193.2,368.9,192.8,368.9,192.5z"/>
					<path id="XMLID_845_" class="st6" d="M254.4,295.4c0,0,24.7,1.5,29.8,2.5c5.2,1,25.5,3.8,34.2,6c8.7,2.2,29,9.5,29,9.5
						s-22.5,5.8-30.7,8.8c-8.2,3-13.8,6-21.7,8.5s-22.3,9.2-26.2,11.3c-3.8,2.2-6.7,2.7-6.7,2.7s23.8-13.5,26.8-15.5s5-3.7,10.8-6
						c5.8-2.3,15.5-5.2,21.3-6c5.8-0.8,13.2-3.3,13.2-3.3s-14.5-5-26.3-7.3c-11.8-2.3-24.7-5.8-29.8-6.7
						C273,299.1,254.4,295.4,254.4,295.4z"/>
					<path id="XMLID_844_" class="st21" d="M273.6,178.1c2.2,2.3,5.8,2.7,8.4,4.6c1.6,1.1,2.8,2.7,4.5,3.7c0.9,0.5,1.8,0.9,2.7,1.4
						c1.7,1.2,2.8,3.1,4.3,4.5c1.5,1.3,3.3,2.1,5.2,2.8c3.5,1.3,7.2,2.4,11,2.2c-2.5-1.6-5.3-2.7-8.2-3.2c-1.9-0.3-4-0.5-5.6-1.7
						c-2-1.6-2.6-4.6-4.7-6.1c-1.6-1.1-3.8-1.2-5.1-2.5c-0.8-0.8-1.2-1.9-2.1-2.6c-0.8-0.6-1.8-0.8-2.8-1
						C278.7,179.6,276.1,178.6,273.6,178.1"/>
				</g>
			</g>
		</g>
		<g id="linije">
			<path id="XMLID_837_" class="st18" d="M434,154.2c-0.2,0.8-3.5,6.4-5.2,8.4c-1.7,2-7.3,7.7-10.6,10.9c-3.3,3.2-6.1,9.8-7.1,13.3
				c-1,3.5-6.6,10.8-8.1,11.4"/>
			<path id="XMLID_836_" class="st18" d="M431.7,152.6c-0.2,0.8-3.6,6.5-5.3,8.6c-1.7,2.1-7.4,7.9-10.8,11.1
				c-3.4,3.2-6.2,9.9-7.2,13.4c-1,3.5-6.7,11-8.2,11.6"/>
			<path id="XMLID_839_" class="st18" d="M125.8,155.1c0.2,0.8,3.5,6.4,5.2,8.4c1.7,2,7.3,7.7,10.6,10.9c3.3,3.2,6.1,9.8,7.1,13.3
				c1,3.5,6.6,10.8,8.1,11.4"/>
			<path id="XMLID_838_" class="st18" d="M128,153.6c0.2,0.8,3.6,6.5,5.3,8.6c1.7,2.1,7.4,7.9,10.8,11.1c3.4,3.2,6.2,9.9,7.2,13.4
				c1,3.5,6.7,11,8.2,11.6"/>
			<path id="XMLID_840_" class="st4" d="M373.8,398.4c1.2-0.8,2.3-0.5,2.7-0.6c1.2-0.3,3.5-2.5,3.1-3.5s-6-20.1-6.3-24.4
				s-0.1-9-0.4-10.6s-1.5-12.7-1.6-16.3s-1.8-13.4-1.8-15.5s-0.2-12.4-0.2-15.9s1.4-15.6,0.8-18s-1.6-4.9-1.8-7.9s0.1-30.5-0.4-35
				s-1.1-22.4-1.1-29s0.1-15.1,0.4-19.1s2.6-13.9,4.3-15.3c2.3,1.2,5.6,3.1,7.4,3.7s11.9,2,18.6,5.2s11.1,5.6,12.6,5.1
				s6.9-7.8,7.9-11.1s3.7-9.8,6.9-12.9s8.8-8.7,10.4-10.7s4.9-7.5,5.1-8.3c0,0-2.8-2.3-8.3-5.8S415,142.2,413,140.7
				s-7.1-4.3-7.9-4.7s-4.6-2.5-4.9-3.2s-1.6-1.8-2.6-2.1s-7.9-3.9-10.2-5.2s-13.8-7.6-14.6-8.3s-3.8-3.9-6.1-4.8s-5.4-3.3-12.6-5.1
				s-18.9-5.8-20-6.3s-3.2-2.5-4.4-2.4s-5.6-0.4-7.9-1.4s-7.7-3.3-8.5-3.7c-0.8-0.4-2.3-2.1-4-2.6s-4.3,0.2-6.8,1.3
				s-15.4,3.6-21.9,3.4v0c-6.6,0.1-19.1-2.3-21.7-3.4c-2.6-1.1-5.1-1.8-6.8-1.3s-3.2,2.1-4,2.6s-6.1,2.8-8.5,3.7s-6.8,1.5-7.9,1.4
				s-3.3,1.9-4.4,2.4s-12.8,4.5-20,6.3s-10.3,4.1-12.6,5.1s-5.2,4.1-6.1,4.8s-12.4,7.1-14.6,8.3s-9.3,4.9-10.2,5.2s-2.3,1.4-2.6,2.1
				s-4.1,2.8-4.9,3.2s-6,3.2-7.9,4.7s-13.6,8.2-19.1,11.8c-5.6,3.6-8.3,5.8-8.3,5.8c0.2,0.8,3.4,6.3,5.1,8.3s7.1,7.6,10.4,10.7
				s5.9,9.6,6.9,12.9s6.4,10.6,7.9,11.1s5.9-1.9,12.6-5.1s16.9-4.6,18.6-5.2s5.1-2.5,7.4-3.7c1.7,1.4,4,11.3,4.3,15.3
				s0.3,12.6,0.4,19.1s-0.5,24.5-1.1,29s-0.3,31.9-0.4,35s-1.1,5.6-1.8,7.9s0.8,14.5,0.8,18s-0.2,13.8-0.2,15.9s-1.7,11.9-1.8,15.5
				s-1.3,14.8-1.6,16.3s-0.1,6.3-0.4,10.6s-5.9,23.4-6.3,24.4s2,3,3.2,3.3c0.4,0.1,1.3,0.3,2.4,0.7"/>
			<path id="XMLID_835_" class="st4" d="M122,160.2c0,0,2.2,6.2,4,9.6s5.1,6.1,8.2,9.9s4.8,5.3,6.1,7.6s3,5.3,4.5,7.1
				s3.2,3.3,3.2,3.3"/>
			<path id="XMLID_834_" class="st4" d="M438.5,161.9c0,0-2.3,6.2-4.1,9.6c-1.8,3.4-5.2,6.1-8.3,9.9c-3.1,3.9-4.8,5.3-6.1,7.6
				c-1.3,2.3-3.1,5.3-4.6,7.1c-1.5,1.8-3.2,3.3-3.2,3.3"/>
			<g id="XMLID_831_">
				<path id="XMLID_833_" class="st4" d="M186.7,398.1c0,0,4.4,2.6,10.2,3.7s7.9,1.8,14.4,2.6s14.8,2.4,17.6,2.4s12,0.8,16,0.9
					s12.4,0.5,15.1,1s10,2.4,13.3,2.4s7.2,0,7.2,0"/>
				<path id="XMLID_832_" class="st4" d="M374.4,398.1c0,0-4.4,2.6-10.2,3.7s-7.9,1.8-14.4,2.6s-14.8,2.4-17.6,2.4s-12,0.8-16,0.9
					s-12.4,0.5-15.1,1s-10,2.4-13.3,2.4s-7.2,0-7.2,0"/>
			</g>
			<g id="XMLID_821_">
				<path id="XMLID_823_" class="st18" d="M183.1,392.6c0,0,4.5,2.7,10.6,3.8c6.1,1.2,8.2,1.8,14.9,2.7s15.3,2.5,18.3,2.5
					s12.5,0.8,16.6,0.9c4.2,0.1,12.9,0.5,15.7,1c2.9,0.5,10.4,2.5,13.8,2.5c3.4,0,7.5,0,7.5,0"/>
				<path id="XMLID_822_" class="st18" d="M378,392.6c0,0-4.5,2.7-10.6,3.8c-6.1,1.2-8.2,1.8-14.9,2.7s-15.3,2.5-18.3,2.5
					c-3,0-12.5,0.8-16.6,0.9c-4.2,0.1-12.9,0.5-15.7,1c-2.9,0.5-10.4,2.5-13.8,2.5c-3.4,0-7.5,0-7.5,0"/>
			</g>
			<g id="XMLID_818_">
				<path id="XMLID_820_" class="st18" d="M183.1,390.6c0,0,4.5,2.7,10.6,3.8c6.1,1.2,8.2,1.8,14.9,2.7s15.3,2.5,18.3,2.5
					s12.5,0.8,16.6,0.9c4.2,0.1,12.9,0.5,15.7,1c2.9,0.5,10.4,2.5,13.8,2.5c3.4,0,7.5,0,7.5,0"/>
				<path id="XMLID_819_" class="st18" d="M378,390.6c0,0-4.5,2.7-10.6,3.8c-6.1,1.2-8.2,1.8-14.9,2.7s-15.3,2.5-18.3,2.5
					c-3,0-12.5,0.8-16.6,0.9c-4.2,0.1-12.9,0.5-15.7,1c-2.9,0.5-10.4,2.5-13.8,2.5c-3.4,0-7.5,0-7.5,0"/>
			</g>
			<g id="XMLID_2_">
				<g id="XMLID_816_">
					<path id="XMLID_864_" class="st22" d="M319.2,96.6c-0.5,0-1,0-1.5,0.1"/>
					<path id="XMLID_863_" class="st46" d="M315,97.4c-1.2,0.4-2.5,1-3.8,1.7c-3.2,1.7-18.2,5.4-27.8,5.9"/>
					<path id="XMLID_862_" class="st22" d="M282,105c-0.5,0-1,0-1.5,0v0c-0.5,0-1,0-1.5,0"/>
					<path id="XMLID_861_" class="st47" d="M276.2,104.8c-9.6-0.8-23-4.2-26.1-5.7c-1.8-0.9-3.6-1.7-5.2-2.1"/>
					<path id="XMLID_860_" class="st22" d="M243.5,96.7c-0.5-0.1-1-0.1-1.5-0.1"/>
				</g>
			</g>
			<line id="XMLID_513_" class="st3" x1="280.7" y1="95.8" x2="280.7" y2="118.4"/>
			<path id="XMLID_1430_" class="st3" d="M363.6,176.9c-1.4,4.2-2.6,10.2-2.8,13.2c-0.4,4.6-0.4,14.3-0.4,21.8
				c-0.1,7.5,0.6,27.9,1.2,33.1s0.4,36.4,0.5,39.9s1.2,6.3,2,9c0.8,2.7-0.9,16.5-0.9,20.5s0.2,15.7,0.2,18.1s1.9,13.5,2,17.7
				c0.1,4.1,1.5,16.8,1.8,18.6s0.1,7.2,0.4,12c0.2,2.9,2.5,11.7,4.5,18.6"/>
			<g id="XMLID_817_">
				<g id="XMLID_827_">
					<path id="XMLID_829_" class="st18" d="M280.7,120.4c0,0,18.7,0.8,29.9,2.7s24.7,5.6,33.4,12.7c5.3,4.4,8.1,9,9.8,15.8
						c0.9,3.6,0.4,7.6,0.7,11.3c0.7,6.4,3.7,12.3,7.6,17.5"/>
					<path id="XMLID_828_" class="st18" d="M280.7,120.4c0,0-18.7,0.8-29.9,2.7s-24.7,5.6-33.4,12.7c-5.3,4.4-8.1,9-9.8,15.8
						c-0.9,3.6-0.4,7.6-0.7,11.3c-0.7,6.4-3.7,12.2-7.5,17.4"/>
				</g>
				<g id="XMLID_865_">
					<path id="XMLID_867_" class="st3" d="M280.8,118.4c0,0,19.1,0.8,30.6,2.7c11.4,1.8,25.3,5.6,34.2,12.7
						c5.4,4.4,10.4,10,12.1,16.8c0.9,3.6,0.4,7.6,0.8,11.3c0.6,5.7,2.5,10.7,5.3,15.2"/>
					<path id="XMLID_866_" class="st3" d="M197.9,177.1c2.8-4.5,4.7-9.5,5.3-15.2c0.4-3.7-0.1-7.7,0.8-11.3
						c1.7-6.8,6.6-12.5,12.1-16.8c8.9-7.1,22.7-10.9,34.2-12.7c11.4-1.8,30.6-2.7,30.6-2.7"/>
				</g>
				<g id="XMLID_1433_">
					<path id="XMLID_1429_" class="st3" d="M198,176.9c1.4,4.2,2.6,10.2,2.8,13.2c0.4,4.6,0.4,14.3,0.4,21.8
						c0.1,7.5-0.6,27.9-1.2,33.1c-0.6,5.1-0.4,36.4-0.5,39.9s-1.2,6.3-2,9c-0.8,2.7,0.9,16.5,0.9,20.5s-0.2,15.7-0.2,18.1
						s-1.9,13.5-2,17.7c-0.1,4.1-1.5,16.8-1.8,18.6s-0.1,7.2-0.4,12c-0.2,2.9-2.5,11.7-4.5,18.6"/>
					<g id="XMLID_1438_">
						<g id="XMLID_1455_">
							<path id="XMLID_1458_" class="st22" d="M200,174.1c0.1,0.5,0.3,0.9,0.4,1.4"/>
							<path id="XMLID_1457_" class="st48" d="M201.2,178.4c0.8,3.4,1.5,6.9,1.6,9c0.4,4.6,0.4,14.5,0.4,22.1
								c0.1,7.6-0.6,28.3-1.2,33.5c-0.6,5.2-0.4,36.9-0.5,40.4c-0.1,3.5-1.2,6.4-2,9.2c-0.8,2.7,0.9,16.7,0.9,20.8
								c0,4-0.2,15.9-0.2,18.3c0,2.5-1.9,13.7-2,17.9s-1.5,17-1.8,18.8s-0.1,7.3-0.4,12.2c-0.2,2.5-2,9.6-3.7,16"/>
							<path id="XMLID_1456_" class="st22" d="M191.9,398c-0.1,0.5-0.3,1-0.4,1.4"/>
						</g>
					</g>
					<path id="XMLID_1431_" class="st3" d="M147.9,197.3c1.5,0.6,5.9-1.9,12.6-5.1s16.9-4.6,18.6-5.2s5.1-2.5,7.4-3.7"/>
					<path id="XMLID_1432_" class="st3" d="M186.4,183.4c3-1.7,7.9-3.5,11.5-6.4"/>
				</g>
				<g id="XMLID_1434_">
					<path id="XMLID_1437_" class="st3" d="M363.6,176.9c-1.4,4.2-2.6,10.2-2.8,13.2c-0.4,4.6-0.4,14.3-0.4,21.8
						c-0.1,7.5,0.6,27.9,1.2,33.1s0.4,36.4,0.5,39.9s1.2,6.3,2,9c0.8,2.7-0.9,16.5-0.9,20.5s0.2,15.7,0.2,18.1s1.9,13.5,2,17.7
						c0.1,4.1,1.5,16.8,1.8,18.6s0.1,7.2,0.4,12c0.2,2.9,2.5,11.7,4.5,18.6"/>
					<path id="XMLID_1436_" class="st3" d="M413.6,197.3c-1.5,0.6-5.9-1.9-12.6-5.1s-16.9-4.6-18.6-5.2s-5.1-2.5-7.4-3.7"/>
					<path id="XMLID_1435_" class="st3" d="M375.2,183.4c-3-1.7-7.9-3.5-11.5-6.4"/>
				</g>
				<g id="XMLID_1439_">
					<g id="XMLID_1461_">
						<path id="XMLID_1464_" class="st22" d="M361.8,174.1c-0.1,0.5-0.3,0.9-0.4,1.4"/>
						<path id="XMLID_1463_" class="st48" d="M360.6,178.4c-0.8,3.4-1.5,6.9-1.6,9c-0.4,4.6-0.4,14.5-0.4,22.1
							c-0.1,7.6,0.6,28.3,1.2,33.5c0.6,5.2,0.4,36.9,0.5,40.4c0.1,3.5,1.2,6.4,2,9.2c0.8,2.7-0.9,16.7-0.9,20.8
							c0,4,0.2,15.9,0.2,18.3c0,2.5,1.9,13.7,2,17.9s1.5,17,1.8,18.8s0.1,7.3,0.4,12.2c0.2,2.5,2,9.6,3.7,16"/>
						<path id="XMLID_1462_" class="st22" d="M369.9,398c0.1,0.5,0.3,1,0.4,1.4"/>
					</g>
				</g>
			</g>
		</g>
		<g id="stampa">
			<g id="XMLID_120_">
				<path id="XMLID_1075_" class="st25" d="M247.6,186.5l13.6,0l0.4,0.4l0,103.8l-0.4,0.4l-18.6,0l-0.8,0.2
					c-0.6-0.2-0.9-0.4-0.9-0.7l0-79.3l-0.4-0.4l-11.3,0l-0.4-0.4l0-1.1c0-10.9,4.4-18.3,13.2-22.2
					C244.3,186.8,246.2,186.5,247.6,186.5z"/>
				<path id="XMLID_1078_" class="st25" d="M296.4,186.6l3.6,0c12,0,20.3,5,25,15c1.1,3.6,1.7,6.8,1.7,9.6l0,55
					c0,10.9-4.6,18.5-13.9,22.6c-4.2,1.7-8.9,2.6-14.1,2.6H298c-12.9,0-21.6-4.5-26.1-13.6c-1.6-3.5-2.3-7.6-2.3-12.6l0-52.9
					c0-11.5,4.8-19.3,14.3-23.3C288.1,187.4,292.2,186.6,296.4,186.6z M290.2,213.1l0,50.4c0,5.6,1.1,8.9,3.2,9.9
					c1.3,0.7,2.6,1,3.9,1l1.7,0c4.7,0,7.1-3.3,7.1-9.8l0-52.7c0-4-1.6-6.6-4.9-7.9l-3-0.4C292.9,203.5,290.2,206.7,290.2,213.1z"/>
			</g>
			<g id="XMLID_826_">
				<path id="XMLID_1081_" class="st25" d="M229.2,150.4h6.3c2.9,0,5,1.5,6.4,4.4c0.2,0.7,0.3,1.4,0.3,2.1v0.7
					c0,2.3-1.3,4.2-3.9,5.8c-1,0.4-1.9,0.6-2.8,0.6h-1.6v8.5l-0.2,0.2h-4.5l-0.2-0.2v-21.9L229.2,150.4z M233.9,155.2v3.9h1.4
					c0.8,0,1.3-0.6,1.6-1.8v-0.5c-0.3-1.1-0.9-1.6-1.6-1.6h-1.2L233.9,155.2L233.9,155.2z"/>
				<path id="XMLID_1448_" class="st25" d="M244,150.4h6.2c3.2,0,5.4,1.7,6.6,5.1l0.2,1.5c0,1.7-0.7,3.3-2,4.7
					c1.3,1,1.9,2.3,1.9,3.6v7.1l-0.2,0.2l-4.4-0.1h-0.2v-6.3c0-1.5-0.8-2.3-2.4-2.3h-1v8.3l-0.3,0.2H244l-0.2-0.2v-21.8L244,150.4z
					 M248.7,155.2v3.6l0.2,0.2h1.1c1,0,1.6-0.7,1.7-2c-0.2-1.2-0.8-1.8-1.7-1.8H248.7z"/>
				<path id="XMLID_1451_" class="st25" d="M265.6,150.3h4.3l0.2,0.2v4.6l-0.2,0.2h-5c-0.9,0.1-1.3,0.5-1.3,1.3v1.8l-0.1,0.6
					l0.1,0.1h6.5v4.9h-6.6v2c0,1.2,0.6,1.8,1.8,1.8h4.6l0.2,0.2v4.5l-0.2,0.2H265c-2.9,0-4.9-1.5-5.9-4.4c-0.2-0.7-0.4-1.3-0.4-1.7
					V157c0-3.6,1.8-5.7,5.4-6.6L265.6,150.3z"/>
				<path id="XMLID_1471_" class="st25" d="M271.9,150.4h13l0.2,0.2v4.5c-0.3,0.6-2,3.6-5.2,8.9c-1.3,2.1-2,3.3-2.1,3.6h7.1l0.2,0.2
					v4.6l-0.2,0.2h-2.5l-10.6-0.1l-0.1-0.1v-4.6l7.5-12.4v-0.2h-7.3l-0.2-0.2v-4.5L271.9,150.4z"/>
				<path id="XMLID_1494_" class="st25" d="M287,150.3h4.5l0.2,0.2V161v4.8v6.6l-0.2,0.2H287l-0.2-0.2v-21.9L287,150.3z"/>
				<path id="XMLID_1496_" class="st25" d="M293.5,150.3h5.5c1.1,0,2.2,0.2,3.2,0.5v-0.1c0-0.3,0.1-0.4,0.2-0.4h4.8
					c2.8,0,4.8,1.4,5.9,4.1c0.3,0.8,0.4,1.6,0.4,2.4v15.6l-0.2,0.2h-4.5l-0.2-0.2v-15.8c0-0.9-0.4-1.4-1.3-1.4h-1.5v17.2l-0.2,0.2
					h-4.5l-0.2-0.2v-15.7c0-1-0.4-1.5-1.3-1.5h-1.5v17.2l-0.2,0.2h-4.5l-0.2-0.2v-21.9L293.5,150.3z"/>
				<path id="XMLID_1505_" class="st25" d="M322.2,150.3h4.3l0.2,0.2v4.6l-0.2,0.2h-5c-0.9,0.1-1.3,0.5-1.3,1.3v1.8l-0.1,0.6
					l0.1,0.1h6.5v4.9h-6.6v2c0,1.2,0.6,1.8,1.8,1.8h4.6l0.2,0.2v4.5l-0.2,0.2h-4.9c-2.9,0-4.9-1.5-5.9-4.4c-0.2-0.7-0.4-1.3-0.4-1.7
					V157c0-3.6,1.8-5.7,5.4-6.6L322.2,150.3z"/>
			</g>
			<g id="XMLID_825_">
				<path id="XMLID_1507_" class="st25" d="M243.2,303.3h4.5l0.2,0.2v8.6h1.2c1.3,0,1.9-0.7,1.9-2.2v-6.4l0.2-0.2h4.6l0.2,0.2v5.6
					c0,2.9-0.6,4.7-1.7,5.4c0.7,0.7,1.2,1.4,1.5,2.4c0.1,0.9,0.2,2.2,0.2,3.9v4.7l-0.2,0.2h-4.6l-0.2-0.2v-6.2c0-1.1-0.3-1.8-1-2.2
					l-1.3-0.1H248l-0.1,0.1h-0.1l0.1,0.1v8.3l-0.2,0.2h-4.5l-0.2-0.2v-22L243.2,303.3z"/>
				<path id="XMLID_1509_" class="st25" d="M265.8,303.4h4.5l0.2,0.2v17.2l0.1-0.1h5.1l0.2,0.2v4.6l-0.2,0.2h-9.9l-0.2-0.2v-21.9
					L265.8,303.4z"/>
				<path id="XMLID_1511_" class="st25" d="M285.6,303.4h4.3l0.2,0.2V319c0,0.9,0.5,1.4,1.6,1.6c0.9,0,1.4-0.5,1.5-1.6v-15.4
					l0.2-0.2h4.4l0.2,0.2v15c0,3.3-1,5.4-3,6.3c-0.8,0.5-1.9,0.8-3,0.8h-0.2c-3,0-5-1.3-6-3.8l-0.3-1.5v-16.8L285.6,303.4z"/>
				<path id="XMLID_1513_" class="st25" d="M307.7,303.3h6.3c2.7,0,4.8,1.4,6,4.2c0.3,0.7,0.4,1.5,0.4,2.3c0,1.6-0.6,3.1-1.9,4.5
					c1.3,1.2,1.9,2.7,1.9,4.6c0,2.6-1.3,4.7-3.8,6.2c-0.9,0.4-1.9,0.5-2.8,0.5h-6.1l-0.2-0.2v-21.9L307.7,303.3z M312.7,308.2v3.8
					h0.9c1.3-0.2,1.9-0.9,1.9-1.9c-0.3-1.2-0.8-1.8-1.6-1.8H312.7z M312.7,316.9v3.7h0.7c1.4-0.1,2.1-0.8,2.1-2
					c-0.3-1.2-0.9-1.7-1.8-1.7H312.7z"/>
			</g>
		</g>
	</g>
</g>
</svg>
