
<svg width="321px" height="322px" viewBox="0 0 321 322" version="1.1" xmlns="http://www.w3.org/2000/svg" xmlns:xlink="http://www.w3.org/1999/xlink">
    <g id="Page-1" stroke="none" stroke-width="1" fill="none" fill-rule="evenodd">
        <g id="ranglan_new">
            <g id="ledja_2_">
                <g id="senka_5_" opacity="0.5" transform="translate(20.000000, 17.000000)" fill-rule="nonzero">
                    <path d="M242.4,63 C242.4,63 244,62.2 245.2,59.4 C245.6,58.4 245.7,57.3 245.8,56.2 C246,55.1 246.4,54.2 247,53.3 C247.7,52.2 248.7,51.3 249.6,50.4 C250.8,49.2 252,48.1 253.3,47.1 C255.2,45.7 256.6,44.8 256.6,44.8 C256.6,44.8 252,46.4 250.1,47.9 C248.8,49 247.3,49.8 246.2,51 C244.2,53.5 244.8,57.1 243.7,60 C243.1,62 242.4,63 242.4,63 Z" id="XMLID_1067_" fill="#BCBEC0"></path>
                    <path d="M262.9,71.4 C262.9,71.4 264.5,69.9 265.4,67 C265.7,66 265.6,65.1 265.7,64.1 C265.7,63.1 266,62.2 266.6,61.1 C267.3,59.8 268.1,58.6 269,57.4 C270.1,55.8 271.3,54.3 272.6,52.8 C274.5,50.6 275.9,49.2 275.9,49.2 C275.9,49.2 271.1,53 269.3,55.2 C268.1,56.7 266.5,58.2 265.5,59.8 C263.6,62.9 264.7,65.4 264,68.3 C263.5,70.3 262.9,71.4 262.9,71.4 Z" id="XMLID_1066_" fill="#BCBEC0"></path>
                    <path d="M272.6,33.8 C272.3,34.2 272,34.7 271.7,35.3 C271.2,36.3 271.2,37.2 271,38.1 C270.8,39 270.4,40 269.7,40.9 C268.9,42.1 267.8,43.2 266.7,44.2 C265.3,45.6 264,47 262.5,48.3 C260.3,50.2 258.7,51.4 258.7,51.4 C258.7,51.4 264,48.4 266.1,46.4 C267.6,45.1 269.3,43.8 270.5,42.4 C272.8,39.7 272.1,37.1 273.2,34.4 C273,34.2 272.8,34 272.6,33.8 Z" id="XMLID_1065_" fill="#BCBEC0"></path>
                    <path d="M215.6,0.9 C215.2,1.8 214.7,2.7 214.2,3.5 C212.8,6 211,11.9 211,11.9 C211,11.9 211.8,10.1 213.1,7.5 C214,5.7 215,4.1 216.1,2.4 C216.4,2 216.6,1.6 216.9,1.2 C216.4,1.2 216,1.1 215.6,0.9 Z" id="XMLID_1064_" fill="#BCBEC0"></path>
                    <g id="XMLID_1050_" transform="translate(0.000000, 49.000000)">
                        <path d="M0.5,0.1 C0.5,0.1 0.8,2.1 3.2,4.2 C4.1,5 5.1,5.4 6.2,5.9 C7.2,6.4 8.1,7.2 8.7,8.1 C9.5,9.2 10.2,10.5 10.8,11.8 C11.6,13.4 12.3,15.1 12.9,16.8 C13.7,19.3 14.1,21 14.1,21 C14.1,21 14,15.6 13.1,13.1 C12.5,11.4 12.2,9.6 11.2,8 C9.4,5 5.6,4.4 3.1,2.4 C1.2,1.1 0.5,0.1 0.5,0.1 Z" id="XMLID_1063_" fill="#BCBEC0"></path>
                        <path d="M13.6,1.3 C13.6,1.3 13.5,3.2 15.4,5.7 C16.1,6.6 17,7.2 17.9,8 C18.8,8.7 19.4,9.6 19.9,10.6 C20.5,11.8 20.8,13.2 21.1,14.5 C21.5,16.2 21.9,17.8 22.1,19.5 C22.3,22 22.4,23.6 22.4,23.6 C22.4,23.6 23.5,18.7 23.1,16.2 C22.8,14.5 22.9,12.8 22.3,11.1 C21.2,8 17.6,6.6 15.6,4.1 C14.1,2.3 13.6,1.3 13.6,1.3 Z" id="XMLID_1062_" fill="#BCBEC0"></path>
                        <g id="XMLID_1051_" transform="translate(49.000000, 22.000000)">
                            <path d="M78.9,78.4 C78.9,78.4 82.6,80.5 91.4,82 C94.8,82.6 98.3,83.4 101.7,84.2 C107.8,85.7 113.6,88.1 119.6,90.1 C125.7,92.1 131.9,94 137.8,96.7 C143.3,99.2 147,101 147,101 C144.4,99.1 141.6,97.3 138.8,95.7 C134.9,93.4 130.8,91.6 126.9,89.5 C123.5,87.6 120.3,85.2 116.7,83.9 C107.6,80.7 97.8,81.7 88.4,80.3 C82.1,79.2 78.9,78.4 78.9,78.4 Z" id="XMLID_1061_" fill="#BCBEC0"></path>
                            <path d="M50.2,93.2 C50.2,93.2 55.2,95.5 66.6,96.5 C71.1,96.9 75.6,97.6 80.1,98.2 C88.1,99.4 95.9,102 103.7,103.8 C111.8,105.7 119.9,107.5 127.7,110.3 C135.1,113 140,114.8 140,114.8 C136.4,112.6 132.7,110.6 128.9,108.8 C123.7,106.3 118.2,104.4 112.9,102 C108.4,99.9 104,97.2 99.2,95.9 C87.2,92.7 74.7,95.1 62.5,94.3 C54.5,94 50.2,93.2 50.2,93.2 Z" id="XMLID_1060_" fill="#BCBEC0"></path>
                            <g id="XMLID_1058_" transform="translate(35.000000, 5.000000)" fill="#A7A9AC">
                                <path d="M0.9,0.6 C0.9,0.6 4.5,1.4 12.3,2.6 C15.4,3.1 18.4,3.8 21.3,4.6 C26.5,6 31.2,8.4 35.8,10.7 C40.5,13.1 44.9,15.7 48.7,18.9 C52.3,21.9 54.3,24.1 54.3,24.1 C52.9,22.2 51.3,20.3 49.6,18.6 C47.2,16.2 44.4,14.1 41.6,11.9 C39.2,10 36.9,7.9 34,6.5 C26.8,2.9 18,2.4 9.5,1.5 C4,0.9 0.9,0.6 0.9,0.6 Z" id="XMLID_1059_"></path>
                            </g>
                            <path d="M1.7,10.4 C2.6,9.9 3.4,9.4 4.3,9 C6.9,7.7 11.6,3.8 11.6,3.8 C11.6,3.8 9.9,4.8 7.4,6.2 C5.6,7.2 3.9,8 2.1,8.7 C1.7,8.9 1.2,9.1 0.8,9.3 C1.1,9.7 1.4,10 1.7,10.4 Z" id="XMLID_1057_" fill="#A7A9AC"></path>
                            <path d="M3.5,14.4 C4.2,14.3 4.9,14.1 5.5,14 C7.5,13.5 11.7,13.6 11.7,13.6 C11.7,13.6 10.3,13.8 8.3,14.2 C6.9,14.5 5.6,14.9 4.2,15.3 C3.9,15.4 3.5,15.5 3.2,15.6 C3.4,15.2 3.5,14.8 3.5,14.4 Z" id="XMLID_1056_" fill="#A7A9AC"></path>
                            <path d="M182,10.1 C181.1,9.6 180.3,9.1 179.4,8.7 C176.8,7.4 172.1,3.5 172.1,3.5 C172.1,3.5 173.8,4.5 176.3,5.9 C178.1,6.9 179.8,7.7 181.6,8.4 C182,8.6 182.5,8.8 182.9,9 C182.5,9.4 182.2,9.7 182,10.1 Z" id="XMLID_1055_" fill="#A7A9AC"></path>
                            <path d="M179.8,14.5 C179.1,14.4 178.4,14.2 177.8,14.1 C175.8,13.6 171.6,13.7 171.6,13.7 C171.6,13.7 173,13.9 175,14.3 C176.4,14.6 177.7,15 179.1,15.4 C179.4,15.5 179.8,15.6 180.1,15.7 C179.9,15.2 179.8,14.8 179.8,14.5 Z" id="XMLID_1054_" fill="#A7A9AC"></path>
                            <path d="M65.3,117.4 C65.3,117.4 90,118.9 95.1,119.9 C100.3,120.9 120.6,123.7 129.3,125.9 C138,128.1 158.3,135.4 158.3,135.4 C158.3,135.4 135.8,141.2 127.6,144.2 C119.4,147.2 113.8,150.2 105.9,152.7 C98,155.2 83.6,161.9 79.7,164 C75.9,166.2 73,166.7 73,166.7 C73,166.7 96.8,153.2 99.8,151.2 C102.8,149.2 104.8,147.5 110.6,145.2 C116.4,142.9 126.1,140 131.9,139.2 C137.7,138.4 145.1,135.9 145.1,135.9 C145.1,135.9 130.6,130.9 118.8,128.6 C107,126.3 94.1,122.8 89,121.9 C84,121.1 65.3,117.4 65.3,117.4 Z" id="XMLID_1053_" fill="#BCBEC0"></path>
                            <path d="M84.5,0.1 C86.7,2.4 90.3,2.8 92.9,4.7 C94.5,5.8 95.7,7.4 97.4,8.4 C98.3,8.9 99.2,9.3 100.1,9.8 C101.8,11 102.9,12.9 104.4,14.3 C105.9,15.6 107.7,16.4 109.6,17.1 C113.1,18.4 116.8,19.5 120.6,19.3 C118.1,17.7 115.3,16.6 112.4,16.1 C110.5,15.8 108.4,15.6 106.8,14.4 C104.8,12.8 104.2,9.8 102.1,8.3 C100.5,7.2 98.3,7.1 97,5.8 C96.2,5 95.8,3.9 94.9,3.2 C94.1,2.6 93.1,2.4 92.1,2.2 C89.6,1.6 87,0.6 84.5,0.1" id="XMLID_1052_" fill="#A7A9AC"></path>
                        </g>
                    </g>
                </g>
                <g id="linije_5_">
                    <path d="M313.6,64.4 C313.4,65.2 310.1,70.8 308.4,72.8 C306.7,74.8 301.1,80.5 297.8,83.7 C294.5,86.9 291.7,93.5 290.7,97 C289.7,100.5 284.1,107.8 282.6,108.4" id="XMLID_1045_" stroke="#6D6E71" stroke-width="0.5" stroke-dasharray="3,3"></path>
                    <path d="M311.3,62.9 C311.1,63.7 307.7,69.4 306,71.5 C304.3,73.6 298.6,79.4 295.2,82.6 C291.8,85.8 289,92.5 288,96 C287,99.5 281.3,107 279.8,107.6" id="XMLID_1044_" stroke="#6D6E71" stroke-width="0.5" stroke-dasharray="3,3"></path>
                    <path d="M5.7,65.1 C5.9,65.9 9.2,71.5 10.9,73.5 C12.6,75.5 18.2,81.2 21.5,84.4 C24.8,87.6 27.6,94.2 28.6,97.7 C29.6,101.2 35.2,108.5 36.7,109.1" id="XMLID_1047_" stroke="#6D6E71" stroke-width="0.5" stroke-dasharray="3,3"></path>
                    <path d="M8,63.6 C8.2,64.4 11.6,70.1 13.3,72.2 C15,74.3 20.7,80.1 24.1,83.3 C27.5,86.5 30.3,93.2 31.3,96.7 C32.3,100.2 38,107.7 39.5,108.3" id="XMLID_1046_" stroke="#6D6E71" stroke-width="0.5" stroke-dasharray="3,3"></path>
                    <path d="M201.1,7.2 C198.7,7.1 195.7,8.3 192.7,10.1 C188.9,12.3 170,17.3 160.3,16.9 L160.3,17 C150.5,17.2 132.1,12.3 128.3,10.2 C125.2,8.5 122.2,7.2 119.8,7.3" id="XMLID_1076_" stroke="#000000" stroke-width="0.5"></path>
                    <g id="XMLID_989_" transform="translate(116.000000, 8.000000)" stroke="#6D6E71" stroke-width="0.5">
                        <g id="XMLID_1499_">
                            <path d="M89.1,0.3 C88.7,0.5 88.2,0.8 87.8,1" id="XMLID_1504_"></path>
                            <path d="M85.3,2.5 C79.6,5.6 59.8,11.5 47.5,12" id="XMLID_1503_" stroke-dasharray="2.9029,2.9029"></path>
                            <path d="M46,12.1 C45.5,12.1 45,12.1 44.5,12.1 L44.5,12.2 C44,12.2 43.5,12.2 43,12.2" id="XMLID_1502_"></path>
                            <path d="M40.1,12 C27.1,11 7.7,4.9 3.4,2.2 C3.2,2.1 3,1.9 2.8,1.8" id="XMLID_1501_" stroke-dasharray="2.8761,2.8761"></path>
                            <path d="M1.6,1 C1.2,0.7 0.7,0.5 0.3,0.3" id="XMLID_1500_"></path>
                        </g>
                    </g>
                    <path d="M253.7,308.4 C254.9,307.6 256,307.9 256.4,307.8 C257.6,307.5 259.9,305.3 259.5,304.3 C259.1,303.3 253.5,284.2 253.2,279.9 C252.9,275.6 253.1,270.9 252.8,269.3 C252.5,267.7 251.3,256.6 251.2,253 C251.1,249.4 249.4,239.6 249.4,237.5 C249.4,235.4 249.2,225.1 249.2,221.6 C249.2,218.1 250.6,206 250,203.6 C249.4,201.2 248.4,198.7 248.2,195.7 C248,192.7 248.3,165.2 247.8,160.7 C247.3,156.2 246.7,138.3 246.7,131.7 C246.7,125.1 246.8,116.6 247.1,112.6 C247.4,108.6 249.7,98.7 251.4,97.3 C253.7,98.5 257,100.4 258.8,101 C260.6,101.6 270.7,103 277.4,106.2 C284.1,109.4 288.5,111.8 290,111.3 C291.5,110.8 296.9,103.5 297.9,100.2 C298.9,96.9 301.6,90.4 304.8,87.3 C308,84.2 313.6,78.6 315.2,76.6 C316.8,74.6 320.1,69.1 320.3,68.3 C320.3,68.3 317.5,66 312,62.5 C306.5,59 294.8,52.2 292.9,50.7 C291,49.2 285.8,46.4 285,46 C284.2,45.6 280.4,43.5 280.1,42.8 C279.8,42.1 278.5,41 277.5,40.7 C276.5,40.4 269.6,36.8 267.3,35.5 C265,34.2 253.5,27.9 252.7,27.2 C251.9,26.5 248.9,23.3 246.6,22.4 C244.3,21.5 241.2,19.1 234,17.3 C226.8,15.5 215.1,11.5 214,11 C212.9,10.5 210.8,8.5 209.6,8.6 C208.4,8.7 204,8.2 201.7,7.2 C199.4,6.2 194,3.9 193.2,3.5 C192.4,3.1 190.9,1.4 189.2,0.9 C187.5,0.4 184.9,1.1 182.4,2.2 C179.9,3.3 167,5.8 160.5,5.6 L160.5,5.6 C153.9,5.7 141.4,3.3 138.8,2.2 C136.2,1.1 133.7,0.4 132,0.9 C130.3,1.4 128.8,3 128,3.5 C127.2,4 121.9,6.3 119.5,7.2 C117.1,8.1 112.7,8.7 111.6,8.6 C110.5,8.5 108.3,10.5 107.2,11 C106.1,11.5 94.4,15.5 87.2,17.3 C80,19.1 76.9,21.4 74.6,22.4 C72.3,23.4 69.4,26.5 68.5,27.2 C67.6,27.9 56.1,34.3 53.9,35.5 C51.7,36.7 44.6,40.4 43.7,40.7 C42.8,41 41.4,42.1 41.1,42.8 C40.8,43.5 37,45.6 36.2,46 C35.4,46.4 30.2,49.2 28.3,50.7 C26.4,52.2 14.7,58.9 9.2,62.5 C3.7,66.1 0.9,68.3 0.9,68.3 C1.1,69.1 4.3,74.6 6,76.6 C7.7,78.6 13.1,84.2 16.4,87.3 C19.7,90.4 22.3,96.9 23.3,100.2 C24.3,103.5 29.7,110.8 31.2,111.3 C32.7,111.8 37.1,109.4 43.8,106.2 C50.5,103 60.7,101.6 62.4,101 C64.1,100.4 67.5,98.5 69.8,97.3 C71.5,98.7 73.8,108.6 74.1,112.6 C74.4,116.6 74.4,125.2 74.5,131.7 C74.6,138.2 74,156.2 73.4,160.7 C72.8,165.2 73.1,192.6 73,195.7 C72.9,198.8 71.9,201.3 71.2,203.6 C70.5,205.9 72,218.1 72,221.6 C72,225.1 71.8,235.4 71.8,237.5 C71.8,239.6 70.1,249.4 70,253 C69.9,256.6 68.7,267.8 68.4,269.3 C68.1,270.8 68.3,275.6 68,279.9 C67.7,284.2 62.1,303.3 61.7,304.3 C61.3,305.3 63.7,307.3 64.9,307.6 C65.3,307.7 66.2,307.9 67.3,308.3" id="XMLID_1048_" stroke="#000000"></path>
                    <path d="M1.9,70.2 C1.9,70.2 4.1,76.4 5.9,79.8 C7.7,83.2 11,85.9 14.1,89.7 C17.2,93.5 18.9,95 20.2,97.3 C21.5,99.6 23.2,102.6 24.7,104.4 C26.2,106.2 27.9,107.7 27.9,107.7" id="XMLID_1043_" stroke="#000000"></path>
                    <path d="M318.5,71.9 C318.5,71.9 316.2,78.1 314.4,81.5 C312.6,84.9 309.2,87.6 306.1,91.4 C303,95.2 301.3,96.7 300,99 C298.7,101.3 296.9,104.3 295.4,106.1 C293.9,107.9 292.2,109.4 292.2,109.4" id="XMLID_1032_" stroke="#000000"></path>
                    <g id="XMLID_1004_" transform="translate(66.000000, 308.000000)" stroke="#000000">
                        <path d="M0.6,0.1 C0.6,0.1 5,2.7 10.8,3.8 C16.6,4.9 18.7,5.6 25.2,6.4 C31.7,7.2 40,8.8 42.8,8.8 C45.6,8.8 54.8,9.6 58.8,9.7 C62.8,9.8 71.2,10.2 73.9,10.7 C76.6,11.2 83.9,13.1 87.2,13.1 C90.5,13.1 94.4,13.1 94.4,13.1" id="XMLID_1030_"></path>
                        <path d="M188.3,0.1 C188.3,0.1 183.9,2.7 178.1,3.8 C172.3,4.9 170.2,5.6 163.7,6.4 C157.2,7.2 148.9,8.8 146.1,8.8 C143.3,8.8 134.1,9.6 130.1,9.7 C126.1,9.8 117.7,10.2 115,10.7 C112.3,11.2 105,13.1 101.7,13.1 C98.4,13.1 94.5,13.1 94.5,13.1" id="XMLID_1005_"></path>
                    </g>
                    <g id="XMLID_951_" stroke-dasharray="3,3" transform="translate(63.000000, 302.000000)" stroke="#808285" stroke-width="0.5">
                        <path d="M0,0.6 C0,0.6 4.5,3.3 10.6,4.4 C16.7,5.6 18.8,6.2 25.5,7.1 C32.2,8 40.8,9.6 43.8,9.6 C46.8,9.6 56.3,10.4 60.4,10.5 C64.6,10.6 73.3,11 76.1,11.5 C79,12 86.5,14 89.9,14 C93.3,14 97.4,14 97.4,14" id="XMLID_985_"></path>
                        <path d="M195,0.6 C195,0.6 190.5,3.3 184.4,4.4 C178.3,5.6 176.2,6.2 169.5,7.1 C162.8,8 154.2,9.6 151.2,9.6 C148.2,9.6 138.7,10.4 134.6,10.5 C130.4,10.6 121.7,11 118.9,11.5 C116,12 108.5,14 105.1,14 C101.7,14 97.6,14 97.6,14" id="XMLID_983_"></path>
                    </g>
                    <g id="XMLID_933_" stroke-dasharray="3,3" transform="translate(63.000000, 300.000000)" stroke="#808285" stroke-width="0.5">
                        <path d="M0,0.6 C0,0.6 4.5,3.3 10.6,4.4 C16.7,5.6 18.8,6.2 25.5,7.1 C32.2,8 40.8,9.6 43.8,9.6 C46.8,9.6 56.3,10.4 60.4,10.5 C64.6,10.6 73.3,11 76.1,11.5 C79,12 86.5,14 89.9,14 C93.3,14 97.4,14 97.4,14" id="XMLID_935_"></path>
                        <path d="M195,0.6 C195,0.6 190.5,3.3 184.4,4.4 C178.3,5.6 176.2,6.2 169.5,7.1 C162.8,8 154.2,9.6 151.2,9.6 C148.2,9.6 138.7,10.4 134.6,10.5 C130.4,10.6 121.7,11 118.9,11.5 C116,12 108.5,14 105.1,14 C101.7,14 97.6,14 97.6,14" id="XMLID_934_"></path>
                    </g>
                    <path d="M70.1,98.1 C72.2,60.9 99.7,29 138.9,13.7" id="XMLID_931_" stroke="#000000" stroke-width="0.5"></path>
                    <path d="M251,98.1 C248.9,60.7 221.3,28.7 182.1,13.4" id="XMLID_930_" stroke="#000000" stroke-width="0.5"></path>
                </g>
            </g>
        </g>
    </g>
</svg>