<?xml version="1.0" encoding="utf-8"?>
<!-- Generator: Adobe Illustrator 19.0.0, SVG Export Plug-In . SVG Version: 6.00 Build 0)  -->
<svg version="1.1" xmlns="http://www.w3.org/2000/svg" xmlns:xlink="http://www.w3.org/1999/xlink" x="0px" y="0px"
	 viewBox="0 0 2464 841.9" style="enable-background:new 0 0 2464 841.9;" xml:space="preserve">
<style type="text/css">
	.st0{fill:none;stroke:#A7A9AC;stroke-miterlimit:10;}
	.st1{fill:none;stroke:#939598;stroke-miterlimit:10;}
	.st2{fill:none;stroke:#939598;stroke-width:0.5;stroke-miterlimit:10;}
	.st3{fill:none;stroke:#000000;stroke-width:0.5;stroke-miterlimit:10;}
	.st4{fill:none;stroke:#000000;stroke-miterlimit:10;}
	.st5{fill:none;stroke:#000000;}
	.st6{fill:#BCBEC0;}
	.st7{fill:#FFFFFF;stroke:#000000;stroke-miterlimit:10;}
	.st8{fill:#323334;}
	.st9{fill:#FFFFFF;}
	.st10{fill:#979797;}
	.st11{fill:url(#XMLID_4_);}
	.st12{fill:#D0D2D3;}
	.st13{fill:#4B4C4D;}
	.st14{fill:none;stroke:#808285;stroke-width:0.5;stroke-miterlimit:10;stroke-dasharray:3,3;}
	.st15{fill:none;stroke:#939598;stroke-width:0.5;stroke-miterlimit:10;stroke-dasharray:1.5,1.5;}
	.st16{fill:none;stroke:#939598;stroke-width:0.25;stroke-miterlimit:10;}
	.st17{fill:url(#XMLID_5_);}
	.st18{fill:none;stroke:#6D6E71;stroke-width:0.5;stroke-miterlimit:10;stroke-dasharray:3,3;}
	.st19{fill:none;stroke:#6D6E71;stroke-width:0.5;stroke-miterlimit:10;stroke-dasharray:1.5,1.5;}
	.st20{opacity:0.5;}
	.st21{fill:#A7A9AC;}
	.st22{fill:none;stroke:#6D6E71;stroke-width:0.5;stroke-miterlimit:10;}
	.st23{fill:none;stroke:#6D6E71;stroke-width:0.5;stroke-miterlimit:10;stroke-dasharray:2.9029,2.9029;}
	.st24{fill:none;stroke:#6D6E71;stroke-width:0.5;stroke-miterlimit:10;stroke-dasharray:2.8761,2.8761;}
	.st25{fill:#FFFFFF;stroke:#000000;}
	.st26{fill:url(#XMLID_6_);}
	.st27{fill:none;stroke:#6D6E71;stroke-width:0.5;stroke-miterlimit:10;stroke-dasharray:2.4936,2.4936;}
	.st28{fill:none;stroke:#808285;stroke-width:0.5;stroke-miterlimit:10;}
	.st29{fill:none;stroke:#808285;stroke-width:0.5;stroke-miterlimit:10;stroke-dasharray:3.0146,3.0146;}
	.st30{fill:none;stroke:#808285;stroke-width:0.5;stroke-miterlimit:10;stroke-dasharray:3.0009,3.0009;}
	.st31{fill:none;stroke:#6D6E71;stroke-width:0.5;stroke-miterlimit:10;stroke-dasharray:3.307,3.307;}
	.st32{fill:none;stroke:#6D6E71;stroke-width:0.5;stroke-miterlimit:10;stroke-dasharray:3.2754,3.2754;}
	.st33{fill:none;stroke:#000000;stroke-width:0.25;stroke-miterlimit:10;}
	.st34{fill:none;stroke:#6D6E71;stroke-width:0.5;stroke-miterlimit:10;stroke-dasharray:2.9827,2.9827;}
	.st35{fill:none;stroke:#6D6E71;stroke-width:0.5;stroke-miterlimit:10;stroke-dasharray:2.9609,2.9609;}
	.st36{fill:none;stroke:#6D6E71;stroke-width:0.5;stroke-miterlimit:10;stroke-dasharray:3.0236,3.0236;}
	.st37{fill:none;stroke:#6D6E71;stroke-width:0.5;stroke-miterlimit:10;stroke-dasharray:2.9944,2.9944;}
	.st38{fill:url(#XMLID_15_);}
	.st39{fill:url(#XMLID_66_);}
	.st40{fill:none;stroke:#6D6E71;stroke-width:0.5;stroke-miterlimit:10;stroke-dasharray:3.0146,3.0146;}
	.st41{fill:none;stroke:#6D6E71;stroke-width:0.5;stroke-miterlimit:10;stroke-dasharray:3.0009,3.0009;}
	.st42{fill:none;stroke:#6D6E71;stroke-width:0.5;stroke-miterlimit:10;stroke-dasharray:3.0291,3.0291;}
	.st43{fill:none;stroke:#6D6E71;stroke-width:0.5;stroke-miterlimit:10;stroke-dasharray:3.0747,3.0747;}
	.st44{fill:none;stroke:#6D6E71;stroke-width:0.5;stroke-miterlimit:10;stroke-dasharray:2.9787,2.9787;}
	.st45{fill:none;stroke:#6D6E71;stroke-width:0.5;stroke-miterlimit:10;stroke-dasharray:2.9735,2.9735;}
	.st46{fill:none;stroke:#6D6E71;stroke-width:0.5;stroke-miterlimit:10;stroke-dasharray:2.8376,2.8376;}
	.st47{fill:none;stroke:#6D6E71;stroke-width:0.5;stroke-miterlimit:10;stroke-dasharray:2.8167,2.8167;}
	.st48{fill:none;stroke:#6D6E71;stroke-width:0.5;stroke-miterlimit:10;stroke-dasharray:2.9835,2.9835;}
</style>
<g id="ranglan">
	<g id="ledja_2_">
		<g id="senka_5_" class="st20">
			<path id="XMLID_1067_" class="st6" d="M2276.4,170c0,0,1.6-0.8,2.8-3.6c0.4-1,0.5-2.1,0.6-3.2c0.2-1.1,0.6-2,1.2-2.9
				c0.7-1.1,1.7-2,2.6-2.9c1.2-1.2,2.4-2.3,3.7-3.3c1.9-1.4,3.3-2.3,3.3-2.3s-4.6,1.6-6.5,3.1c-1.3,1.1-2.8,1.9-3.9,3.1
				c-2,2.5-1.4,6.1-2.5,9C2277.1,169,2276.4,170,2276.4,170z"/>
			<path id="XMLID_1066_" class="st6" d="M2296.9,178.4c0,0,1.6-1.5,2.5-4.4c0.3-1,0.2-1.9,0.3-2.9c0-1,0.3-1.9,0.9-3
				c0.7-1.3,1.5-2.5,2.4-3.7c1.1-1.6,2.3-3.1,3.6-4.6c1.9-2.2,3.3-3.6,3.3-3.6s-4.8,3.8-6.6,6c-1.2,1.5-2.8,3-3.8,4.6
				c-1.9,3.1-0.8,5.6-1.5,8.5C2297.5,177.3,2296.9,178.4,2296.9,178.4z"/>
			<path id="XMLID_1065_" class="st6" d="M2306.6,140.8c-0.3,0.4-0.6,0.9-0.9,1.5c-0.5,1-0.5,1.9-0.7,2.8c-0.2,0.9-0.6,1.9-1.3,2.8
				c-0.8,1.2-1.9,2.3-3,3.3c-1.4,1.4-2.7,2.8-4.2,4.1c-2.2,1.9-3.8,3.1-3.8,3.1s5.3-3,7.4-5c1.5-1.3,3.2-2.6,4.4-4
				c2.3-2.7,1.6-5.3,2.7-8C2307,141.2,2306.8,141,2306.6,140.8z"/>
			<path id="XMLID_1064_" class="st6" d="M2249.6,107.9c-0.4,0.9-0.9,1.8-1.4,2.6c-1.4,2.5-3.2,8.4-3.2,8.4s0.8-1.8,2.1-4.4
				c0.9-1.8,1.9-3.4,3-5.1c0.3-0.4,0.5-0.8,0.8-1.2C2250.4,108.2,2250,108.1,2249.6,107.9z"/>
			<g id="XMLID_1050_">
				<path id="XMLID_1063_" class="st6" d="M2034.5,156.1c0,0,0.3,2,2.7,4.1c0.9,0.8,1.9,1.2,3,1.7c1,0.5,1.9,1.3,2.5,2.2
					c0.8,1.1,1.5,2.4,2.1,3.7c0.8,1.6,1.5,3.3,2.1,5c0.8,2.5,1.2,4.2,1.2,4.2s-0.1-5.4-1-7.9c-0.6-1.7-0.9-3.5-1.9-5.1
					c-1.8-3-5.6-3.6-8.1-5.6C2035.2,157.1,2034.5,156.1,2034.5,156.1z"/>
				<path id="XMLID_1062_" class="st6" d="M2047.6,157.3c0,0-0.1,1.9,1.8,4.4c0.7,0.9,1.6,1.5,2.5,2.3c0.9,0.7,1.5,1.6,2,2.6
					c0.6,1.2,0.9,2.6,1.2,3.9c0.4,1.7,0.8,3.3,1,5c0.2,2.5,0.3,4.1,0.3,4.1s1.1-4.9,0.7-7.4c-0.3-1.7-0.2-3.4-0.8-5.1
					c-1.1-3.1-4.7-4.5-6.7-7C2048.1,158.3,2047.6,157.3,2047.6,157.3z"/>
				<g id="XMLID_1051_">
					<path id="XMLID_1061_" class="st6" d="M2161.9,256.4c0,0,3.7,2.1,12.5,3.6c3.4,0.6,6.9,1.4,10.3,2.2c6.1,1.5,11.9,3.9,17.9,5.9
						c6.1,2,12.3,3.9,18.2,6.6c5.5,2.5,9.2,4.3,9.2,4.3c-2.6-1.9-5.4-3.7-8.2-5.3c-3.9-2.3-8-4.1-11.9-6.2
						c-3.4-1.9-6.6-4.3-10.2-5.6c-9.1-3.2-18.9-2.2-28.3-3.6C2165.1,257.2,2161.9,256.4,2161.9,256.4z"/>
					<path id="XMLID_1060_" class="st6" d="M2133.2,271.2c0,0,5,2.3,16.4,3.3c4.5,0.4,9,1.1,13.5,1.7c8,1.2,15.8,3.8,23.6,5.6
						c8.1,1.9,16.2,3.7,24,6.5c7.4,2.7,12.3,4.5,12.3,4.5c-3.6-2.2-7.3-4.2-11.1-6c-5.2-2.5-10.7-4.4-16-6.8
						c-4.5-2.1-8.9-4.8-13.7-6.1c-12-3.2-24.5-0.8-36.7-1.6C2137.5,272,2133.2,271.2,2133.2,271.2z"/>
					<g id="XMLID_1058_">
						<path id="XMLID_1059_" class="st21" d="M2118.9,183.6c0,0,3.6,0.8,11.4,2c3.1,0.5,6.1,1.2,9,2c5.2,1.4,9.9,3.8,14.5,6.1
							c4.7,2.4,9.1,5,12.9,8.2c3.6,3,5.6,5.2,5.6,5.2c-1.4-1.9-3-3.8-4.7-5.5c-2.4-2.4-5.2-4.5-8-6.7c-2.4-1.9-4.7-4-7.6-5.4
							c-7.2-3.6-16-4.1-24.5-5C2122,183.9,2118.9,183.6,2118.9,183.6z"/>
					</g>
					<path id="XMLID_1057_" class="st21" d="M2084.7,188.4c0.9-0.5,1.7-1,2.6-1.4c2.6-1.3,7.3-5.2,7.3-5.2s-1.7,1-4.2,2.4
						c-1.8,1-3.5,1.8-5.3,2.5c-0.4,0.2-0.9,0.4-1.3,0.6C2084.1,187.7,2084.4,188,2084.7,188.4z"/>
					<path id="XMLID_1056_" class="st21" d="M2086.5,192.4c0.7-0.1,1.4-0.3,2-0.4c2-0.5,6.2-0.4,6.2-0.4s-1.4,0.2-3.4,0.6
						c-1.4,0.3-2.7,0.7-4.1,1.1c-0.3,0.1-0.7,0.2-1,0.3C2086.4,193.2,2086.5,192.8,2086.5,192.4z"/>
					<path id="XMLID_1055_" class="st21" d="M2265,188.1c-0.9-0.5-1.7-1-2.6-1.4c-2.6-1.3-7.3-5.2-7.3-5.2s1.7,1,4.2,2.4
						c1.8,1,3.5,1.8,5.3,2.5c0.4,0.2,0.9,0.4,1.3,0.6C2265.5,187.4,2265.2,187.7,2265,188.1z"/>
					<path id="XMLID_1054_" class="st21" d="M2262.8,192.5c-0.7-0.1-1.4-0.3-2-0.4c-2-0.5-6.2-0.4-6.2-0.4s1.4,0.2,3.4,0.6
						c1.4,0.3,2.7,0.7,4.1,1.1c0.3,0.1,0.7,0.2,1,0.3C2262.9,193.2,2262.8,192.8,2262.8,192.5z"/>
					<path id="XMLID_1053_" class="st6" d="M2148.3,295.4c0,0,24.7,1.5,29.8,2.5c5.2,1,25.5,3.8,34.2,6c8.7,2.2,29,9.5,29,9.5
						s-22.5,5.8-30.7,8.8c-8.2,3-13.8,6-21.7,8.5s-22.3,9.2-26.2,11.3c-3.8,2.2-6.7,2.7-6.7,2.7s23.8-13.5,26.8-15.5s5-3.7,10.8-6
						c5.8-2.3,15.5-5.2,21.3-6c5.8-0.8,13.2-3.3,13.2-3.3s-14.5-5-26.3-7.3c-11.8-2.3-24.7-5.8-29.8-6.7
						C2167,299.1,2148.3,295.4,2148.3,295.4z"/>
					<path id="XMLID_1052_" class="st21" d="M2167.5,178.1c2.2,2.3,5.8,2.7,8.4,4.6c1.6,1.1,2.8,2.7,4.5,3.7
						c0.9,0.5,1.8,0.9,2.7,1.4c1.7,1.2,2.8,3.1,4.3,4.5c1.5,1.3,3.3,2.1,5.2,2.8c3.5,1.3,7.2,2.4,11,2.2c-2.5-1.6-5.3-2.7-8.2-3.2
						c-1.9-0.3-4-0.5-5.6-1.7c-2-1.6-2.6-4.6-4.7-6.1c-1.6-1.1-3.8-1.2-5.1-2.5c-0.8-0.8-1.2-1.9-2.1-2.6c-0.8-0.6-1.8-0.8-2.8-1
						C2172.6,179.6,2170,178.6,2167.5,178.1"/>
				</g>
			</g>
		</g>
		<g id="linije_5_">
			<path id="XMLID_1045_" class="st18" d="M2327.6,154.4c-0.2,0.8-3.5,6.4-5.2,8.4s-7.3,7.7-10.6,10.9c-3.3,3.2-6.1,9.8-7.1,13.3
				c-1,3.5-6.6,10.8-8.1,11.4"/>
			<path id="XMLID_1044_" class="st18" d="M2325.3,152.9c-0.2,0.8-3.6,6.5-5.3,8.6c-1.7,2.1-7.4,7.9-10.8,11.1
				c-3.4,3.2-6.2,9.9-7.2,13.4s-6.7,11-8.2,11.6"/>
			<path id="XMLID_1047_" class="st18" d="M2019.7,155.1c0.2,0.8,3.5,6.4,5.2,8.4c1.7,2,7.3,7.7,10.6,10.9c3.3,3.2,6.1,9.8,7.1,13.3
				c1,3.5,6.6,10.8,8.1,11.4"/>
			<path id="XMLID_1046_" class="st18" d="M2022,153.6c0.2,0.8,3.6,6.5,5.3,8.6c1.7,2.1,7.4,7.9,10.8,11.1c3.4,3.2,6.2,9.9,7.2,13.4
				c1,3.5,6.7,11,8.2,11.6"/>
			<path id="XMLID_1076_" class="st3" d="M2215.1,97.2c-2.4-0.1-5.4,1.1-8.4,2.9c-3.8,2.2-22.7,7.2-32.4,6.8v0.1
				c-9.8,0.2-28.2-4.7-32-6.8c-3.1-1.7-6.1-3-8.5-2.9"/>
			<g id="XMLID_989_">
				<g id="XMLID_1499_">
					<path id="XMLID_1504_" class="st22" d="M2219.1,98.3c-0.4,0.2-0.9,0.5-1.3,0.7"/>
					<path id="XMLID_1503_" class="st23" d="M2215.3,100.5c-5.7,3.1-25.5,9-37.8,9.5"/>
					<path id="XMLID_1502_" class="st22" d="M2176,110.1c-0.5,0-1,0-1.5,0v0.1c-0.5,0-1,0-1.5,0"/>
					<path id="XMLID_1501_" class="st24" d="M2170.1,110c-13-1-32.4-7.1-36.7-9.8c-0.2-0.1-0.4-0.3-0.6-0.4"/>
					<path id="XMLID_1500_" class="st22" d="M2131.6,99c-0.4-0.3-0.9-0.5-1.3-0.7"/>
				</g>
			</g>
			<path id="XMLID_1048_" class="st4" d="M2267.7,398.4c1.2-0.8,2.3-0.5,2.7-0.6c1.2-0.3,3.5-2.5,3.1-3.5s-6-20.1-6.3-24.4
				s-0.1-9-0.4-10.6s-1.5-12.7-1.6-16.3s-1.8-13.4-1.8-15.5s-0.2-12.4-0.2-15.9s1.4-15.6,0.8-18s-1.6-4.9-1.8-7.9s0.1-30.5-0.4-35
				s-1.1-22.4-1.1-29s0.1-15.1,0.4-19.1s2.6-13.9,4.3-15.3c2.3,1.2,5.6,3.1,7.4,3.7s11.9,2,18.6,5.2s11.1,5.6,12.6,5.1
				s6.9-7.8,7.9-11.1s3.7-9.8,6.9-12.9s8.8-8.7,10.4-10.7s4.9-7.5,5.1-8.3c0,0-2.8-2.3-8.3-5.8s-17.2-10.3-19.1-11.8
				s-7.1-4.3-7.9-4.7s-4.6-2.5-4.9-3.2s-1.6-1.8-2.6-2.1s-7.9-3.9-10.2-5.2s-13.8-7.6-14.6-8.3s-3.8-3.9-6.1-4.8s-5.4-3.3-12.6-5.1
				s-18.9-5.8-20-6.3s-3.2-2.5-4.4-2.4s-5.6-0.4-7.9-1.4s-7.7-3.3-8.5-3.7c-0.8-0.4-2.3-2.1-4-2.6s-4.3,0.2-6.8,1.3
				s-15.4,3.6-21.9,3.4v0c-6.6,0.1-19.1-2.3-21.7-3.4c-2.6-1.1-5.1-1.8-6.8-1.3s-3.2,2.1-4,2.6s-6.1,2.8-8.5,3.7s-6.8,1.5-7.9,1.4
				s-3.3,1.9-4.4,2.4s-12.8,4.5-20,6.3s-10.3,4.1-12.6,5.1s-5.2,4.1-6.1,4.8s-12.4,7.1-14.6,8.3s-9.3,4.9-10.2,5.2s-2.3,1.4-2.6,2.1
				s-4.1,2.8-4.9,3.2s-6,3.2-7.9,4.7s-13.6,8.2-19.1,11.8s-8.3,5.8-8.3,5.8c0.2,0.8,3.4,6.3,5.1,8.3s7.1,7.6,10.4,10.7
				s5.9,9.6,6.9,12.9s6.4,10.6,7.9,11.1s5.9-1.9,12.6-5.1s16.9-4.6,18.6-5.2s5.1-2.5,7.4-3.7c1.7,1.4,4,11.3,4.3,15.3
				s0.3,12.6,0.4,19.1s-0.5,24.5-1.1,29s-0.3,31.9-0.4,35s-1.1,5.6-1.8,7.9s0.8,14.5,0.8,18s-0.2,13.8-0.2,15.9s-1.7,11.9-1.8,15.5
				s-1.3,14.8-1.6,16.3s-0.1,6.3-0.4,10.6s-5.9,23.4-6.3,24.4s2,3,3.2,3.3c0.4,0.1,1.3,0.3,2.4,0.7"/>
			<path id="XMLID_1043_" class="st4" d="M2015.9,160.2c0,0,2.2,6.2,4,9.6s5.1,6.1,8.2,9.9s4.8,5.3,6.1,7.6s3,5.3,4.5,7.1
				s3.2,3.3,3.2,3.3"/>
			<path id="XMLID_1032_" class="st4" d="M2332.5,161.9c0,0-2.3,6.2-4.1,9.6c-1.8,3.4-5.2,6.1-8.3,9.9s-4.8,5.3-6.1,7.6
				c-1.3,2.3-3.1,5.3-4.6,7.1c-1.5,1.8-3.2,3.3-3.2,3.3"/>
			<g id="XMLID_1004_">
				<path id="XMLID_1030_" class="st4" d="M2080.6,398.1c0,0,4.4,2.6,10.2,3.7s7.9,1.8,14.4,2.6s14.8,2.4,17.6,2.4s12,0.8,16,0.9
					s12.4,0.5,15.1,1s10,2.4,13.3,2.4s7.2,0,7.2,0"/>
				<path id="XMLID_1005_" class="st4" d="M2268.3,398.1c0,0-4.4,2.6-10.2,3.7s-7.9,1.8-14.4,2.6s-14.8,2.4-17.6,2.4s-12,0.8-16,0.9
					s-12.4,0.5-15.1,1s-10,2.4-13.3,2.4s-7.2,0-7.2,0"/>
			</g>
			<g id="XMLID_951_">
				<path id="XMLID_985_" class="st14" d="M2077,392.6c0,0,4.5,2.7,10.6,3.8c6.1,1.2,8.2,1.8,14.9,2.7s15.3,2.5,18.3,2.5
					c3,0,12.5,0.8,16.6,0.9c4.2,0.1,12.9,0.5,15.7,1c2.9,0.5,10.4,2.5,13.8,2.5c3.4,0,7.5,0,7.5,0"/>
				<path id="XMLID_983_" class="st14" d="M2272,392.6c0,0-4.5,2.7-10.6,3.8c-6.1,1.2-8.2,1.8-14.9,2.7s-15.3,2.5-18.3,2.5
					c-3,0-12.5,0.8-16.6,0.9c-4.2,0.1-12.9,0.5-15.7,1c-2.9,0.5-10.4,2.5-13.8,2.5c-3.4,0-7.5,0-7.5,0"/>
			</g>
			<g id="XMLID_933_">
				<path id="XMLID_935_" class="st14" d="M2077,390.6c0,0,4.5,2.7,10.6,3.8c6.1,1.2,8.2,1.8,14.9,2.7s15.3,2.5,18.3,2.5
					c3,0,12.5,0.8,16.6,0.9c4.2,0.1,12.9,0.5,15.7,1c2.9,0.5,10.4,2.5,13.8,2.5c3.4,0,7.5,0,7.5,0"/>
				<path id="XMLID_934_" class="st14" d="M2272,390.6c0,0-4.5,2.7-10.6,3.8c-6.1,1.2-8.2,1.8-14.9,2.7s-15.3,2.5-18.3,2.5
					c-3,0-12.5,0.8-16.6,0.9c-4.2,0.1-12.9,0.5-15.7,1c-2.9,0.5-10.4,2.5-13.8,2.5c-3.4,0-7.5,0-7.5,0"/>
			</g>
			<path id="XMLID_931_" class="st3" d="M2084.1,188.1c2.1-37.2,29.6-69.1,68.8-84.4"/>
			<path id="XMLID_930_" class="st3" d="M2265,188.1c-2.1-37.4-29.7-69.4-68.9-84.7"/>
		</g>
		<g id="stampa_2_">
			<g id="XMLID_1635_">
				<path id="XMLID_1636_" class="st25" d="M2141.5,186.5l13.6,0l0.4,0.4l0,103.8l-0.4,0.4l-18.6,0l-0.8,0.2
					c-0.6-0.2-0.9-0.4-0.9-0.7l0-79.3l-0.4-0.4l-11.3,0l-0.4-0.4l0-1.1c0-10.9,4.4-18.3,13.2-22.2
					C2138.2,186.8,2140.1,186.5,2141.5,186.5z"/>
				<path id="XMLID_1638_" class="st25" d="M2190.4,186.6l3.6,0c12,0,20.3,5,25,15c1.1,3.6,1.7,6.8,1.7,9.6l0,55
					c0,10.9-4.6,18.5-13.9,22.6c-4.2,1.7-8.9,2.6-14.1,2.6h-0.8c-12.9,0-21.6-4.5-26.1-13.6c-1.6-3.5-2.3-7.6-2.3-12.6l0-52.9
					c0-11.5,4.8-19.3,14.3-23.3C2182,187.4,2186.2,186.6,2190.4,186.6z M2184.2,213.1l0,50.4c0,5.6,1.1,8.9,3.2,9.9
					c1.3,0.7,2.6,1,3.9,1l1.7,0c4.7,0,7.1-3.3,7.1-9.8l0-52.7c0-4-1.6-6.6-4.9-7.9l-3-0.4C2186.8,203.5,2184.2,206.7,2184.2,213.1z"
					/>
			</g>
			<g id="XMLID_1618_">
				<path id="XMLID_1619_" class="st25" d="M2123.1,150.4h6.3c2.9,0,5,1.5,6.4,4.4c0.2,0.7,0.3,1.4,0.3,2.1v0.7
					c0,2.3-1.3,4.2-3.9,5.8c-1,0.4-1.9,0.6-2.8,0.6h-1.6v8.5l-0.2,0.2h-4.5l-0.2-0.2v-21.9L2123.1,150.4z M2127.8,155.2v3.9h1.4
					c0.8,0,1.3-0.6,1.6-1.8v-0.5c-0.3-1.1-0.9-1.6-1.6-1.6h-1.2L2127.8,155.2L2127.8,155.2z"/>
				<path id="XMLID_1622_" class="st25" d="M2138,150.4h6.2c3.2,0,5.4,1.7,6.6,5.1l0.2,1.5c0,1.7-0.7,3.3-2,4.7
					c1.3,1,1.9,2.3,1.9,3.6v7.1l-0.2,0.2l-4.4-0.1h-0.2v-6.3c0-1.5-0.8-2.3-2.4-2.3h-1v8.3l-0.3,0.2h-4.4l-0.2-0.2v-21.8L2138,150.4
					z M2142.6,155.2v3.6l0.2,0.2h1.1c1,0,1.6-0.7,1.7-2c-0.2-1.2-0.8-1.8-1.7-1.8H2142.6z"/>
				<path id="XMLID_1625_" class="st25" d="M2159.5,150.3h4.3l0.2,0.2v4.6l-0.2,0.2h-5c-0.9,0.1-1.3,0.5-1.3,1.3v1.8l-0.1,0.6
					l0.1,0.1h6.5v4.9h-6.6v2c0,1.2,0.6,1.8,1.8,1.8h4.6l0.2,0.2v4.5l-0.2,0.2h-4.9c-2.9,0-4.9-1.5-5.9-4.4c-0.2-0.7-0.4-1.3-0.4-1.7
					V157c0-3.6,1.8-5.7,5.4-6.6L2159.5,150.3z"/>
				<path id="XMLID_1627_" class="st25" d="M2165.8,150.4h13l0.2,0.2v4.5c-0.3,0.6-2,3.6-5.2,8.9c-1.3,2.1-2,3.3-2.1,3.6h7.1
					l0.2,0.2v4.6l-0.2,0.2h-2.5l-10.6-0.1l-0.1-0.1v-4.6l7.5-12.4v-0.2h-7.3l-0.2-0.2v-4.5L2165.8,150.4z"/>
				<path id="XMLID_1629_" class="st25" d="M2180.9,150.3h4.5l0.2,0.2V161v4.8v6.6l-0.2,0.2h-4.5l-0.2-0.2v-21.9L2180.9,150.3z"/>
				<path id="XMLID_1631_" class="st25" d="M2187.5,150.3h5.5c1.1,0,2.2,0.2,3.2,0.5v-0.1c0-0.3,0.1-0.4,0.2-0.4h4.8
					c2.8,0,4.8,1.4,5.9,4.1c0.3,0.8,0.4,1.6,0.4,2.4v15.6l-0.2,0.2h-4.5l-0.2-0.2v-15.8c0-0.9-0.4-1.4-1.3-1.4h-1.5v17.2l-0.2,0.2
					h-4.5l-0.2-0.2v-15.7c0-1-0.4-1.5-1.3-1.5h-1.5v17.2l-0.2,0.2h-4.5l-0.2-0.2v-21.9L2187.5,150.3z"/>
				<path id="XMLID_1633_" class="st25" d="M2216.2,150.3h4.3l0.2,0.2v4.6l-0.2,0.2h-5c-0.9,0.1-1.3,0.5-1.3,1.3v1.8l-0.1,0.6
					l0.1,0.1h6.5v4.9h-6.6v2c0,1.2,0.6,1.8,1.8,1.8h4.6l0.2,0.2v4.5l-0.2,0.2h-4.9c-2.9,0-4.9-1.5-5.9-4.4c-0.2-0.7-0.4-1.3-0.4-1.7
					V157c0-3.6,1.8-5.7,5.4-6.6L2216.2,150.3z"/>
			</g>
			<g id="XMLID_1607_">
				<g id="XMLID_1843_">
					<path id="XMLID_1852_" class="st25" d="M2137.1,303.3h4.5l0.2,0.2v8.6h1.2c1.3,0,1.9-0.7,1.9-2.2v-6.4l0.2-0.2h4.6l0.2,0.2v5.6
						c0,2.9-0.6,4.7-1.7,5.4c0.7,0.7,1.2,1.4,1.5,2.4c0.1,0.9,0.2,2.2,0.2,3.9v4.7l-0.2,0.2h-4.6l-0.2-0.2v-6.2c0-1.1-0.3-1.8-1-2.2
						l-1.3-0.1h-0.7l-0.1,0.1h-0.1l0.1,0.1v8.3l-0.2,0.2h-4.5l-0.2-0.2v-22L2137.1,303.3z"/>
					<path id="XMLID_1850_" class="st25" d="M2159.7,303.4h4.5l0.2,0.2v17.2l0.1-0.1h5.1l0.2,0.2v4.6l-0.2,0.2h-9.9l-0.2-0.2v-21.9
						L2159.7,303.4z"/>
					<path id="XMLID_1848_" class="st25" d="M2179.6,303.4h4.3l0.2,0.2V319c0,0.9,0.5,1.4,1.6,1.6c0.9,0,1.4-0.5,1.5-1.6v-15.4
						l0.2-0.2h4.4l0.2,0.2v15c0,3.3-1,5.4-3,6.3c-0.8,0.5-1.9,0.8-3,0.8h-0.2c-3,0-5-1.3-6-3.8l-0.3-1.5v-16.8L2179.6,303.4z"/>
					<path id="XMLID_1844_" class="st25" d="M2201.7,303.3h6.3c2.7,0,4.8,1.4,6,4.2c0.3,0.7,0.4,1.5,0.4,2.3c0,1.6-0.6,3.1-1.9,4.5
						c1.3,1.2,1.9,2.7,1.9,4.6c0,2.6-1.3,4.7-3.8,6.2c-0.9,0.4-1.9,0.5-2.8,0.5h-6.1l-0.2-0.2v-21.9L2201.7,303.3z M2206.7,308.2
						v3.8h0.9c1.3-0.2,1.9-0.9,1.9-1.9c-0.3-1.2-0.8-1.8-1.6-1.8H2206.7z M2206.7,316.9v3.7h0.7c1.4-0.1,2.1-0.8,2.1-2
						c-0.3-1.2-0.9-1.7-1.8-1.7H2206.7z"/>
				</g>
			</g>
		</g>
	</g>
	<g id="prednjica_2_">
		<g id="XMLID_518_">
			<g id="senka_4_" class="st20">
				<path id="XMLID_979_" class="st6" d="M1935,170c0,0,1.6-0.8,2.8-3.6c0.4-1,0.5-2.1,0.6-3.2c0.2-1.1,0.6-2,1.2-2.9
					c0.7-1.1,1.7-2,2.6-2.9c1.2-1.2,2.4-2.3,3.7-3.3c1.9-1.4,3.3-2.3,3.3-2.3s-4.6,1.6-6.5,3.1c-1.3,1.1-2.8,1.9-3.9,3.1
					c-2,2.5-1.4,6.1-2.5,9C1935.6,169,1935,170,1935,170z"/>
				<path id="XMLID_978_" class="st6" d="M1955.5,178.4c0,0,1.6-1.5,2.5-4.4c0.3-1,0.2-1.9,0.3-2.9c0-1,0.3-1.9,0.9-3
					c0.7-1.3,1.5-2.5,2.4-3.7c1.1-1.6,2.3-3.1,3.6-4.6c1.9-2.2,3.3-3.6,3.3-3.6s-4.8,3.8-6.6,6c-1.2,1.5-2.8,3-3.8,4.6
					c-1.9,3.1-0.8,5.6-1.5,8.5C1956,177.3,1955.5,178.4,1955.5,178.4z"/>
				<path id="XMLID_977_" class="st6" d="M1965.1,140.8c-0.3,0.4-0.6,0.9-0.9,1.5c-0.5,1-0.5,1.9-0.7,2.8c-0.2,0.9-0.6,1.9-1.3,2.8
					c-0.8,1.2-1.9,2.3-3,3.3c-1.4,1.4-2.7,2.8-4.2,4.1c-2.2,1.9-3.8,3.1-3.8,3.1s5.3-3,7.4-5c1.5-1.3,3.2-2.6,4.4-4
					c2.3-2.7,1.6-5.3,2.7-8C1965.5,141.2,1965.3,141,1965.1,140.8z"/>
				<path id="XMLID_976_" class="st6" d="M1908.1,107.9c-0.4,0.9-0.9,1.8-1.4,2.6c-1.4,2.5-3.2,8.4-3.2,8.4s0.8-1.8,2.1-4.4
					c0.9-1.8,1.9-3.4,3-5.1c0.3-0.4,0.5-0.8,0.8-1.2C1909,108.2,1908.5,108.1,1908.1,107.9z"/>
				<g id="XMLID_962_">
					<path id="XMLID_975_" class="st6" d="M1693,156.1c0,0,0.3,2,2.7,4.1c0.9,0.8,1.9,1.2,3,1.7c1,0.5,1.9,1.3,2.5,2.2
						c0.8,1.1,1.5,2.4,2.1,3.7c0.8,1.6,1.5,3.3,2.1,5c0.8,2.5,1.2,4.2,1.2,4.2s-0.1-5.4-1-7.9c-0.6-1.7-0.9-3.5-1.9-5.1
						c-1.8-3-5.6-3.6-8.1-5.6C1693.8,157.1,1693,156.1,1693,156.1z"/>
					<path id="XMLID_974_" class="st6" d="M1706.1,157.3c0,0-0.1,1.9,1.8,4.4c0.7,0.9,1.6,1.5,2.5,2.3c0.9,0.7,1.5,1.6,2,2.6
						c0.6,1.2,0.9,2.6,1.2,3.9c0.4,1.7,0.8,3.3,1,5c0.2,2.5,0.3,4.1,0.3,4.1s1.1-4.9,0.7-7.4c-0.3-1.7-0.2-3.4-0.8-5.1
						c-1.1-3.1-4.7-4.5-6.7-7C1706.6,158.3,1706.1,157.3,1706.1,157.3z"/>
					<g id="XMLID_963_">
						<path id="XMLID_973_" class="st6" d="M1820.4,256.4c0,0,3.7,2.1,12.5,3.6c3.4,0.6,6.9,1.4,10.3,2.2c6.1,1.5,11.9,3.9,17.9,5.9
							c6.1,2,12.3,3.9,18.2,6.6c5.5,2.5,9.2,4.3,9.2,4.3c-2.6-1.9-5.4-3.7-8.2-5.3c-3.9-2.3-8-4.1-11.9-6.2
							c-3.4-1.9-6.6-4.3-10.2-5.6c-9.1-3.2-18.9-2.2-28.3-3.6C1823.6,257.2,1820.4,256.4,1820.4,256.4z"/>
						<path id="XMLID_972_" class="st6" d="M1791.8,271.2c0,0,5,2.3,16.4,3.3c4.5,0.4,9,1.1,13.5,1.7c8,1.2,15.8,3.8,23.6,5.6
							c8.1,1.9,16.2,3.7,24,6.5c7.4,2.7,12.3,4.5,12.3,4.5c-3.6-2.2-7.3-4.2-11.1-6c-5.2-2.5-10.7-4.4-16-6.8
							c-4.5-2.1-8.9-4.8-13.7-6.1c-12-3.2-24.5-0.8-36.7-1.6C1796,272,1791.8,271.2,1791.8,271.2z"/>
						<g id="XMLID_970_">
							<path id="XMLID_971_" class="st21" d="M1777.5,183.6c0,0,3.6,0.8,11.4,2c3.1,0.5,6.1,1.2,9,2c5.2,1.4,9.9,3.8,14.5,6.1
								c4.7,2.4,9.1,5,12.9,8.2c3.6,3,5.6,5.2,5.6,5.2c-1.4-1.9-3-3.8-4.7-5.5c-2.4-2.4-5.2-4.5-8-6.7c-2.4-1.9-4.7-4-7.6-5.4
								c-7.2-3.6-16-4.1-24.5-5C1780.5,183.9,1777.5,183.6,1777.5,183.6z"/>
						</g>
						<path id="XMLID_969_" class="st21" d="M1743.4,188.7c0.9-0.5,1.7-1,2.6-1.4c2.6-1.3,7.3-5.2,7.3-5.2s-1.7,1-4.2,2.4
							c-1.8,1-3.5,1.8-5.3,2.5c-0.4,0.2-0.9,0.4-1.3,0.6C1742.8,188,1743.2,188.4,1743.4,188.7z"/>
						<path id="XMLID_968_" class="st21" d="M1745,192.4c0.7-0.1,1.4-0.3,2-0.4c2-0.5,6.2-0.4,6.2-0.4s-1.4,0.2-3.4,0.6
							c-1.4,0.3-2.7,0.7-4.1,1.1c-0.3,0.1-0.7,0.2-1,0.3C1744.9,193.2,1745,192.8,1745,192.4z"/>
						<path id="XMLID_967_" class="st21" d="M1923,188.5c-0.7-0.7-1.4-1.4-2.1-2c-2.2-2-5.7-6.9-5.7-6.9s1.4,1.4,3.4,3.5
							c1.4,1.4,2.9,2.6,4.5,3.8c0.4,0.3,0.8,0.6,1.1,0.9C1923.7,188,1923.3,188.2,1923,188.5z"/>
						<path id="XMLID_966_" class="st21" d="M1921.3,192.5c-0.7-0.1-1.4-0.3-2-0.4c-2-0.5-6.2-0.4-6.2-0.4s1.4,0.2,3.4,0.6
							c1.4,0.3,2.7,0.7,4.1,1.1c0.3,0.1,0.7,0.2,1,0.3C1921.4,193.2,1921.4,192.8,1921.3,192.5z"/>
						<path id="XMLID_965_" class="st6" d="M1806.8,295.4c0,0,24.7,1.5,29.8,2.5s25.5,3.8,34.2,6c8.7,2.2,29,9.5,29,9.5
							s-22.5,5.8-30.7,8.8c-8.2,3-13.8,6-21.7,8.5s-22.3,9.2-26.2,11.3c-3.8,2.2-6.7,2.7-6.7,2.7s23.8-13.5,26.8-15.5s5-3.7,10.8-6
							c5.8-2.3,15.5-5.2,21.3-6c5.8-0.8,13.2-3.3,13.2-3.3s-14.5-5-26.3-7.3c-11.8-2.3-24.7-5.8-29.8-6.7
							C1825.5,299.1,1806.8,295.4,1806.8,295.4z"/>
						<path id="XMLID_964_" class="st21" d="M1826,178.1c2.2,2.3,5.8,2.7,8.4,4.6c1.6,1.1,2.8,2.7,4.5,3.7c0.9,0.5,1.8,0.9,2.7,1.4
							c1.7,1.2,2.8,3.1,4.3,4.5c1.5,1.3,3.3,2.1,5.2,2.8c3.5,1.3,7.2,2.4,11,2.2c-2.5-1.6-5.3-2.7-8.2-3.2c-1.9-0.3-4-0.5-5.6-1.7
							c-2-1.6-2.6-4.6-4.7-6.1c-1.6-1.1-3.8-1.2-5.1-2.5c-0.8-0.8-1.2-1.9-2.1-2.6c-0.8-0.6-1.8-0.8-2.8-1
							C1831.1,179.6,1828.5,178.6,1826,178.1"/>
					</g>
				</g>
			</g>
			<g id="logo_x5F_seven">
				<path id="XMLID_919_" d="M1771.1,161.5l1-0.1c0,0.4,0,0.7,0.1,0.9c0.1,0.2,0.3,0.3,0.6,0.3c0.3,0,0.6-0.1,0.8-0.2
					c0.2-0.2,0.3-0.4,0.4-0.6c0-0.1,0-0.3,0-0.4c0-0.1-0.1-0.2-0.3-0.3c-0.1,0-0.3-0.1-0.7-0.3c-0.5-0.2-0.8-0.4-0.9-0.6
					c-0.2-0.3-0.2-0.7-0.1-1.2c0.1-0.3,0.2-0.6,0.4-0.8c0.2-0.3,0.5-0.5,0.8-0.6c0.3-0.1,0.6-0.2,1-0.2c0.6,0,1,0.2,1.2,0.5
					c0.2,0.3,0.3,0.8,0.1,1.3l-1,0c0-0.3,0-0.5-0.1-0.7c-0.1-0.1-0.3-0.2-0.5-0.2c-0.3,0-0.5,0.1-0.7,0.2c-0.1,0.1-0.2,0.2-0.3,0.4
					c0,0.1,0,0.3,0,0.4c0.1,0.1,0.3,0.3,0.8,0.4c0.4,0.1,0.7,0.3,0.9,0.4c0.2,0.1,0.3,0.3,0.4,0.6c0.1,0.3,0,0.6-0.1,0.9
					c-0.1,0.3-0.3,0.7-0.5,0.9c-0.2,0.3-0.5,0.5-0.8,0.7c-0.3,0.1-0.7,0.2-1.1,0.2c-0.6,0-1-0.2-1.2-0.5
					C1771,162.7,1770.9,162.2,1771.1,161.5 M1782.4,163.4l1.4-5.3l-2.9,5.3h-1l-0.1-5.1l0,0.2h-2.6l-0.4,1.3h2.4l-0.3,1h-2.4
					l-0.4,1.6h2.7l-0.3,1h-3.6l1.6-5.9h3.3h0.2h0.8l0,4.4l2.3-4.4h0.8h0.2h3.3l-0.3,1h-2.6l-0.4,1.3h2.4l-0.3,1h-2.4l-0.4,1.6h2.7
					l-0.3,1H1782.4z M1788.1,157.6h0.9c0.3,1.3,0.6,2.6,0.9,3.9c0.4-1.1,0.7-2.7,1-3.8h0.9c-0.5,2-1.1,3.9-1.6,5.9h-0.9
					c-0.3-1.3-0.6-2.6-0.9-3.9c-0.4,1.1-0.7,2.7-1,3.8h-0.9C1787,161.5,1787.6,159.5,1788.1,157.6z"/>
				<path id="XMLID_916_" d="M1799.8,157.5l-9.4,10.5l6.6-9h-4.4l0.4-1.4H1799.8z M1795.5,159.9l-5.8,7.2l4-6.3h-1.7l0.3-0.9H1795.5
					z"/>
			</g>
			<g id="grb_2_">
				<circle id="XMLID_914_" class="st7" cx="1878.1" cy="160.2" r="14"/>
				<g id="XMLID_1584_">
					<path id="XMLID_1585_" d="M1869.6,156.3l-0.2,0.6l0,0c0,0,0,0,0,0l-0.2,0.5c0,0.1-0.1,0.2-0.1,0.2s-0.1,0.1-0.2,0.2
						c-0.1,0-0.2,0.1-0.3,0.1c-0.1,0-0.2,0-0.3,0l-1.9-0.6c-0.1,0-0.2-0.1-0.2-0.1c-0.1-0.1-0.1-0.1-0.2-0.2c0-0.1-0.1-0.2-0.1-0.3
						c0-0.1,0-0.2,0-0.3l0.1-0.4c0-0.1,0.1-0.2,0.1-0.2c0.1-0.1,0.1-0.1,0.2-0.2c0.1,0,0.2-0.1,0.3-0.1c0.1,0,0.2,0,0.3,0l0.3,0.1
						l-0.2,0.6l-0.3-0.1c0,0,0,0-0.1,0c0,0,0,0,0,0l-0.1,0.4c0,0,0,0,0,0.1c0,0,0,0,0.1,0l1.9,0.6c0,0,0,0,0.1,0c0,0,0,0,0-0.1
						l0.1-0.4c0,0,0,0,0-0.1c0,0,0,0,0,0l-0.4-0.1l-0.1,0.4l-0.6-0.2l0.3-1L1869.6,156.3z"/>
					<path id="XMLID_1587_" d="M1870.9,154.4l-1-0.3l-0.1,0.1l0.8,0.6l-0.4,0.5l-2.7-2.1l0.7-0.9c0.1-0.1,0.1-0.1,0.2-0.2
						s0.2-0.1,0.3-0.1c0.1,0,0.2,0,0.3,0c0.1,0,0.2,0.1,0.3,0.1l0.7,0.5c0.1,0.1,0.2,0.2,0.2,0.3c0,0.1,0.1,0.3,0,0.4l1.1,0.4
						L1870.9,154.4z M1868.3,153.1l0.9,0.7l0.3-0.4c0,0,0-0.1,0-0.1c0,0,0-0.1,0-0.1l-0.7-0.5c0,0-0.1,0-0.1,0s-0.1,0-0.1,0
						L1868.3,153.1z"/>
					<path id="XMLID_1590_" d="M1870.2,150.3l0.9-0.6c0.1-0.1,0.2-0.1,0.3-0.1c0.1,0,0.2,0,0.3,0s0.2,0.1,0.3,0.1
						c0.1,0.1,0.2,0.1,0.2,0.2l0.2,0.4c0,0.1,0.1,0.1,0.1,0.2s0,0.1,0,0.2c0.1,0,0.1,0.1,0.2,0.1c0.1,0,0.1,0.1,0.2,0.2l0.4,0.5
						c0.1,0.1,0.1,0.2,0.1,0.3s0,0.2,0,0.3s0,0.2-0.1,0.3c-0.1,0.1-0.1,0.2-0.2,0.2l-0.9,0.6L1870.2,150.3z M1871,150.4l0.4,0.6
						l0.4-0.3c0,0,0,0,0-0.1c0,0,0-0.1,0-0.1l-0.2-0.4c0,0,0,0-0.1,0s-0.1,0-0.1,0L1871,150.4z M1871.8,151.5l0.5,0.7l0.4-0.3
						c0,0,0,0,0-0.1c0,0,0-0.1,0-0.1l-0.4-0.5c0,0,0,0-0.1,0c0,0-0.1,0-0.1,0L1871.8,151.5z"/>
					<path id="XMLID_1594_" d="M1877.3,150.9l-0.6,0l-0.1-3.4l0.6,0l0.1,1.5l0.7-1.6l0.7,0l-0.7,1.7l0.9,1.7l-0.7,0l-0.5-0.9
						l-0.3,0.6L1877.3,150.9z"/>
					<path id="XMLID_1596_" d="M1880.9,147.8l0.6,0.2l-0.8,2.7l1.1,0.3l-0.2,0.6l-1.7-0.5L1880.9,147.8z"/>
					<path id="XMLID_1598_" d="M1883.6,151.8C1883.5,151.8,1883.5,151.8,1883.6,151.8c0,0.1,0,0.1,0,0.2l0.3,0.2c0,0,0.1,0,0.1,0
						c0,0,0.1,0,0.1,0l1.5-2.2l0.5,0.3l-1.5,2.2c-0.1,0.1-0.1,0.1-0.2,0.2c-0.1,0-0.2,0.1-0.3,0.1c-0.1,0-0.2,0-0.3,0
						c-0.1,0-0.2-0.1-0.3-0.1l-0.3-0.2c-0.1-0.1-0.1-0.1-0.2-0.2c-0.1-0.1-0.1-0.2-0.1-0.3s0-0.2,0-0.3c0-0.1,0.1-0.2,0.1-0.3
						l1.5-2.2l0.5,0.3L1883.6,151.8z"/>
					<path id="XMLID_1600_" d="M1887.7,151.8l0.7,0.9c0.1,0.1,0.1,0.2,0.1,0.3s0,0.2,0,0.3s0,0.2-0.1,0.3c0,0.1-0.1,0.2-0.2,0.2
						l-0.3,0.3c-0.1,0-0.1,0.1-0.2,0.1c-0.1,0-0.1,0-0.2,0c0,0.1-0.1,0.1-0.1,0.2c0,0.1-0.1,0.1-0.2,0.2l-0.5,0.4
						c-0.1,0.1-0.2,0.1-0.3,0.1c-0.1,0-0.2,0-0.3,0s-0.2,0-0.3-0.1c-0.1,0-0.2-0.1-0.2-0.2l-0.6-0.9L1887.7,151.8z M1886.5,153.5
						l-0.7,0.5l0.3,0.4c0,0,0,0,0.1,0c0,0,0.1,0,0.1,0l0.5-0.4c0,0,0,0,0-0.1c0,0,0-0.1,0-0.1L1886.5,153.5z M1887.5,152.7l-0.5,0.4
						l0.3,0.4c0,0,0,0,0.1,0c0,0,0.1,0,0.1,0l0.3-0.3c0,0,0,0,0-0.1c0,0,0-0.1,0-0.1L1887.5,152.7z"/>
					<path id="XMLID_1604_" d="M1889.1,155.5c0.1,0,0.2,0,0.3,0c0.1,0,0.2,0,0.3,0.1c0.1,0,0.2,0.1,0.2,0.2s0.1,0.2,0.2,0.3l0.1,0.3
						c0,0.1,0,0.2,0,0.3s0,0.2-0.1,0.3c0,0.1-0.1,0.2-0.2,0.2c-0.1,0.1-0.2,0.1-0.3,0.1l-2.5,0.9l-0.2-0.6l0.8-0.3l-0.2-0.5
						l-0.8,0.3l-0.2-0.6L1889.1,155.5z M1888.2,156.5l0.2,0.5l1.2-0.4c0,0,0.1,0,0.1-0.1s0-0.1,0-0.1l-0.1-0.3c0,0,0-0.1-0.1-0.1
						c0,0-0.1,0-0.1,0L1888.2,156.5z"/>
				</g>
				<g id="XMLID_1561_">
					<path id="XMLID_1562_" d="M1866.2,165.2l-0.2-0.6l0,0c0,0,0,0,0,0l-0.2-0.5c0-0.1,0-0.2,0-0.3c0-0.1,0-0.2,0.1-0.3
						c0-0.1,0.1-0.1,0.2-0.2c0.1-0.1,0.2-0.1,0.3-0.1l1.9-0.6c0.1,0,0.2,0,0.3,0c0.1,0,0.2,0,0.3,0.1c0.1,0,0.2,0.1,0.2,0.2
						c0.1,0.1,0.1,0.1,0.1,0.2l0.1,0.4c0,0.1,0,0.2,0,0.3c0,0.1,0,0.2-0.1,0.3c0,0.1-0.1,0.2-0.2,0.2s-0.2,0.1-0.2,0.1l-0.3,0.1
						l-0.2-0.6l0.3-0.1c0,0,0,0,0,0c0,0,0,0,0-0.1l-0.1-0.4c0,0,0,0-0.1,0c0,0,0,0-0.1,0l-1.9,0.6c0,0,0,0-0.1,0c0,0,0,0,0,0.1
						l0.1,0.4c0,0,0,0,0,0c0,0,0,0,0.1,0l0.4-0.1l-0.1-0.4l0.6-0.2l0.3,1L1866.2,165.2z"/>
					<path id="XMLID_1564_" d="M1868.1,168.2l0.6-0.9l-0.1-0.1l-0.8,0.6l-0.4-0.5l2.7-2.1l0.7,0.9c0.1,0.1,0.1,0.2,0.1,0.3
						s0,0.2,0,0.3s0,0.2-0.1,0.3c0,0.1-0.1,0.2-0.2,0.2l-0.7,0.5c-0.1,0.1-0.2,0.1-0.4,0.1c-0.1,0-0.3,0-0.4-0.1l-0.6,1
						L1868.1,168.2z M1869.9,166.1l-0.9,0.7l0.3,0.4c0,0,0,0,0.1,0s0.1,0,0.1,0l0.7-0.5c0,0,0,0,0-0.1c0,0,0-0.1,0-0.1L1869.9,166.1
						z"/>
					<path id="XMLID_1567_" d="M1872.1,167.6l0.9,0.6c0.1,0.1,0.1,0.1,0.2,0.2c0.1,0.1,0.1,0.2,0.1,0.3c0,0.1,0,0.2,0,0.3
						s-0.1,0.2-0.1,0.3l-0.2,0.4c0,0.1-0.1,0.1-0.2,0.2c-0.1,0-0.1,0.1-0.2,0.1c0,0.1,0,0.1,0,0.2c0,0.1-0.1,0.1-0.1,0.2l-0.4,0.5
						c-0.1,0.1-0.1,0.1-0.2,0.2s-0.2,0.1-0.3,0.1c-0.1,0-0.2,0-0.3,0c-0.1,0-0.2-0.1-0.3-0.1l-0.9-0.6L1872.1,167.6z M1871.5,169.5
						l-0.5,0.7l0.4,0.3c0,0,0.1,0,0.1,0s0.1,0,0.1,0l0.4-0.5c0,0,0-0.1,0-0.1c0,0,0-0.1,0-0.1L1871.5,169.5z M1872.2,168.4l-0.4,0.6
						l0.4,0.3c0,0,0.1,0,0.1,0c0,0,0.1,0,0.1-0.1l0.2-0.4c0,0,0-0.1,0-0.1c0,0,0-0.1-0.1-0.1L1872.2,168.4z"/>
					<path id="XMLID_1571_" d="M1877,173l-0.6,0l0.2-3.4l0.6,0l-0.1,1.5l0.8-1.5l0.7,0l-0.9,1.6l0.7,1.7l-0.7,0l-0.4-1l-0.3,0.6
						L1877,173z"/>
					<path id="XMLID_1573_" d="M1879.9,169.5l0.6-0.2l0.8,2.7l1.1-0.3l0.2,0.6l-1.7,0.5L1879.9,169.5z"/>
					<path id="XMLID_1575_" d="M1884.7,170.4C1884.7,170.4,1884.7,170.4,1884.7,170.4c0.1,0.1,0.1,0,0.2,0l0.3-0.2c0,0,0,0,0-0.1
						c0,0,0-0.1,0-0.1l-1.5-2.2l0.5-0.3l1.5,2.2c0.1,0.1,0.1,0.2,0.1,0.3c0,0.1,0,0.2,0,0.3c0,0.1,0,0.2-0.1,0.3
						c-0.1,0.1-0.1,0.2-0.2,0.2l-0.3,0.2c-0.1,0.1-0.2,0.1-0.3,0.1c-0.1,0-0.2,0-0.3,0s-0.2-0.1-0.3-0.1c-0.1-0.1-0.2-0.1-0.2-0.2
						l-1.5-2.2l0.5-0.3L1884.7,170.4z"/>
					<path id="XMLID_1577_" d="M1885.1,166.6l0.6-0.9c0.1-0.1,0.1-0.1,0.2-0.2s0.2-0.1,0.3-0.1s0.2,0,0.3,0c0.1,0,0.2,0.1,0.3,0.1
						l0.3,0.3c0.1,0,0.1,0.1,0.2,0.2s0.1,0.1,0.1,0.2c0.1,0,0.1,0,0.2,0c0.1,0,0.1,0.1,0.2,0.1l0.5,0.4c0.1,0.1,0.1,0.1,0.2,0.2
						c0,0.1,0.1,0.2,0.1,0.3c0,0.1,0,0.2,0,0.3c0,0.1-0.1,0.2-0.1,0.3l-0.6,0.9L1885.1,166.6z M1885.9,166.5l0.5,0.4l0.3-0.4
						c0,0,0-0.1,0-0.1c0,0,0-0.1,0-0.1l-0.3-0.3c0,0-0.1,0-0.1,0c0,0-0.1,0-0.1,0L1885.9,166.5z M1887,167.3l0.7,0.5l0.3-0.4
						c0,0,0-0.1,0-0.1c0,0,0-0.1,0-0.1l-0.5-0.4c0,0-0.1,0-0.1,0s-0.1,0-0.1,0L1887,167.3z"/>
					<path id="XMLID_1581_" d="M1887.5,164.3c-0.1,0-0.2-0.1-0.2-0.1c-0.1-0.1-0.1-0.1-0.2-0.2c0-0.1-0.1-0.2-0.1-0.3s0-0.2,0-0.3
						l0.1-0.3c0-0.1,0.1-0.2,0.1-0.2c0.1-0.1,0.1-0.1,0.2-0.2s0.2-0.1,0.3-0.1c0.1,0,0.2,0,0.3,0l2.5,0.8l-0.2,0.6l-0.8-0.3
						l-0.2,0.5l0.8,0.3l-0.2,0.6L1887.5,164.3z M1888.8,164.1l0.2-0.5l-1.2-0.4c0,0-0.1,0-0.1,0c0,0-0.1,0-0.1,0.1l-0.1,0.3
						c0,0,0,0.1,0,0.1c0,0,0,0.1,0.1,0.1L1888.8,164.1z"/>
				</g>
				<circle id="XMLID_909_" cx="1866.7" cy="160.1" r="0.8"/>
				<circle id="XMLID_908_" cx="1889.1" cy="160.1" r="0.8"/>
				<g id="XMLID_671_">
					<g id="XMLID_675_">
						<g id="XMLID_884_">
							<g id="XMLID_885_">
								<circle id="XMLID_907_" class="st8" cx="1878.1" cy="160.1" r="6.3"/>
								<path id="XMLID_906_" class="st9" d="M1872.9,159.5c0,0-0.4,0.7-0.5,1.7c-0.1,0.5-0.1,0.7,0.3,1.2c0.7,1,1,1.3,1.2,1.2
									c0.2,0,1.4-0.3,1.7-0.4c0.2-0.1,0.2-0.1,0.3-0.6c0.1-0.4,0.3-1,0.3-1.4c0-0.3,0-0.3-0.3-0.7c-0.3-0.4-1-1.3-1.1-1.5
									c-0.1-0.2-0.2-0.1-0.5-0.1c-0.3,0.1-0.8,0.2-1.1,0.2C1872.9,159.4,1872.9,159.4,1872.9,159.5z"/>
								<path id="XMLID_905_" class="st9" d="M1873.4,156.1c0,0-0.3,0.4-0.6,0.9c-0.2,0.3-0.1,0.7,0,1.5c0.1,0.8,0.2,0.8,0.5,0.7
									c0.3-0.1,1.1-0.2,1.3-0.3c0.2,0,0.4-0.4,0.6-0.7c0.2-0.3,1-1.4,1.2-1.5c0.2-0.1,0.1-0.3,0.1-0.6c0-0.4-0.2-1.1-0.3-1.1
									c-0.1,0-0.9,0-1.1,0C1874.7,154.8,1874,155.4,1873.4,156.1z"/>
								<path id="XMLID_904_" class="st9" d="M1876.3,161.3c0,0-0.3,1.2-0.4,1.7c0,0.3-0.1,0.3,0.5,0.7c0.6,0.4,0.8,0.6,1,0.7
									c0.2,0.1,0.3,0.1,0.9,0c0.5-0.1,1-0.2,1.3-0.3c0.2-0.1,0.5-0.8,0.7-1.3c0.2-0.5,0.3-0.9,0.1-1.1c-0.2-0.2-0.5-0.4-0.8-0.7
									c-0.3-0.2-0.6-0.5-0.8-0.5c-0.1,0.1-1.5,0.4-2,0.5C1876.5,161.1,1876.3,161.2,1876.3,161.3z"/>
								<path id="XMLID_903_" class="st9" d="M1877.4,166.1c0,0,0.2-1,0.3-1.3c0-0.3,0.1-0.3,0.5-0.3s1.3-0.3,1.5-0.4
									c0.2-0.1,0.3-0.1,0.6,0.1c0.3,0.2,0.9,0.7,1.2,0.9c0.2,0.1-0.6,0.6-1.5,0.9C1878.7,166.3,1877.4,166.3,1877.4,166.1z"/>
								<path id="XMLID_902_" class="st9" d="M1876.5,156.4c0,0-0.1-0.7-0.2-1.2c0-0.4,0-0.4,0.5-0.6c0.5-0.2,1.8-0.5,2.1-0.5
									c0.3,0,0.6,0.1,1.3,0.4c0.7,0.3,0.9,0.5,0.9,0.7c0,0.2,0.1,1.1,0.1,1.6c0,0.3-0.1,0.3-0.6,0.5c-0.5,0.2-1,0.4-1.1,0.5
									c-0.2,0.1-0.4-0.1-0.9-0.4c-0.4-0.3-1.3-0.6-1.6-0.7C1876.6,156.5,1876.6,156.5,1876.5,156.4z"/>
								<path id="XMLID_901_" class="st9" d="M1879.4,158c0,0-0.3,1.2-0.4,1.8c-0.1,0.6-0.1,0.7,0.3,0.9c0.3,0.3,0.7,0.6,1,0.8
									c0.2,0.2,0.3,0.3,1,0.2c0.8-0.2,1.1-0.3,1.3-0.4c0.3-0.1,0.3-0.2,0.4-0.7c0.1-0.5,0.2-1.2,0.2-1.6c0-0.4,0-0.4-0.3-0.8
									c-0.3-0.3-0.9-0.8-1.1-1c-0.2-0.2-0.4-0.2-0.7-0.1c-0.3,0.1-1,0.4-1.3,0.5C1879.6,157.8,1879.5,157.8,1879.4,158z"/>
								<path id="XMLID_900_" class="st9" d="M1883.9,158.5c0,0-0.4,0.1-0.5,0.2c-0.1,0.1-0.1,0.5-0.2,0.9c0,0.4-0.2,1.2-0.3,1.5
									c-0.1,0.2,0.2,0.3,0.4,0.6c0.3,0.5,0.5,0.7,0.5,0.7c0.1-0.1,0.5-1,0.5-2.6C1884.2,159.1,1884.1,158.4,1883.9,158.5z"/>
								<path id="XMLID_899_" class="st9" d="M1872.2,161.9c0,0,0.1-0.2,0.1-0.1c0.1,0.1,0.6,1.1,1.1,1.6c0.2,0.2,0.2,0.2,0.2,0.5
									c0,0.3,0,0.4-0.2,0.2C1873.3,164,1872.4,162.9,1872.2,161.9z"/>
								<path id="XMLID_898_" class="st9" d="M1879.4,153.9c0,0-0.1,0-0.1,0c0,0,0.2,0.1,0.5,0.3c0.4,0.2,0.9,0.4,1.2,0.6
									c0.2,0.1,0.2,0.1,0.4,0.1c0.1-0.1,0.2-0.1,0-0.2C1881.2,154.6,1880.1,154.1,1879.4,153.9z"/>
								<path id="XMLID_897_" class="st10" d="M1879.2,164.3c0,0-0.8,0.2-1.3,0.3c-0.3,0-0.3,0.6-0.4,1.2c0,0,0.2-0.7,0.3-1
									C1877.9,164.6,1878.3,164.7,1879.2,164.3z"/>
								<path id="XMLID_896_" class="st9" d="M1873.7,155.9c0,0,0.7-0.7,1-0.9c0.3-0.2,1.4-0.1,1.4-0.1s-0.8,0-1.1,0
									C1874.6,155,1873.7,155.9,1873.7,155.9z"/>
								<path id="XMLID_895_" class="st9" d="M1877.6,154.4c0,0,1.1-0.3,1.4-0.3c0.3,0,1,0.3,1.8,0.7c-0.8-0.4-1.5-0.6-1.7-0.6
									C1878.9,154.2,1877.6,154.4,1877.6,154.4z"/>
								<path id="XMLID_894_" class="st9" d="M1873.5,159.3c0,0,1-0.3,1.1-0.2c0.1,0,1.3,1.6,1.3,1.6s-1-1.2-1.3-1.4
									C1874.3,159.2,1873.5,159.3,1873.5,159.3z"/>
								
									<linearGradient id="XMLID_6_" gradientUnits="userSpaceOnUse" x1="1880.8638" y1="162.3184" x2="1883.1764" y2="160.835" gradientTransform="matrix(1 -1.800000e-003 1.800000e-003 1 -0.141 1.0156)">
									<stop  offset="0.2851" style="stop-color:#9E9E9E"/>
									<stop  offset="0.3829" style="stop-color:#AAAAAA"/>
									<stop  offset="0.559" style="stop-color:#CACAC9"/>
									<stop  offset="0.6938" style="stop-color:#E6E6E5"/>
									<stop  offset="0.7298" style="stop-color:#EAEAEA"/>
									<stop  offset="0.87" style="stop-color:#F8F8F7"/>
									<stop  offset="1" style="stop-color:#FFFFFF"/>
								</linearGradient>
								<path id="XMLID_893_" class="st26" d="M1882.1,157.7c0,0,0.7,0.6,0.9,0.8c0.2,0.2,0.2,0.2,0,1.7c0.1-0.9,0.1-1.3,0-1.5
									C1882.8,158.4,1882.1,157.7,1882.1,157.7z"/>
								<g id="XMLID_886_">
									<path id="XMLID_892_" class="st9" d="M1876.1,161.9c0,0-0.2,0.7-0.2,1c-0.1,0.3-0.4,0.3-1.2,0.4c0.8-0.3,1-0.3,1.1-0.5
										C1875.8,162.7,1876.1,161.9,1876.1,161.9z"/>
									<path id="XMLID_891_" class="st9" d="M1876.1,162.4c0,0,0.2-0.7,0.2-1c0.1-0.3,0.6-0.3,1.2-0.5c0,0-0.5,0.2-0.9,0.3
										C1876.3,161.4,1876.3,161.8,1876.1,162.4z"/>
									<path id="XMLID_890_" class="st9" d="M1876.4,163.6c0,0,0.6,0.4,0.9,0.6c0.3,0.2,0.4,0.2,1.1,0c0.7-0.2,0.9-0.2,0.9-0.2
										s-1,0.2-1.5,0.2C1877.3,164.3,1876.4,163.6,1876.4,163.6z"/>
									<path id="XMLID_889_" class="st9" d="M1879.1,160c0,0,0.3-1.5,0.4-1.9c0.1-0.4,0.7-0.6,1.4-0.8c0,0-0.8,0.4-1.1,0.6
										C1879.5,158.1,1879.5,158.3,1879.1,160z"/>
									<path id="XMLID_888_" class="st9" d="M1879.7,161.2c0,0,0.5,0.4,0.6,0.5c0.1,0.1,0.1,0.5-0.3,1.6c0.2-0.7,0.5-1.3,0.2-1.6
										C1879.9,161.5,1879.7,161.2,1879.7,161.2z"/>
									<path id="XMLID_887_" class="st9" d="M1872.7,162.6c0,0,0.4,0.5,0.6,0.8c0.2,0.2,0.3,0.3,0.3,0.7c0-0.3-0.1-0.4-0.2-0.6
										C1873.3,163.4,1872.7,162.6,1872.7,162.6z"/>
								</g>
							</g>
						</g>
						<path id="XMLID_676_" class="st12" d="M1878.1,153.8c-3.5,0-6.2,2.8-6.2,6.3c0,3.5,2.8,6.2,6.3,6.2c3.5,0,6.2-2.8,6.2-6.3
							C1884.3,156.6,1881.5,153.8,1878.1,153.8z M1878,165c-3.2,0-5.7-2.4-5.7-5.4c0-3,2.5-5.4,5.7-5.4c3.2,0,5.7,2.4,5.7,5.4
							C1883.7,162.6,1881.2,165,1878,165z"/>
					</g>
					<g id="XMLID_672_">
						
							<ellipse id="XMLID_674_" transform="matrix(0.7632 -0.6461 0.6461 0.7632 342.622 1249.8176)" class="st13" cx="1876.7" cy="157.4" rx="0.6" ry="0.5"/>
						
							<ellipse id="XMLID_673_" transform="matrix(0.7632 -0.6461 0.6461 0.7632 341.8307 1249.4634)" class="st13" cx="1875.8" cy="158.3" rx="0.3" ry="0.2"/>
					</g>
				</g>
			</g>
			<g id="linije_4_">
				<g id="XMLID_521_">
					<g id="XMLID_939_">
						<path id="XMLID_950_" class="st22" d="M1804.3,115.6c0.4-0.3,0.8-0.5,1.3-0.8"/>
						<path id="XMLID_948_" class="st27" d="M1807.7,113.5c2.5-1.5,5.1-2.8,7.7-4.1"/>
						<path id="XMLID_940_" class="st22" d="M1816.5,108.9c0.5-0.2,0.9-0.4,1.4-0.6"/>
					</g>
				</g>
				<g id="XMLID_811_">
					<g id="XMLID_953_">
						<path id="XMLID_982_" class="st22" d="M1861.9,115.6c-0.4-0.3-0.8-0.5-1.3-0.8"/>
						<path id="XMLID_955_" class="st27" d="M1858.4,113.5c-2.5-1.5-5.1-2.8-7.7-4.1"/>
						<path id="XMLID_954_" class="st22" d="M1849.6,108.9c-0.5-0.2-0.9-0.4-1.4-0.6"/>
					</g>
				</g>
				<path id="XMLID_957_" class="st18" d="M1986.1,154.4c-0.2,0.8-3.5,6.4-5.2,8.4s-7.3,7.7-10.6,10.9c-3.3,3.2-6.1,9.8-7.1,13.3
					c-1,3.5-6.6,10.8-8.1,11.4"/>
				<path id="XMLID_956_" class="st18" d="M1983.8,152.9c-0.2,0.8-3.6,6.5-5.3,8.6c-1.7,2.1-7.4,7.9-10.8,11.1
					c-3.4,3.2-6.2,9.9-7.2,13.4s-6.7,11-8.2,11.6"/>
				<path id="XMLID_959_" class="st18" d="M1678.2,155.1c0.2,0.8,3.5,6.4,5.2,8.4c1.7,2,7.3,7.7,10.6,10.9c3.3,3.2,6.1,9.8,7.1,13.3
					c1,3.5,6.6,10.8,8.1,11.4"/>
				<path id="XMLID_958_" class="st18" d="M1680.5,153.6c0.2,0.8,3.6,6.5,5.3,8.6c1.7,2.1,7.4,7.9,10.8,11.1
					c3.4,3.2,6.2,9.9,7.2,13.4c1,3.5,6.7,11,8.2,11.6"/>
				<g id="XMLID_1000_">
					<g id="XMLID_1039_">
						<path id="XMLID_1042_" class="st28" d="M1735.9,390.4c-0.1,0.4,0.1,0.9,0.4,1.4"/>
						<path id="XMLID_1041_" class="st29" d="M1738.6,393.7c0.1,0.1,0.3,0.1,0.4,0.1c1.2,0.3,6.3,0.3,9.5,0.8
							c3.3,0.4,6.7,0.9,10.7,1.7c4,0.8,15,1.1,21.4,0.9c6.4-0.1,16.4,0.5,20.7,0.8c4.3,0.3,21.4,0.7,25.5,0.6
							c3.8-0.1,6.2-0.3,6.5-0.4c0.7,0.1,3,0.3,6.4,0.4c4.1,0.1,21.2-0.3,25.6-0.6c4.3-0.3,14.3-0.9,20.7-0.8
							c6.4,0.1,17.4-0.2,21.4-0.9s7.4-1.3,10.7-1.7c3.3-0.4,8.4-0.4,9.5-0.8c0.4-0.1,1.1-0.5,1.6-1"/>
						<path id="XMLID_1040_" class="st28" d="M1930.2,391.7c0.4-0.5,0.6-1,0.4-1.4"/>
					</g>
				</g>
				<g id="XMLID_994_">
					<g id="XMLID_1034_">
						<path id="XMLID_1037_" class="st28" d="M1736.3,388.4c-0.1,0.4,0.1,0.9,0.4,1.4"/>
						<path id="XMLID_1036_" class="st30" d="M1739,391.7c0.1,0.1,0.3,0.1,0.4,0.1c1.2,0.3,6.3,0.3,9.5,0.8s6.7,0.9,10.7,1.7
							s14.9,1.1,21.3,0.9c6.4-0.1,16.3,0.5,20.6,0.8s21.3,0.7,25.4,0.6c3.8-0.1,6.2-0.3,6.5-0.4c0.7,0.1,2.9,0.3,6.3,0.4
							c4.1,0.1,21.1-0.3,25.4-0.6s14.2-0.9,20.6-0.8c6.4,0.1,17.3-0.2,21.3-0.9s7.4-1.3,10.7-1.7c3.2-0.4,8.3-0.4,9.5-0.8
							c0.4-0.1,1.1-0.5,1.6-1"/>
						<path id="XMLID_1035_" class="st28" d="M1929.7,389.7c0.4-0.5,0.6-1,0.4-1.4"/>
					</g>
				</g>
				<g id="XMLID_987_">
					<path id="XMLID_991_" class="st14" d="M1749.6,398.8c5.9,1.1,7.9,1.5,14.4,2.4s14.8,2.4,17.6,2.4s12,0.8,16,0.9
						s12.4,0.5,15.1,1s10,2.4,13.3,2.4s7.2,0,7.2,0"/>
					<path id="XMLID_988_" class="st14" d="M1918.3,398.7c-0.5,0.1-1,0-1.5,0.1c-5.9,1.1-7.9,1.5-14.4,2.4s-14.8,2.4-17.6,2.4
						s-12,0.8-16,0.9s-12.4,0.5-15.1,1s-10,2.4-13.3,2.4s-7.2,0-7.2,0"/>
				</g>
				<g id="XMLID_980_">
					<path id="XMLID_984_" class="st14" d="M1781.6,401.6c2.9,0,12,0.8,16,0.9s12.4,0.5,15.1,1s10,2.4,13.3,2.4s7.2,0,7.2,0"/>
					<path id="XMLID_981_" class="st14" d="M1884.8,401.6c-2.9,0-12,0.8-16,0.9s-12.4,0.5-15.1,1s-10,2.4-13.3,2.4s-7.2,0-7.2,0"/>
				</g>
				<path id="XMLID_960_" class="st4" d="M1984.6,152.5c-5.6-3.6-17.2-10.3-19.1-11.8s-7.1-4.3-7.9-4.7s-4.6-2.5-4.9-3.2
					s-1.6-1.8-2.6-2.1s-7.9-3.9-10.2-5.2s-13.8-7.6-14.6-8.3s-3.8-3.9-6.1-4.8s-5.4-3.3-12.6-5.1s-18.9-5.8-20-6.3s-3.2-2.5-4.4-2.4
					s-5.6-0.4-7.9-1.4s-7.7-3.3-8.5-3.7s-2.3-2.1-4-2.6s-4.3,0.2-6.8,1.3s-15.4,3.6-21.9,3.4v0c-6.6,0.1-19.1-2.3-21.7-3.4
					c-2.6-1.1-5.1-1.8-6.8-1.3s-3.2,2.1-4,2.6s-6.1,2.8-8.5,3.7s-6.8,1.5-7.9,1.4s-3.3,1.9-4.4,2.4s-12.8,4.5-20,6.3
					s-10.3,4.1-12.6,5.1s-5.2,4.1-6.1,4.8s-12.4,7.1-14.6,8.3s-9.3,4.9-10.2,5.2s-2.3,1.4-2.6,2.1s-4.1,2.8-4.9,3.2s-6,3.2-7.9,4.7
					s-13.6,8.2-19.1,11.8s-8.3,5.8-8.3,5.8c0.2,0.8,3.4,6.3,5.1,8.3s7.1,7.6,10.4,10.7s5.9,9.6,6.9,12.9s6.4,10.6,7.9,11.1
					s5.9-1.9,12.6-5.1s16.9-4.6,18.6-5.2s5.1-2.5,7.4-3.7c1.7,1.4,4,11.3,4.3,15.3s0.3,12.6,0.4,19.1s-0.5,24.5-1.1,29
					s-0.3,31.9-0.4,35s-1.1,5.6-1.8,7.9s0.8,14.5,0.8,18s-0.2,13.8-0.2,15.9s-1.7,11.9-1.8,15.5s-1.3,14.8-1.6,16.3
					s-0.1,6.3-0.4,10.6s-5.9,23.4-6.3,24.4s1.9,3.2,3.1,3.5s6.4,0.3,9.7,0.8s6.8,0.9,10.9,1.7s15.2,1.1,21.7,0.9s16.6,0.5,21,0.8
					s21.8,0.7,25.9,0.6c3.9-0.1,6.3-0.3,6.6-0.4c0.7,0.1,3,0.3,6.5,0.4c4.2,0.1,21.6-0.3,25.9-0.6s14.5-0.9,21-0.8
					s17.6-0.2,21.7-0.9s7.6-1.3,10.9-1.7s8.5-0.4,9.7-0.8s3.5-2.5,3.1-3.5s-6-20.1-6.3-24.4s-0.1-9-0.4-10.6s-1.5-12.7-1.6-16.3
					s-1.8-13.4-1.8-15.5s-0.2-12.4-0.2-15.9s1.4-15.6,0.8-18s-1.6-4.9-1.8-7.9s0.1-30.5-0.4-35s-1.1-22.4-1.1-29s0.1-15.1,0.4-19.1
					c0.3-3.7,2.3-12.4,3.9-14.8c0.1-0.2,0.3-0.4,0.4-0.5c2.3,1.2,5.6,3.1,7.4,3.7s11.9,2,18.6,5.2s11.1,5.6,12.6,5.1
					s6.9-7.8,7.9-11.1s3.7-9.8,6.9-12.9s8.8-8.7,10.4-10.7s4.9-7.5,5.1-8.3C1992.9,158.3,1990.2,156,1984.6,152.5z"/>
				<path id="XMLID_945_" class="st3" d="M1865.1,104.2c-1.9-0.1-4.2,0.7-6.6,1.6c-3,1.2-17.9,4.1-25.5,3.9v0
					c-7.7,0.1-22.2-2.7-25.2-3.9c-2.4-1-4.8-1.7-6.7-1.6"/>
				<g id="XMLID_937_">
					<g id="XMLID_942_">
						<path id="XMLID_949_" class="st22" d="M1865.1,100.8c-0.5,0-1,0.1-1.5,0.1"/>
						<path id="XMLID_947_" class="st31" d="M1860.4,101.8c-0.6,0.2-1.1,0.4-1.7,0.7c-2.6,1.1-14.5,3.5-22.6,3.9"/>
						<path id="XMLID_946_" class="st22" d="M1834.4,106.4c-0.5,0-1,0-1.5,0v0c-0.5,0-1,0-1.5,0"/>
						<path id="XMLID_944_" class="st32" d="M1828.1,106.3c-7.9-0.7-18.2-2.8-20.7-3.8c-1.1-0.5-2.3-0.9-3.3-1.2"/>
						<path id="XMLID_943_" class="st22" d="M1802.6,101c-0.5-0.1-1-0.1-1.5-0.1"/>
					</g>
				</g>
				<path id="XMLID_927_" class="st4" d="M1674.4,160.2c0,0,2.2,6.2,4,9.6s5.1,6.1,8.2,9.9s4.8,5.3,6.1,7.6s3,5.3,4.5,7.1
					s3.2,3.3,3.2,3.3"/>
				<path id="XMLID_926_" class="st4" d="M1991,161.9c0,0-2.3,6.2-4.1,9.6c-1.8,3.4-5.2,6.1-8.3,9.9c-3.1,3.9-4.8,5.3-6.1,7.6
					c-1.3,2.3-3.1,5.3-4.6,7.1c-1.5,1.8-3.2,3.3-3.2,3.3"/>
				<g id="XMLID_923_">
					<path id="XMLID_925_" class="st4" d="M1739.1,398.1c0,0,4.4,2.6,10.2,3.7s7.9,1.8,14.4,2.6s14.8,2.4,17.6,2.4s12,0.8,16,0.9
						s12.4,0.5,15.1,1s10,2.4,13.3,2.4s7.2,0,7.2,0"/>
					<path id="XMLID_924_" class="st4" d="M1926.9,398.1c0,0-4.4,2.6-10.2,3.7s-7.9,1.8-14.4,2.6s-14.8,2.4-17.6,2.4s-12,0.8-16,0.9
						s-12.4,0.5-15.1,1s-10,2.4-13.3,2.4s-7.2,0-7.2,0"/>
				</g>
				<g id="XMLID_522_">
					<path id="XMLID_679_" class="st3" d="M1872.3,96.6c0.8,2.7,1.2,5.6,1.2,8.5c0,19.2-18.1,34.8-40.5,34.8s-40.5-15.6-40.5-34.8
						c0-2.9,0.4-5.7,1.2-8.4"/>
					<path id="XMLID_520_" class="st4" d="M1864.1,92.6c0.6,2.7,1,5.6,1,8.5c0,19.2-14.3,34.8-32,34.8s-32-15.6-32-34.8
						c0-2.9,0.3-5.7,1-8.4"/>
				</g>
				<path id="XMLID_754_" class="st3" d="M1742.4,188.1c1.6-32.8,22.1-60.8,51.4-74.3"/>
				<path id="XMLID_809_" class="st33" d="M1802.7,113.1c3.4-2.1,6.9-4,10.5-5.7"/>
				<path id="XMLID_810_" class="st33" d="M1863.2,113.1c-3.4-2.1-6.9-4-10.5-5.7"/>
				<path id="XMLID_750_" class="st3" d="M1872.3,113.7c29.2,13.4,49.8,41.4,51.4,74.1"/>
			</g>
		</g>
	</g>
</g>
</svg>
