
<svg width="203px" height="255px" viewBox="0 0 203 255" version="1.1" xmlns="http://www.w3.org/2000/svg" xmlns:xlink="http://www.w3.org/1999/xlink">
    <g id="Page-1" stroke="none" stroke-width="1" fill="none" fill-rule="evenodd">
        <g id="seven_modeli_dres_sorc_stucne" transform="translate(-221.000000, -696.000000)">
            <g id="stucne" transform="translate(222.000000, 696.000000)">
                <g id="s3">
                    <g id="linije_10_">
                        <g id="XMLID_1355_" transform="translate(121.000000, 148.000000)" stroke="#A7A9AC">
                            <path d="M31.4,0.6 L31.4,16.7" id="XMLID_1376_"></path>
                            <path d="M1.4,0.6 L1.4,16.7" id="XMLID_1375_"></path>
                            <path d="M1.4,32.9 L1.4,37.8" id="XMLID_1374_"></path>
                            <path d="M29.9,0.6 L29.9,37.8" id="XMLID_1373_"></path>
                            <path d="M28.3,0.6 L28.3,37.8" id="XMLID_1372_"></path>
                            <path d="M26.8,0.6 L26.8,37.8" id="XMLID_1371_"></path>
                            <path d="M25.2,0.6 L25.2,37.8" id="XMLID_1370_"></path>
                            <path d="M23.6,0.6 L23.6,37.8" id="XMLID_1369_"></path>
                            <path d="M22.1,0.6 L22.1,37.8" id="XMLID_1368_"></path>
                            <path d="M20.5,0.6 L20.5,37.8" id="XMLID_1367_"></path>
                            <path d="M18.9,0.6 L18.9,37.8" id="XMLID_1366_"></path>
                            <path d="M17.4,0.6 L17.4,37.8" id="XMLID_1365_"></path>
                            <path d="M15.8,0.6 L15.8,37.8" id="XMLID_1364_"></path>
                            <path d="M14.3,0.6 L14.3,37.8" id="XMLID_1363_"></path>
                            <path d="M12.7,0.6 L12.7,37.8" id="XMLID_1362_"></path>
                            <path d="M11.1,0.6 L11.1,37.8" id="XMLID_1361_"></path>
                            <path d="M9.6,0.6 L9.6,37.8" id="XMLID_1360_"></path>
                            <path d="M8,0.6 L8,37.8" id="XMLID_1359_"></path>
                            <path d="M6.4,0.6 L6.4,37.8" id="XMLID_1358_"></path>
                            <path d="M4.9,0.6 L4.9,37.8" id="XMLID_1357_"></path>
                            <path d="M3.3,0.6 L3.3,37.8" id="XMLID_1356_"></path>
                        </g>
                        <g id="XMLID_1333_" transform="translate(48.000000, 148.000000)" stroke="#939598">
                            <path d="M1,0.6 L1,16.7" id="XMLID_1354_"></path>
                            <path d="M30.9,0.6 L30.9,16.7" id="XMLID_1353_"></path>
                            <path d="M30.9,32.9 L30.9,37.8" id="XMLID_1352_"></path>
                            <path d="M2.5,0.6 L2.5,37.8" id="XMLID_1351_"></path>
                            <path d="M4,0.6 L4,37.8" id="XMLID_1350_"></path>
                            <path d="M5.6,0.6 L5.6,37.8" id="XMLID_1349_"></path>
                            <path d="M7.2,0.6 L7.2,37.8" id="XMLID_1348_"></path>
                            <path d="M8.7,0.6 L8.7,37.8" id="XMLID_1347_"></path>
                            <path d="M10.3,0.6 L10.3,37.8" id="XMLID_1346_"></path>
                            <path d="M11.8,0.6 L11.8,37.8" id="XMLID_1345_"></path>
                            <path d="M13.4,0.6 L13.4,37.8" id="XMLID_1344_"></path>
                            <path d="M15,0.6 L15,37.8" id="XMLID_1343_"></path>
                            <path d="M16.5,0.6 L16.5,37.8" id="XMLID_1342_"></path>
                            <path d="M18.1,0.6 L18.1,37.8" id="XMLID_1341_"></path>
                            <path d="M19.7,0.6 L19.7,37.8" id="XMLID_1340_"></path>
                            <path d="M21.2,0.6 L21.2,37.8" id="XMLID_1339_"></path>
                            <path d="M22.8,0.6 L22.8,37.8" id="XMLID_1338_"></path>
                            <path d="M24.3,0.6 L24.3,37.8" id="XMLID_1337_"></path>
                            <path d="M25.9,0.6 L25.9,37.8" id="XMLID_1336_"></path>
                            <path d="M27.5,0.6 L27.5,37.8" id="XMLID_1335_"></path>
                            <path d="M29.1,0.6 L29.1,37.8" id="XMLID_1334_"></path>
                        </g>
                        <g id="XMLID_1313_" transform="translate(48.000000, 1.000000)" stroke="#939598" stroke-width="0.5">
                            <path d="M0.8,0.8 L0.8,12.1" id="XMLID_1332_"></path>
                            <path d="M28.8,26.8 L28.8,38" id="XMLID_1331_"></path>
                            <path d="M2.3,0.8 L2.3,38.1" id="XMLID_1330_"></path>
                            <path d="M3.8,0.8 L3.8,38.1" id="XMLID_1329_"></path>
                            <path d="M5.4,0.8 L5.4,38.1" id="XMLID_1328_"></path>
                            <path d="M7,0.8 L7,38.1" id="XMLID_1327_"></path>
                            <path d="M8.5,0.8 L8.5,38.1" id="XMLID_1326_"></path>
                            <path d="M10.1,0.8 L10.1,38.1" id="XMLID_1325_"></path>
                            <path d="M11.7,0.8 L11.7,38.1" id="XMLID_1324_"></path>
                            <path d="M13.2,0.8 L13.2,38.1" id="XMLID_1323_"></path>
                            <path d="M14.8,0.8 L14.8,38.1" id="XMLID_1322_"></path>
                            <path d="M16.3,0.8 L16.3,38.1" id="XMLID_1321_"></path>
                            <path d="M17.9,0.8 L17.9,38.1" id="XMLID_1320_"></path>
                            <path d="M19.5,0.8 L19.5,38.1" id="XMLID_1319_"></path>
                            <path d="M21,0.8 L21,38.1" id="XMLID_1318_"></path>
                            <path d="M22.6,0.8 L22.6,38.1" id="XMLID_1317_"></path>
                            <path d="M24.2,0.8 L24.2,38.1" id="XMLID_1316_"></path>
                            <path d="M25.7,0.8 L25.7,38.1" id="XMLID_1315_"></path>
                            <path d="M27.3,0.8 L27.3,38.1" id="XMLID_1314_"></path>
                        </g>
                        <g id="XMLID_1292_" transform="translate(18.000000, 203.000000)" stroke="#939598">
                            <path d="M16.6,0.2 L9.2,5.4" id="XMLID_1312_"></path>
                            <path d="M17.4,1.4 L0.3,13.4" id="XMLID_1311_"></path>
                            <path d="M18.3,2.7 L1.2,14.7" id="XMLID_1310_"></path>
                            <path d="M19.2,4 L2.1,16" id="XMLID_1309_"></path>
                            <path d="M20.1,5.3 L3,17.2" id="XMLID_1308_"></path>
                            <path d="M21,6.6 L3.9,18.5" id="XMLID_1307_"></path>
                            <path d="M21.9,7.8 L4.8,19.8" id="XMLID_1306_"></path>
                            <path d="M22.8,9.1 L5.7,21.1" id="XMLID_1305_"></path>
                            <path d="M23.7,10.4 L6.6,22.4" id="XMLID_1304_"></path>
                            <path d="M24.6,11.7 L7.5,23.6" id="XMLID_1303_"></path>
                            <path d="M25.5,13 L8.4,24.9" id="XMLID_1302_"></path>
                            <path d="M26.4,14.2 L9.3,26.2" id="XMLID_1301_"></path>
                            <path d="M27.3,15.5 L10.2,27.5" id="XMLID_1300_"></path>
                            <path d="M28.2,16.8 L11.1,28.8" id="XMLID_1299_"></path>
                            <path d="M29.1,18.1 L12,30" id="XMLID_1298_"></path>
                            <path d="M30,19.4 L12.9,31.3" id="XMLID_1297_"></path>
                            <path d="M30.9,20.6 L13.8,32.6" id="XMLID_1296_"></path>
                            <path d="M31.8,21.9 L14.7,33.9" id="XMLID_1295_"></path>
                            <path d="M32.7,23.3 L15.6,35.2" id="XMLID_1294_"></path>
                            <path d="M33.8,24.7 L16.7,36.7" id="XMLID_1293_"></path>
                        </g>
                        <path d="M48.6,38.9 L77.9,38.9" id="XMLID_1291_" stroke="#000000" stroke-width="0.5"></path>
                        <path d="M48.6,37.6 L77.9,37.6" id="XMLID_1290_" stroke="#000000" stroke-width="0.5"></path>
                        <g id="XMLID_1267_" transform="translate(124.000000, 1.000000)" stroke="#939598" stroke-width="0.5">
                            <path d="M28.5,0.8 L28.5,12.1" id="XMLID_1286_"></path>
                            <path d="M0.6,26.8 L0.6,38" id="XMLID_1285_"></path>
                            <path d="M27.1,0.8 L27.1,38.1" id="XMLID_1284_"></path>
                            <path d="M25.5,0.8 L25.5,38.1" id="XMLID_1283_"></path>
                            <path d="M23.9,0.8 L23.9,38.1" id="XMLID_1282_"></path>
                            <path d="M22.4,0.8 L22.4,38.1" id="XMLID_1281_"></path>
                            <path d="M20.8,0.8 L20.8,38.1" id="XMLID_1280_"></path>
                            <path d="M19.3,0.8 L19.3,38.1" id="XMLID_1279_"></path>
                            <path d="M17.7,0.8 L17.7,38.1" id="XMLID_1278_"></path>
                            <path d="M16.1,0.8 L16.1,38.1" id="XMLID_1277_"></path>
                            <path d="M14.6,0.8 L14.6,38.1" id="XMLID_1276_"></path>
                            <path d="M13,0.8 L13,38.1" id="XMLID_1275_"></path>
                            <path d="M11.4,0.8 L11.4,38.1" id="XMLID_1274_"></path>
                            <path d="M9.9,0.8 L9.9,38.1" id="XMLID_1273_"></path>
                            <path d="M8.3,0.8 L8.3,38.1" id="XMLID_1272_"></path>
                            <path d="M6.8,0.8 L6.8,38.1" id="XMLID_1271_"></path>
                            <path d="M5.2,0.8 L5.2,38.1" id="XMLID_1270_"></path>
                            <path d="M3.6,0.8 L3.6,38.1" id="XMLID_1269_"></path>
                            <path d="M2.1,0.8 L2.1,38.1" id="XMLID_1268_"></path>
                        </g>
                        <g id="XMLID_1246_" transform="translate(149.000000, 203.000000)" stroke="#939598">
                            <path d="M17.8,0.2 L25.1,5.4" id="XMLID_1266_"></path>
                            <path d="M16.9,1.4 L34,13.4" id="XMLID_1265_"></path>
                            <path d="M16,2.7 L33.1,14.7" id="XMLID_1264_"></path>
                            <path d="M15.1,4 L32.2,16" id="XMLID_1263_"></path>
                            <path d="M14.2,5.3 L31.3,17.2" id="XMLID_1262_"></path>
                            <path d="M13.3,6.6 L30.4,18.5" id="XMLID_1261_"></path>
                            <path d="M12.4,7.8 L29.5,19.8" id="XMLID_1260_"></path>
                            <path d="M11.5,9.1 L28.6,21.1" id="XMLID_1259_"></path>
                            <path d="M10.6,10.4 L27.7,22.4" id="XMLID_1258_"></path>
                            <path d="M9.7,11.7 L26.8,23.6" id="XMLID_1257_"></path>
                            <path d="M8.8,13 L25.9,24.9" id="XMLID_1256_"></path>
                            <path d="M8,14.2 L25,26.2" id="XMLID_1255_"></path>
                            <path d="M7.1,15.5 L24.1,27.5" id="XMLID_1254_"></path>
                            <path d="M6.2,16.8 L23.3,28.8" id="XMLID_1253_"></path>
                            <path d="M5.3,18.1 L22.4,30" id="XMLID_1252_"></path>
                            <path d="M4.4,19.4 L21.5,31.3" id="XMLID_1251_"></path>
                            <path d="M3.5,20.6 L20.6,32.6" id="XMLID_1250_"></path>
                            <path d="M2.6,21.9 L19.7,33.9" id="XMLID_1249_"></path>
                            <path d="M1.6,23.3 L18.7,35.2" id="XMLID_1248_"></path>
                            <path d="M0.6,24.7 L17.7,36.7" id="XMLID_1247_"></path>
                        </g>
                        <path d="M152.8,38.9 L123.5,38.9" id="XMLID_1245_" stroke="#000000" stroke-width="0.5"></path>
                        <path d="M152.8,37.6 L123.5,37.6" id="XMLID_1244_" stroke="#000000" stroke-width="0.5"></path>
                        <path d="M152.5,1.8 C152.5,1.8 147.1,1.2 143.5,1.2 C139.9,1.2 129,0.8 128.3,0.9 C127.6,1 123.6,1.5 123.6,2.9 C123.6,4.3 124.4,7.9 124.2,13 C124,18.1 124.5,26.6 124.2,29.3 C123.9,32 123.7,35.2 123.1,41.1 C122.5,47 121.2,110 121,122.2 C120.8,134.4 120.7,143 121,149.2 C121.3,155.4 122.2,163.7 122.6,167.8 C123,171.9 123.4,175.6 122.8,178.9 C122.2,182.2 121.7,182.3 121.5,184.2 C121.3,186.1 122.3,187.1 120.5,190 C118.7,192.9 117.2,194.3 116.3,197.6 C115.4,200.9 114.7,202.2 115.2,203.7 C115.7,205.2 116.5,212 118.9,214 C121.3,216.1 129,220 135.3,222.3 C141.6,224.6 151.8,228.8 154.6,231.2 C157.4,233.6 180.5,253.6 180.5,253.6 L186.1,254 C186.1,254 188.7,251.7 191.3,250.7 C193.9,249.7 197.3,249.9 197.7,249.1 C198.1,248.3 200.9,246.3 201,241.1 C201.1,235.9 199.1,233.8 198.4,233 C197.7,232.2 194.4,226.8 193.9,226.7 C193.4,226.6 193.3,224.3 192.1,223.2 C190.9,222.1 189.1,221.7 187.8,221.2 C186.5,220.7 183.5,215.5 176.5,210 C169.5,204.5 163.9,201 162,199.1 C160.1,197.2 153.6,189.7 152.4,185.3 C151.2,180.9 149.9,177.8 151.2,172 C152.5,166.2 155,134.8 155,129.6 C155.1,124.3 154.8,61.1 154.5,54.6 C154.2,48.1 152.7,41.5 152.4,36.7 C152.1,31.9 151.9,14.8 152.3,13 C152.7,11.2 154.3,6.2 153.9,4.3 C153.7,2.6 152.5,1.8 152.5,1.8 Z" id="XMLID_1222_" stroke="#000000"></path>
                        <path d="M48.8,1.8 C48.8,1.8 54.2,1.2 57.8,1.2 C61.4,1.2 72.3,0.8 73,0.9 C73.7,1 77.7,1.5 77.7,2.9 C77.7,4.3 76.9,7.9 77.1,13 C77.3,18.1 76.8,26.6 77.1,29.3 C77.4,32 77.6,35.2 78.2,41.1 C78.8,47 80.1,110 80.3,122.2 C80.5,134.4 80.6,143 80.3,149.2 C80,155.4 79.1,163.7 78.7,167.8 C78.3,171.9 77.9,175.6 78.5,178.9 C79.1,182.2 79.6,182.3 79.8,184.2 C80,186.1 79,187.1 80.8,190 C82.6,192.9 84.1,194.3 85,197.6 C85.9,200.9 86.6,202.2 86.1,203.7 C85.6,205.2 84.8,212 82.4,214 C80,216.1 72.3,220 66,222.3 C59.7,224.6 49.5,228.8 46.7,231.2 C43.9,233.6 20.8,253.6 20.8,253.6 L15.2,254 C15.2,254 12.6,251.7 10,250.7 C7.4,249.7 4,249.9 3.6,249.1 C3.2,248.3 0.4,246.3 0.3,241.1 C0.1,235.8 2.2,233.8 2.9,233 C3.6,232.2 6.9,226.8 7.4,226.7 C7.9,226.6 8,224.3 9.2,223.2 C10.4,222.1 12.2,221.7 13.5,221.2 C14.8,220.7 17.8,215.5 24.8,210 C31.8,204.5 37.4,201 39.3,199.1 C41.2,197.2 47.7,189.7 48.9,185.3 C50.1,180.9 51.4,177.8 50.1,172 C48.8,166.2 46.3,134.8 46.3,129.6 C46.3,124.4 46.5,61.1 46.8,54.6 C47.1,48.1 48.6,41.5 48.9,36.7 C49.2,31.9 49.4,14.8 49,13 C48.6,11.2 47,6.2 47.4,4.3 C47.6,2.6 48.8,1.8 48.8,1.8 Z" id="XMLID_1084_" stroke="#000000"></path>
                    </g>
                    <g id="sara_2_" transform="translate(2.000000, 91.000000)" fill="#000000" fill-rule="nonzero">
                        <g id="XMLID_1237_" transform="translate(0.000000, 137.000000)">
                            <polygon id="XMLID_1240_" points="3.8 0.3 3.3 1.2 4 1.9 2.6 2.7 2.4 2.6 1 4.7 5.6 2.1"></polygon>
                            <path d="M12.7,9 C12.4,8.7 12.1,8.5 11.8,8.4 C11.5,8.3 11.1,8.2 10.8,8.3 C10.4,8.3 10.1,8.5 9.8,8.6 C9.5,8.8 9.2,9 9.1,9.2 C9,9.4 8.9,9.6 8.9,9.9 C8.9,10.1 9,10.4 9.3,10.8 C9.5,11.2 9.6,11.5 9.6,11.6 C9.6,11.7 9.5,11.8 9.4,11.9 C9.3,12 9.1,12 9,12 C8.8,12 8.5,11.8 8.3,11.7 C8.1,11.5 8,11.3 8.1,11.2 C8.2,11.1 8.3,10.9 8.5,10.7 L7.8,10 C7.3,10.3 7,10.6 7,11 C6.9,11.4 7.1,11.8 7.5,12.2 C7.8,12.5 8,12.6 8.3,12.8 C8.6,12.9 8.9,12.9 9.3,12.9 C9.6,12.9 9.9,12.8 10.2,12.6 C10.6,12.4 10.9,12.1 11,11.7 C11.1,11.4 11,11.1 10.8,10.6 C10.6,10.3 10.5,10 10.5,9.9 C10.4,9.7 10.4,9.6 10.5,9.5 C10.5,9.4 10.6,9.3 10.7,9.2 C10.9,9.1 11.1,9 11.4,9.1 C11.7,9.1 11.9,9.2 12.1,9.5 C12.3,9.7 12.4,9.9 12.3,10.1 C12.3,10.3 12.1,10.5 11.8,10.8 L12.6,11.4 C13.1,11 13.5,10.6 13.5,10.2 C13.3,9.8 13.1,9.4 12.7,9 Z" id="XMLID_1239_"></path>
                            <polygon id="XMLID_1238_" points="8.3 4.8 7.4 5.3 9.3 7.2 7.9 8 6.2 6.4 5.3 6.9 7 8.5 5.8 9.2 4 7.4 3.9 7.5 7.4 3.9 6.6 3.1 1 4.7 0.7 5.1 0.5 5.3 0.9 5.7 5.6 4.3 2.6 7.4 3.1 7.9 3.3 8.1 5.6 10.4 10.9 7.4"></polygon>
                        </g>
                        <g id="XMLID_1224_" transform="translate(187.000000, 136.000000)">
                            <g id="XMLID_1225_">
                                <polygon id="XMLID_1235_" points="6.9 2.3 6 0.8 5.6 1.4 8.2 6.9 4.7 2.7 2.6 5.6 3.3 6.4 4.8 4.2 5.9 5.5 4.5 7.5 5.2 8.2 6.5 6.3 7.4 7.3 5.9 9.4 6.6 10.2 8.5 7.5 8.6 7.4 9.1 6.7 6.9 2.2"></polygon>
                                <path d="M1.9,6.7 C2.7,7.6 3.8,8.8 4.4,9.8 C3.2,9.3 2,8.8 0.7,8.3 L0.2,9.1 C1.5,10.7 2.8,12.2 4.1,13.8 L4.6,13.1 C3.8,12.2 2.7,11 2.1,10 C3.3,10.5 4.5,11 5.8,11.5 L6.3,10.7 C5,9.1 3.7,7.6 2.4,6 L1.9,6.7 Z" id="XMLID_1234_"></path>
                            </g>
                        </g>
                        <g id="XMLID_1377_" transform="translate(44.000000, 0.000000)">
                            <g id="XMLID_1287_">
                                <polygon id="XMLID_1289_" points="0.5 0.1 0.5 2 4.7 2 0.5 7.7 0.5 8.8 8.3 0.1"></polygon>
                                <polygon id="XMLID_1288_" points="0.5 3.2 0.5 5.9 2.7 3.2"></polygon>
                            </g>
                            <g id="XMLID_1412_" transform="translate(0.000000, 3.000000)">
                                <polygon id="XMLID_1413_" points="33.8 11.2 0.9 11.2 0.3 11.8 0.2 11.5 0.2 12.7 33.8 12.7"></polygon>
                                <polygon id="XMLID_1414_" points="33.9 14.8 0.2 14.8 0.2 16.4 33.9 16.4"></polygon>
                                <polygon id="XMLID_1415_" points="33.9 18.5 0.2 18.5 0.2 20.2 34 20.2"></polygon>
                                <polygon id="XMLID_1416_" points="34 22.1 0.2 22.1 0.2 24 34 24"></polygon>
                                <polygon id="XMLID_1417_" points="2.9 8.9 33.8 8.9 33.7 7.5 4.1 7.5"></polygon>
                                <polygon id="XMLID_1418_" points="9.6 1.4 33.6 1.4 33.6 0.3 10.7 0.3"></polygon>
                                <polygon id="XMLID_1419_" points="6.3 5.1 33.7 5.1 33.7 3.9 7.4 3.9"></polygon>
                                <polygon id="XMLID_1420_" points="0.8 46.6 34.2 46.6 34.2 44 0.6 44"></polygon>
                                <polygon id="XMLID_1421_" points="0.2 39 34.2 39 34.2 36.7 0.2 36.7"></polygon>
                                <polygon id="XMLID_1422_" points="0.5 42.8 34.2 42.8 34.2 40.4 0.3 40.4"></polygon>
                                <polygon id="XMLID_1423_" points="0.2 35.3 34.2 35.3 34.2 33.1 0.2 33.1"></polygon>
                                <polygon id="XMLID_1424_" points="34.1 25.8 0.2 25.8 0.2 27.7 34.1 27.7"></polygon>
                                <polygon id="XMLID_1425_" points="34.1 29.4 0.2 29.4 0.2 31.5 34.2 31.5"></polygon>
                                <polygon id="XMLID_1426_" points="1.1 50.3 34.2 50.3 34.2 47.7 0.9 47.7"></polygon>
                                <polygon id="XMLID_1427_" points="1.3 54.1 34.2 54.1 34.2 51.3 1.1 51.3"></polygon>
                            </g>
                        </g>
                        <g id="XMLID_751_" transform="translate(119.000000, 0.000000)">
                            <g id="XMLID_1241_" transform="translate(24.000000, 0.000000)">
                                <polygon id="XMLID_1243_" points="8.3 3.2 4 3.2 3.7 4.4 5.9 4.4 0.6 12.7"></polygon>
                                <polygon id="XMLID_1242_" points="9.7 0.1 5 0.1 4.4 2 9.7 2 9.7 2.8 1.5 14 9.7 4.8"></polygon>
                            </g>
                            <g id="XMLID_678_" transform="translate(0.000000, 3.000000)">
                                <polygon id="XMLID_1378_" points="34.2 11.2 0.5 11.2 0.5 12.7 34.1 12.7"></polygon>
                                <polygon id="XMLID_1379_" points="25.9 0.3 0.7 0.3 0.7 1.4 25.5 1.4"></polygon>
                                <polygon id="XMLID_1380_" points="34.1 18.5 0.4 18.5 0.4 20.2 34.1 20.2"></polygon>
                                <polygon id="XMLID_1381_" points="34.1 14.8 0.4 14.8 0.4 16.4 34.1 16.4"></polygon>
                                <polygon id="XMLID_1382_" points="24.6 3.9 0.6 3.9 0.6 5.1 24.2 5.1"></polygon>
                                <polygon id="XMLID_1383_" points="23.4 7.5 0.6 7.5 0.6 8.9 22.9 8.9"></polygon>
                                <polygon id="XMLID_1384_" points="34.1 22.1 0.3 22.1 0.3 24 34.1 24"></polygon>
                                <polygon id="XMLID_1385_" points="33.7 44 0.2 44 0.2 46.6 33.5 46.6"></polygon>
                                <polygon id="XMLID_1387_" points="33.4 47.7 0.2 47.7 0.2 50.3 33.2 50.3"></polygon>
                                <polygon id="XMLID_1388_" points="33.2 51.3 0.2 51.3 0.2 54.1 33 54.1"></polygon>
                                <polygon id="XMLID_1390_" points="34 40.4 0.2 40.4 0.2 42.8 33.8 42.8"></polygon>
                                <polygon id="XMLID_1391_" points="34.1 36.7 0.2 36.7 0.2 39 34.1 39"></polygon>
                                <polygon id="XMLID_1392_" points="34.1 25.8 0.3 25.8 0.2 27.7 34.1 27.7"></polygon>
                                <polygon id="XMLID_1393_" points="34.1 29.4 0.2 29.4 0.2 31.5 34.1 31.5"></polygon>
                                <polygon id="XMLID_1394_" points="34.1 33.1 0.2 33.1 0.2 35.3 34.1 35.3"></polygon>
                            </g>
                        </g>
                        <g id="XMLID_1400_" transform="translate(37.000000, 138.000000)">
                            <g id="XMLID_1198_" transform="translate(116.000000, 0.000000)">
                                <rect id="XMLID_1074_" transform="translate(1.673975, 2.407175) rotate(-144.935225) translate(-1.673975, -2.407175) " x="1.02397744" y="0.907180625" width="1.29999512" height="2.99998875"></rect>
                                <rect id="XMLID_1199_" transform="translate(3.482225, 3.682825) rotate(-144.935225) translate(-3.482225, -3.682825) " x="2.83222744" y="2.18283063" width="1.29999512" height="2.99998875"></rect>
                                <rect id="XMLID_1395_" transform="translate(5.290475, 4.958475) rotate(-144.935225) translate(-5.290475, -4.958475) " x="4.64047744" y="3.45848063" width="1.29999512" height="2.99998875"></rect>
                            </g>
                            <g id="XMLID_1396_">
                                <rect id="XMLID_1399_" transform="translate(5.471375, 2.500325) rotate(-35.064775) translate(-5.471375, -2.500325) " x="4.82137744" y="1.00033063" width="1.29999512" height="2.99998875"></rect>
                                <rect id="XMLID_1398_" transform="translate(3.679025, 3.797675) rotate(-35.064775) translate(-3.679025, -3.797675) " x="3.02902744" y="2.29768063" width="1.29999512" height="2.99998875"></rect>
                                <rect id="XMLID_1397_" transform="translate(1.829325, 5.013275) rotate(-35.064775) translate(-1.829325, -5.013275) " x="1.17932744" y="3.51328063" width="1.29999512" height="2.99998875"></rect>
                            </g>
                        </g>
                    </g>
                </g>
            </g>
        </g>
    </g>
</svg>