<?xml version="1.0" encoding="utf-8"?>
<!-- Generator: Adobe Illustrator 19.0.0, SVG Export Plug-In . SVG Version: 6.00 Build 0)  -->
<svg version="1.1" xmlns="http://www.w3.org/2000/svg" xmlns:xlink="http://www.w3.org/1999/xlink" x="0px" y="0px"
	 viewBox="0 0 2464 841.9" style="enable-background:new 0 0 2464 841.9;" xml:space="preserve">
<style type="text/css">
	.st0{fill:none;stroke:#A7A9AC;stroke-miterlimit:10;}
	.st1{fill:none;stroke:#939598;stroke-miterlimit:10;}
	.st2{fill:none;stroke:#939598;stroke-width:0.5;stroke-miterlimit:10;}
	.st3{fill:none;stroke:#000000;stroke-width:0.5;stroke-miterlimit:10;}
	.st4{fill:none;stroke:#000000;stroke-miterlimit:10;}
	.st5{fill:none;stroke:#000000;}
	.st6{fill:#BCBEC0;}
	.st7{fill:#FFFFFF;stroke:#000000;stroke-miterlimit:10;}
	.st8{fill:#323334;}
	.st9{fill:#FFFFFF;}
	.st10{fill:#979797;}
	.st11{fill:url(#XMLID_4_);}
	.st12{fill:#D0D2D3;}
	.st13{fill:#4B4C4D;}
	.st14{fill:none;stroke:#808285;stroke-width:0.5;stroke-miterlimit:10;stroke-dasharray:3,3;}
	.st15{fill:none;stroke:#939598;stroke-width:0.5;stroke-miterlimit:10;stroke-dasharray:1.5,1.5;}
	.st16{fill:none;stroke:#939598;stroke-width:0.25;stroke-miterlimit:10;}
	.st17{fill:url(#XMLID_5_);}
	.st18{fill:none;stroke:#6D6E71;stroke-width:0.5;stroke-miterlimit:10;stroke-dasharray:3,3;}
	.st19{fill:none;stroke:#6D6E71;stroke-width:0.5;stroke-miterlimit:10;stroke-dasharray:1.5,1.5;}
	.st20{opacity:0.5;}
	.st21{fill:#A7A9AC;}
	.st22{fill:none;stroke:#6D6E71;stroke-width:0.5;stroke-miterlimit:10;}
	.st23{fill:none;stroke:#6D6E71;stroke-width:0.5;stroke-miterlimit:10;stroke-dasharray:2.9029,2.9029;}
	.st24{fill:none;stroke:#6D6E71;stroke-width:0.5;stroke-miterlimit:10;stroke-dasharray:2.8761,2.8761;}
	.st25{fill:#FFFFFF;stroke:#000000;}
	.st26{fill:url(#XMLID_6_);}
	.st27{fill:none;stroke:#6D6E71;stroke-width:0.5;stroke-miterlimit:10;stroke-dasharray:2.4936,2.4936;}
	.st28{fill:none;stroke:#808285;stroke-width:0.5;stroke-miterlimit:10;}
	.st29{fill:none;stroke:#808285;stroke-width:0.5;stroke-miterlimit:10;stroke-dasharray:3.0146,3.0146;}
	.st30{fill:none;stroke:#808285;stroke-width:0.5;stroke-miterlimit:10;stroke-dasharray:3.0009,3.0009;}
	.st31{fill:none;stroke:#6D6E71;stroke-width:0.5;stroke-miterlimit:10;stroke-dasharray:3.307,3.307;}
	.st32{fill:none;stroke:#6D6E71;stroke-width:0.5;stroke-miterlimit:10;stroke-dasharray:3.2754,3.2754;}
	.st33{fill:none;stroke:#000000;stroke-width:0.25;stroke-miterlimit:10;}
	.st34{fill:none;stroke:#6D6E71;stroke-width:0.5;stroke-miterlimit:10;stroke-dasharray:2.9827,2.9827;}
	.st35{fill:none;stroke:#6D6E71;stroke-width:0.5;stroke-miterlimit:10;stroke-dasharray:2.9609,2.9609;}
	.st36{fill:none;stroke:#6D6E71;stroke-width:0.5;stroke-miterlimit:10;stroke-dasharray:3.0236,3.0236;}
	.st37{fill:none;stroke:#6D6E71;stroke-width:0.5;stroke-miterlimit:10;stroke-dasharray:2.9944,2.9944;}
	.st38{fill:url(#XMLID_15_);}
	.st39{fill:url(#XMLID_66_);}
	.st40{fill:none;stroke:#6D6E71;stroke-width:0.5;stroke-miterlimit:10;stroke-dasharray:3.0146,3.0146;}
	.st41{fill:none;stroke:#6D6E71;stroke-width:0.5;stroke-miterlimit:10;stroke-dasharray:3.0009,3.0009;}
	.st42{fill:none;stroke:#6D6E71;stroke-width:0.5;stroke-miterlimit:10;stroke-dasharray:3.0291,3.0291;}
	.st43{fill:none;stroke:#6D6E71;stroke-width:0.5;stroke-miterlimit:10;stroke-dasharray:3.0747,3.0747;}
	.st44{fill:none;stroke:#6D6E71;stroke-width:0.5;stroke-miterlimit:10;stroke-dasharray:2.9787,2.9787;}
	.st45{fill:none;stroke:#6D6E71;stroke-width:0.5;stroke-miterlimit:10;stroke-dasharray:2.9735,2.9735;}
	.st46{fill:none;stroke:#6D6E71;stroke-width:0.5;stroke-miterlimit:10;stroke-dasharray:2.8376,2.8376;}
	.st47{fill:none;stroke:#6D6E71;stroke-width:0.5;stroke-miterlimit:10;stroke-dasharray:2.8167,2.8167;}
	.st48{fill:none;stroke:#6D6E71;stroke-width:0.5;stroke-miterlimit:10;stroke-dasharray:2.9835,2.9835;}
</style>
<g id="sorc_x5F_classic">
	<g id="seven_x5F_logo_2_">
		<path id="XMLID_545_" d="M760,702.3l1-0.3c0,0.4,0.1,0.7,0.2,0.9c0.2,0.2,0.4,0.2,0.7,0.2c0.3,0,0.6-0.2,0.7-0.4
			c0.2-0.2,0.3-0.4,0.3-0.6c0-0.1,0-0.3-0.1-0.4c-0.1-0.1-0.2-0.2-0.3-0.2c-0.1,0-0.4-0.1-0.8-0.2c-0.5-0.1-0.9-0.3-1-0.5
			c-0.3-0.3-0.4-0.7-0.3-1.2c0-0.3,0.1-0.6,0.3-0.9c0.2-0.3,0.4-0.5,0.7-0.7c0.3-0.2,0.6-0.3,1-0.4c0.6-0.1,1.1,0,1.3,0.3
			c0.3,0.3,0.4,0.7,0.3,1.3l-1,0.2c0-0.3-0.1-0.5-0.2-0.7c-0.1-0.1-0.3-0.2-0.6-0.1c-0.3,0-0.5,0.1-0.7,0.3
			c-0.1,0.1-0.2,0.3-0.2,0.4c0,0.1,0,0.3,0.1,0.4c0.1,0.1,0.4,0.2,0.9,0.3c0.5,0.1,0.8,0.2,1,0.3c0.2,0.1,0.4,0.3,0.5,0.6
			c0.1,0.3,0.1,0.6,0.1,1c0,0.4-0.2,0.7-0.4,1c-0.2,0.3-0.4,0.6-0.7,0.8c-0.3,0.2-0.7,0.3-1.1,0.4c-0.6,0.1-1.1,0-1.4-0.3
			C760.1,703.5,760,703,760,702.3 M772,702.6l0.7-5.6l-2.3,5.8l-1.1,0.2l-0.8-5.2l0,0.2l-2.6,0.4l-0.2,1.4l2.5-0.3l-0.1,1.1
			l-2.4,0.3l-0.2,1.7l2.7-0.4l-0.1,1.1l-3.7,0.5l0.8-6.3l3.4-0.5l0.2,0l0.8-0.1l0.7,4.5l1.8-4.8l0.9-0.1l0.2,0l3.4-0.5l-0.1,1.1
			l-2.6,0.4l-0.2,1.4l2.5-0.3l-0.1,1.1l-2.5,0.3l-0.2,1.7l2.7-0.4l-0.1,1.1L772,702.6z M777,695.7l1-0.1c0.5,1.3,1,2.6,1.5,3.8
			c0.3-1.2,0.4-2.9,0.5-4.1l0.9-0.1c-0.3,2.1-0.5,4.2-0.8,6.3l-1,0.1c-0.5-1.3-1-2.6-1.5-3.8c-0.3,1.2-0.4,2.9-0.5,4.1l-0.9,0.1
			C776.4,699.9,776.7,697.8,777,695.7z"/>
		<path id="XMLID_542_" d="M789,694l-8.1,12.2l5.5-10.3l-4.6,0.6l0.2-1.6L789,694z M785,697l-4.9,8.3l3.2-7.1l-1.7,0.2l0.1-1
			L785,697z"/>
	</g>
	<g id="broj">
		<path id="XMLID_1824_" class="st5" d="M755.3,653.1l5.3-0.7l0.2,0.1l5.5,40.3l-0.1,0.2l-7.2,1l-0.3,0.1c-0.2,0-0.4-0.1-0.4-0.2
			l-4.2-30.8l-0.2-0.1l-4.4,0.6l-0.2-0.1l-0.1-0.4c-0.6-4.2,0.7-7.4,4-9.3C754,653.4,754.7,653.2,755.3,653.1z"/>
		<path id="XMLID_1826_" class="st5" d="M774.2,650.6l1.4-0.2c4.7-0.6,8.2,0.9,10.5,4.5c0.6,1.4,1,2.6,1.2,3.6l2.9,21.4
			c0.6,4.2-0.8,7.4-4.2,9.5c-1.6,0.9-3.3,1.5-5.3,1.7l-0.3,0c-5,0.7-8.6-0.6-10.8-3.9c-0.8-1.3-1.3-2.8-1.6-4.7l-2.8-20.5
			c-0.6-4.5,0.8-7.7,4.3-9.8C771,651.4,772.6,650.9,774.2,650.6z M773.2,661.2l2.6,19.5c0.3,2.2,0.9,3.4,1.8,3.7
			c0.5,0.2,1,0.3,1.6,0.2l0.7-0.1c1.8-0.2,2.6-1.6,2.2-4.2l-2.8-20.5c-0.2-1.5-1-2.5-2.3-2.8l-1.2,0
			C773.7,657.4,772.9,658.7,773.2,661.2z"/>
	</g>
	<g id="senke">
		<path id="XMLID_539_" class="st6" d="M618.4,682.9c0,0,5-3.7,12.8-4.6c7.8-0.8,11.8-0.9,16.6-1.2c4.8-0.3,9.6,0.8,9.6,0.8
			s-8.2,1.3-12.4,1.6c-4.2,0.2-10.3,0.6-14.9,1.4C625.7,681.8,618.4,682.9,618.4,682.9z"/>
		<path id="XMLID_538_" class="st6" d="M699.5,630.3c0,0,6.3-3.2,15.5-3.1c9.2,0,13.9,0.4,19.6,0.6c5.7,0.2,11.2,1.9,11.2,1.9
			s-9.7,0.4-14.6,0.2s-12.1-0.5-17.6-0.2C708.1,629.9,699.5,630.3,699.5,630.3z"/>
		<path id="XMLID_537_" class="st6" d="M766.2,636.5c0,0-5.4,3.2-13.2,3.2c-7.8,0-11.8-0.3-16.7-0.5c-4.8-0.2-9.5-1.8-9.5-1.8
			s8.3-0.5,12.5-0.3c4.2,0.2,10.3,0.4,14.9,0.1C758.9,636.9,766.2,636.5,766.2,636.5z"/>
		<path id="XMLID_536_" class="st6" d="M630.9,667.8c0,0,5.2-2.4,13-2.8c7.8-0.3,11.8-0.3,16.7-0.3c4.8-0.1,9.6,0.8,9.6,0.8
			s-8.3,0.7-12.4,0.7c-4.2,0-10.3,0.1-14.9,0.5C638.3,667.2,630.9,667.8,630.9,667.8z"/>
	</g>
	<g id="grb_3_">
		<circle id="XMLID_535_" class="st7" cx="613.6" cy="694" r="14"/>
		<g id="XMLID_1778_">
			<path id="XMLID_1779_" d="M605.1,690.1l-0.2,0.6l0,0c0,0,0,0,0,0l-0.2,0.5c0,0.1-0.1,0.2-0.1,0.2s-0.1,0.1-0.2,0.2
				c-0.1,0-0.2,0.1-0.3,0.1c-0.1,0-0.2,0-0.3,0l-1.9-0.6c-0.1,0-0.2-0.1-0.2-0.1c-0.1-0.1-0.1-0.1-0.2-0.2c0-0.1-0.1-0.2-0.1-0.3
				c0-0.1,0-0.2,0-0.3l0.1-0.4c0-0.1,0.1-0.2,0.1-0.2c0.1-0.1,0.1-0.1,0.2-0.2c0.1,0,0.2-0.1,0.3-0.1c0.1,0,0.2,0,0.3,0l0.3,0.1
				l-0.2,0.6l-0.3-0.1c0,0,0,0-0.1,0c0,0,0,0,0,0l-0.1,0.4c0,0,0,0,0,0.1c0,0,0,0,0.1,0l1.9,0.6c0,0,0,0,0.1,0c0,0,0,0,0-0.1
				l0.1-0.4c0,0,0,0,0-0.1s0,0,0,0l-0.4-0.1l-0.1,0.4l-0.6-0.2l0.3-1L605.1,690.1z"/>
			<path id="XMLID_1792_" d="M606.3,688.1l-1-0.3l-0.1,0.1l0.8,0.6l-0.4,0.5l-2.7-2.1l0.7-0.9c0.1-0.1,0.1-0.1,0.2-0.2
				c0.1,0,0.2-0.1,0.3-0.1s0.2,0,0.3,0c0.1,0,0.2,0.1,0.3,0.1l0.7,0.5c0.1,0.1,0.2,0.2,0.2,0.3c0,0.1,0.1,0.3,0,0.4l1.1,0.4
				L606.3,688.1z M603.8,686.9l0.9,0.7l0.3-0.4c0,0,0-0.1,0-0.1c0,0,0-0.1,0-0.1l-0.7-0.5c0,0-0.1,0-0.1,0c0,0-0.1,0-0.1,0
				L603.8,686.9z"/>
			<path id="XMLID_1806_" d="M605.7,684l0.9-0.6c0.1-0.1,0.2-0.1,0.3-0.1c0.1,0,0.2,0,0.3,0c0.1,0,0.2,0.1,0.3,0.1
				c0.1,0.1,0.2,0.1,0.2,0.2l0.2,0.4c0,0.1,0.1,0.1,0.1,0.2s0,0.1,0,0.2c0.1,0,0.1,0.1,0.2,0.1c0.1,0,0.1,0.1,0.2,0.2l0.4,0.5
				c0.1,0.1,0.1,0.2,0.1,0.3c0,0.1,0,0.2,0,0.3c0,0.1,0,0.2-0.1,0.3c-0.1,0.1-0.1,0.2-0.2,0.2l-0.9,0.6L605.7,684z M606.5,684.2
				l0.4,0.6l0.4-0.3c0,0,0,0,0-0.1c0,0,0-0.1,0-0.1l-0.2-0.4c0,0,0,0-0.1-0.1c0,0-0.1,0-0.1,0L606.5,684.2z M607.3,685.3l0.5,0.7
				l0.4-0.3c0,0,0,0,0-0.1c0,0,0-0.1,0-0.1l-0.4-0.5c0,0,0,0-0.1,0c0,0-0.1,0-0.1,0L607.3,685.3z"/>
			<path id="XMLID_1810_" d="M612.8,684.7l-0.6,0l-0.1-3.4l0.6,0l0.1,1.5l0.7-1.6l0.7,0l-0.7,1.7l0.9,1.7l-0.7,0l-0.5-0.9l-0.3,0.6
				L612.8,684.7z"/>
			<path id="XMLID_1812_" d="M616.4,681.6l0.6,0.2l-0.8,2.7l1.1,0.3l-0.2,0.6l-1.7-0.5L616.4,681.6z"/>
			<path id="XMLID_1814_" d="M619,685.6C619,685.6,619,685.6,619,685.6c0,0.1,0,0.1,0,0.2l0.3,0.2c0,0,0.1,0,0.1,0c0,0,0.1,0,0.1,0
				l1.5-2.2l0.5,0.3l-1.5,2.2c-0.1,0.1-0.1,0.1-0.2,0.2c-0.1,0-0.2,0.1-0.3,0.1s-0.2,0-0.3,0c-0.1,0-0.2-0.1-0.3-0.1l-0.3-0.2
				c-0.1-0.1-0.1-0.1-0.2-0.2s-0.1-0.2-0.1-0.3c0-0.1,0-0.2,0-0.3c0-0.1,0.1-0.2,0.1-0.3l1.5-2.2l0.5,0.3L619,685.6z"/>
			<path id="XMLID_1816_" d="M623.2,685.6l0.6,0.9c0.1,0.1,0.1,0.2,0.1,0.3c0,0.1,0,0.2,0,0.3c0,0.1,0,0.2-0.1,0.3
				c0,0.1-0.1,0.2-0.2,0.2l-0.3,0.3c-0.1,0-0.1,0.1-0.2,0.1s-0.1,0-0.2,0c0,0.1-0.1,0.1-0.1,0.2c0,0.1-0.1,0.1-0.2,0.2l-0.5,0.4
				c-0.1,0.1-0.2,0.1-0.3,0.1c-0.1,0-0.2,0-0.3,0s-0.2,0-0.3-0.1c-0.1,0-0.2-0.1-0.2-0.2l-0.6-0.9L623.2,685.6z M622,687.3l-0.7,0.5
				l0.3,0.4c0,0,0,0,0.1,0c0,0,0.1,0,0.1,0l0.5-0.4c0,0,0,0,0-0.1s0-0.1,0-0.1L622,687.3z M623,686.5l-0.5,0.4l0.3,0.4
				c0,0,0,0,0.1,0c0,0,0.1,0,0.1,0l0.3-0.3c0,0,0,0,0-0.1c0,0,0-0.1,0-0.1L623,686.5z"/>
			<path id="XMLID_1820_" d="M624.6,689.3c0.1,0,0.2,0,0.3,0c0.1,0,0.2,0,0.3,0.1c0.1,0,0.2,0.1,0.2,0.2c0.1,0.1,0.1,0.2,0.2,0.3
				l0.1,0.3c0,0.1,0,0.2,0,0.3c0,0.1,0,0.2-0.1,0.3c0,0.1-0.1,0.2-0.2,0.2s-0.2,0.1-0.3,0.1l-2.5,0.9l-0.2-0.6l0.8-0.3l-0.2-0.5
				l-0.8,0.3l-0.2-0.6L624.6,689.3z M623.6,690.3l0.2,0.5l1.2-0.4c0,0,0.1,0,0.1-0.1s0-0.1,0-0.1l-0.1-0.3c0,0,0-0.1-0.1-0.1
				s-0.1,0-0.1,0L623.6,690.3z"/>
		</g>
		<g id="XMLID_1753_">
			<path id="XMLID_1754_" d="M601.7,699l-0.2-0.6l0,0c0,0,0,0,0,0l-0.2-0.5c0-0.1,0-0.2,0-0.3c0-0.1,0-0.2,0.1-0.3
				c0-0.1,0.1-0.1,0.2-0.2c0.1-0.1,0.2-0.1,0.3-0.1l1.9-0.6c0.1,0,0.2,0,0.3,0c0.1,0,0.2,0,0.3,0.1c0.1,0,0.2,0.1,0.2,0.2
				c0.1,0.1,0.1,0.1,0.1,0.2l0.1,0.4c0,0.1,0,0.2,0,0.3c0,0.1,0,0.2-0.1,0.3c0,0.1-0.1,0.2-0.2,0.2s-0.2,0.1-0.2,0.1l-0.3,0.1
				l-0.2-0.6l0.3-0.1c0,0,0,0,0,0s0,0,0-0.1L604,697c0,0,0,0-0.1,0c0,0,0,0-0.1,0l-1.9,0.6c0,0,0,0-0.1,0c0,0,0,0,0,0.1l0.1,0.4
				c0,0,0,0,0,0s0,0,0.1,0l0.4-0.1l-0.1-0.4l0.6-0.2l0.3,1L601.7,699z"/>
			<path id="XMLID_1756_" d="M603.6,702l0.6-0.9L604,701l-0.8,0.6l-0.4-0.5l2.7-2.1l0.7,0.9c0.1,0.1,0.1,0.2,0.1,0.3
				c0,0.1,0,0.2,0,0.3c0,0.1,0,0.2-0.1,0.3c0,0.1-0.1,0.2-0.2,0.2l-0.7,0.5c-0.1,0.1-0.2,0.1-0.4,0.1c-0.1,0-0.3,0-0.4-0.1l-0.6,1
				L603.6,702z M605.4,699.9l-0.9,0.7l0.3,0.4c0,0,0,0,0.1,0c0,0,0.1,0,0.1,0l0.7-0.5c0,0,0,0,0-0.1c0,0,0-0.1,0-0.1L605.4,699.9z"
				/>
			<path id="XMLID_1759_" d="M607.6,701.3l0.9,0.6c0.1,0.1,0.1,0.1,0.2,0.2c0.1,0.1,0.1,0.2,0.1,0.3s0,0.2,0,0.3
				c0,0.1-0.1,0.2-0.1,0.3l-0.2,0.4c0,0.1-0.1,0.1-0.2,0.2c-0.1,0-0.1,0.1-0.2,0.1c0,0.1,0,0.1,0,0.2c0,0.1-0.1,0.1-0.1,0.2
				l-0.4,0.5c-0.1,0.1-0.1,0.1-0.2,0.2c-0.1,0.1-0.2,0.1-0.3,0.1c-0.1,0-0.2,0-0.3,0c-0.1,0-0.2-0.1-0.3-0.1l-0.9-0.6L607.6,701.3z
				 M607,703.3l-0.5,0.7l0.4,0.3c0,0,0.1,0,0.1,0c0,0,0.1,0,0.1,0l0.4-0.5c0,0,0-0.1,0-0.1c0,0,0-0.1,0-0.1L607,703.3z M607.7,702.2
				l-0.4,0.6l0.4,0.3c0,0,0.1,0,0.1,0c0,0,0.1,0,0.1-0.1l0.2-0.4c0,0,0-0.1,0-0.1c0,0,0-0.1-0.1-0.1L607.7,702.2z"/>
			<path id="XMLID_1763_" d="M612.5,706.8l-0.6,0l0.2-3.4l0.6,0l-0.1,1.5l0.8-1.5l0.7,0l-0.9,1.6l0.7,1.7l-0.7,0l-0.4-1l-0.3,0.6
				L612.5,706.8z"/>
			<path id="XMLID_1765_" d="M615.4,703.3l0.6-0.2l0.8,2.7l1.1-0.3l0.2,0.6l-1.7,0.5L615.4,703.3z"/>
			<path id="XMLID_1767_" d="M620.2,704.2C620.2,704.2,620.2,704.2,620.2,704.2c0.1,0.1,0.1,0,0.2,0l0.3-0.2c0,0,0,0,0-0.1
				c0,0,0-0.1,0-0.1l-1.5-2.2l0.5-0.3l1.5,2.2c0.1,0.1,0.1,0.2,0.1,0.3s0,0.2,0,0.3c0,0.1,0,0.2-0.1,0.3c-0.1,0.1-0.1,0.2-0.2,0.2
				l-0.3,0.2c-0.1,0.1-0.2,0.1-0.3,0.1c-0.1,0-0.2,0-0.3,0s-0.2,0-0.3-0.1c-0.1-0.1-0.2-0.1-0.2-0.2l-1.5-2.2l0.5-0.3L620.2,704.2z"
				/>
			<path id="XMLID_1771_" d="M620.6,700.4l0.6-0.9c0.1-0.1,0.1-0.1,0.2-0.2s0.2-0.1,0.3-0.1c0.1,0,0.2,0,0.3,0
				c0.1,0,0.2,0.1,0.3,0.1l0.3,0.3c0.1,0,0.1,0.1,0.2,0.2c0,0.1,0.1,0.1,0.1,0.2c0.1,0,0.1,0,0.2,0s0.1,0.1,0.2,0.1l0.5,0.4
				c0.1,0.1,0.1,0.1,0.2,0.2c0,0.1,0.1,0.2,0.1,0.3c0,0.1,0,0.2,0,0.3c0,0.1-0.1,0.2-0.1,0.3l-0.6,0.9L620.6,700.4z M621.4,700.3
				l0.5,0.4l0.3-0.4c0,0,0-0.1,0-0.1c0,0,0-0.1,0-0.1l-0.3-0.3c0,0-0.1,0-0.1,0c0,0-0.1,0-0.1,0L621.4,700.3z M622.4,701.1l0.7,0.5
				l0.3-0.4c0,0,0-0.1,0-0.1c0,0,0-0.1,0-0.1l-0.5-0.4c0,0-0.1,0-0.1,0c0,0-0.1,0-0.1,0L622.4,701.1z"/>
			<path id="XMLID_1775_" d="M622.9,698.1c-0.1,0-0.2-0.1-0.2-0.1c-0.1-0.1-0.1-0.1-0.2-0.2c0-0.1-0.1-0.2-0.1-0.3
				c0-0.1,0-0.2,0-0.3l0.1-0.3c0-0.1,0.1-0.2,0.1-0.2c0.1-0.1,0.1-0.1,0.2-0.2c0.1,0,0.2-0.1,0.3-0.1c0.1,0,0.2,0,0.3,0l2.5,0.8
				l-0.2,0.6l-0.8-0.3l-0.2,0.5l0.8,0.3l-0.2,0.6L622.9,698.1z M624.3,697.9l0.2-0.5l-1.2-0.4c0,0-0.1,0-0.1,0s-0.1,0-0.1,0.1
				l-0.1,0.3c0,0,0,0.1,0,0.1c0,0,0,0,0.1,0.1L624.3,697.9z"/>
		</g>
		<circle id="XMLID_530_" cx="602.2" cy="693.9" r="0.8"/>
		<circle id="XMLID_529_" cx="624.6" cy="693.9" r="0.8"/>
		<g id="XMLID_125_">
			<g id="XMLID_129_">
				<g id="XMLID_404_">
					<g id="XMLID_407_">
						<circle id="XMLID_528_" class="st8" cx="613.6" cy="693.8" r="6.3"/>
						<path id="XMLID_527_" class="st9" d="M608.4,693.3c0,0-0.4,0.7-0.5,1.7c-0.1,0.5-0.1,0.7,0.3,1.2c0.7,1,1,1.3,1.2,1.2
							c0.2,0,1.4-0.3,1.7-0.4c0.2-0.1,0.2-0.1,0.3-0.6c0.1-0.4,0.3-1,0.3-1.4c0-0.3,0-0.3-0.3-0.7c-0.3-0.4-1-1.3-1.1-1.5
							c-0.1-0.2-0.2-0.1-0.5-0.1c-0.3,0.1-0.8,0.2-1.1,0.2C608.4,693.2,608.4,693.2,608.4,693.3z"/>
						<path id="XMLID_526_" class="st9" d="M608.9,689.9c0,0-0.3,0.4-0.6,0.9c-0.2,0.3-0.1,0.7,0,1.5c0.1,0.8,0.2,0.8,0.5,0.7
							c0.3-0.1,1.1-0.2,1.3-0.3c0.2,0,0.4-0.4,0.6-0.7c0.2-0.3,1-1.4,1.2-1.5c0.2-0.1,0.1-0.3,0.1-0.6c0-0.4-0.2-1.1-0.3-1.1
							c-0.1,0-0.9,0-1.1,0C610.2,688.6,609.4,689.2,608.9,689.9z"/>
						<path id="XMLID_525_" class="st9" d="M611.8,695.1c0,0-0.3,1.2-0.4,1.7c0,0.3-0.1,0.3,0.5,0.7c0.6,0.4,0.8,0.6,1,0.7
							c0.2,0.1,0.3,0.1,0.9,0c0.5-0.1,1-0.2,1.3-0.3c0.2-0.1,0.5-0.8,0.7-1.3c0.2-0.5,0.3-0.9,0.1-1.1s-0.5-0.4-0.8-0.7
							c-0.3-0.2-0.6-0.5-0.8-0.5c-0.1,0.1-1.5,0.4-2,0.5C612,694.9,611.8,695,611.8,695.1z"/>
						<path id="XMLID_524_" class="st9" d="M612.8,699.9c0,0,0.2-1,0.3-1.3c0-0.3,0.1-0.3,0.5-0.3c0.4-0.1,1.3-0.3,1.5-0.4
							c0.2-0.1,0.3-0.1,0.6,0.1c0.3,0.2,0.9,0.7,1.2,0.9c0.2,0.1-0.6,0.6-1.5,0.9C614.2,700.1,612.8,700.1,612.8,699.9z"/>
						<path id="XMLID_523_" class="st9" d="M612,690.1c0,0-0.1-0.7-0.2-1.2c0-0.4,0-0.4,0.5-0.6c0.5-0.2,1.8-0.5,2.1-0.5
							c0.3,0,0.6,0.1,1.3,0.4c0.7,0.3,0.9,0.5,0.9,0.7c0,0.2,0.1,1.1,0.1,1.6c0,0.3-0.1,0.3-0.6,0.5c-0.5,0.2-1,0.4-1.1,0.5
							c-0.2,0.1-0.4-0.1-0.9-0.4c-0.4-0.3-1.3-0.6-1.6-0.7C612.1,690.3,612,690.3,612,690.1z"/>
						<path id="XMLID_512_" class="st9" d="M614.9,691.8c0,0-0.3,1.2-0.4,1.8c-0.1,0.6-0.1,0.7,0.3,0.9c0.3,0.3,0.7,0.6,1,0.8
							c0.2,0.2,0.3,0.3,1,0.2c0.8-0.2,1.1-0.3,1.3-0.4c0.3-0.1,0.3-0.2,0.4-0.7c0.1-0.5,0.2-1.2,0.2-1.6c0-0.4,0-0.4-0.3-0.8
							c-0.3-0.3-0.9-0.8-1.1-1c-0.2-0.2-0.4-0.2-0.7-0.1c-0.3,0.1-1,0.4-1.3,0.5C615,691.6,614.9,691.6,614.9,691.8z"/>
						<path id="XMLID_511_" class="st9" d="M619.4,692.3c0,0-0.4,0.1-0.5,0.2c-0.1,0.1-0.1,0.5-0.2,0.9c0,0.4-0.2,1.2-0.3,1.5
							c-0.1,0.2,0.2,0.3,0.4,0.6c0.3,0.5,0.5,0.7,0.5,0.7c0.1-0.1,0.5-1,0.5-2.6C619.7,692.8,619.6,692.2,619.4,692.3z"/>
						<path id="XMLID_510_" class="st9" d="M607.7,695.7c0,0,0.1-0.2,0.1-0.1c0.1,0.1,0.6,1.1,1.1,1.6c0.2,0.2,0.2,0.2,0.2,0.5
							c0,0.3,0,0.4-0.2,0.2S607.9,696.7,607.7,695.7z"/>
						<path id="XMLID_509_" class="st9" d="M614.9,687.7c0,0-0.1,0-0.1,0c0,0,0.2,0.1,0.5,0.3c0.4,0.2,0.9,0.4,1.2,0.6
							c0.2,0.1,0.2,0.1,0.4,0.1c0.1-0.1,0.2-0.1,0-0.2C616.6,688.4,615.6,687.8,614.9,687.7z"/>
						<path id="XMLID_488_" class="st10" d="M614.7,698.1c0,0-0.8,0.2-1.3,0.3c-0.3,0-0.3,0.6-0.4,1.2c0,0,0.2-0.7,0.3-1
							C613.4,698.4,613.8,698.4,614.7,698.1z"/>
						<path id="XMLID_487_" class="st9" d="M609.2,689.6c0,0,0.7-0.7,1-0.9c0.3-0.2,1.4-0.1,1.4-0.1s-0.8,0-1.1,0
							C610.1,688.7,609.2,689.6,609.2,689.6z"/>
						<path id="XMLID_486_" class="st9" d="M613.1,688.2c0,0,1.1-0.3,1.4-0.3c0.3,0,1,0.3,1.8,0.7c-0.8-0.4-1.5-0.6-1.7-0.6
							C614.3,688,613.1,688.2,613.1,688.2z"/>
						<path id="XMLID_485_" class="st9" d="M609,693.1c0,0,1-0.3,1.1-0.2c0.1,0,1.3,1.6,1.3,1.6s-1-1.2-1.3-1.4
							C609.8,693,609,693.1,609,693.1z"/>
						
							<linearGradient id="XMLID_5_" gradientUnits="userSpaceOnUse" x1="615.3853" y1="693.8226" x2="617.698" y2="692.3392" gradientTransform="matrix(1 -1.800000e-003 1.800000e-003 1 -0.141 1.0156)">
							<stop  offset="0.2851" style="stop-color:#9E9E9E"/>
							<stop  offset="0.3829" style="stop-color:#AAAAAA"/>
							<stop  offset="0.559" style="stop-color:#CACAC9"/>
							<stop  offset="0.6938" style="stop-color:#E6E6E5"/>
							<stop  offset="0.7298" style="stop-color:#EAEAEA"/>
							<stop  offset="0.87" style="stop-color:#F8F8F7"/>
							<stop  offset="1" style="stop-color:#FFFFFF"/>
						</linearGradient>
						<path id="XMLID_484_" class="st17" d="M617.6,691.5c0,0,0.7,0.6,0.9,0.8c0.2,0.2,0.2,0.2,0,1.7c0.1-0.9,0.1-1.3,0-1.5
							C618.3,692.2,617.6,691.5,617.6,691.5z"/>
						<g id="XMLID_408_">
							<path id="XMLID_483_" class="st9" d="M611.5,695.7c0,0-0.2,0.7-0.2,1c-0.1,0.3-0.4,0.3-1.2,0.4c0.8-0.3,1-0.3,1.1-0.5
								C611.3,696.4,611.5,695.7,611.5,695.7z"/>
							<path id="XMLID_482_" class="st9" d="M611.6,696.2c0,0,0.2-0.7,0.2-1c0.1-0.3,0.6-0.3,1.2-0.5c0,0-0.5,0.2-0.9,0.3
								C611.8,695.2,611.8,695.6,611.6,696.2z"/>
							<path id="XMLID_481_" class="st9" d="M611.9,697.4c0,0,0.6,0.4,0.9,0.6c0.3,0.2,0.4,0.2,1.1,0c0.7-0.2,0.9-0.2,0.9-0.2
								s-1,0.2-1.5,0.2C612.8,698.1,611.9,697.4,611.9,697.4z"/>
							<path id="XMLID_480_" class="st9" d="M614.6,693.8c0,0,0.3-1.5,0.4-1.9c0.1-0.4,0.7-0.6,1.4-0.8c0,0-0.8,0.4-1.1,0.6
								C615,691.8,615,692.1,614.6,693.8z"/>
							<path id="XMLID_479_" class="st9" d="M615.2,695c0,0,0.5,0.4,0.6,0.5c0.1,0.1,0.1,0.5-0.3,1.6c0.2-0.7,0.5-1.3,0.2-1.6
								C615.4,695.3,615.2,695,615.2,695z"/>
							<path id="XMLID_478_" class="st9" d="M608.2,696.4c0,0,0.4,0.5,0.6,0.8c0.2,0.2,0.3,0.3,0.3,0.7c0-0.3-0.1-0.4-0.2-0.6
								C608.7,697.2,608.2,696.4,608.2,696.4z"/>
						</g>
					</g>
				</g>
				<path id="XMLID_130_" class="st12" d="M613.6,687.6c-3.5,0-6.2,2.8-6.2,6.3c0,3.5,2.8,6.2,6.3,6.2c3.5,0,6.2-2.8,6.2-6.3
					C619.8,690.4,617,687.6,613.6,687.6z M613.5,698.8c-3.2,0-5.7-2.4-5.7-5.4c0-3,2.5-5.4,5.7-5.4c3.2,0,5.7,2.4,5.7,5.4
					C619.2,696.4,616.7,698.8,613.5,698.8z"/>
			</g>
			<g id="XMLID_126_">
				
					<ellipse id="XMLID_128_" transform="matrix(0.7632 -0.6461 0.6461 0.7632 -301.6608 559.1642)" class="st13" cx="612.1" cy="691.2" rx="0.6" ry="0.5"/>
				
					<ellipse id="XMLID_127_" transform="matrix(0.7632 -0.6461 0.6461 0.7632 -302.4472 558.8124)" class="st13" cx="611.3" cy="692.1" rx="0.3" ry="0.2"/>
			</g>
		</g>
	</g>
	<g id="linije_6_">
		<g id="XMLID_663_">
			<path id="XMLID_681_" class="st3" d="M586.6,716.3c0,0,3.5-21.9,4.1-27.3s3.1-20.8,4.3-26.8s3.6-23.2,5-26.1s3.6-7.3,4.2-11
				s4.8-14.8,5.3-18.9s3.3-13.4,4.6-20.1s5.1-23.1,5.4-24.9s1.2-7.6,2.5-9.9s5.9-6.9,6.5-8.4s2-6.1,2.1-8.3s0.5-7.3,0.5-7.3"/>
		</g>
		<g id="XMLID_658_">
			<path id="XMLID_664_" class="st3" d="M806.2,716.5c0,0-3.5-21.9-4.1-27.3s-3.1-20.8-4.3-26.8s-3.6-23.2-5-26.1s-3.6-7.3-4.2-11
				s-4.8-14.8-5.3-18.9s-3.3-13.4-4.6-20.1s-5.1-23.1-5.4-24.9s-1.2-7.6-2.5-9.9s-5.9-6.9-6.5-8.4s-2-6.1-2.1-8.3s-0.5-7.3-0.5-7.3"
				/>
		</g>
		<path id="XMLID_657_" class="st2" d="M677.1,723.2c0,0,1.2-3.6,1.9-10.4s0.3-13.8,1.5-18s4.4-15.6,4.4-18.1s0.9-4.1,1.8-8.1
			s2-5.5,2.4-10.5s1-12.5,1.7-15.7c0.7-3.3,1.6-6.8,2.9-8.2c1.3-1.4,3.3-2.9,3.3-2.9"/>
		<path id="XMLID_656_" class="st2" d="M716.1,723.4c0,0-1.2-3.6-1.9-10.4s-0.3-13.8-1.5-18s-4.4-15.6-4.4-18.1s-0.9-4.1-1.8-8.1
			s-2-5.5-2.4-10.5s-1-12.5-1.7-15.7s-1.6-6.8-2.9-8.2c-1.3-1.4-3.3-2.9-3.3-2.9s-1.4-9,0-14s3.1-13.4,2.5-18.5s-3.3-20.4-2.5-25.8
			c0.8-5.4,0.6-22.4,0.6-22.4"/>
		<path id="XMLID_655_" class="st18" d="M578.5,708.5c4.6,4.3,13.2,5,17.5,6.4c4.4,1.4,13.2,0.9,20.1,0.9s15.1-1.1,25.7-1.3
			s17,1.1,24.4,2.4c7.4,1.3,18.4,4.8,18.4,4.8"/>
		<path id="XMLID_654_" class="st18" d="M578.8,706.5c4.7,4.1,13,4.8,17.2,6.1c4.4,1.4,13.2,0.9,20.1,0.9s15.1-1.1,25.7-1.3
			s17,1.1,24.4,2.4c7.4,1.3,18.4,4.8,18.4,4.8"/>
		<path id="XMLID_653_" class="st18" d="M814.3,708c-4.4,4.8-13.6,5.5-18,6.9c-4.4,1.4-13.2,0.9-20.1,0.9s-15.1-1.1-25.7-1.3
			s-17,1.1-24.4,2.4s-18.4,4.8-18.4,4.8"/>
		<path id="XMLID_652_" class="st18" d="M814.3,705.8c-4.4,4.8-13.6,5.5-18,6.9c-4.4,1.4-13.2,0.9-20.1,0.9s-15.1-1.1-25.7-1.3
			s-17,1.1-24.4,2.4c-7.4,1.3-18.4,4.8-18.4,4.8"/>
		<g id="XMLID_649_">
			<path id="XMLID_651_" class="st4" d="M624.5,525.8c0,0,12.7,3.1,18.3,3.8c5.7,0.7,22.8,3.7,30.2,3.8s23.1,0.3,23.1,0.3"/>
			<path id="XMLID_650_" class="st4" d="M696.2,533.7c0,0,15.7-0.2,23.1-0.3c7.4-0.2,24.5-3.1,30.2-3.8c5.7-0.7,18.3-3.8,18.3-3.8"
				/>
		</g>
		<path id="XMLID_648_" class="st4" d="M586.9,716.7c0,0,7.3,3.6,16.1,5.7c8.8,2.1,14.9,3.6,20.4,4.5c5.5,0.9,25.3,2,34.6,1.7
			c9.3-0.3,26.8-2.7,26.8-2.7"/>
		<path id="XMLID_647_" class="st18" d="M603.1,719.2c0.8,0.2,1.5,0.4,2.2,0.5c7.7,1.8,13.2,3.1,18.2,4c5.5,0.9,25.3,2,34.6,1.7
			c5.2-0.2,12.7-1.2,18.5-2"/>
		<path id="XMLID_646_" class="st18" d="M616.2,719.8c2.6,0.6,5,1.1,7.3,1.4c5.5,0.9,25.3,2,34.6,1.7c3.3-0.1,7.6-0.6,11.8-1.1"/>
		<path id="XMLID_645_" class="st18" d="M787,720.8c-0.8,0.1-1.5,0.3-2.2,0.4c-7.7,1.4-13.2,2.3-18.2,3c-5.5,0.7-25.3,1.5-34.6,1.2
			c-5.2-0.1-12.7-0.9-18.5-1.5"/>
		<path id="XMLID_644_" class="st18" d="M773.9,721.2c-2.6,0.4-5,0.8-7.3,1.1c-5.5,0.7-25.3,1.5-34.6,1.2c-3.3-0.1-7.6-0.4-11.8-0.8
			"/>
		<path id="XMLID_643_" class="st4" d="M807.2,716.3c0,0-7.9,4-16.7,6.1c-8.8,2.1-14.9,3.6-20.4,4.5c-5.5,0.9-25.3,2-34.6,1.7
			c-9.3-0.3-27.7-2.7-27.7-2.7"/>
		<path id="XMLID_642_" class="st19" d="M773.7,540.1c-1.3-0.9-13.8,3.9-17.2,4.7c-3.4,0.8-21.6,4.8-29.3,5.1
			c-7.7,0.4-30.5,1.3-30.5,1.3s-22.8-0.9-30.5-1.3s-25.9-4.4-29.3-5.1c-3.4-0.8-16-5.6-17.3-4.8"/>
		<path id="XMLID_641_" class="st19" d="M772.4,537.6c-3.7,0.6-13.1,4.1-16,4.8c-3.4,0.8-21.6,4.8-29.3,5.1
			c-7.7,0.4-30.5,1.3-30.5,1.3s-22.8-0.9-30.5-1.3s-25.9-4.4-29.3-5.1c-3-0.7-13.3-4.6-16.5-4.8"/>
		<path id="XMLID_640_" class="st19" d="M771.3,528.4c-4.2,1-12.3,4-14.9,4.6c-3.4,0.8-21.6,4.8-29.3,5.1
			c-7.7,0.4-30.5,1.3-30.5,1.3s-22.8-0.9-30.5-1.3s-25.9-4.4-29.3-5.1c-2.7-0.6-11.4-3.8-15.4-4.7"/>
		<g id="XMLID_549_">
			<g id="XMLID_595_">
				<line id="XMLID_639_" class="st16" x1="634.3" y1="544.4" x2="637.5" y2="529.9"/>
				<line id="XMLID_638_" class="st16" x1="632.8" y1="543.8" x2="636.4" y2="529.4"/>
				<line id="XMLID_661_" class="st16" x1="631.4" y1="543.3" x2="635.3" y2="528.9"/>
				<line id="XMLID_662_" class="st16" x1="630.1" y1="542.9" x2="634" y2="528.6"/>
				<line id="XMLID_665_" class="st16" x1="628.7" y1="542.6" x2="632.7" y2="528.2"/>
				<line id="XMLID_637_" class="st16" x1="635.6" y1="544.4" x2="638.8" y2="530.2"/>
				<line id="XMLID_636_" class="st16" x1="636.6" y1="544.7" x2="640.3" y2="530.6"/>
				<line id="XMLID_635_" class="st16" x1="637.9" y1="545" x2="641.6" y2="530.9"/>
				<line id="XMLID_634_" class="st16" x1="639.2" y1="545.5" x2="643" y2="531.2"/>
				<line id="XMLID_633_" class="st16" x1="640.5" y1="545.4" x2="644.2" y2="531.5"/>
				<line id="XMLID_632_" class="st16" x1="641.8" y1="545.5" x2="645.6" y2="531.8"/>
				<line id="XMLID_631_" class="st16" x1="643.1" y1="546.2" x2="646.9" y2="532.5"/>
				<line id="XMLID_630_" class="st16" x1="644.8" y1="546.5" x2="648.3" y2="532.5"/>
				<line id="XMLID_629_" class="st16" x1="649.6" y1="532.9" x2="646.4" y2="546.9"/>
				<line id="XMLID_628_" class="st16" x1="651.3" y1="532.9" x2="648" y2="547.1"/>
				<line id="XMLID_627_" class="st16" x1="649.6" y1="547.4" x2="652.7" y2="533.2"/>
				<line id="XMLID_626_" class="st16" x1="651" y1="547.7" x2="654.1" y2="533.5"/>
				<line id="XMLID_625_" class="st16" x1="652.2" y1="547.9" x2="655.4" y2="533.7"/>
				<line id="XMLID_624_" class="st16" x1="656.8" y1="534" x2="653.7" y2="548.2"/>
				<line id="XMLID_623_" class="st16" x1="658.2" y1="534.2" x2="655.3" y2="548.4"/>
				<line id="XMLID_622_" class="st16" x1="659.9" y1="534.5" x2="657.3" y2="548.8"/>
				<line id="XMLID_621_" class="st16" x1="661.5" y1="535.2" x2="658.9" y2="549.2"/>
				<line id="XMLID_620_" class="st16" x1="663.3" y1="535.1" x2="660.7" y2="549.3"/>
				<line id="XMLID_619_" class="st16" x1="664.8" y1="535.4" x2="662.5" y2="549.6"/>
				<line id="XMLID_618_" class="st16" x1="666.3" y1="535.3" x2="664.2" y2="549.8"/>
				<line id="XMLID_617_" class="st16" x1="667.7" y1="535.4" x2="666.1" y2="549.9"/>
				<line id="XMLID_616_" class="st16" x1="669.4" y1="535.5" x2="668" y2="549.9"/>
				<line id="XMLID_615_" class="st16" x1="671.3" y1="535.5" x2="669.8" y2="550"/>
				<line id="XMLID_614_" class="st16" x1="672.9" y1="535.9" x2="671.8" y2="550.2"/>
				<line id="XMLID_613_" class="st16" x1="674.5" y1="535.9" x2="673.8" y2="550.2"/>
				<line id="XMLID_612_" class="st16" x1="676.1" y1="535.9" x2="675.6" y2="550.3"/>
				<line id="XMLID_611_" class="st16" x1="677.7" y1="536.1" x2="677.3" y2="550.4"/>
				<line id="XMLID_610_" class="st16" x1="679.3" y1="536.1" x2="679.3" y2="550.5"/>
				<line id="XMLID_609_" class="st16" x1="680.9" y1="536.1" x2="680.9" y2="550.5"/>
				<line id="XMLID_608_" class="st16" x1="682.5" y1="536.1" x2="682.5" y2="550.5"/>
				<line id="XMLID_607_" class="st16" x1="684.1" y1="536.1" x2="684.1" y2="550.5"/>
				<line id="XMLID_606_" class="st16" x1="685.8" y1="536.1" x2="685.8" y2="550.5"/>
				<line id="XMLID_605_" class="st16" x1="687.4" y1="536.1" x2="687.4" y2="550.5"/>
				<line id="XMLID_604_" class="st16" x1="689" y1="536.1" x2="689" y2="550.5"/>
				<line id="XMLID_603_" class="st16" x1="690.6" y1="536.4" x2="690.6" y2="550.8"/>
				<line id="XMLID_602_" class="st16" x1="692.3" y1="536.4" x2="692.3" y2="550.8"/>
				<line id="XMLID_601_" class="st16" x1="693.9" y1="536.4" x2="693.9" y2="550.8"/>
				<line id="XMLID_600_" class="st16" x1="695.6" y1="536.4" x2="695.6" y2="550.8"/>
				<line id="XMLID_599_" class="st16" x1="621.2" y1="539.9" x2="624.9" y2="525.5"/>
				<line id="XMLID_598_" class="st16" x1="622.6" y1="540.3" x2="626.4" y2="526"/>
				<line id="XMLID_597_" class="st16" x1="624.1" y1="540.9" x2="627.9" y2="526.7"/>
				<line id="XMLID_659_" class="st16" x1="625.7" y1="541.3" x2="629.3" y2="527.1"/>
				<line id="XMLID_660_" class="st16" x1="627.3" y1="541.9" x2="630.8" y2="527.7"/>
				<line id="XMLID_596_" class="st16" x1="623.7" y1="525.2" x2="620.3" y2="537.9"/>
			</g>
			<g id="XMLID_551_">
				<line id="XMLID_594_" class="st16" x1="771.5" y1="540.3" x2="767.7" y2="525.8"/>
				<line id="XMLID_593_" class="st16" x1="770" y1="540.7" x2="766.3" y2="526.4"/>
				<line id="XMLID_591_" class="st16" x1="760.4" y1="543.8" x2="756.8" y2="529.4"/>
				<line id="XMLID_666_" class="st16" x1="761.9" y1="543.4" x2="758.3" y2="529"/>
				<line id="XMLID_667_" class="st16" x1="763.2" y1="542.8" x2="759.6" y2="528.4"/>
				<line id="XMLID_682_" class="st16" x1="768.6" y1="541.4" x2="764.8" y2="527"/>
				<line id="XMLID_592_" class="st16" x1="767.1" y1="541.6" x2="763.3" y2="527.2"/>
				<line id="XMLID_683_" class="st16" x1="765.4" y1="542.3" x2="761.7" y2="527.9"/>
				<line id="XMLID_590_" class="st16" x1="759" y1="544.2" x2="755.3" y2="530.1"/>
				<line id="XMLID_589_" class="st16" x1="757.7" y1="544.7" x2="754" y2="530.6"/>
				<line id="XMLID_588_" class="st16" x1="756.4" y1="545" x2="752.7" y2="530.9"/>
				<line id="XMLID_587_" class="st16" x1="755" y1="545.1" x2="751.2" y2="530.8"/>
				<line id="XMLID_586_" class="st16" x1="753.8" y1="545.4" x2="750.1" y2="531.5"/>
				<line id="XMLID_585_" class="st16" x1="752.5" y1="545.3" x2="748.6" y2="531.5"/>
				<line id="XMLID_584_" class="st16" x1="751.1" y1="545.7" x2="747.2" y2="531.9"/>
				<line id="XMLID_583_" class="st16" x1="768.8" y1="525.4" x2="772.3" y2="538.1"/>
				<line id="XMLID_582_" class="st16" x1="749.4" y1="546.2" x2="745.9" y2="532.2"/>
				<line id="XMLID_581_" class="st16" x1="744.7" y1="532.6" x2="747.9" y2="546.6"/>
				<line id="XMLID_580_" class="st16" x1="743" y1="532.9" x2="746.3" y2="547.1"/>
				<line id="XMLID_579_" class="st16" x1="744.7" y1="547.4" x2="741.6" y2="533.2"/>
				<line id="XMLID_578_" class="st16" x1="743.4" y1="547.7" x2="740.2" y2="533.5"/>
				<line id="XMLID_577_" class="st16" x1="742.1" y1="547.9" x2="738.9" y2="533.7"/>
				<line id="XMLID_576_" class="st16" x1="737.5" y1="534" x2="740.6" y2="548.2"/>
				<line id="XMLID_575_" class="st16" x1="736.1" y1="534.2" x2="739" y2="548.4"/>
				<line id="XMLID_574_" class="st16" x1="734.4" y1="534.5" x2="737" y2="548.8"/>
				<line id="XMLID_573_" class="st16" x1="732.6" y1="535" x2="735.2" y2="548.9"/>
				<line id="XMLID_572_" class="st16" x1="731" y1="535.1" x2="733.6" y2="549.3"/>
				<line id="XMLID_571_" class="st16" x1="729.5" y1="535.4" x2="731.8" y2="549.6"/>
				<line id="XMLID_570_" class="st16" x1="728.1" y1="535.3" x2="730.1" y2="549.8"/>
				<line id="XMLID_569_" class="st16" x1="726.6" y1="535.4" x2="728.2" y2="549.9"/>
				<line id="XMLID_568_" class="st16" x1="724.9" y1="535.5" x2="726.3" y2="549.9"/>
				<line id="XMLID_567_" class="st16" x1="723.1" y1="535.5" x2="724.5" y2="550"/>
				<line id="XMLID_566_" class="st16" x1="721.4" y1="535.9" x2="722.5" y2="550.2"/>
				<line id="XMLID_565_" class="st16" x1="719.8" y1="535.9" x2="720.6" y2="550.2"/>
				<line id="XMLID_564_" class="st16" x1="718.2" y1="535.9" x2="718.8" y2="550.3"/>
				<line id="XMLID_563_" class="st16" x1="716.6" y1="536.1" x2="717" y2="550.4"/>
				<line id="XMLID_562_" class="st16" x1="715.1" y1="536.1" x2="715.1" y2="550.5"/>
				<line id="XMLID_561_" class="st16" x1="713.4" y1="536.1" x2="713.4" y2="550.5"/>
				<line id="XMLID_560_" class="st16" x1="711.8" y1="536.1" x2="711.8" y2="550.5"/>
				<line id="XMLID_559_" class="st16" x1="710.2" y1="536.1" x2="710.2" y2="550.5"/>
				<line id="XMLID_558_" class="st16" x1="708.6" y1="536.1" x2="708.6" y2="550.5"/>
				<line id="XMLID_557_" class="st16" x1="706.9" y1="536.1" x2="706.9" y2="550.5"/>
				<line id="XMLID_556_" class="st16" x1="705.3" y1="536.1" x2="705.3" y2="550.5"/>
				<line id="XMLID_555_" class="st16" x1="703.7" y1="536.4" x2="703.7" y2="550.8"/>
				<line id="XMLID_554_" class="st16" x1="702" y1="536.4" x2="702" y2="550.8"/>
				<line id="XMLID_553_" class="st16" x1="700.4" y1="536.4" x2="700.4" y2="550.8"/>
				<line id="XMLID_552_" class="st16" x1="698.8" y1="536.4" x2="698.8" y2="550.8"/>
			</g>
			<line id="XMLID_550_" class="st16" x1="697.2" y1="536.6" x2="697.2" y2="551"/>
		</g>
		<path id="XMLID_123_" class="st4" d="M809,672.3c-1.3-8.4-3.9-21.3-5-26.6s-1-10.5-2-12.9s-1.8-3.5-3.5-8.9s-6-16.3-6.4-18.8
			s-0.6-6.5-1.5-10.1s-2.1-10.4-4.1-18.3s-3.1-11.3-3.5-14.4s-2.1-12.6-3.3-14.8s-7.1-8.4-7.3-9.3s-0.9-12-2.1-12.9
			s-13.4,4-16.6,4.8s-20.8,4.8-28.1,5.1c-7.4,0.4-29.2,1.3-29.2,1.3s-21.9-0.9-29.2-1.3s-24.9-4.4-28.1-5.1s-15.4-5.6-16.6-4.8
			s-2,12-2.1,12.9s-6.1,7.1-7.3,9.3s-2.9,11.6-3.3,14.8s-1.5,6.5-3.5,14.4s-3.3,14.6-4.1,18.3s-1.1,7.6-1.5,10.1s-4.6,13.4-6.4,18.8
			s-2.5,6.5-3.5,8.9s-0.9,7.5-2,12.9s-3.8,18.3-5,26.6S578,712,578,712c4.4,4.8,13.6,5.5,18,6.9c4.4,1.4,13.2,0.9,20.1,0.9
			s15.1-1.1,25.7-1.3s17,1.1,24.4,2.4c7.4,1.3,18.4,4.8,18.4,4.8s2-15.4,1.9-16.9c-0.1-1.6,0.8-10.6,1.2-13.4s0.9-5.2,1.5-8.1
			s1.7-9.8,2.3-12.8c0.6-2.9,1.9-7.1,2.5-11.5s0.9-8.8,1.1-13.5c0.2-4.7,1.4-7.3,1.4-7.3s1.2,2.7,1.4,7.3c0.2,4.7,0.4,9,1.1,13.5
			s1.9,8.6,2.5,11.5s1.6,9.8,2.3,12.8s1.1,5.4,1.5,8.1s1.3,11.8,1.2,13.4s1.9,16.9,1.9,16.9s10.9-3.6,18.4-4.8
			c7.4-1.3,13.8-2.6,24.4-2.4s18.8,1.2,25.7,1.3s15.6,0.5,20.1-0.9s13.6-2.1,18-6.9C814.7,712,810.2,680.7,809,672.3z"/>
	</g>
</g>
</svg>
