<?xml version="1.0" encoding="utf-8"?>
<!-- Generator: Adobe Illustrator 19.0.0, SVG Export Plug-In . SVG Version: 6.00 Build 0)  -->
<svg version="1.1" xmlns="http://www.w3.org/2000/svg" xmlns:xlink="http://www.w3.org/1999/xlink" x="0px" y="0px"
	 viewBox="0 0 2464 841.9" style="enable-background:new 0 0 2464 841.9;" xml:space="preserve">
<style type="text/css">
	.st0{fill:none;stroke:#A7A9AC;stroke-miterlimit:10;}
	.st1{fill:none;stroke:#939598;stroke-miterlimit:10;}
	.st2{fill:none;stroke:#939598;stroke-width:0.5;stroke-miterlimit:10;}
	.st3{fill:none;stroke:#000000;stroke-width:0.5;stroke-miterlimit:10;}
	.st4{fill:none;stroke:#000000;stroke-miterlimit:10;}
	.st5{fill:none;stroke:#000000;}
	.st6{fill:#BCBEC0;}
	.st7{fill:#FFFFFF;stroke:#000000;stroke-miterlimit:10;}
	.st8{fill:#323334;}
	.st9{fill:#FFFFFF;}
	.st10{fill:#979797;}
	.st11{fill:url(#XMLID_4_);}
	.st12{fill:#D0D2D3;}
	.st13{fill:#4B4C4D;}
	.st14{fill:none;stroke:#808285;stroke-width:0.5;stroke-miterlimit:10;stroke-dasharray:3,3;}
	.st15{fill:none;stroke:#939598;stroke-width:0.5;stroke-miterlimit:10;stroke-dasharray:1.5,1.5;}
	.st16{fill:none;stroke:#939598;stroke-width:0.25;stroke-miterlimit:10;}
	.st17{fill:url(#XMLID_5_);}
	.st18{fill:none;stroke:#6D6E71;stroke-width:0.5;stroke-miterlimit:10;stroke-dasharray:3,3;}
	.st19{fill:none;stroke:#6D6E71;stroke-width:0.5;stroke-miterlimit:10;stroke-dasharray:1.5,1.5;}
	.st20{opacity:0.5;}
	.st21{fill:#A7A9AC;}
	.st22{fill:none;stroke:#6D6E71;stroke-width:0.5;stroke-miterlimit:10;}
	.st23{fill:none;stroke:#6D6E71;stroke-width:0.5;stroke-miterlimit:10;stroke-dasharray:2.9029,2.9029;}
	.st24{fill:none;stroke:#6D6E71;stroke-width:0.5;stroke-miterlimit:10;stroke-dasharray:2.8761,2.8761;}
	.st25{fill:#FFFFFF;stroke:#000000;}
	.st26{fill:url(#XMLID_6_);}
	.st27{fill:none;stroke:#6D6E71;stroke-width:0.5;stroke-miterlimit:10;stroke-dasharray:2.4936,2.4936;}
	.st28{fill:none;stroke:#808285;stroke-width:0.5;stroke-miterlimit:10;}
	.st29{fill:none;stroke:#808285;stroke-width:0.5;stroke-miterlimit:10;stroke-dasharray:3.0146,3.0146;}
	.st30{fill:none;stroke:#808285;stroke-width:0.5;stroke-miterlimit:10;stroke-dasharray:3.0009,3.0009;}
	.st31{fill:none;stroke:#6D6E71;stroke-width:0.5;stroke-miterlimit:10;stroke-dasharray:3.307,3.307;}
	.st32{fill:none;stroke:#6D6E71;stroke-width:0.5;stroke-miterlimit:10;stroke-dasharray:3.2754,3.2754;}
	.st33{fill:none;stroke:#000000;stroke-width:0.25;stroke-miterlimit:10;}
	.st34{fill:none;stroke:#6D6E71;stroke-width:0.5;stroke-miterlimit:10;stroke-dasharray:2.9827,2.9827;}
	.st35{fill:none;stroke:#6D6E71;stroke-width:0.5;stroke-miterlimit:10;stroke-dasharray:2.9609,2.9609;}
	.st36{fill:none;stroke:#6D6E71;stroke-width:0.5;stroke-miterlimit:10;stroke-dasharray:3.0236,3.0236;}
	.st37{fill:none;stroke:#6D6E71;stroke-width:0.5;stroke-miterlimit:10;stroke-dasharray:2.9944,2.9944;}
	.st38{fill:url(#XMLID_15_);}
	.st39{fill:url(#XMLID_66_);}
	.st40{fill:none;stroke:#6D6E71;stroke-width:0.5;stroke-miterlimit:10;stroke-dasharray:3.0146,3.0146;}
	.st41{fill:none;stroke:#6D6E71;stroke-width:0.5;stroke-miterlimit:10;stroke-dasharray:3.0009,3.0009;}
	.st42{fill:none;stroke:#6D6E71;stroke-width:0.5;stroke-miterlimit:10;stroke-dasharray:3.0291,3.0291;}
	.st43{fill:none;stroke:#6D6E71;stroke-width:0.5;stroke-miterlimit:10;stroke-dasharray:3.0747,3.0747;}
	.st44{fill:none;stroke:#6D6E71;stroke-width:0.5;stroke-miterlimit:10;stroke-dasharray:2.9787,2.9787;}
	.st45{fill:none;stroke:#6D6E71;stroke-width:0.5;stroke-miterlimit:10;stroke-dasharray:2.9735,2.9735;}
	.st46{fill:none;stroke:#6D6E71;stroke-width:0.5;stroke-miterlimit:10;stroke-dasharray:2.8376,2.8376;}
	.st47{fill:none;stroke:#6D6E71;stroke-width:0.5;stroke-miterlimit:10;stroke-dasharray:2.8167,2.8167;}
	.st48{fill:none;stroke:#6D6E71;stroke-width:0.5;stroke-miterlimit:10;stroke-dasharray:2.9835,2.9835;}
</style>
<g id="sorc_x5F_inter">
	<g id="seven_x5F_logo_3_">
		<path id="XMLID_190_" d="M1037.1,702.3l1-0.3c0,0.4,0.1,0.7,0.2,0.9c0.2,0.2,0.4,0.2,0.7,0.2c0.3,0,0.6-0.2,0.7-0.4
			c0.2-0.2,0.3-0.4,0.3-0.6c0-0.1,0-0.3-0.1-0.4c-0.1-0.1-0.2-0.2-0.3-0.2c-0.1,0-0.4-0.1-0.8-0.2c-0.5-0.1-0.9-0.3-1-0.5
			c-0.3-0.3-0.4-0.7-0.3-1.2c0-0.3,0.1-0.6,0.3-0.9c0.2-0.3,0.4-0.5,0.7-0.7c0.3-0.2,0.6-0.3,1-0.4c0.6-0.1,1.1,0,1.3,0.3
			c0.3,0.3,0.4,0.7,0.3,1.3l-1,0.2c0-0.3-0.1-0.5-0.2-0.7c-0.1-0.1-0.3-0.2-0.6-0.1c-0.3,0-0.5,0.1-0.7,0.3
			c-0.1,0.1-0.2,0.3-0.2,0.4c0,0.1,0,0.3,0.1,0.4c0.1,0.1,0.4,0.2,0.9,0.3c0.5,0.1,0.8,0.2,1,0.3c0.2,0.1,0.4,0.3,0.5,0.6
			c0.1,0.3,0.1,0.6,0.1,1c0,0.4-0.2,0.7-0.4,1c-0.2,0.3-0.4,0.6-0.7,0.8c-0.3,0.2-0.7,0.3-1.1,0.4c-0.6,0.1-1.1,0-1.4-0.3
			C1037.2,703.5,1037.1,703,1037.1,702.3 M1049.1,702.6l0.7-5.6l-2.3,5.8l-1.1,0.2l-0.8-5.2l0,0.2l-2.6,0.4l-0.2,1.4l2.5-0.3
			l-0.1,1.1l-2.4,0.3l-0.2,1.7l2.7-0.4l-0.1,1.1l-3.7,0.5l0.8-6.3l3.4-0.5l0.2,0l0.8-0.1l0.7,4.5l1.8-4.8l0.9-0.1l0.2,0l3.4-0.5
			l-0.1,1.1l-2.6,0.4l-0.2,1.4l2.5-0.3l-0.1,1.1l-2.5,0.3l-0.2,1.7l2.7-0.4l-0.1,1.1L1049.1,702.6z M1054.1,695.7l1-0.1
			c0.5,1.3,1,2.6,1.5,3.8c0.3-1.2,0.4-2.9,0.5-4.1l0.9-0.1c-0.3,2.1-0.5,4.2-0.8,6.3l-1,0.1c-0.5-1.3-1-2.6-1.5-3.8
			c-0.3,1.2-0.4,2.9-0.5,4.1l-0.9,0.1C1053.5,699.9,1053.8,697.8,1054.1,695.7z"/>
		<path id="XMLID_187_" d="M1066.1,694l-8.1,12.2l5.5-10.3l-4.6,0.6l0.2-1.6L1066.1,694z M1062.1,697l-4.9,8.3l3.2-7.1l-1.7,0.2
			l0.1-1L1062.1,697z"/>
	</g>
	<g id="broj_1_">
		<g id="XMLID_1862_">
			<path id="XMLID_1866_" class="st5" d="M1032.4,653.1l5.3-0.7l0.2,0.1l5.5,40.3l-0.1,0.2l-7.2,1l-0.3,0.1c-0.2,0-0.4-0.1-0.4-0.2
				l-4.2-30.8l-0.2-0.1l-4.4,0.6l-0.2-0.1l-0.1-0.4c-0.6-4.2,0.7-7.4,4-9.3C1031.1,653.4,1031.8,653.2,1032.4,653.1z"/>
			<path id="XMLID_1863_" class="st5" d="M1051.3,650.6l1.4-0.2c4.7-0.6,8.2,0.9,10.5,4.5c0.6,1.4,1,2.6,1.2,3.6l2.9,21.4
				c0.6,4.2-0.8,7.4-4.2,9.5c-1.6,0.9-3.3,1.5-5.3,1.7l-0.3,0c-5,0.7-8.6-0.6-10.8-3.9c-0.8-1.3-1.3-2.8-1.6-4.7l-2.8-20.5
				c-0.6-4.5,0.8-7.7,4.3-9.8C1048.1,651.4,1049.7,650.9,1051.3,650.6z M1050.3,661.2l2.6,19.5c0.3,2.2,0.9,3.4,1.8,3.7
				c0.5,0.2,1,0.3,1.6,0.2l0.7-0.1c1.8-0.2,2.6-1.6,2.2-4.2l-2.8-20.5c-0.2-1.5-1-2.5-2.3-2.8l-1.2,0
				C1050.8,657.4,1050,658.7,1050.3,661.2z"/>
		</g>
	</g>
	<g id="senke_1_">
		<path id="XMLID_184_" class="st6" d="M895.5,682.9c0,0,5-3.7,12.8-4.6c7.8-0.8,11.8-0.9,16.6-1.2c4.8-0.3,9.6,0.8,9.6,0.8
			s-8.2,1.3-12.4,1.6c-4.2,0.2-10.3,0.6-14.9,1.4C902.8,681.8,895.5,682.9,895.5,682.9z"/>
		<path id="XMLID_183_" class="st6" d="M976.6,630.3c0,0,6.3-3.2,15.5-3.1c9.2,0,13.9,0.4,19.6,0.6c5.7,0.2,11.2,1.9,11.2,1.9
			s-9.7,0.4-14.6,0.2c-4.9-0.2-12.1-0.5-17.6-0.2C985.2,629.9,976.6,630.3,976.6,630.3z"/>
		<path id="XMLID_182_" class="st6" d="M1043.3,636.5c0,0-5.4,3.2-13.2,3.2c-7.8,0-11.8-0.3-16.7-0.5c-4.8-0.2-9.5-1.8-9.5-1.8
			s8.3-0.5,12.5-0.3c4.2,0.2,10.3,0.4,14.9,0.1C1036,636.9,1043.3,636.5,1043.3,636.5z"/>
		<path id="XMLID_181_" class="st6" d="M908,667.8c0,0,5.2-2.4,13-2.8c7.8-0.3,11.8-0.3,16.7-0.3c4.8-0.1,9.6,0.8,9.6,0.8
			s-8.3,0.7-12.4,0.7c-4.2,0-10.3,0.1-14.9,0.5C915.3,667.2,908,667.8,908,667.8z"/>
	</g>
	<g id="grb_4_">
		<circle id="XMLID_175_" class="st7" cx="890.7" cy="694" r="14"/>
		<g id="XMLID_1724_">
			<path id="XMLID_1725_" d="M882.2,690.1l-0.2,0.6l0,0c0,0,0,0,0,0l-0.2,0.5c0,0.1-0.1,0.2-0.1,0.2s-0.1,0.1-0.2,0.2
				c-0.1,0-0.2,0.1-0.3,0.1c-0.1,0-0.2,0-0.3,0L879,691c-0.1,0-0.2-0.1-0.2-0.1c-0.1-0.1-0.1-0.1-0.2-0.2c0-0.1-0.1-0.2-0.1-0.3
				c0-0.1,0-0.2,0-0.3l0.1-0.4c0-0.1,0.1-0.2,0.1-0.2c0.1-0.1,0.1-0.1,0.2-0.2c0.1,0,0.2-0.1,0.3-0.1c0.1,0,0.2,0,0.3,0l0.3,0.1
				l-0.2,0.6l-0.3-0.1c0,0,0,0-0.1,0c0,0,0,0,0,0l-0.1,0.4c0,0,0,0,0,0.1c0,0,0,0,0.1,0l1.9,0.6c0,0,0,0,0.1,0c0,0,0,0,0-0.1
				l0.1-0.4c0,0,0,0,0-0.1s0,0,0,0l-0.4-0.1l-0.1,0.4l-0.6-0.2l0.3-1L882.2,690.1z"/>
			<path id="XMLID_1727_" d="M883.4,688.1l-1-0.3l-0.1,0.1l0.8,0.6l-0.4,0.5L880,687l0.7-0.9c0.1-0.1,0.1-0.1,0.2-0.2
				c0.1,0,0.2-0.1,0.3-0.1s0.2,0,0.3,0c0.1,0,0.2,0.1,0.3,0.1l0.7,0.5c0.1,0.1,0.2,0.2,0.2,0.3c0,0.1,0.1,0.3,0,0.4l1.1,0.4
				L883.4,688.1z M880.9,686.9l0.9,0.7l0.3-0.4c0,0,0-0.1,0-0.1c0,0,0-0.1,0-0.1l-0.7-0.5c0,0-0.1,0-0.1,0c0,0-0.1,0-0.1,0
				L880.9,686.9z"/>
			<path id="XMLID_1730_" d="M882.8,684l0.9-0.6c0.1-0.1,0.2-0.1,0.3-0.1c0.1,0,0.2,0,0.3,0c0.1,0,0.2,0.1,0.3,0.1
				c0.1,0.1,0.2,0.1,0.2,0.2l0.2,0.4c0,0.1,0.1,0.1,0.1,0.2s0,0.1,0,0.2c0.1,0,0.1,0.1,0.2,0.1c0.1,0,0.1,0.1,0.2,0.2l0.4,0.5
				c0.1,0.1,0.1,0.2,0.1,0.3c0,0.1,0,0.2,0,0.3c0,0.1,0,0.2-0.1,0.3c-0.1,0.1-0.1,0.2-0.2,0.2l-0.9,0.6L882.8,684z M883.6,684.2
				l0.4,0.6l0.4-0.3c0,0,0,0,0-0.1c0,0,0-0.1,0-0.1l-0.2-0.4c0,0,0,0-0.1-0.1c0,0-0.1,0-0.1,0L883.6,684.2z M884.3,685.3l0.5,0.7
				l0.4-0.3c0,0,0,0,0-0.1c0,0,0-0.1,0-0.1l-0.4-0.5c0,0,0,0-0.1,0c0,0-0.1,0-0.1,0L884.3,685.3z"/>
			<path id="XMLID_1734_" d="M889.9,684.7l-0.6,0l-0.1-3.4l0.6,0l0.1,1.5l0.7-1.6l0.7,0l-0.7,1.7l0.9,1.7l-0.7,0l-0.5-0.9l-0.3,0.6
				L889.9,684.7z"/>
			<path id="XMLID_1736_" d="M893.5,681.6l0.6,0.2l-0.8,2.7l1.1,0.3l-0.2,0.6l-1.7-0.5L893.5,681.6z"/>
			<path id="XMLID_1738_" d="M896.1,685.6C896.1,685.6,896.1,685.6,896.1,685.6c0,0.1,0,0.1,0,0.2l0.3,0.2c0,0,0.1,0,0.1,0
				c0,0,0.1,0,0.1,0l1.5-2.2l0.5,0.3l-1.5,2.2c-0.1,0.1-0.1,0.1-0.2,0.2c-0.1,0-0.2,0.1-0.3,0.1s-0.2,0-0.3,0
				c-0.1,0-0.2-0.1-0.3-0.1l-0.3-0.2c-0.1-0.1-0.1-0.1-0.2-0.2s-0.1-0.2-0.1-0.3c0-0.1,0-0.2,0-0.3c0-0.1,0.1-0.2,0.1-0.3l1.5-2.2
				l0.5,0.3L896.1,685.6z"/>
			<path id="XMLID_1740_" d="M900.3,685.6l0.6,0.9c0.1,0.1,0.1,0.2,0.1,0.3c0,0.1,0,0.2,0,0.3c0,0.1,0,0.2-0.1,0.3
				c0,0.1-0.1,0.2-0.2,0.2l-0.3,0.3c-0.1,0-0.1,0.1-0.2,0.1s-0.1,0-0.2,0c0,0.1-0.1,0.1-0.1,0.2c0,0.1-0.1,0.1-0.2,0.2l-0.5,0.4
				c-0.1,0.1-0.2,0.1-0.3,0.1c-0.1,0-0.2,0-0.3,0s-0.2,0-0.3-0.1c-0.1,0-0.2-0.1-0.2-0.2l-0.6-0.9L900.3,685.6z M899.1,687.3
				l-0.7,0.5l0.3,0.4c0,0,0,0,0.1,0c0,0,0.1,0,0.1,0l0.5-0.4c0,0,0,0,0-0.1s0-0.1,0-0.1L899.1,687.3z M900.1,686.5l-0.5,0.4l0.3,0.4
				c0,0,0,0,0.1,0c0,0,0.1,0,0.1,0l0.3-0.3c0,0,0,0,0-0.1c0,0,0-0.1,0-0.1L900.1,686.5z"/>
			<path id="XMLID_1744_" d="M901.7,689.3c0.1,0,0.2,0,0.3,0c0.1,0,0.2,0,0.3,0.1c0.1,0,0.2,0.1,0.2,0.2c0.1,0.1,0.1,0.2,0.2,0.3
				l0.1,0.3c0,0.1,0,0.2,0,0.3c0,0.1,0,0.2-0.1,0.3c0,0.1-0.1,0.2-0.2,0.2s-0.2,0.1-0.3,0.1l-2.5,0.9l-0.2-0.6l0.8-0.3l-0.2-0.5
				l-0.8,0.3l-0.2-0.6L901.7,689.3z M900.7,690.3l0.2,0.5l1.2-0.4c0,0,0.1,0,0.1-0.1s0-0.1,0-0.1l-0.1-0.3c0,0,0-0.1-0.1-0.1
				s-0.1,0-0.1,0L900.7,690.3z"/>
		</g>
		<g id="XMLID_68_">
			<path id="XMLID_69_" d="M878.8,699l-0.2-0.6l0,0c0,0,0,0,0,0l-0.2-0.5c0-0.1,0-0.2,0-0.3c0-0.1,0-0.2,0.1-0.3
				c0-0.1,0.1-0.1,0.2-0.2c0.1-0.1,0.2-0.1,0.3-0.1l1.9-0.6c0.1,0,0.2,0,0.3,0c0.1,0,0.2,0,0.3,0.1c0.1,0,0.2,0.1,0.2,0.2
				c0.1,0.1,0.1,0.1,0.1,0.2l0.1,0.4c0,0.1,0,0.2,0,0.3c0,0.1,0,0.2-0.1,0.3c0,0.1-0.1,0.2-0.2,0.2s-0.2,0.1-0.2,0.1l-0.3,0.1
				l-0.2-0.6l0.3-0.1c0,0,0,0,0,0s0,0,0-0.1l-0.1-0.4c0,0,0,0-0.1,0c0,0,0,0-0.1,0l-1.9,0.6c0,0,0,0-0.1,0c0,0,0,0,0,0.1l0.1,0.4
				c0,0,0,0,0,0s0,0,0.1,0l0.4-0.1l-0.1-0.4l0.6-0.2l0.3,1L878.8,699z"/>
			<path id="XMLID_72_" d="M880.7,702l0.6-0.9l-0.1-0.1l-0.8,0.6l-0.4-0.5l2.7-2.1l0.7,0.9c0.1,0.1,0.1,0.2,0.1,0.3
				c0,0.1,0,0.2,0,0.3c0,0.1,0,0.2-0.1,0.3c0,0.1-0.1,0.2-0.2,0.2l-0.7,0.5c-0.1,0.1-0.2,0.1-0.4,0.1c-0.1,0-0.3,0-0.4-0.1l-0.6,1
				L880.7,702z M882.5,699.9l-0.9,0.7l0.3,0.4c0,0,0,0,0.1,0c0,0,0.1,0,0.1,0l0.7-0.5c0,0,0,0,0-0.1c0,0,0-0.1,0-0.1L882.5,699.9z"
				/>
			<path id="XMLID_500_" d="M884.7,701.3l0.9,0.6c0.1,0.1,0.1,0.1,0.2,0.2c0.1,0.1,0.1,0.2,0.1,0.3s0,0.2,0,0.3
				c0,0.1-0.1,0.2-0.1,0.3l-0.2,0.4c0,0.1-0.1,0.1-0.2,0.2c-0.1,0-0.1,0.1-0.2,0.1c0,0.1,0,0.1,0,0.2c0,0.1-0.1,0.1-0.1,0.2
				l-0.4,0.5c-0.1,0.1-0.1,0.1-0.2,0.2c-0.1,0.1-0.2,0.1-0.3,0.1c-0.1,0-0.2,0-0.3,0c-0.1,0-0.2-0.1-0.3-0.1l-0.9-0.6L884.7,701.3z
				 M884.1,703.3l-0.5,0.7l0.4,0.3c0,0,0.1,0,0.1,0c0,0,0.1,0,0.1,0l0.4-0.5c0,0,0-0.1,0-0.1c0,0,0-0.1,0-0.1L884.1,703.3z
				 M884.8,702.2l-0.4,0.6l0.4,0.3c0,0,0.1,0,0.1,0c0,0,0.1,0,0.1-0.1l0.2-0.4c0,0,0-0.1,0-0.1c0,0,0-0.1-0.1-0.1L884.8,702.2z"/>
			<path id="XMLID_911_" d="M889.6,706.8l-0.6,0l0.2-3.4l0.6,0l-0.1,1.5l0.8-1.5l0.7,0l-0.9,1.6l0.7,1.7l-0.7,0l-0.4-1l-0.3,0.6
				L889.6,706.8z"/>
			<path id="XMLID_913_" d="M892.5,703.3l0.6-0.2l0.8,2.7l1.1-0.3l0.2,0.6l-1.7,0.5L892.5,703.3z"/>
			<path id="XMLID_992_" d="M897.2,704.2C897.3,704.2,897.3,704.2,897.2,704.2c0.1,0.1,0.1,0,0.2,0l0.3-0.2c0,0,0,0,0-0.1
				c0,0,0-0.1,0-0.1l-1.5-2.2l0.5-0.3l1.5,2.2c0.1,0.1,0.1,0.2,0.1,0.3s0,0.2,0,0.3c0,0.1,0,0.2-0.1,0.3c-0.1,0.1-0.1,0.2-0.2,0.2
				l-0.3,0.2c-0.1,0.1-0.2,0.1-0.3,0.1c-0.1,0-0.2,0-0.3,0s-0.2,0-0.3-0.1c-0.1-0.1-0.2-0.1-0.2-0.2l-1.5-2.2l0.5-0.3L897.2,704.2z"
				/>
			<path id="XMLID_1440_" d="M897.7,700.4l0.6-0.9c0.1-0.1,0.1-0.1,0.2-0.2s0.2-0.1,0.3-0.1c0.1,0,0.2,0,0.3,0
				c0.1,0,0.2,0.1,0.3,0.1l0.3,0.3c0.1,0,0.1,0.1,0.2,0.2c0,0.1,0.1,0.1,0.1,0.2c0.1,0,0.1,0,0.2,0s0.1,0.1,0.2,0.1l0.5,0.4
				c0.1,0.1,0.1,0.1,0.2,0.2c0,0.1,0.1,0.2,0.1,0.3c0,0.1,0,0.2,0,0.3c0,0.1-0.1,0.2-0.1,0.3l-0.6,0.9L897.7,700.4z M898.5,700.3
				l0.5,0.4l0.3-0.4c0,0,0-0.1,0-0.1c0,0,0-0.1,0-0.1l-0.3-0.3c0,0-0.1,0-0.1,0c0,0-0.1,0-0.1,0L898.5,700.3z M899.5,701.1l0.7,0.5
				l0.3-0.4c0,0,0-0.1,0-0.1c0,0,0-0.1,0-0.1l-0.5-0.4c0,0-0.1,0-0.1,0c0,0-0.1,0-0.1,0L899.5,701.1z"/>
			<path id="XMLID_1721_" d="M900,698.1c-0.1,0-0.2-0.1-0.2-0.1c-0.1-0.1-0.1-0.1-0.2-0.2c0-0.1-0.1-0.2-0.1-0.3c0-0.1,0-0.2,0-0.3
				l0.1-0.3c0-0.1,0.1-0.2,0.1-0.2c0.1-0.1,0.1-0.1,0.2-0.2c0.1,0,0.2-0.1,0.3-0.1c0.1,0,0.2,0,0.3,0l2.5,0.8l-0.2,0.6l-0.8-0.3
				l-0.2,0.5l0.8,0.3l-0.2,0.6L900,698.1z M901.4,697.9l0.2-0.5l-1.2-0.4c0,0-0.1,0-0.1,0s-0.1,0-0.1,0.1l-0.1,0.3c0,0,0,0.1,0,0.1
				c0,0,0,0,0.1,0.1L901.4,697.9z"/>
		</g>
		<circle id="XMLID_170_" cx="879.3" cy="693.9" r="0.8"/>
		<circle id="XMLID_169_" cx="901.7" cy="693.9" r="0.8"/>
		<g id="XMLID_134_">
			<g id="XMLID_138_">
				<g id="XMLID_145_">
					<g id="XMLID_146_">
						<circle id="XMLID_168_" class="st8" cx="890.7" cy="693.8" r="6.3"/>
						<path id="XMLID_167_" class="st9" d="M885.5,693.3c0,0-0.4,0.7-0.5,1.7c-0.1,0.5-0.1,0.7,0.3,1.2c0.7,1,1,1.3,1.2,1.2
							c0.2,0,1.4-0.3,1.7-0.4c0.2-0.1,0.2-0.1,0.3-0.6c0.1-0.4,0.3-1,0.3-1.4c0-0.3,0-0.3-0.3-0.7c-0.3-0.4-1-1.3-1.1-1.5
							c-0.1-0.2-0.2-0.1-0.5-0.1c-0.3,0.1-0.8,0.2-1.1,0.2C885.5,693.2,885.5,693.2,885.5,693.3z"/>
						<path id="XMLID_166_" class="st9" d="M885.9,689.9c0,0-0.3,0.4-0.6,0.9c-0.2,0.3-0.1,0.7,0,1.5c0.1,0.8,0.2,0.8,0.5,0.7
							c0.3-0.1,1.1-0.2,1.3-0.3c0.2,0,0.4-0.4,0.6-0.7c0.2-0.3,1-1.4,1.2-1.5c0.2-0.1,0.1-0.3,0.1-0.6c0-0.4-0.2-1.1-0.3-1.1
							c-0.1,0-0.9,0-1.1,0C887.3,688.6,886.5,689.2,885.9,689.9z"/>
						<path id="XMLID_165_" class="st9" d="M888.9,695.1c0,0-0.3,1.2-0.4,1.7c0,0.3-0.1,0.3,0.5,0.7c0.6,0.4,0.8,0.6,1,0.7
							c0.2,0.1,0.3,0.1,0.9,0c0.5-0.1,1-0.2,1.3-0.3c0.2-0.1,0.5-0.8,0.7-1.3c0.2-0.5,0.3-0.9,0.1-1.1c-0.2-0.2-0.5-0.4-0.8-0.7
							c-0.3-0.2-0.6-0.5-0.8-0.5c-0.1,0.1-1.5,0.4-2,0.5C889.1,694.9,888.9,695,888.9,695.1z"/>
						<path id="XMLID_164_" class="st9" d="M889.9,699.9c0,0,0.2-1,0.3-1.3c0-0.3,0.1-0.3,0.5-0.3c0.4-0.1,1.3-0.3,1.5-0.4
							c0.2-0.1,0.3-0.1,0.6,0.1c0.3,0.2,0.9,0.7,1.2,0.9c0.2,0.1-0.6,0.6-1.5,0.9C891.3,700.1,889.9,700.1,889.9,699.9z"/>
						<path id="XMLID_163_" class="st9" d="M889.1,690.1c0,0-0.1-0.7-0.2-1.2c0-0.4,0-0.4,0.5-0.6c0.5-0.2,1.8-0.5,2.1-0.5
							c0.3,0,0.6,0.1,1.3,0.4c0.7,0.3,0.9,0.5,0.9,0.7c0,0.2,0.1,1.1,0.1,1.6c0,0.3-0.1,0.3-0.6,0.5c-0.5,0.2-1,0.4-1.1,0.5
							c-0.2,0.1-0.4-0.1-0.9-0.4c-0.4-0.3-1.3-0.6-1.6-0.7C889.2,690.3,889.1,690.3,889.1,690.1z"/>
						<path id="XMLID_162_" class="st9" d="M892,691.8c0,0-0.3,1.2-0.4,1.8c-0.1,0.6-0.1,0.7,0.3,0.9c0.3,0.3,0.7,0.6,1,0.8
							c0.2,0.2,0.3,0.3,1,0.2c0.8-0.2,1.1-0.3,1.3-0.4c0.3-0.1,0.3-0.2,0.4-0.7c0.1-0.5,0.2-1.2,0.2-1.6c0-0.4,0-0.4-0.3-0.8
							c-0.3-0.3-0.9-0.8-1.1-1c-0.2-0.2-0.4-0.2-0.7-0.1c-0.3,0.1-1,0.4-1.3,0.5C892.1,691.6,892,691.6,892,691.8z"/>
						<path id="XMLID_161_" class="st9" d="M896.5,692.3c0,0-0.4,0.1-0.5,0.2c-0.1,0.1-0.1,0.5-0.2,0.9c0,0.4-0.2,1.2-0.3,1.5
							c-0.1,0.2,0.2,0.3,0.4,0.6c0.3,0.5,0.5,0.7,0.5,0.7c0.1-0.1,0.5-1,0.5-2.6C896.8,692.8,896.7,692.2,896.5,692.3z"/>
						<path id="XMLID_160_" class="st9" d="M884.8,695.7c0,0,0.1-0.2,0.1-0.1c0.1,0.1,0.6,1.1,1.1,1.6c0.2,0.2,0.2,0.2,0.2,0.5
							c0,0.3,0,0.4-0.2,0.2C885.9,697.7,885,696.7,884.8,695.7z"/>
						<path id="XMLID_159_" class="st9" d="M891.9,687.7c0,0-0.1,0-0.1,0c0,0,0.2,0.1,0.5,0.3c0.4,0.2,0.9,0.4,1.2,0.6
							c0.2,0.1,0.2,0.1,0.4,0.1c0.1-0.1,0.2-0.1,0-0.2C893.7,688.4,892.7,687.8,891.9,687.7z"/>
						<path id="XMLID_158_" class="st10" d="M891.8,698.1c0,0-0.8,0.2-1.3,0.3c-0.3,0-0.3,0.6-0.4,1.2c0,0,0.2-0.7,0.3-1
							C890.5,698.4,890.9,698.4,891.8,698.1z"/>
						<path id="XMLID_157_" class="st9" d="M886.3,689.6c0,0,0.7-0.7,1-0.9c0.3-0.2,1.4-0.1,1.4-0.1s-0.8,0-1.1,0
							C887.1,688.7,886.3,689.6,886.3,689.6z"/>
						<path id="XMLID_156_" class="st9" d="M890.2,688.2c0,0,1.1-0.3,1.4-0.3c0.3,0,1,0.3,1.8,0.7c-0.8-0.4-1.5-0.6-1.7-0.6
							C891.4,688,890.2,688.2,890.2,688.2z"/>
						<path id="XMLID_155_" class="st9" d="M886,693.1c0,0,1-0.3,1.1-0.2c0.1,0,1.3,1.6,1.3,1.6s-1-1.2-1.3-1.4
							C886.9,693,886,693.1,886,693.1z"/>
						
							<linearGradient id="XMLID_4_" gradientUnits="userSpaceOnUse" x1="892.4772" y1="694.3214" x2="894.7899" y2="692.8379" gradientTransform="matrix(1 -1.800000e-003 1.800000e-003 1 -0.141 1.0156)">
							<stop  offset="0.2851" style="stop-color:#9E9E9E"/>
							<stop  offset="0.3829" style="stop-color:#AAAAAA"/>
							<stop  offset="0.559" style="stop-color:#CACAC9"/>
							<stop  offset="0.6938" style="stop-color:#E6E6E5"/>
							<stop  offset="0.7298" style="stop-color:#EAEAEA"/>
							<stop  offset="0.87" style="stop-color:#F8F8F7"/>
							<stop  offset="1" style="stop-color:#FFFFFF"/>
						</linearGradient>
						<path id="XMLID_154_" class="st11" d="M894.7,691.5c0,0,0.7,0.6,0.9,0.8c0.2,0.2,0.2,0.2,0,1.7c0.1-0.9,0.1-1.3,0-1.5
							C895.4,692.2,894.7,691.5,894.7,691.5z"/>
						<g id="XMLID_147_">
							<path id="XMLID_153_" class="st9" d="M888.6,695.7c0,0-0.2,0.7-0.2,1c-0.1,0.3-0.4,0.3-1.2,0.4c0.8-0.3,1-0.3,1.1-0.5
								C888.4,696.4,888.6,695.7,888.6,695.7z"/>
							<path id="XMLID_152_" class="st9" d="M888.6,696.2c0,0,0.2-0.7,0.2-1c0.1-0.3,0.6-0.3,1.2-0.5c0,0-0.5,0.2-0.9,0.3
								C888.9,695.2,888.9,695.6,888.6,696.2z"/>
							<path id="XMLID_151_" class="st9" d="M889,697.4c0,0,0.6,0.4,0.9,0.6c0.3,0.2,0.4,0.2,1.1,0c0.7-0.2,0.9-0.2,0.9-0.2
								s-1,0.2-1.5,0.2C889.9,698.1,889,697.4,889,697.4z"/>
							<path id="XMLID_150_" class="st9" d="M891.6,693.8c0,0,0.3-1.5,0.4-1.9c0.1-0.4,0.7-0.6,1.4-0.8c0,0-0.8,0.4-1.1,0.6
								C892.1,691.8,892.1,692.1,891.6,693.8z"/>
							<path id="XMLID_149_" class="st9" d="M892.3,695c0,0,0.5,0.4,0.6,0.5c0.1,0.1,0.1,0.5-0.3,1.6c0.2-0.7,0.5-1.3,0.2-1.6
								C892.5,695.3,892.3,695,892.3,695z"/>
							<path id="XMLID_148_" class="st9" d="M885.3,696.4c0,0,0.4,0.5,0.6,0.8c0.2,0.2,0.3,0.3,0.3,0.7c0-0.3-0.1-0.4-0.2-0.6
								C885.8,697.2,885.3,696.4,885.3,696.4z"/>
						</g>
					</g>
				</g>
				<path id="XMLID_142_" class="st12" d="M890.7,687.6c-3.5,0-6.2,2.8-6.2,6.3c0,3.5,2.8,6.2,6.3,6.2c3.5,0,6.2-2.8,6.2-6.3
					C896.9,690.4,894.1,687.6,890.7,687.6z M890.6,698.8c-3.2,0-5.7-2.4-5.7-5.4c0-3,2.5-5.4,5.7-5.4c3.2,0,5.7,2.4,5.7,5.4
					C896.3,696.4,893.8,698.8,890.6,698.8z"/>
			</g>
			<g id="XMLID_135_">
				
					<ellipse id="XMLID_137_" transform="matrix(0.7632 -0.6461 0.6461 0.7632 -236.0549 738.1998)" class="st13" cx="889.2" cy="691.2" rx="0.6" ry="0.5"/>
				
					<ellipse id="XMLID_136_" transform="matrix(0.7632 -0.6461 0.6461 0.7632 -236.842 737.8471)" class="st13" cx="888.4" cy="692.1" rx="0.3" ry="0.2"/>
			</g>
		</g>
	</g>
	<g id="linije_7_">
		<g id="XMLID_332_">
			<path id="XMLID_680_" class="st3" d="M860.1,715.4c0,0,3.5-21.9,4.1-27.3s3.1-20.8,4.3-26.8s3.6-23.2,5-26.1s3.6-7.3,4.2-11
				s4.8-14.8,5.3-18.9s3.3-13.4,4.6-20.1s5.1-23.1,5.4-24.9s1.2-7.6,2.5-9.9s5.9-6.9,6.5-8.4s2-6.1,2.1-8.3s0.5-7.3,0.5-7.3"/>
			<path id="XMLID_508_" class="st14" d="M858.4,714.7c0,0,3.4-21.2,4-26.6s3.1-20.8,4.3-26.8s3.6-23.2,5-26.1s3.6-7.3,4.2-11
				s4.8-14.8,5.3-18.9s3.3-13.4,4.6-20.1s5.1-23.1,5.4-24.9s1.2-7.6,2.5-9.9s5.9-6.9,6.5-8.4c0.1-0.3,0.3-0.8,0.5-1.4"/>
			<path id="XMLID_334_" class="st14" d="M869.3,718.4c0,0,3.5-21.9,4.1-27.3s3.1-20.8,4.3-26.8s3.6-23.2,5-26.1s3.6-7.3,4.2-11
				s4.8-14.8,5.3-18.9s3.3-13.4,4.6-20.1s5.1-23.1,5.4-24.9s1.2-7.6,2.5-9.9s5.9-6.9,6.5-8.4c0.1-0.3,0.2-0.6,0.4-1"/>
			<path id="XMLID_333_" class="st3" d="M867.4,717.5c0,0,3.5-21.9,4.1-27.3s3.1-20.8,4.3-26.8s3.6-23.2,5-26.1s3.6-7.3,4.2-11
				s4.8-14.8,5.3-18.9s3.3-13.4,4.6-20.1s5.1-23.1,5.4-24.9s1.2-7.6,2.5-9.9s5.9-6.9,6.5-8.4s2-6.1,2.1-8.3s0.5-7.3,0.5-7.3"/>
		</g>
		<g id="XMLID_327_">
			<path id="XMLID_331_" class="st3" d="M1086.6,715.4c0,0-3.5-21.9-4.1-27.3s-3.1-20.8-4.3-26.8s-3.6-23.2-5-26.1s-3.6-7.3-4.2-11
				s-4.8-14.8-5.3-18.9s-3.3-13.4-4.6-20.1s-5.1-23.1-5.4-24.9s-1.2-7.6-2.5-9.9s-5.9-6.9-6.5-8.4s-2-6.1-2.1-8.3s-0.5-7.3-0.5-7.3"
				/>
			<path id="XMLID_330_" class="st14" d="M1088.4,714.9c0,0-3.4-21.4-4-26.8s-3.1-20.8-4.3-26.8s-3.6-23.2-5-26.1s-3.6-7.3-4.2-11
				s-4.8-14.8-5.3-18.9s-3.3-13.4-4.6-20.1s-5.1-23.1-5.4-24.9s-1.2-7.6-2.5-9.9s-5.9-6.9-6.5-8.4c-0.1-0.3-0.3-0.8-0.5-1.4"/>
			<path id="XMLID_329_" class="st14" d="M1077.4,718.4c0,0-3.5-21.9-4.1-27.3s-3.1-20.8-4.3-26.8s-3.6-23.2-5-26.1s-3.6-7.3-4.2-11
				s-4.8-14.8-5.3-18.9s-3.3-13.4-4.6-20.1s-5.1-23.1-5.4-24.9s-1.2-7.6-2.5-9.9s-5.9-6.9-6.5-8.4c-0.1-0.2-0.2-0.4-0.3-0.7"/>
			<path id="XMLID_328_" class="st3" d="M1079.3,717.5c0,0-3.5-21.9-4.1-27.3s-3.1-20.8-4.3-26.8s-3.6-23.2-5-26.1s-3.6-7.3-4.2-11
				s-4.8-14.8-5.3-18.9s-3.3-13.4-4.6-20.1s-5.1-23.1-5.4-24.9s-1.2-7.6-2.5-9.9s-5.9-6.9-6.5-8.4s-2-6.1-2.1-8.3s-0.5-7.3-0.5-7.3"
				/>
		</g>
		<path id="XMLID_326_" class="st2" d="M954.2,723.2c0,0,1.2-3.6,1.9-10.4s0.3-13.8,1.5-18s4.4-15.6,4.4-18.1s0.9-4.1,1.8-8.1
			s2-5.5,2.4-10.5s1-12.5,1.7-15.7c0.7-3.3,1.6-6.8,2.9-8.2c1.3-1.4,3.3-2.9,3.3-2.9"/>
		<path id="XMLID_325_" class="st2" d="M993.2,723.4c0,0-1.2-3.6-1.9-10.4s-0.3-13.8-1.5-18s-4.4-15.6-4.4-18.1s-0.9-4.1-1.8-8.1
			s-2-5.5-2.4-10.5s-1-12.5-1.7-15.7c-0.7-3.3-1.6-6.8-2.9-8.2c-1.3-1.4-3.3-2.9-3.3-2.9s-1.4-9,0-14s3.1-13.4,2.5-18.5
			c-0.6-5.1-3.3-20.4-2.5-25.8c0.8-5.4,0.6-22.4,0.6-22.4"/>
		<path id="XMLID_324_" class="st14" d="M855.6,708.5c4.6,4.3,13.2,5,17.5,6.4c4.4,1.4,13.2,0.9,20.1,0.9s15.1-1.1,25.7-1.3
			s17,1.1,24.4,2.4s18.4,4.8,18.4,4.8"/>
		<path id="XMLID_323_" class="st14" d="M855.9,706.5c4.7,4.1,13,4.8,17.2,6.1c4.4,1.4,13.2,0.9,20.1,0.9s15.1-1.1,25.7-1.3
			s17,1.1,24.4,2.4s18.4,4.8,18.4,4.8"/>
		<path id="XMLID_322_" class="st14" d="M1091.4,708c-4.4,4.8-13.6,5.5-18,6.9s-13.2,0.9-20.1,0.9s-15.1-1.1-25.7-1.3
			s-17,1.1-24.4,2.4s-18.4,4.8-18.4,4.8"/>
		<path id="XMLID_321_" class="st14" d="M1091.4,705.8c-4.4,4.8-13.6,5.5-18,6.9s-13.2,0.9-20.1,0.9s-15.1-1.1-25.7-1.3
			s-17,1.1-24.4,2.4s-18.4,4.8-18.4,4.8"/>
		<g id="XMLID_318_">
			<path id="XMLID_320_" class="st4" d="M901.6,525.8c0,0,12.7,3.1,18.3,3.8s22.8,3.7,30.2,3.8c7.4,0.2,23.1,0.3,23.1,0.3"/>
			<path id="XMLID_319_" class="st4" d="M973.2,533.7c0,0,15.7-0.2,23.1-0.3c7.4-0.2,24.5-3.1,30.2-3.8c5.7-0.7,18.3-3.8,18.3-3.8"
				/>
		</g>
		<path id="XMLID_317_" class="st4" d="M864,716.7c0,0,7.3,3.6,16.1,5.7c8.8,2.1,14.9,3.6,20.4,4.5c5.5,0.9,25.3,2,34.6,1.7
			c9.3-0.3,26.8-2.7,26.8-2.7"/>
		<path id="XMLID_316_" class="st14" d="M880.2,719.2c0.8,0.2,1.5,0.4,2.2,0.5c7.7,1.8,13.2,3.1,18.2,4c5.5,0.9,25.3,2,34.6,1.7
			c5.2-0.2,12.7-1.2,18.5-2"/>
		<path id="XMLID_315_" class="st14" d="M893.3,719.8c2.6,0.6,5,1.1,7.3,1.4c5.5,0.9,25.3,2,34.6,1.7c3.3-0.1,7.6-0.6,11.8-1.1"/>
		<path id="XMLID_314_" class="st14" d="M1064.1,720.8c-0.8,0.1-1.5,0.3-2.2,0.4c-7.7,1.4-13.2,2.3-18.2,3
			c-5.5,0.7-25.2,1.5-34.6,1.2c-5.2-0.1-12.7-0.9-18.5-1.5"/>
		<path id="XMLID_313_" class="st14" d="M1051,721.2c-2.6,0.4-5,0.8-7.3,1.1c-5.5,0.7-25.2,1.5-34.6,1.2c-3.3-0.1-7.6-0.4-11.8-0.8"
			/>
		<path id="XMLID_312_" class="st4" d="M1084.3,716.3c0,0-7.9,4-16.7,6.1c-8.8,2.1-14.9,3.6-20.4,4.5c-5.5,0.9-25.3,2-34.6,1.7
			c-9.3-0.3-27.7-2.7-27.7-2.7"/>
		<path id="XMLID_311_" class="st15" d="M1050.7,540.1c-1.3-0.9-13.8,3.9-17.2,4.7s-21.6,4.8-29.3,5.1c-7.7,0.4-30.5,1.3-30.5,1.3
			s-22.8-0.9-30.5-1.3s-25.9-4.4-29.3-5.1s-16-5.6-17.3-4.8"/>
		<path id="XMLID_310_" class="st15" d="M1049.5,537.6c-3.7,0.6-13.1,4.1-16,4.8c-3.4,0.8-21.6,4.8-29.3,5.1
			c-7.7,0.4-30.5,1.3-30.5,1.3s-22.8-0.9-30.5-1.3s-25.9-4.4-29.3-5.1c-3-0.7-13.3-4.6-16.5-4.8"/>
		<path id="XMLID_309_" class="st15" d="M1048.4,528.4c-4.2,1-12.3,4-14.9,4.6c-3.4,0.8-21.6,4.8-29.3,5.1
			c-7.7,0.4-30.5,1.3-30.5,1.3s-22.8-0.9-30.5-1.3s-25.9-4.4-29.3-5.1c-2.7-0.6-11.4-3.8-15.4-4.7"/>
		<g id="XMLID_194_">
			<g id="XMLID_264_">
				<line id="XMLID_308_" class="st16" x1="911.4" y1="544.4" x2="914.6" y2="529.9"/>
				<line id="XMLID_307_" class="st16" x1="911.1" y1="538.2" x2="913" y2="529.5"/>
				<line id="XMLID_306_" class="st16" x1="912.7" y1="544.4" x2="915.9" y2="530.2"/>
				<line id="XMLID_305_" class="st16" x1="913.7" y1="544.7" x2="917.4" y2="530.6"/>
				<line id="XMLID_304_" class="st16" x1="915" y1="545" x2="918.7" y2="530.9"/>
				<line id="XMLID_303_" class="st16" x1="916.3" y1="545.5" x2="920.1" y2="531.2"/>
				<line id="XMLID_302_" class="st16" x1="917.6" y1="545.4" x2="921.3" y2="531.5"/>
				<line id="XMLID_301_" class="st16" x1="918.8" y1="545.5" x2="922.7" y2="531.8"/>
				<line id="XMLID_300_" class="st16" x1="920.1" y1="546.2" x2="924" y2="532.5"/>
				<line id="XMLID_299_" class="st16" x1="921.9" y1="546.5" x2="925.4" y2="532.5"/>
				<line id="XMLID_298_" class="st16" x1="926.7" y1="532.9" x2="923.5" y2="546.9"/>
				<line id="XMLID_297_" class="st16" x1="928.4" y1="532.9" x2="925.1" y2="547.1"/>
				<line id="XMLID_296_" class="st16" x1="926.7" y1="547.4" x2="929.8" y2="533.2"/>
				<line id="XMLID_295_" class="st16" x1="928.1" y1="547.7" x2="931.2" y2="533.5"/>
				<line id="XMLID_294_" class="st16" x1="929.3" y1="547.9" x2="932.5" y2="533.7"/>
				<line id="XMLID_293_" class="st16" x1="933.9" y1="534" x2="930.8" y2="548.2"/>
				<line id="XMLID_292_" class="st16" x1="935.3" y1="534.2" x2="932.4" y2="548.4"/>
				<line id="XMLID_291_" class="st16" x1="937" y1="534.5" x2="934.4" y2="548.8"/>
				<line id="XMLID_290_" class="st16" x1="938.6" y1="535.2" x2="936" y2="549.2"/>
				<line id="XMLID_289_" class="st16" x1="940.4" y1="535.1" x2="937.8" y2="549.3"/>
				<line id="XMLID_288_" class="st16" x1="941.9" y1="535.4" x2="939.6" y2="549.6"/>
				<line id="XMLID_287_" class="st16" x1="943.3" y1="535.3" x2="941.3" y2="549.8"/>
				<line id="XMLID_286_" class="st16" x1="944.8" y1="535.4" x2="943.2" y2="549.9"/>
				<line id="XMLID_285_" class="st16" x1="946.5" y1="535.5" x2="945.1" y2="549.9"/>
				<line id="XMLID_284_" class="st16" x1="948.3" y1="535.5" x2="946.9" y2="550"/>
				<line id="XMLID_283_" class="st16" x1="950" y1="535.9" x2="948.9" y2="550.2"/>
				<line id="XMLID_282_" class="st16" x1="951.6" y1="535.9" x2="950.8" y2="550.2"/>
				<line id="XMLID_281_" class="st16" x1="953.2" y1="535.9" x2="952.6" y2="550.3"/>
				<line id="XMLID_280_" class="st16" x1="954.8" y1="536.1" x2="954.4" y2="550.4"/>
				<line id="XMLID_279_" class="st16" x1="956.3" y1="536.1" x2="956.3" y2="550.5"/>
				<line id="XMLID_278_" class="st16" x1="958" y1="536.1" x2="958" y2="550.5"/>
				<line id="XMLID_277_" class="st16" x1="959.6" y1="536.1" x2="959.6" y2="550.5"/>
				<line id="XMLID_276_" class="st16" x1="961.2" y1="536.1" x2="961.2" y2="550.5"/>
				<line id="XMLID_275_" class="st16" x1="962.8" y1="536.1" x2="962.8" y2="550.5"/>
				<line id="XMLID_274_" class="st16" x1="964.5" y1="536.1" x2="964.5" y2="550.5"/>
				<line id="XMLID_273_" class="st16" x1="966.1" y1="536.1" x2="966.1" y2="550.5"/>
				<line id="XMLID_272_" class="st16" x1="967.7" y1="536.4" x2="967.7" y2="550.8"/>
				<line id="XMLID_271_" class="st16" x1="969.4" y1="536.4" x2="969.4" y2="550.8"/>
				<line id="XMLID_270_" class="st16" x1="971" y1="536.4" x2="971" y2="550.8"/>
				<line id="XMLID_269_" class="st16" x1="972.7" y1="536.4" x2="972.7" y2="550.8"/>
				<line id="XMLID_268_" class="st16" x1="898.2" y1="539.9" x2="902" y2="525.5"/>
				<line id="XMLID_267_" class="st16" x1="899.7" y1="540.3" x2="903.5" y2="526"/>
				<line id="XMLID_266_" class="st16" x1="901.2" y1="540.7" x2="904.5" y2="528.4"/>
				<line id="XMLID_265_" class="st16" x1="900.8" y1="525.2" x2="897.4" y2="537.9"/>
			</g>
			<g id="XMLID_196_">
				<line id="XMLID_263_" class="st16" x1="1048.6" y1="540.3" x2="1044.8" y2="525.8"/>
				<line id="XMLID_262_" class="st16" x1="1047.1" y1="540.7" x2="1043.3" y2="526.4"/>
				<line id="XMLID_261_" class="st16" x1="1045.6" y1="541.1" x2="1042.3" y2="528.8"/>
				<line id="XMLID_260_" class="st16" x1="1037" y1="544" x2="1033.8" y2="529.5"/>
				<line id="XMLID_259_" class="st16" x1="1035.7" y1="544.2" x2="1032.5" y2="530"/>
				<line id="XMLID_258_" class="st16" x1="1034.8" y1="544.7" x2="1031.1" y2="530.6"/>
				<line id="XMLID_257_" class="st16" x1="1033.5" y1="545" x2="1029.8" y2="530.9"/>
				<line id="XMLID_256_" class="st16" x1="1032.1" y1="545.1" x2="1028.3" y2="530.8"/>
				<line id="XMLID_255_" class="st16" x1="1030.9" y1="545.4" x2="1027.2" y2="531.5"/>
				<line id="XMLID_254_" class="st16" x1="1029.6" y1="545.3" x2="1025.7" y2="531.5"/>
				<line id="XMLID_253_" class="st16" x1="1028.2" y1="545.7" x2="1024.3" y2="531.9"/>
				<line id="XMLID_252_" class="st16" x1="1045.9" y1="525.4" x2="1049.4" y2="538.1"/>
				<line id="XMLID_251_" class="st16" x1="1026.5" y1="546.2" x2="1023" y2="532.2"/>
				<line id="XMLID_250_" class="st16" x1="1021.8" y1="532.6" x2="1025" y2="546.6"/>
				<line id="XMLID_249_" class="st16" x1="1020.1" y1="532.9" x2="1023.4" y2="547.1"/>
				<line id="XMLID_248_" class="st16" x1="1021.8" y1="547.4" x2="1018.7" y2="533.2"/>
				<line id="XMLID_247_" class="st16" x1="1020.4" y1="547.7" x2="1017.3" y2="533.5"/>
				<line id="XMLID_246_" class="st16" x1="1019.2" y1="547.9" x2="1016" y2="533.7"/>
				<line id="XMLID_245_" class="st16" x1="1014.6" y1="534" x2="1017.7" y2="548.2"/>
				<line id="XMLID_244_" class="st16" x1="1013.2" y1="534.2" x2="1016.1" y2="548.4"/>
				<line id="XMLID_243_" class="st16" x1="1011.5" y1="534.5" x2="1014.1" y2="548.8"/>
				<line id="XMLID_242_" class="st16" x1="1009.7" y1="535" x2="1012.3" y2="548.9"/>
				<line id="XMLID_241_" class="st16" x1="1008.1" y1="535.1" x2="1010.7" y2="549.3"/>
				<line id="XMLID_240_" class="st16" x1="1006.6" y1="535.4" x2="1008.9" y2="549.6"/>
				<line id="XMLID_239_" class="st16" x1="1005.2" y1="535.3" x2="1007.2" y2="549.8"/>
				<line id="XMLID_238_" class="st16" x1="1003.7" y1="535.4" x2="1005.3" y2="549.9"/>
				<line id="XMLID_218_" class="st16" x1="1002" y1="535.5" x2="1003.4" y2="549.9"/>
				<line id="XMLID_213_" class="st16" x1="1000.2" y1="535.5" x2="1001.6" y2="550"/>
				<line id="XMLID_212_" class="st16" x1="998.5" y1="535.9" x2="999.6" y2="550.2"/>
				<line id="XMLID_210_" class="st16" x1="996.9" y1="535.9" x2="997.7" y2="550.2"/>
				<line id="XMLID_209_" class="st16" x1="995.3" y1="535.9" x2="995.9" y2="550.3"/>
				<line id="XMLID_208_" class="st16" x1="993.7" y1="536.1" x2="994.1" y2="550.4"/>
				<line id="XMLID_207_" class="st16" x1="992.2" y1="536.1" x2="992.2" y2="550.5"/>
				<line id="XMLID_206_" class="st16" x1="990.5" y1="536.1" x2="990.5" y2="550.5"/>
				<line id="XMLID_205_" class="st16" x1="988.9" y1="536.1" x2="988.9" y2="550.5"/>
				<line id="XMLID_204_" class="st16" x1="987.3" y1="536.1" x2="987.3" y2="550.5"/>
				<line id="XMLID_203_" class="st16" x1="985.7" y1="536.1" x2="985.7" y2="550.5"/>
				<line id="XMLID_202_" class="st16" x1="984" y1="536.1" x2="984" y2="550.5"/>
				<line id="XMLID_201_" class="st16" x1="982.4" y1="536.1" x2="982.4" y2="550.5"/>
				<line id="XMLID_200_" class="st16" x1="980.8" y1="536.4" x2="980.8" y2="550.8"/>
				<line id="XMLID_199_" class="st16" x1="979.1" y1="536.4" x2="979.1" y2="550.8"/>
				<line id="XMLID_198_" class="st16" x1="977.5" y1="536.4" x2="977.5" y2="550.8"/>
				<line id="XMLID_197_" class="st16" x1="975.8" y1="536.4" x2="975.8" y2="550.8"/>
			</g>
			<line id="XMLID_195_" class="st16" x1="974.3" y1="536.6" x2="974.3" y2="551"/>
		</g>
		<path id="XMLID_131_" class="st4" d="M1086.1,672.3c-1.3-8.4-3.9-21.3-5-26.6s-1-10.5-2-12.9s-1.8-3.5-3.5-8.9s-6-16.3-6.4-18.8
			s-0.6-6.5-1.5-10.1s-2.1-10.4-4.1-18.3s-3.1-11.3-3.5-14.4s-2.1-12.6-3.3-14.8s-7.1-8.4-7.3-9.3s-0.9-12-2.1-12.9
			s-13.4,4-16.6,4.8s-20.8,4.8-28.1,5.1c-7.4,0.4-29.2,1.3-29.2,1.3s-21.9-0.9-29.2-1.3s-24.9-4.4-28.1-5.1s-15.4-5.6-16.6-4.8
			s-2,12-2.1,12.9s-6.1,7.1-7.3,9.3s-2.9,11.6-3.3,14.8s-1.5,6.5-3.5,14.4s-3.3,14.6-4.1,18.3s-1.1,7.6-1.5,10.1s-4.6,13.4-6.4,18.8
			s-2.5,6.5-3.5,8.9s-0.9,7.5-2,12.9s-3.8,18.3-5,26.6s-5.8,39.8-5.8,39.8c4.4,4.8,13.6,5.5,18,6.9s13.2,0.9,20.1,0.9
			s15.1-1.1,25.7-1.3s17,1.1,24.4,2.4s18.4,4.8,18.4,4.8s2-15.4,1.9-16.9s0.8-10.6,1.2-13.4s0.9-5.2,1.5-8.1s1.7-9.8,2.3-12.8
			s1.9-7.1,2.5-11.5s0.9-8.8,1.1-13.5c0.2-4.7,1.4-7.3,1.4-7.3s1.2,2.7,1.4,7.3c0.2,4.7,0.4,9,1.1,13.5s1.9,8.6,2.5,11.5
			s1.6,9.8,2.3,12.8s1.1,5.4,1.5,8.1s1.3,11.8,1.2,13.4s1.9,16.9,1.9,16.9s10.9-3.6,18.4-4.8c7.4-1.3,13.8-2.6,24.4-2.4
			c10.6,0.2,18.8,1.2,25.7,1.3s15.6,0.5,20.1-0.9s13.6-2.1,18-6.9C1091.8,712,1087.3,680.7,1086.1,672.3z"/>
	</g>
</g>
</svg>
