<?xml version="1.0" encoding="utf-8"?>
<!-- Generator: Adobe Illustrator 19.0.0, SVG Export Plug-In . SVG Version: 6.00 Build 0)  -->
<svg version="1.1" xmlns="http://www.w3.org/2000/svg" xmlns:xlink="http://www.w3.org/1999/xlink" x="0px" y="0px"
	 viewBox="0 0 2464 841.9" style="enable-background:new 0 0 2464 841.9;" xml:space="preserve">
<style type="text/css">
	.st0{fill:none;stroke:#A7A9AC;stroke-miterlimit:10;}
	.st1{fill:none;stroke:#939598;stroke-miterlimit:10;}
	.st2{fill:none;stroke:#939598;stroke-width:0.5;stroke-miterlimit:10;}
	.st3{fill:none;stroke:#000000;stroke-width:0.5;stroke-miterlimit:10;}
	.st4{fill:none;stroke:#000000;stroke-miterlimit:10;}
	.st5{fill:none;stroke:#000000;}
	.st6{fill:#BCBEC0;}
	.st7{fill:#FFFFFF;stroke:#000000;stroke-miterlimit:10;}
	.st8{fill:#323334;}
	.st9{fill:#FFFFFF;}
	.st10{fill:#979797;}
	.st11{fill:url(#XMLID_4_);}
	.st12{fill:#D0D2D3;}
	.st13{fill:#4B4C4D;}
	.st14{fill:none;stroke:#808285;stroke-width:0.5;stroke-miterlimit:10;stroke-dasharray:3,3;}
	.st15{fill:none;stroke:#939598;stroke-width:0.5;stroke-miterlimit:10;stroke-dasharray:1.5,1.5;}
	.st16{fill:none;stroke:#939598;stroke-width:0.25;stroke-miterlimit:10;}
	.st17{fill:url(#XMLID_5_);}
	.st18{fill:none;stroke:#6D6E71;stroke-width:0.5;stroke-miterlimit:10;stroke-dasharray:3,3;}
	.st19{fill:none;stroke:#6D6E71;stroke-width:0.5;stroke-miterlimit:10;stroke-dasharray:1.5,1.5;}
	.st20{opacity:0.5;}
	.st21{fill:#A7A9AC;}
	.st22{fill:none;stroke:#6D6E71;stroke-width:0.5;stroke-miterlimit:10;}
	.st23{fill:none;stroke:#6D6E71;stroke-width:0.5;stroke-miterlimit:10;stroke-dasharray:2.9029,2.9029;}
	.st24{fill:none;stroke:#6D6E71;stroke-width:0.5;stroke-miterlimit:10;stroke-dasharray:2.8761,2.8761;}
	.st25{fill:#FFFFFF;stroke:#000000;}
	.st26{fill:url(#XMLID_6_);}
	.st27{fill:none;stroke:#6D6E71;stroke-width:0.5;stroke-miterlimit:10;stroke-dasharray:2.4936,2.4936;}
	.st28{fill:none;stroke:#808285;stroke-width:0.5;stroke-miterlimit:10;}
	.st29{fill:none;stroke:#808285;stroke-width:0.5;stroke-miterlimit:10;stroke-dasharray:3.0146,3.0146;}
	.st30{fill:none;stroke:#808285;stroke-width:0.5;stroke-miterlimit:10;stroke-dasharray:3.0009,3.0009;}
	.st31{fill:none;stroke:#6D6E71;stroke-width:0.5;stroke-miterlimit:10;stroke-dasharray:3.307,3.307;}
	.st32{fill:none;stroke:#6D6E71;stroke-width:0.5;stroke-miterlimit:10;stroke-dasharray:3.2754,3.2754;}
	.st33{fill:none;stroke:#000000;stroke-width:0.25;stroke-miterlimit:10;}
	.st34{fill:none;stroke:#6D6E71;stroke-width:0.5;stroke-miterlimit:10;stroke-dasharray:2.9827,2.9827;}
	.st35{fill:none;stroke:#6D6E71;stroke-width:0.5;stroke-miterlimit:10;stroke-dasharray:2.9609,2.9609;}
	.st36{fill:none;stroke:#6D6E71;stroke-width:0.5;stroke-miterlimit:10;stroke-dasharray:3.0236,3.0236;}
	.st37{fill:none;stroke:#6D6E71;stroke-width:0.5;stroke-miterlimit:10;stroke-dasharray:2.9944,2.9944;}
	.st38{fill:url(#XMLID_15_);}
	.st39{fill:url(#XMLID_66_);}
	.st40{fill:none;stroke:#6D6E71;stroke-width:0.5;stroke-miterlimit:10;stroke-dasharray:3.0146,3.0146;}
	.st41{fill:none;stroke:#6D6E71;stroke-width:0.5;stroke-miterlimit:10;stroke-dasharray:3.0009,3.0009;}
	.st42{fill:none;stroke:#6D6E71;stroke-width:0.5;stroke-miterlimit:10;stroke-dasharray:3.0291,3.0291;}
	.st43{fill:none;stroke:#6D6E71;stroke-width:0.5;stroke-miterlimit:10;stroke-dasharray:3.0747,3.0747;}
	.st44{fill:none;stroke:#6D6E71;stroke-width:0.5;stroke-miterlimit:10;stroke-dasharray:2.9787,2.9787;}
	.st45{fill:none;stroke:#6D6E71;stroke-width:0.5;stroke-miterlimit:10;stroke-dasharray:2.9735,2.9735;}
	.st46{fill:none;stroke:#6D6E71;stroke-width:0.5;stroke-miterlimit:10;stroke-dasharray:2.8376,2.8376;}
	.st47{fill:none;stroke:#6D6E71;stroke-width:0.5;stroke-miterlimit:10;stroke-dasharray:2.8167,2.8167;}
	.st48{fill:none;stroke:#6D6E71;stroke-width:0.5;stroke-miterlimit:10;stroke-dasharray:2.9835,2.9835;}
</style>
<g id="stucne">
	<g id="s2">
		<g id="linije_9_">
			<g id="XMLID_435_">
				<line id="XMLID_456_" class="st0" x1="1839.4" y1="644.6" x2="1839.4" y2="660.7"/>
				<line id="XMLID_455_" class="st0" x1="1809.4" y1="644.6" x2="1809.4" y2="660.7"/>
				<line id="XMLID_454_" class="st0" x1="1809.4" y1="676.9" x2="1809.4" y2="681.8"/>
				<line id="XMLID_453_" class="st0" x1="1837.9" y1="644.6" x2="1837.9" y2="681.8"/>
				<line id="XMLID_452_" class="st0" x1="1836.3" y1="644.6" x2="1836.3" y2="681.8"/>
				<line id="XMLID_451_" class="st0" x1="1834.8" y1="644.6" x2="1834.8" y2="681.8"/>
				<line id="XMLID_450_" class="st0" x1="1833.2" y1="644.6" x2="1833.2" y2="681.8"/>
				<line id="XMLID_449_" class="st0" x1="1831.6" y1="644.6" x2="1831.6" y2="681.8"/>
				<line id="XMLID_448_" class="st0" x1="1830.1" y1="644.6" x2="1830.1" y2="681.8"/>
				<line id="XMLID_447_" class="st0" x1="1828.5" y1="644.6" x2="1828.5" y2="681.8"/>
				<line id="XMLID_446_" class="st0" x1="1826.9" y1="644.6" x2="1826.9" y2="681.8"/>
				<line id="XMLID_445_" class="st0" x1="1825.4" y1="644.6" x2="1825.4" y2="681.8"/>
				<line id="XMLID_444_" class="st0" x1="1823.8" y1="644.6" x2="1823.8" y2="681.8"/>
				<line id="XMLID_443_" class="st0" x1="1822.3" y1="644.6" x2="1822.3" y2="681.8"/>
				<line id="XMLID_442_" class="st0" x1="1820.7" y1="644.6" x2="1820.7" y2="681.8"/>
				<line id="XMLID_441_" class="st0" x1="1819.1" y1="644.6" x2="1819.1" y2="681.8"/>
				<line id="XMLID_440_" class="st0" x1="1817.6" y1="644.6" x2="1817.6" y2="681.8"/>
				<line id="XMLID_439_" class="st0" x1="1816" y1="644.6" x2="1816" y2="681.8"/>
				<line id="XMLID_438_" class="st0" x1="1814.4" y1="644.6" x2="1814.4" y2="681.8"/>
				<line id="XMLID_437_" class="st0" x1="1812.9" y1="644.6" x2="1812.9" y2="681.8"/>
				<line id="XMLID_436_" class="st0" x1="1811.3" y1="644.6" x2="1811.3" y2="681.8"/>
			</g>
			<g id="XMLID_359_">
				<line id="XMLID_378_" class="st1" x1="1736" y1="644.6" x2="1736" y2="660.7"/>
				<line id="XMLID_377_" class="st1" x1="1765.9" y1="644.6" x2="1765.9" y2="660.7"/>
				<line id="XMLID_380_" class="st1" x1="1765.9" y1="676.9" x2="1765.9" y2="681.8"/>
				<line id="XMLID_376_" class="st1" x1="1737.5" y1="644.6" x2="1737.5" y2="681.8"/>
				<line id="XMLID_375_" class="st1" x1="1739" y1="644.6" x2="1739" y2="681.8"/>
				<line id="XMLID_374_" class="st1" x1="1740.6" y1="644.6" x2="1740.6" y2="681.8"/>
				<line id="XMLID_373_" class="st1" x1="1742.2" y1="644.6" x2="1742.2" y2="681.8"/>
				<line id="XMLID_372_" class="st1" x1="1743.7" y1="644.6" x2="1743.7" y2="681.8"/>
				<line id="XMLID_371_" class="st1" x1="1745.3" y1="644.6" x2="1745.3" y2="681.8"/>
				<line id="XMLID_370_" class="st1" x1="1746.8" y1="644.6" x2="1746.8" y2="681.8"/>
				<line id="XMLID_369_" class="st1" x1="1748.4" y1="644.6" x2="1748.4" y2="681.8"/>
				<line id="XMLID_368_" class="st1" x1="1750" y1="644.6" x2="1750" y2="681.8"/>
				<line id="XMLID_367_" class="st1" x1="1751.5" y1="644.6" x2="1751.5" y2="681.8"/>
				<line id="XMLID_366_" class="st1" x1="1753.1" y1="644.6" x2="1753.1" y2="681.8"/>
				<line id="XMLID_365_" class="st1" x1="1754.7" y1="644.6" x2="1754.7" y2="681.8"/>
				<line id="XMLID_364_" class="st1" x1="1756.2" y1="644.6" x2="1756.2" y2="681.8"/>
				<line id="XMLID_363_" class="st1" x1="1757.8" y1="644.6" x2="1757.8" y2="681.8"/>
				<line id="XMLID_362_" class="st1" x1="1759.3" y1="644.6" x2="1759.3" y2="681.8"/>
				<line id="XMLID_361_" class="st1" x1="1760.9" y1="644.6" x2="1760.9" y2="681.8"/>
				<line id="XMLID_360_" class="st1" x1="1762.5" y1="644.6" x2="1762.5" y2="681.8"/>
				<line id="XMLID_379_" class="st1" x1="1764.1" y1="644.6" x2="1764.1" y2="681.8"/>
			</g>
			<g id="XMLID_336_">
				<line id="XMLID_337_" class="st2" x1="1735.8" y1="497.8" x2="1735.8" y2="509.1"/>
				<line id="XMLID_355_" class="st2" x1="1763.8" y1="523.8" x2="1763.8" y2="535"/>
				<line id="XMLID_338_" class="st2" x1="1737.3" y1="497.8" x2="1737.3" y2="535.1"/>
				<line id="XMLID_339_" class="st2" x1="1738.8" y1="497.8" x2="1738.8" y2="535.1"/>
				<line id="XMLID_340_" class="st2" x1="1740.4" y1="497.8" x2="1740.4" y2="535.1"/>
				<line id="XMLID_341_" class="st2" x1="1742" y1="497.8" x2="1742" y2="535.1"/>
				<line id="XMLID_342_" class="st2" x1="1743.5" y1="497.8" x2="1743.5" y2="535.1"/>
				<line id="XMLID_343_" class="st2" x1="1745.1" y1="497.8" x2="1745.1" y2="535.1"/>
				<line id="XMLID_344_" class="st2" x1="1746.7" y1="497.8" x2="1746.7" y2="535.1"/>
				<line id="XMLID_345_" class="st2" x1="1748.2" y1="497.8" x2="1748.2" y2="535.1"/>
				<line id="XMLID_346_" class="st2" x1="1749.8" y1="497.8" x2="1749.8" y2="535.1"/>
				<line id="XMLID_347_" class="st2" x1="1751.3" y1="497.8" x2="1751.3" y2="535.1"/>
				<line id="XMLID_348_" class="st2" x1="1752.9" y1="497.8" x2="1752.9" y2="535.1"/>
				<line id="XMLID_349_" class="st2" x1="1754.5" y1="497.8" x2="1754.5" y2="535.1"/>
				<line id="XMLID_350_" class="st2" x1="1756" y1="497.8" x2="1756" y2="535.1"/>
				<line id="XMLID_351_" class="st2" x1="1757.6" y1="497.8" x2="1757.6" y2="535.1"/>
				<line id="XMLID_352_" class="st2" x1="1759.2" y1="497.8" x2="1759.2" y2="535.1"/>
				<line id="XMLID_353_" class="st2" x1="1760.7" y1="497.8" x2="1760.7" y2="535.1"/>
				<line id="XMLID_354_" class="st2" x1="1762.3" y1="497.8" x2="1762.3" y2="535.1"/>
			</g>
			<g id="XMLID_381_">
				<line id="XMLID_402_" class="st1" x1="1721.6" y1="699.2" x2="1714.2" y2="704.4"/>
				<line id="XMLID_399_" class="st1" x1="1722.4" y1="700.4" x2="1705.3" y2="712.4"/>
				<line id="XMLID_398_" class="st1" x1="1723.3" y1="701.7" x2="1706.2" y2="713.7"/>
				<line id="XMLID_397_" class="st1" x1="1724.2" y1="703" x2="1707.1" y2="715"/>
				<line id="XMLID_396_" class="st1" x1="1725.1" y1="704.3" x2="1708" y2="716.2"/>
				<line id="XMLID_395_" class="st1" x1="1726" y1="705.6" x2="1708.9" y2="717.5"/>
				<line id="XMLID_394_" class="st1" x1="1726.9" y1="706.8" x2="1709.8" y2="718.8"/>
				<line id="XMLID_393_" class="st1" x1="1727.8" y1="708.1" x2="1710.7" y2="720.1"/>
				<line id="XMLID_392_" class="st1" x1="1728.7" y1="709.4" x2="1711.6" y2="721.4"/>
				<line id="XMLID_391_" class="st1" x1="1729.6" y1="710.7" x2="1712.5" y2="722.6"/>
				<line id="XMLID_390_" class="st1" x1="1730.5" y1="712" x2="1713.4" y2="723.9"/>
				<line id="XMLID_389_" class="st1" x1="1731.4" y1="713.2" x2="1714.3" y2="725.2"/>
				<line id="XMLID_388_" class="st1" x1="1732.3" y1="714.5" x2="1715.2" y2="726.5"/>
				<line id="XMLID_387_" class="st1" x1="1733.2" y1="715.8" x2="1716.1" y2="727.8"/>
				<line id="XMLID_386_" class="st1" x1="1734.1" y1="717.1" x2="1717" y2="729"/>
				<line id="XMLID_385_" class="st1" x1="1735" y1="718.4" x2="1717.9" y2="730.3"/>
				<line id="XMLID_384_" class="st1" x1="1735.9" y1="719.6" x2="1718.8" y2="731.6"/>
				<line id="XMLID_383_" class="st1" x1="1736.8" y1="720.9" x2="1719.7" y2="732.9"/>
				<line id="XMLID_382_" class="st1" x1="1737.7" y1="722.3" x2="1720.6" y2="734.2"/>
				<line id="XMLID_403_" class="st1" x1="1738.8" y1="723.7" x2="1721.7" y2="735.7"/>
			</g>
			<line id="XMLID_356_" class="st3" x1="1735.6" y1="534.9" x2="1764.9" y2="534.9"/>
			<line id="XMLID_357_" class="st3" x1="1735.6" y1="533.6" x2="1764.9" y2="533.6"/>
			<g id="XMLID_457_">
				<line id="XMLID_476_" class="st2" x1="1839.5" y1="497.8" x2="1839.5" y2="509.1"/>
				<line id="XMLID_475_" class="st2" x1="1811.6" y1="523.8" x2="1811.6" y2="535"/>
				<line id="XMLID_474_" class="st2" x1="1838.1" y1="497.8" x2="1838.1" y2="535.1"/>
				<line id="XMLID_473_" class="st2" x1="1836.5" y1="497.8" x2="1836.5" y2="535.1"/>
				<line id="XMLID_472_" class="st2" x1="1834.9" y1="497.8" x2="1834.9" y2="535.1"/>
				<line id="XMLID_471_" class="st2" x1="1833.4" y1="497.8" x2="1833.4" y2="535.1"/>
				<line id="XMLID_470_" class="st2" x1="1831.8" y1="497.8" x2="1831.8" y2="535.1"/>
				<line id="XMLID_469_" class="st2" x1="1830.3" y1="497.8" x2="1830.3" y2="535.1"/>
				<line id="XMLID_468_" class="st2" x1="1828.7" y1="497.8" x2="1828.7" y2="535.1"/>
				<line id="XMLID_467_" class="st2" x1="1827.1" y1="497.8" x2="1827.1" y2="535.1"/>
				<line id="XMLID_466_" class="st2" x1="1825.6" y1="497.8" x2="1825.6" y2="535.1"/>
				<line id="XMLID_465_" class="st2" x1="1824" y1="497.8" x2="1824" y2="535.1"/>
				<line id="XMLID_464_" class="st2" x1="1822.4" y1="497.8" x2="1822.4" y2="535.1"/>
				<line id="XMLID_463_" class="st2" x1="1820.9" y1="497.8" x2="1820.9" y2="535.1"/>
				<line id="XMLID_462_" class="st2" x1="1819.3" y1="497.8" x2="1819.3" y2="535.1"/>
				<line id="XMLID_461_" class="st2" x1="1817.8" y1="497.8" x2="1817.8" y2="535.1"/>
				<line id="XMLID_460_" class="st2" x1="1816.2" y1="497.8" x2="1816.2" y2="535.1"/>
				<line id="XMLID_459_" class="st2" x1="1814.6" y1="497.8" x2="1814.6" y2="535.1"/>
				<line id="XMLID_458_" class="st2" x1="1813.1" y1="497.8" x2="1813.1" y2="535.1"/>
			</g>
			<g id="XMLID_414_">
				<line id="XMLID_434_" class="st1" x1="1853.8" y1="699.2" x2="1861.1" y2="704.4"/>
				<line id="XMLID_433_" class="st1" x1="1852.9" y1="700.4" x2="1870" y2="712.4"/>
				<line id="XMLID_432_" class="st1" x1="1852" y1="701.7" x2="1869.1" y2="713.7"/>
				<line id="XMLID_431_" class="st1" x1="1851.1" y1="703" x2="1868.2" y2="715"/>
				<line id="XMLID_430_" class="st1" x1="1850.2" y1="704.3" x2="1867.3" y2="716.2"/>
				<line id="XMLID_429_" class="st1" x1="1849.3" y1="705.6" x2="1866.4" y2="717.5"/>
				<line id="XMLID_428_" class="st1" x1="1848.4" y1="706.8" x2="1865.5" y2="718.8"/>
				<line id="XMLID_427_" class="st1" x1="1847.5" y1="708.1" x2="1864.6" y2="720.1"/>
				<line id="XMLID_426_" class="st1" x1="1846.6" y1="709.4" x2="1863.7" y2="721.4"/>
				<line id="XMLID_425_" class="st1" x1="1845.7" y1="710.7" x2="1862.8" y2="722.6"/>
				<line id="XMLID_424_" class="st1" x1="1844.8" y1="712" x2="1861.9" y2="723.9"/>
				<line id="XMLID_423_" class="st1" x1="1844" y1="713.2" x2="1861" y2="725.2"/>
				<line id="XMLID_422_" class="st1" x1="1843.1" y1="714.5" x2="1860.1" y2="726.5"/>
				<line id="XMLID_421_" class="st1" x1="1842.2" y1="715.8" x2="1859.3" y2="727.8"/>
				<line id="XMLID_420_" class="st1" x1="1841.3" y1="717.1" x2="1858.4" y2="729"/>
				<line id="XMLID_419_" class="st1" x1="1840.4" y1="718.4" x2="1857.5" y2="730.3"/>
				<line id="XMLID_418_" class="st1" x1="1839.5" y1="719.6" x2="1856.6" y2="731.6"/>
				<line id="XMLID_417_" class="st1" x1="1838.6" y1="720.9" x2="1855.7" y2="732.9"/>
				<line id="XMLID_416_" class="st1" x1="1837.6" y1="722.3" x2="1854.7" y2="734.2"/>
				<line id="XMLID_415_" class="st1" x1="1836.6" y1="723.7" x2="1853.7" y2="735.7"/>
			</g>
			<line id="XMLID_413_" class="st3" x1="1839.8" y1="534.9" x2="1810.5" y2="534.9"/>
			<line id="XMLID_409_" class="st3" x1="1839.8" y1="533.6" x2="1810.5" y2="533.6"/>
			<path id="XMLID_477_" class="st4" d="M1839.5,497.8c0,0-5.4-0.6-9-0.6c-3.6,0-14.5-0.4-15.2-0.3c-0.7,0.1-4.7,0.6-4.7,2
				c0,1.4,0.8,5,0.6,10.1c-0.2,5.1,0.3,13.6,0,16.3s-0.5,5.9-1.1,11.8c-0.6,5.9-1.9,68.9-2.1,81.1s-0.3,20.8,0,27s1.2,14.5,1.6,18.6
				c0.4,4.1,0.8,7.8,0.2,11.1c-0.6,3.3-1.1,3.4-1.3,5.3s0.8,2.9-1,5.8c-1.8,2.9-3.3,4.3-4.2,7.6s-1.6,4.6-1.1,6.1s1.3,8.3,3.7,10.3
				c2.4,2.1,10.1,6,16.4,8.3s16.5,6.5,19.3,8.9c2.8,2.4,25.9,22.4,25.9,22.4l5.6,0.4c0,0,2.6-2.3,5.2-3.3s6-0.8,6.4-1.6
				c0.4-0.8,3.2-2.8,3.3-8s-1.9-7.3-2.6-8.1c-0.7-0.8-4-6.2-4.5-6.3s-0.6-2.4-1.8-3.5s-3-1.5-4.3-2s-4.3-5.7-11.3-11.2
				s-12.6-9-14.5-10.9c-1.9-1.9-8.4-9.4-9.6-13.8c-1.2-4.4-2.5-7.5-1.2-13.3s3.8-37.2,3.8-42.4c0.1-5.3-0.2-68.5-0.5-75
				c-0.3-6.5-1.8-13.1-2.1-17.9s-0.5-21.9-0.1-23.7c0.4-1.8,2-6.8,1.6-8.7C1840.7,498.6,1839.5,497.8,1839.5,497.8z"/>
			<path id="XMLID_335_" class="st4" d="M1735.8,497.8c0,0,5.4-0.6,9-0.6c3.6,0,14.5-0.4,15.2-0.3c0.7,0.1,4.7,0.6,4.7,2
				c0,1.4-0.8,5-0.6,10.1c0.2,5.1-0.3,13.6,0,16.3s0.5,5.9,1.1,11.8c0.6,5.9,1.9,68.9,2.1,81.1c0.2,12.2,0.3,20.8,0,27
				s-1.2,14.5-1.6,18.6c-0.4,4.1-0.8,7.8-0.2,11.1c0.6,3.3,1.1,3.4,1.3,5.3s-0.8,2.9,1,5.8c1.8,2.9,3.3,4.3,4.2,7.6
				c0.9,3.3,1.6,4.6,1.1,6.1s-1.3,8.3-3.7,10.3c-2.4,2.1-10.1,6-16.4,8.3c-6.3,2.3-16.5,6.5-19.3,8.9s-25.9,22.4-25.9,22.4l-5.6,0.4
				c0,0-2.6-2.3-5.2-3.3c-2.6-1-6-0.8-6.4-1.6c-0.4-0.8-3.2-2.8-3.3-8c-0.2-5.3,1.9-7.3,2.6-8.1c0.7-0.8,4-6.2,4.5-6.3
				s0.6-2.4,1.8-3.5s3-1.5,4.3-2c1.3-0.5,4.3-5.7,11.3-11.2s12.6-9,14.5-10.9c1.9-1.9,8.4-9.4,9.6-13.8c1.2-4.4,2.5-7.5,1.2-13.3
				c-1.3-5.8-3.8-37.2-3.8-42.4s0.2-68.5,0.5-75s1.8-13.1,2.1-17.9c0.3-4.8,0.5-21.9,0.1-23.7c-0.4-1.8-2-6.8-1.6-8.7
				C1734.6,498.6,1735.8,497.8,1735.8,497.8z"/>
		</g>
		<g id="sara_1_">
			<g id="XMLID_406_">
				<polygon id="XMLID_411_" points="1767.2,615.3 1767.2,614.8 1763.3,614.8 1763.3,614.3 1755.3,614.3 1755.3,613.8 1761.1,613.8 
					1761.1,613.3 1762.5,613.3 1762.5,612.9 1764.5,612.9 1764.5,612.4 1755.8,612.4 1755.8,611.9 1765.9,611.9 1765.9,611.4 
					1764,611.4 1764,610.9 1759.3,610.9 1759.3,610.5 1754.4,610.5 1754.4,610.1 1758.4,610.1 1758.4,609.6 1761.9,609.6 
					1761.9,609.1 1763.1,609.1 1763.1,608.6 1750.5,608.6 1749.3,608.6 1733.3,608.6 1733.3,611.5 1741.8,611.5 1733.3,620.9 
					1733.3,629.8 1749.3,629.8 1750.5,629.8 1762.2,629.8 1762.2,629.3 1759.3,629.3 1759.3,628.9 1755.8,628.9 1755.8,628.4 
					1761.6,628.4 1761.6,627.9 1765.4,627.9 1765.4,627.4 1759.9,627.4 1759.9,627.1 1756.7,627.1 1756.7,626.6 1763.6,626.6 
					1763.6,626.1 1762.5,626.1 1762.5,625.6 1757.8,625.6 1757.8,625.1 1755.3,625.1 1755.3,624.6 1761.3,624.6 1761.3,624.1 
					1764.5,624.1 1764.5,623.6 1760.5,623.6 1760.5,623.1 1754.7,623.1 1754.7,622.7 1762.7,622.7 1762.7,622.3 1766.3,622.3 
					1766.3,621.8 1758.4,621.8 1758.4,621.3 1767.2,621.3 1767.2,620.8 1755.8,620.8 1755.8,620.3 1763.8,620.3 1763.8,619.8 
					1763.3,619.8 1763.3,619.5 1757.3,619.5 1757.3,619 1761.1,619 1761.1,618.5 1764,618.5 1764,618 1754.2,618 1754.2,617.6 
					1759.6,617.6 1759.6,617.1 1762.2,617.1 1762.2,616.6 1758.4,616.6 1758.4,616.3 1764.8,616.3 1764.8,615.8 1756.7,615.8 
					1756.7,615.3 				"/>
				<polygon id="XMLID_412_" points="1733.3,619.7 1737.8,613.6 1733.3,613.6 1733.3,614.8 1735.7,614.8 1733.3,617.7 				"/>
			</g>
			<path id="XMLID_410_" d="M1833,626.6l9-12.2v-0.8h-5.8l0.6-2.1h5.2v-2.9h-16h-1.2h-11.7v0.5h2.8v0.4h3.5v0.5h-5.8v0.5h-3.7v0.5
				h5.5v0.4h3.2v0.5h-6.9v0.5h1.1v0.5h4.7v0.5h2.6v0.5h-6v0.5h-3.2v0.5h4v0.5h5.8v0.4h-8.1v0.4h-3.5v0.5h7.8v0.5h-8.8v0.5h11.4v0.5
				h-8v0.5h0.5v0.4h6v0.5h-3.7v0.5h-2.9v0.5h9.8v0.4h-5.4v0.5h-2.6v0.5h3.7v0.4h-6.3v0.5h8.1v0.5h-10.5v0.5h3.9v0.5h8.1v0.5h-5.8
				v0.5h-1.4v0.4h-2v0.5h8.7v0.5h-10.1v0.5h2v0.5h4.6v0.4h4.9v0.4h-4.1v0.5h-3.4v0.5h-1.2v0.5h12.6h1.2h16v-13.3L1833,626.6z
				 M1835.4,616.2l0.4-1.3h4.6l-8.4,10.4l5.8-9.1H1835.4z"/>
			<g id="XMLID_489_">
				<polygon id="XMLID_491_" points="1692.8,724.3 1692.3,725.2 1693,725.9 1691.6,726.7 1691.4,726.6 1690,728.7 1694.6,726.1 				
					"/>
				<path id="XMLID_497_" d="M1701.7,733c-0.3-0.3-0.6-0.5-0.9-0.6c-0.3-0.1-0.7-0.2-1-0.1c-0.4,0-0.7,0.2-1,0.3
					c-0.3,0.2-0.6,0.4-0.7,0.6c-0.1,0.2-0.2,0.4-0.2,0.7c0,0.2,0.1,0.5,0.4,0.9c0.2,0.4,0.3,0.7,0.3,0.8c0,0.1-0.1,0.2-0.2,0.3
					c-0.1,0.1-0.3,0.1-0.4,0.1c-0.2,0-0.5-0.2-0.7-0.3c-0.2-0.2-0.3-0.4-0.2-0.5s0.2-0.3,0.4-0.5l-0.7-0.7c-0.5,0.3-0.8,0.6-0.8,1
					c-0.1,0.4,0.1,0.8,0.5,1.2c0.3,0.3,0.5,0.4,0.8,0.6c0.3,0.1,0.6,0.1,1,0.1c0.3,0,0.6-0.1,0.9-0.3c0.4-0.2,0.7-0.5,0.8-0.9
					c0.1-0.3,0-0.6-0.2-1.1c-0.2-0.3-0.3-0.6-0.3-0.7c-0.1-0.2-0.1-0.3,0-0.4c0-0.1,0.1-0.2,0.2-0.3c0.2-0.1,0.4-0.2,0.7-0.1
					c0.3,0,0.5,0.1,0.7,0.4c0.2,0.2,0.3,0.4,0.2,0.6c0,0.2-0.2,0.4-0.5,0.7l0.8,0.6c0.5-0.4,0.9-0.8,0.9-1.2
					C1702.3,733.8,1702.1,733.4,1701.7,733z"/>
				<polygon id="XMLID_498_" points="1697.3,728.8 1696.4,729.3 1698.3,731.2 1696.9,732 1695.2,730.4 1694.3,730.9 1696,732.5 
					1694.8,733.2 1693,731.4 1692.9,731.5 1696.4,727.9 1695.6,727.1 1690,728.7 1689.7,729.1 1689.5,729.3 1689.9,729.7 
					1694.6,728.3 1691.6,731.4 1692.1,731.9 1692.3,732.1 1694.6,734.4 1699.9,731.4 				"/>
			</g>
			<g id="XMLID_496_">
				<g id="XMLID_490_">
					<polygon id="XMLID_493_" points="1882.9,725.3 1882,723.8 1881.6,724.4 1884.2,729.9 1880.7,725.7 1878.6,728.6 1879.3,729.4 
						1880.8,727.2 1881.9,728.5 1880.5,730.5 1881.2,731.2 1882.5,729.3 1883.4,730.3 1881.9,732.4 1882.6,733.2 1884.5,730.5 
						1884.6,730.4 1885.1,729.7 1882.9,725.2 					"/>
					<path id="XMLID_494_" d="M1877.9,729.7c0.8,0.9,1.9,2.1,2.5,3.1c-1.2-0.5-2.4-1-3.7-1.5l-0.5,0.8c1.3,1.6,2.6,3.1,3.9,4.7
						l0.5-0.7c-0.8-0.9-1.9-2.1-2.5-3.1c1.2,0.5,2.4,1,3.7,1.5l0.5-0.8c-1.3-1.6-2.6-3.1-3.9-4.7L1877.9,729.7z"/>
				</g>
			</g>
			<g id="XMLID_1401_">
				<g id="XMLID_1406_">
					
						<rect id="XMLID_1409_" x="1843" y="725.9" transform="matrix(-0.8185 -0.5745 0.5745 -0.8185 2934.8123 2381.9565)" width="1.3" height="3"/>
					
						<rect id="XMLID_1408_" x="1844.8" y="727.2" transform="matrix(-0.8185 -0.5745 0.5745 -0.8185 2937.3467 2385.3303)" width="1.3" height="3"/>
					
						<rect id="XMLID_1407_" x="1846.6" y="728.5" transform="matrix(-0.8185 -0.5745 0.5745 -0.8185 2939.8813 2388.7041)" width="1.3" height="3"/>
				</g>
				<g id="XMLID_1402_">
					
						<rect id="XMLID_1405_" x="1730.8" y="726" transform="matrix(0.8185 -0.5745 0.5745 0.8185 -103.6711 1126.7551)" width="1.3" height="3"/>
					
						<rect id="XMLID_1404_" x="1729" y="727.3" transform="matrix(0.8185 -0.5745 0.5745 0.8185 -104.7369 1125.9543)" width="1.3" height="3"/>
					
						<rect id="XMLID_1403_" x="1727.2" y="728.5" transform="matrix(0.8185 -0.5745 0.5745 0.8185 -105.8028 1125.1536)" width="1.3" height="3"/>
				</g>
			</g>
		</g>
	</g>
</g>
</svg>
