<?xml version="1.0" encoding="utf-8"?>
<!-- Generator: Adobe Illustrator 19.0.0, SVG Export Plug-In . SVG Version: 6.00 Build 0)  -->
<svg version="1.1" xmlns="http://www.w3.org/2000/svg" xmlns:xlink="http://www.w3.org/1999/xlink" x="0px" y="0px"
	 viewBox="0 0 2464 841.9" style="enable-background:new 0 0 2464 841.9;" xml:space="preserve">
<style type="text/css">
	.st0{fill:none;stroke:#A7A9AC;stroke-miterlimit:10;}
	.st1{fill:none;stroke:#939598;stroke-miterlimit:10;}
	.st2{fill:none;stroke:#939598;stroke-width:0.5;stroke-miterlimit:10;}
	.st3{fill:none;stroke:#000000;stroke-width:0.5;stroke-miterlimit:10;}
	.st4{fill:none;stroke:#000000;stroke-miterlimit:10;}
	.st5{fill:none;stroke:#000000;}
	.st6{fill:#BCBEC0;}
	.st7{fill:#FFFFFF;stroke:#000000;stroke-miterlimit:10;}
	.st8{fill:#323334;}
	.st9{fill:#FFFFFF;}
	.st10{fill:#979797;}
	.st11{fill:url(#XMLID_4_);}
	.st12{fill:#D0D2D3;}
	.st13{fill:#4B4C4D;}
	.st14{fill:none;stroke:#808285;stroke-width:0.5;stroke-miterlimit:10;stroke-dasharray:3,3;}
	.st15{fill:none;stroke:#939598;stroke-width:0.5;stroke-miterlimit:10;stroke-dasharray:1.5,1.5;}
	.st16{fill:none;stroke:#939598;stroke-width:0.25;stroke-miterlimit:10;}
	.st17{fill:url(#XMLID_5_);}
	.st18{fill:none;stroke:#6D6E71;stroke-width:0.5;stroke-miterlimit:10;stroke-dasharray:3,3;}
	.st19{fill:none;stroke:#6D6E71;stroke-width:0.5;stroke-miterlimit:10;stroke-dasharray:1.5,1.5;}
	.st20{opacity:0.5;}
	.st21{fill:#A7A9AC;}
	.st22{fill:none;stroke:#6D6E71;stroke-width:0.5;stroke-miterlimit:10;}
	.st23{fill:none;stroke:#6D6E71;stroke-width:0.5;stroke-miterlimit:10;stroke-dasharray:2.9029,2.9029;}
	.st24{fill:none;stroke:#6D6E71;stroke-width:0.5;stroke-miterlimit:10;stroke-dasharray:2.8761,2.8761;}
	.st25{fill:#FFFFFF;stroke:#000000;}
	.st26{fill:url(#XMLID_6_);}
	.st27{fill:none;stroke:#6D6E71;stroke-width:0.5;stroke-miterlimit:10;stroke-dasharray:2.4936,2.4936;}
	.st28{fill:none;stroke:#808285;stroke-width:0.5;stroke-miterlimit:10;}
	.st29{fill:none;stroke:#808285;stroke-width:0.5;stroke-miterlimit:10;stroke-dasharray:3.0146,3.0146;}
	.st30{fill:none;stroke:#808285;stroke-width:0.5;stroke-miterlimit:10;stroke-dasharray:3.0009,3.0009;}
	.st31{fill:none;stroke:#6D6E71;stroke-width:0.5;stroke-miterlimit:10;stroke-dasharray:3.307,3.307;}
	.st32{fill:none;stroke:#6D6E71;stroke-width:0.5;stroke-miterlimit:10;stroke-dasharray:3.2754,3.2754;}
	.st33{fill:none;stroke:#000000;stroke-width:0.25;stroke-miterlimit:10;}
	.st34{fill:none;stroke:#6D6E71;stroke-width:0.5;stroke-miterlimit:10;stroke-dasharray:2.9827,2.9827;}
	.st35{fill:none;stroke:#6D6E71;stroke-width:0.5;stroke-miterlimit:10;stroke-dasharray:2.9609,2.9609;}
	.st36{fill:none;stroke:#6D6E71;stroke-width:0.5;stroke-miterlimit:10;stroke-dasharray:3.0236,3.0236;}
	.st37{fill:none;stroke:#6D6E71;stroke-width:0.5;stroke-miterlimit:10;stroke-dasharray:2.9944,2.9944;}
	.st38{fill:url(#XMLID_15_);}
	.st39{fill:url(#XMLID_66_);}
	.st40{fill:none;stroke:#6D6E71;stroke-width:0.5;stroke-miterlimit:10;stroke-dasharray:3.0146,3.0146;}
	.st41{fill:none;stroke:#6D6E71;stroke-width:0.5;stroke-miterlimit:10;stroke-dasharray:3.0009,3.0009;}
	.st42{fill:none;stroke:#6D6E71;stroke-width:0.5;stroke-miterlimit:10;stroke-dasharray:3.0291,3.0291;}
	.st43{fill:none;stroke:#6D6E71;stroke-width:0.5;stroke-miterlimit:10;stroke-dasharray:3.0747,3.0747;}
	.st44{fill:none;stroke:#6D6E71;stroke-width:0.5;stroke-miterlimit:10;stroke-dasharray:2.9787,2.9787;}
	.st45{fill:none;stroke:#6D6E71;stroke-width:0.5;stroke-miterlimit:10;stroke-dasharray:2.9735,2.9735;}
	.st46{fill:none;stroke:#6D6E71;stroke-width:0.5;stroke-miterlimit:10;stroke-dasharray:2.8376,2.8376;}
	.st47{fill:none;stroke:#6D6E71;stroke-width:0.5;stroke-miterlimit:10;stroke-dasharray:2.8167,2.8167;}
	.st48{fill:none;stroke:#6D6E71;stroke-width:0.5;stroke-miterlimit:10;stroke-dasharray:2.9835,2.9835;}
</style>
<g id="stucne">
	<g id="s1">
		<g id="linije_8_">
			<g id="XMLID_1200_">
				<line id="XMLID_1221_" class="st0" x1="1574.2" y1="644.7" x2="1574.2" y2="660.8"/>
				<line id="XMLID_1220_" class="st0" x1="1544.3" y1="644.7" x2="1544.3" y2="660.8"/>
				<line id="XMLID_1219_" class="st0" x1="1544.3" y1="677" x2="1544.3" y2="681.9"/>
				<line id="XMLID_1218_" class="st0" x1="1572.7" y1="644.7" x2="1572.7" y2="681.9"/>
				<line id="XMLID_1217_" class="st0" x1="1571.1" y1="644.7" x2="1571.1" y2="681.9"/>
				<line id="XMLID_1216_" class="st0" x1="1569.6" y1="644.7" x2="1569.6" y2="681.9"/>
				<line id="XMLID_1215_" class="st0" x1="1568" y1="644.7" x2="1568" y2="681.9"/>
				<line id="XMLID_1214_" class="st0" x1="1566.5" y1="644.7" x2="1566.5" y2="681.9"/>
				<line id="XMLID_1213_" class="st0" x1="1564.9" y1="644.7" x2="1564.9" y2="681.9"/>
				<line id="XMLID_1212_" class="st0" x1="1563.3" y1="644.7" x2="1563.3" y2="681.9"/>
				<line id="XMLID_1211_" class="st0" x1="1561.8" y1="644.7" x2="1561.8" y2="681.9"/>
				<line id="XMLID_1210_" class="st0" x1="1560.2" y1="644.7" x2="1560.2" y2="681.9"/>
				<line id="XMLID_1209_" class="st0" x1="1558.6" y1="644.7" x2="1558.6" y2="681.9"/>
				<line id="XMLID_1208_" class="st0" x1="1557.1" y1="644.7" x2="1557.1" y2="681.9"/>
				<line id="XMLID_1207_" class="st0" x1="1555.5" y1="644.7" x2="1555.5" y2="681.9"/>
				<line id="XMLID_1206_" class="st0" x1="1554" y1="644.7" x2="1554" y2="681.9"/>
				<line id="XMLID_1205_" class="st0" x1="1552.4" y1="644.7" x2="1552.4" y2="681.9"/>
				<line id="XMLID_1204_" class="st0" x1="1550.8" y1="644.7" x2="1550.8" y2="681.9"/>
				<line id="XMLID_1203_" class="st0" x1="1549.3" y1="644.7" x2="1549.3" y2="681.9"/>
				<line id="XMLID_1202_" class="st0" x1="1547.7" y1="644.7" x2="1547.7" y2="681.9"/>
				<line id="XMLID_1201_" class="st0" x1="1546.1" y1="644.7" x2="1546.1" y2="681.9"/>
			</g>
			<g id="XMLID_1112_">
				<line id="XMLID_1131_" class="st2" x1="1574.4" y1="497.9" x2="1574.4" y2="509.2"/>
				<line id="XMLID_1130_" class="st2" x1="1546.4" y1="523.9" x2="1546.4" y2="535.1"/>
				<line id="XMLID_1129_" class="st2" x1="1572.9" y1="497.9" x2="1572.9" y2="535.2"/>
				<line id="XMLID_1128_" class="st2" x1="1571.3" y1="497.9" x2="1571.3" y2="535.2"/>
				<line id="XMLID_1127_" class="st2" x1="1569.8" y1="497.9" x2="1569.8" y2="535.2"/>
				<line id="XMLID_1126_" class="st2" x1="1568.2" y1="497.9" x2="1568.2" y2="535.2"/>
				<line id="XMLID_1125_" class="st2" x1="1566.6" y1="497.9" x2="1566.6" y2="535.2"/>
				<line id="XMLID_1124_" class="st2" x1="1565.1" y1="497.9" x2="1565.1" y2="535.2"/>
				<line id="XMLID_1123_" class="st2" x1="1563.5" y1="497.9" x2="1563.5" y2="535.2"/>
				<line id="XMLID_1122_" class="st2" x1="1562" y1="497.9" x2="1562" y2="535.2"/>
				<line id="XMLID_1121_" class="st2" x1="1560.4" y1="497.9" x2="1560.4" y2="535.2"/>
				<line id="XMLID_1120_" class="st2" x1="1558.8" y1="497.9" x2="1558.8" y2="535.2"/>
				<line id="XMLID_1119_" class="st2" x1="1557.3" y1="497.9" x2="1557.3" y2="535.2"/>
				<line id="XMLID_1118_" class="st2" x1="1555.7" y1="497.9" x2="1555.7" y2="535.2"/>
				<line id="XMLID_1117_" class="st2" x1="1554.1" y1="497.9" x2="1554.1" y2="535.2"/>
				<line id="XMLID_1116_" class="st2" x1="1552.6" y1="497.9" x2="1552.6" y2="535.2"/>
				<line id="XMLID_1115_" class="st2" x1="1551" y1="497.9" x2="1551" y2="535.2"/>
				<line id="XMLID_1114_" class="st2" x1="1549.5" y1="497.9" x2="1549.5" y2="535.2"/>
				<line id="XMLID_1113_" class="st2" x1="1547.9" y1="497.9" x2="1547.9" y2="535.2"/>
			</g>
			<g id="XMLID_1089_">
				<line id="XMLID_1111_" class="st1" x1="1588.6" y1="699.3" x2="1596" y2="704.5"/>
				<line id="XMLID_1110_" class="st1" x1="1587.7" y1="700.5" x2="1604.8" y2="712.5"/>
				<line id="XMLID_1109_" class="st1" x1="1586.8" y1="701.8" x2="1603.9" y2="713.8"/>
				<line id="XMLID_1108_" class="st1" x1="1585.9" y1="703.1" x2="1603" y2="715.1"/>
				<line id="XMLID_1107_" class="st1" x1="1585.1" y1="704.4" x2="1602.1" y2="716.3"/>
				<line id="XMLID_1106_" class="st1" x1="1584.2" y1="705.7" x2="1601.2" y2="717.6"/>
				<line id="XMLID_1105_" class="st1" x1="1583.3" y1="706.9" x2="1600.4" y2="718.9"/>
				<line id="XMLID_1104_" class="st1" x1="1582.4" y1="708.2" x2="1599.5" y2="720.2"/>
				<line id="XMLID_1103_" class="st1" x1="1581.5" y1="709.5" x2="1598.6" y2="721.5"/>
				<line id="XMLID_1102_" class="st1" x1="1580.6" y1="710.8" x2="1597.7" y2="722.7"/>
				<line id="XMLID_1101_" class="st1" x1="1579.7" y1="712.1" x2="1596.8" y2="724"/>
				<line id="XMLID_1100_" class="st1" x1="1578.8" y1="713.3" x2="1595.9" y2="725.3"/>
				<line id="XMLID_1099_" class="st1" x1="1577.9" y1="714.6" x2="1595" y2="726.6"/>
				<line id="XMLID_1098_" class="st1" x1="1577" y1="715.9" x2="1594.1" y2="727.9"/>
				<line id="XMLID_1097_" class="st1" x1="1576.1" y1="717.2" x2="1593.2" y2="729.1"/>
				<line id="XMLID_1095_" class="st1" x1="1575.2" y1="718.5" x2="1592.3" y2="730.4"/>
				<line id="XMLID_1094_" class="st1" x1="1574.3" y1="719.7" x2="1591.4" y2="731.7"/>
				<line id="XMLID_1092_" class="st1" x1="1573.4" y1="721" x2="1590.5" y2="733"/>
				<line id="XMLID_1091_" class="st1" x1="1572.5" y1="722.4" x2="1589.6" y2="734.3"/>
				<line id="XMLID_1090_" class="st1" x1="1571.4" y1="723.8" x2="1588.5" y2="735.8"/>
			</g>
			<line id="XMLID_1088_" class="st3" x1="1574.6" y1="535" x2="1545.3" y2="535"/>
			<line id="XMLID_1087_" class="st3" x1="1574.6" y1="533.7" x2="1545.3" y2="533.7"/>
			<path id="XMLID_1003_" class="st4" d="M1574.4,497.9c0,0-5.4-0.6-9-0.6c-3.6,0-14.5-0.4-15.2-0.3c-0.7,0.1-4.7,0.6-4.7,2
				c0,1.4,0.8,5,0.6,10.1c-0.2,5.1,0.3,13.6,0,16.3s-0.5,5.9-1.1,11.8c-0.6,5.9-1.9,68.9-2.1,81.1c-0.2,12.2-0.3,20.8,0,27
				s1.2,14.5,1.6,18.6c0.4,4.1,0.8,7.8,0.2,11.1c-0.6,3.3-1.1,3.4-1.3,5.3s0.8,2.9-1,5.8c-1.8,2.9-3.3,4.3-4.2,7.6
				c-0.9,3.3-1.6,4.6-1.1,6.1s1.3,8.3,3.7,10.3c2.4,2.1,10.1,6,16.4,8.3c6.3,2.3,16.5,6.5,19.3,8.9s25.9,22.4,25.9,22.4l5.6,0.4
				c0,0,2.6-2.3,5.2-3.3c2.6-1,6-0.8,6.4-1.6c0.4-0.8,3.2-2.8,3.3-8c0.2-5.3-1.9-7.3-2.6-8.1c-0.7-0.8-4-6.2-4.5-6.3
				s-0.6-2.4-1.8-3.5s-3-1.5-4.3-2c-1.3-0.5-4.3-5.7-11.3-11.2s-12.6-9-14.5-10.9c-1.9-1.9-8.4-9.4-9.6-13.8
				c-1.2-4.4-2.5-7.5-1.2-13.3c1.3-5.8,3.8-37.2,3.8-42.4s-0.2-68.5-0.5-75s-1.8-13.1-2.1-17.9c-0.3-4.8-0.5-21.9-0.1-23.7
				c0.4-1.8,2-6.8,1.6-8.7C1575.5,498.7,1574.4,497.9,1574.4,497.9z"/>
			<g id="XMLID_1175_">
				<line id="XMLID_1196_" class="st0" x1="1470.8" y1="644.6" x2="1470.8" y2="660.7"/>
				<line id="XMLID_1195_" class="st0" x1="1500.7" y1="644.6" x2="1500.7" y2="660.7"/>
				<line id="XMLID_1194_" class="st0" x1="1500.7" y1="676.9" x2="1500.7" y2="681.8"/>
				<line id="XMLID_1193_" class="st0" x1="1472.3" y1="644.6" x2="1472.3" y2="681.8"/>
				<line id="XMLID_1192_" class="st0" x1="1473.8" y1="644.6" x2="1473.8" y2="681.8"/>
				<line id="XMLID_1191_" class="st0" x1="1475.4" y1="644.6" x2="1475.4" y2="681.8"/>
				<line id="XMLID_1190_" class="st0" x1="1476.9" y1="644.6" x2="1476.9" y2="681.8"/>
				<line id="XMLID_1189_" class="st0" x1="1478.5" y1="644.6" x2="1478.5" y2="681.8"/>
				<line id="XMLID_1188_" class="st0" x1="1480.1" y1="644.6" x2="1480.1" y2="681.8"/>
				<line id="XMLID_1187_" class="st0" x1="1481.6" y1="644.6" x2="1481.6" y2="681.8"/>
				<line id="XMLID_1186_" class="st0" x1="1483.2" y1="644.6" x2="1483.2" y2="681.8"/>
				<line id="XMLID_1185_" class="st0" x1="1484.8" y1="644.6" x2="1484.8" y2="681.8"/>
				<line id="XMLID_1184_" class="st0" x1="1486.3" y1="644.6" x2="1486.3" y2="681.8"/>
				<line id="XMLID_1183_" class="st0" x1="1487.9" y1="644.6" x2="1487.9" y2="681.8"/>
				<line id="XMLID_1182_" class="st0" x1="1489.4" y1="644.6" x2="1489.4" y2="681.8"/>
				<line id="XMLID_1181_" class="st0" x1="1491" y1="644.6" x2="1491" y2="681.8"/>
				<line id="XMLID_1180_" class="st0" x1="1492.6" y1="644.6" x2="1492.6" y2="681.8"/>
				<line id="XMLID_1179_" class="st0" x1="1494.1" y1="644.6" x2="1494.1" y2="681.8"/>
				<line id="XMLID_1178_" class="st0" x1="1495.7" y1="644.6" x2="1495.7" y2="681.8"/>
				<line id="XMLID_1177_" class="st0" x1="1497.3" y1="644.6" x2="1497.3" y2="681.8"/>
				<line id="XMLID_1176_" class="st0" x1="1498.9" y1="644.6" x2="1498.9" y2="681.8"/>
			</g>
			<g id="XMLID_1155_">
				<line id="XMLID_1174_" class="st2" x1="1470.6" y1="497.8" x2="1470.6" y2="509.1"/>
				<line id="XMLID_1173_" class="st2" x1="1498.6" y1="523.8" x2="1498.6" y2="535"/>
				<line id="XMLID_1172_" class="st2" x1="1472.1" y1="497.8" x2="1472.1" y2="535.1"/>
				<line id="XMLID_1171_" class="st2" x1="1473.6" y1="497.8" x2="1473.6" y2="535.1"/>
				<line id="XMLID_1170_" class="st2" x1="1475.2" y1="497.8" x2="1475.2" y2="535.1"/>
				<line id="XMLID_1169_" class="st2" x1="1476.8" y1="497.8" x2="1476.8" y2="535.1"/>
				<line id="XMLID_1168_" class="st2" x1="1478.3" y1="497.8" x2="1478.3" y2="535.1"/>
				<line id="XMLID_1167_" class="st2" x1="1479.9" y1="497.8" x2="1479.9" y2="535.1"/>
				<line id="XMLID_1166_" class="st2" x1="1481.4" y1="497.8" x2="1481.4" y2="535.1"/>
				<line id="XMLID_1165_" class="st2" x1="1483" y1="497.8" x2="1483" y2="535.1"/>
				<line id="XMLID_1164_" class="st2" x1="1484.6" y1="497.8" x2="1484.6" y2="535.1"/>
				<line id="XMLID_1163_" class="st2" x1="1486.1" y1="497.8" x2="1486.1" y2="535.1"/>
				<line id="XMLID_1162_" class="st2" x1="1487.7" y1="497.8" x2="1487.7" y2="535.1"/>
				<line id="XMLID_1161_" class="st2" x1="1489.3" y1="497.8" x2="1489.3" y2="535.1"/>
				<line id="XMLID_1160_" class="st2" x1="1490.8" y1="497.8" x2="1490.8" y2="535.1"/>
				<line id="XMLID_1159_" class="st2" x1="1492.4" y1="497.8" x2="1492.4" y2="535.1"/>
				<line id="XMLID_1158_" class="st2" x1="1493.9" y1="497.8" x2="1493.9" y2="535.1"/>
				<line id="XMLID_1157_" class="st2" x1="1495.5" y1="497.8" x2="1495.5" y2="535.1"/>
				<line id="XMLID_1156_" class="st2" x1="1497.1" y1="497.8" x2="1497.1" y2="535.1"/>
			</g>
			<g id="XMLID_1134_">
				<line id="XMLID_1154_" class="st1" x1="1456.4" y1="699.2" x2="1449" y2="704.4"/>
				<line id="XMLID_1153_" class="st1" x1="1457.2" y1="700.4" x2="1440.1" y2="712.4"/>
				<line id="XMLID_1152_" class="st1" x1="1458.1" y1="701.7" x2="1441" y2="713.7"/>
				<line id="XMLID_1151_" class="st1" x1="1459" y1="703" x2="1441.9" y2="715"/>
				<line id="XMLID_1150_" class="st1" x1="1459.9" y1="704.3" x2="1442.8" y2="716.2"/>
				<line id="XMLID_1149_" class="st1" x1="1460.8" y1="705.6" x2="1443.7" y2="717.5"/>
				<line id="XMLID_1148_" class="st1" x1="1461.7" y1="706.8" x2="1444.6" y2="718.8"/>
				<line id="XMLID_1147_" class="st1" x1="1462.6" y1="708.1" x2="1445.5" y2="720.1"/>
				<line id="XMLID_1146_" class="st1" x1="1463.5" y1="709.4" x2="1446.4" y2="721.4"/>
				<line id="XMLID_1145_" class="st1" x1="1464.4" y1="710.7" x2="1447.3" y2="722.6"/>
				<line id="XMLID_1144_" class="st1" x1="1465.3" y1="712" x2="1448.2" y2="723.9"/>
				<line id="XMLID_1143_" class="st1" x1="1466.2" y1="713.2" x2="1449.1" y2="725.2"/>
				<line id="XMLID_1142_" class="st1" x1="1467.1" y1="714.5" x2="1450" y2="726.5"/>
				<line id="XMLID_1141_" class="st1" x1="1468" y1="715.8" x2="1450.9" y2="727.8"/>
				<line id="XMLID_1140_" class="st1" x1="1468.9" y1="717.1" x2="1451.8" y2="729"/>
				<line id="XMLID_1139_" class="st1" x1="1469.8" y1="718.4" x2="1452.7" y2="730.3"/>
				<line id="XMLID_1138_" class="st1" x1="1470.7" y1="719.6" x2="1453.6" y2="731.6"/>
				<line id="XMLID_1137_" class="st1" x1="1471.6" y1="720.9" x2="1454.5" y2="732.9"/>
				<line id="XMLID_1136_" class="st1" x1="1472.5" y1="722.3" x2="1455.4" y2="734.2"/>
				<line id="XMLID_1135_" class="st1" x1="1473.6" y1="723.7" x2="1456.5" y2="735.7"/>
			</g>
			<line id="XMLID_1133_" class="st3" x1="1470.3" y1="534.9" x2="1499.7" y2="534.9"/>
			<line id="XMLID_1132_" class="st3" x1="1470.3" y1="533.6" x2="1499.7" y2="533.6"/>
			<path id="XMLID_1085_" class="st4" d="M1470.6,497.8c0,0,5.4-0.6,9-0.6c3.6,0,14.5-0.4,15.2-0.3c0.7,0.1,4.7,0.6,4.7,2
				c0,1.4-0.8,5-0.6,10.1c0.2,5.1-0.3,13.6,0,16.3s0.5,5.9,1.1,11.8c0.6,5.9,1.9,68.9,2.1,81.1s0.3,20.8,0,27s-1.2,14.5-1.6,18.6
				c-0.4,4.1-0.8,7.8-0.2,11.1c0.6,3.3,1.1,3.4,1.3,5.3s-0.8,2.9,1,5.8c1.8,2.9,3.3,4.3,4.2,7.6s1.6,4.6,1.1,6.1s-1.3,8.3-3.7,10.3
				c-2.4,2.1-10.1,6-16.4,8.3s-16.5,6.5-19.3,8.9c-2.8,2.4-25.9,22.4-25.9,22.4l-5.6,0.4c0,0-2.6-2.3-5.2-3.3s-6-0.8-6.4-1.6
				c-0.4-0.8-3.2-2.8-3.3-8s1.9-7.3,2.6-8.1c0.7-0.8,4-6.2,4.5-6.3s0.6-2.4,1.8-3.5s3-1.5,4.3-2s4.3-5.7,11.3-11.2s12.6-9,14.5-10.9
				c1.9-1.9,8.4-9.4,9.6-13.8c1.2-4.4,2.5-7.5,1.2-13.3s-3.8-37.2-3.8-42.4c-0.1-5.3,0.2-68.5,0.5-75c0.3-6.5,1.8-13.1,2.1-17.9
				s0.5-21.9,0.1-23.7c-0.4-1.8-2-6.8-1.6-8.7C1469.4,498.6,1470.6,497.8,1470.6,497.8z"/>
		</g>
		<g id="sara">
			<g id="XMLID_1228_">
				<polygon id="XMLID_1229_" points="1575.3,615 1570.7,615 1570.3,616.3 1572.7,616.3 1566.9,625.4 				"/>
				<polygon id="XMLID_1230_" points="1576.8,611.6 1571.7,611.6 1571,613.7 1576.8,613.7 1576.8,614.5 1567.9,626.7 1576.8,616.7 
									"/>
			</g>
			<g id="XMLID_1086_">
				<path id="XMLID_1223_" d="M1551.6,665.5h-6.9c0.2,1.8,0.3,3.5,0.3,5.2h6.6c0.8,0,1.4-0.7,1.4-1.4V667
					C1553,666.2,1552.4,665.5,1551.6,665.5z"/>
				<path id="XMLID_1231_" d="M1546.4,642.6V605c0-1.1-0.9-2-2-2h-1.2c-0.1,7-0.2,12.6-0.3,15.4c-0.2,11.7-0.2,20.1,0,26.2h1.5
					C1545.5,644.6,1546.4,643.7,1546.4,642.6z"/>
				<path id="XMLID_1232_" d="M1548.7,653.4h-5.2c0.1,1.4,0.2,2.7,0.4,4h4.8c0.8,0,1.4-0.7,1.4-1.4v-1.1
					C1550.2,654.1,1549.5,653.4,1548.7,653.4z"/>
				<path id="XMLID_1233_" d="M1547,651.7c0.8,0,1.4-0.7,1.4-1.4v-1.1c0-0.8-0.7-1.4-1.4-1.4h-3.9c0.1,1.3,0.2,2.6,0.3,4H1547z"/>
				<path id="XMLID_1236_" d="M1551.8,661.9v-1.5c0-0.8-0.7-1.4-1.4-1.4h-6.3c0.2,1.7,0.3,3.2,0.4,4.4h5.9
					C1551.2,663.4,1551.8,662.7,1551.8,661.9z"/>
			</g>
			<g id="XMLID_1068_">
				<path id="XMLID_1073_" d="M1493.4,665.4h6.9c-0.2,1.8-0.3,3.5-0.3,5.2h-6.6c-0.8,0-1.4-0.7-1.4-1.4v-2.3
					C1491.9,666.1,1492.6,665.4,1493.4,665.4z"/>
				<path id="XMLID_1072_" d="M1498.5,642.5v-37.6c0-1.1,0.9-2,2-2h1.2c0.1,7,0.2,12.6,0.3,15.4c0.2,11.7,0.2,20.1,0,26.2h-1.5
					C1499.4,644.5,1498.5,643.6,1498.5,642.5z"/>
				<path id="XMLID_1071_" d="M1496.3,653.3h5.2c-0.1,1.4-0.2,2.7-0.4,4h-4.8c-0.8,0-1.4-0.7-1.4-1.4v-1.1
					C1494.8,654,1495.5,653.3,1496.3,653.3z"/>
				<path id="XMLID_1070_" d="M1498,651.6c-0.8,0-1.4-0.7-1.4-1.4V649c0-0.8,0.7-1.4,1.4-1.4h3.9c-0.1,1.3-0.2,2.6-0.3,4H1498z"/>
				<path id="XMLID_1069_" d="M1493.2,661.8v-1.5c0-0.8,0.7-1.4,1.4-1.4h6.3c-0.2,1.7-0.3,3.2-0.4,4.4h-5.9
					C1493.8,663.3,1493.2,662.6,1493.2,661.8z"/>
			</g>
			<g id="XMLID_1197_">
				<polygon id="XMLID_1226_" points="1468.4,611.5 1468.4,613.6 1472.9,613.6 1468.4,619.7 1468.4,620.9 1476.8,611.5 				"/>
				<polygon id="XMLID_1227_" points="1468.4,614.8 1468.4,617.7 1470.7,614.8 				"/>
			</g>
			<g id="XMLID_813_">
				<g id="XMLID_1389_">
					
						<rect id="XMLID_1428_" x="1578" y="725.9" transform="matrix(-0.8185 -0.5745 0.5745 -0.8185 2452.9114 2229.7097)" width="1.3" height="3"/>
					
						<rect id="XMLID_1411_" x="1579.8" y="727.2" transform="matrix(-0.8185 -0.5745 0.5745 -0.8185 2455.446 2233.0835)" width="1.3" height="3"/>
					
						<rect id="XMLID_1410_" x="1581.6" y="728.5" transform="matrix(-0.8185 -0.5745 0.5745 -0.8185 2457.9807 2236.4575)" width="1.3" height="3"/>
				</g>
				<g id="XMLID_1031_">
					
						<rect id="XMLID_1386_" x="1465.8" y="726" transform="matrix(0.8185 -0.5745 0.5745 0.8185 -151.7703 974.5083)" width="1.3" height="3"/>
					
						<rect id="XMLID_1096_" x="1464" y="727.3" transform="matrix(0.8185 -0.5745 0.5745 0.8185 -152.8362 973.7075)" width="1.3" height="3"/>
					
						<rect id="XMLID_1093_" x="1462.2" y="728.5" transform="matrix(0.8185 -0.5745 0.5745 0.8185 -153.9021 972.9068)" width="1.3" height="3"/>
				</g>
			</g>
		</g>
	</g>
</g>
</svg>
