<?xml version="1.0" encoding="utf-8"?>
<!-- Generator: Adobe Illustrator 19.0.0, SVG Export Plug-In . SVG Version: 6.00 Build 0)  -->
<svg version="1.1" xmlns="http://www.w3.org/2000/svg" xmlns:xlink="http://www.w3.org/1999/xlink" x="0px" y="0px"
	 viewBox="0 0 2464 841.9" style="enable-background:new 0 0 2464 841.9;" xml:space="preserve">
<style type="text/css">
	.st0{fill:none;stroke:#A7A9AC;stroke-miterlimit:10;}
	.st1{fill:none;stroke:#939598;stroke-miterlimit:10;}
	.st2{fill:none;stroke:#939598;stroke-width:0.5;stroke-miterlimit:10;}
	.st3{fill:none;stroke:#000000;stroke-width:0.5;stroke-miterlimit:10;}
	.st4{fill:none;stroke:#000000;stroke-miterlimit:10;}
	.st5{fill:none;stroke:#000000;}
	.st6{fill:#BCBEC0;}
	.st7{fill:#FFFFFF;stroke:#000000;stroke-miterlimit:10;}
	.st8{fill:#323334;}
	.st9{fill:#FFFFFF;}
	.st10{fill:#979797;}
	.st11{fill:url(#XMLID_4_);}
	.st12{fill:#D0D2D3;}
	.st13{fill:#4B4C4D;}
	.st14{fill:none;stroke:#808285;stroke-width:0.5;stroke-miterlimit:10;stroke-dasharray:3,3;}
	.st15{fill:none;stroke:#939598;stroke-width:0.5;stroke-miterlimit:10;stroke-dasharray:1.5,1.5;}
	.st16{fill:none;stroke:#939598;stroke-width:0.25;stroke-miterlimit:10;}
	.st17{fill:url(#XMLID_5_);}
	.st18{fill:none;stroke:#6D6E71;stroke-width:0.5;stroke-miterlimit:10;stroke-dasharray:3,3;}
	.st19{fill:none;stroke:#6D6E71;stroke-width:0.5;stroke-miterlimit:10;stroke-dasharray:1.5,1.5;}
	.st20{opacity:0.5;}
	.st21{fill:#A7A9AC;}
	.st22{fill:none;stroke:#6D6E71;stroke-width:0.5;stroke-miterlimit:10;}
	.st23{fill:none;stroke:#6D6E71;stroke-width:0.5;stroke-miterlimit:10;stroke-dasharray:2.9029,2.9029;}
	.st24{fill:none;stroke:#6D6E71;stroke-width:0.5;stroke-miterlimit:10;stroke-dasharray:2.8761,2.8761;}
	.st25{fill:#FFFFFF;stroke:#000000;}
	.st26{fill:url(#XMLID_6_);}
	.st27{fill:none;stroke:#6D6E71;stroke-width:0.5;stroke-miterlimit:10;stroke-dasharray:2.4936,2.4936;}
	.st28{fill:none;stroke:#808285;stroke-width:0.5;stroke-miterlimit:10;}
	.st29{fill:none;stroke:#808285;stroke-width:0.5;stroke-miterlimit:10;stroke-dasharray:3.0146,3.0146;}
	.st30{fill:none;stroke:#808285;stroke-width:0.5;stroke-miterlimit:10;stroke-dasharray:3.0009,3.0009;}
	.st31{fill:none;stroke:#6D6E71;stroke-width:0.5;stroke-miterlimit:10;stroke-dasharray:3.307,3.307;}
	.st32{fill:none;stroke:#6D6E71;stroke-width:0.5;stroke-miterlimit:10;stroke-dasharray:3.2754,3.2754;}
	.st33{fill:none;stroke:#000000;stroke-width:0.25;stroke-miterlimit:10;}
	.st34{fill:none;stroke:#6D6E71;stroke-width:0.5;stroke-miterlimit:10;stroke-dasharray:2.9827,2.9827;}
	.st35{fill:none;stroke:#6D6E71;stroke-width:0.5;stroke-miterlimit:10;stroke-dasharray:2.9609,2.9609;}
	.st36{fill:none;stroke:#6D6E71;stroke-width:0.5;stroke-miterlimit:10;stroke-dasharray:3.0236,3.0236;}
	.st37{fill:none;stroke:#6D6E71;stroke-width:0.5;stroke-miterlimit:10;stroke-dasharray:2.9944,2.9944;}
	.st38{fill:url(#XMLID_15_);}
	.st39{fill:url(#XMLID_66_);}
	.st40{fill:none;stroke:#6D6E71;stroke-width:0.5;stroke-miterlimit:10;stroke-dasharray:3.0146,3.0146;}
	.st41{fill:none;stroke:#6D6E71;stroke-width:0.5;stroke-miterlimit:10;stroke-dasharray:3.0009,3.0009;}
	.st42{fill:none;stroke:#6D6E71;stroke-width:0.5;stroke-miterlimit:10;stroke-dasharray:3.0291,3.0291;}
	.st43{fill:none;stroke:#6D6E71;stroke-width:0.5;stroke-miterlimit:10;stroke-dasharray:3.0747,3.0747;}
	.st44{fill:none;stroke:#6D6E71;stroke-width:0.5;stroke-miterlimit:10;stroke-dasharray:2.9787,2.9787;}
	.st45{fill:none;stroke:#6D6E71;stroke-width:0.5;stroke-miterlimit:10;stroke-dasharray:2.9735,2.9735;}
	.st46{fill:none;stroke:#6D6E71;stroke-width:0.5;stroke-miterlimit:10;stroke-dasharray:2.8376,2.8376;}
	.st47{fill:none;stroke:#6D6E71;stroke-width:0.5;stroke-miterlimit:10;stroke-dasharray:2.8167,2.8167;}
	.st48{fill:none;stroke:#6D6E71;stroke-width:0.5;stroke-miterlimit:10;stroke-dasharray:2.9835,2.9835;}
</style>
<g id="stucne">
	<g id="s3">
		<g id="linije_10_">
			<g id="XMLID_1355_">
				<line id="XMLID_1376_" class="st0" x1="2119.4" y1="644.6" x2="2119.4" y2="660.7"/>
				<line id="XMLID_1375_" class="st0" x1="2089.4" y1="644.6" x2="2089.4" y2="660.7"/>
				<line id="XMLID_1374_" class="st0" x1="2089.4" y1="676.9" x2="2089.4" y2="681.8"/>
				<line id="XMLID_1373_" class="st0" x1="2117.9" y1="644.6" x2="2117.9" y2="681.8"/>
				<line id="XMLID_1372_" class="st0" x1="2116.3" y1="644.6" x2="2116.3" y2="681.8"/>
				<line id="XMLID_1371_" class="st0" x1="2114.8" y1="644.6" x2="2114.8" y2="681.8"/>
				<line id="XMLID_1370_" class="st0" x1="2113.2" y1="644.6" x2="2113.2" y2="681.8"/>
				<line id="XMLID_1369_" class="st0" x1="2111.6" y1="644.6" x2="2111.6" y2="681.8"/>
				<line id="XMLID_1368_" class="st0" x1="2110.1" y1="644.6" x2="2110.1" y2="681.8"/>
				<line id="XMLID_1367_" class="st0" x1="2108.5" y1="644.6" x2="2108.5" y2="681.8"/>
				<line id="XMLID_1366_" class="st0" x1="2106.9" y1="644.6" x2="2106.9" y2="681.8"/>
				<line id="XMLID_1365_" class="st0" x1="2105.4" y1="644.6" x2="2105.4" y2="681.8"/>
				<line id="XMLID_1364_" class="st0" x1="2103.8" y1="644.6" x2="2103.8" y2="681.8"/>
				<line id="XMLID_1363_" class="st0" x1="2102.3" y1="644.6" x2="2102.3" y2="681.8"/>
				<line id="XMLID_1362_" class="st0" x1="2100.7" y1="644.6" x2="2100.7" y2="681.8"/>
				<line id="XMLID_1361_" class="st0" x1="2099.1" y1="644.6" x2="2099.1" y2="681.8"/>
				<line id="XMLID_1360_" class="st0" x1="2097.6" y1="644.6" x2="2097.6" y2="681.8"/>
				<line id="XMLID_1359_" class="st0" x1="2096" y1="644.6" x2="2096" y2="681.8"/>
				<line id="XMLID_1358_" class="st0" x1="2094.4" y1="644.6" x2="2094.4" y2="681.8"/>
				<line id="XMLID_1357_" class="st0" x1="2092.9" y1="644.6" x2="2092.9" y2="681.8"/>
				<line id="XMLID_1356_" class="st0" x1="2091.3" y1="644.6" x2="2091.3" y2="681.8"/>
			</g>
			<g id="XMLID_1333_">
				<line id="XMLID_1354_" class="st1" x1="2016" y1="644.6" x2="2016" y2="660.7"/>
				<line id="XMLID_1353_" class="st1" x1="2045.9" y1="644.6" x2="2045.9" y2="660.7"/>
				<line id="XMLID_1352_" class="st1" x1="2045.9" y1="676.9" x2="2045.9" y2="681.8"/>
				<line id="XMLID_1351_" class="st1" x1="2017.5" y1="644.6" x2="2017.5" y2="681.8"/>
				<line id="XMLID_1350_" class="st1" x1="2019" y1="644.6" x2="2019" y2="681.8"/>
				<line id="XMLID_1349_" class="st1" x1="2020.6" y1="644.6" x2="2020.6" y2="681.8"/>
				<line id="XMLID_1348_" class="st1" x1="2022.2" y1="644.6" x2="2022.2" y2="681.8"/>
				<line id="XMLID_1347_" class="st1" x1="2023.7" y1="644.6" x2="2023.7" y2="681.8"/>
				<line id="XMLID_1346_" class="st1" x1="2025.3" y1="644.6" x2="2025.3" y2="681.8"/>
				<line id="XMLID_1345_" class="st1" x1="2026.8" y1="644.6" x2="2026.8" y2="681.8"/>
				<line id="XMLID_1344_" class="st1" x1="2028.4" y1="644.6" x2="2028.4" y2="681.8"/>
				<line id="XMLID_1343_" class="st1" x1="2030" y1="644.6" x2="2030" y2="681.8"/>
				<line id="XMLID_1342_" class="st1" x1="2031.5" y1="644.6" x2="2031.5" y2="681.8"/>
				<line id="XMLID_1341_" class="st1" x1="2033.1" y1="644.6" x2="2033.1" y2="681.8"/>
				<line id="XMLID_1340_" class="st1" x1="2034.7" y1="644.6" x2="2034.7" y2="681.8"/>
				<line id="XMLID_1339_" class="st1" x1="2036.2" y1="644.6" x2="2036.2" y2="681.8"/>
				<line id="XMLID_1338_" class="st1" x1="2037.8" y1="644.6" x2="2037.8" y2="681.8"/>
				<line id="XMLID_1337_" class="st1" x1="2039.3" y1="644.6" x2="2039.3" y2="681.8"/>
				<line id="XMLID_1336_" class="st1" x1="2040.9" y1="644.6" x2="2040.9" y2="681.8"/>
				<line id="XMLID_1335_" class="st1" x1="2042.5" y1="644.6" x2="2042.5" y2="681.8"/>
				<line id="XMLID_1334_" class="st1" x1="2044.1" y1="644.6" x2="2044.1" y2="681.8"/>
			</g>
			<g id="XMLID_1313_">
				<line id="XMLID_1332_" class="st2" x1="2015.8" y1="497.8" x2="2015.8" y2="509.1"/>
				<line id="XMLID_1331_" class="st2" x1="2043.8" y1="523.8" x2="2043.8" y2="535"/>
				<line id="XMLID_1330_" class="st2" x1="2017.3" y1="497.8" x2="2017.3" y2="535.1"/>
				<line id="XMLID_1329_" class="st2" x1="2018.8" y1="497.8" x2="2018.8" y2="535.1"/>
				<line id="XMLID_1328_" class="st2" x1="2020.4" y1="497.8" x2="2020.4" y2="535.1"/>
				<line id="XMLID_1327_" class="st2" x1="2022" y1="497.8" x2="2022" y2="535.1"/>
				<line id="XMLID_1326_" class="st2" x1="2023.5" y1="497.8" x2="2023.5" y2="535.1"/>
				<line id="XMLID_1325_" class="st2" x1="2025.1" y1="497.8" x2="2025.1" y2="535.1"/>
				<line id="XMLID_1324_" class="st2" x1="2026.7" y1="497.8" x2="2026.7" y2="535.1"/>
				<line id="XMLID_1323_" class="st2" x1="2028.2" y1="497.8" x2="2028.2" y2="535.1"/>
				<line id="XMLID_1322_" class="st2" x1="2029.8" y1="497.8" x2="2029.8" y2="535.1"/>
				<line id="XMLID_1321_" class="st2" x1="2031.3" y1="497.8" x2="2031.3" y2="535.1"/>
				<line id="XMLID_1320_" class="st2" x1="2032.9" y1="497.8" x2="2032.9" y2="535.1"/>
				<line id="XMLID_1319_" class="st2" x1="2034.5" y1="497.8" x2="2034.5" y2="535.1"/>
				<line id="XMLID_1318_" class="st2" x1="2036" y1="497.8" x2="2036" y2="535.1"/>
				<line id="XMLID_1317_" class="st2" x1="2037.6" y1="497.8" x2="2037.6" y2="535.1"/>
				<line id="XMLID_1316_" class="st2" x1="2039.2" y1="497.8" x2="2039.2" y2="535.1"/>
				<line id="XMLID_1315_" class="st2" x1="2040.7" y1="497.8" x2="2040.7" y2="535.1"/>
				<line id="XMLID_1314_" class="st2" x1="2042.3" y1="497.8" x2="2042.3" y2="535.1"/>
			</g>
			<g id="XMLID_1292_">
				<line id="XMLID_1312_" class="st1" x1="2001.6" y1="699.2" x2="1994.2" y2="704.4"/>
				<line id="XMLID_1311_" class="st1" x1="2002.4" y1="700.4" x2="1985.3" y2="712.4"/>
				<line id="XMLID_1310_" class="st1" x1="2003.3" y1="701.7" x2="1986.2" y2="713.7"/>
				<line id="XMLID_1309_" class="st1" x1="2004.2" y1="703" x2="1987.1" y2="715"/>
				<line id="XMLID_1308_" class="st1" x1="2005.1" y1="704.3" x2="1988" y2="716.2"/>
				<line id="XMLID_1307_" class="st1" x1="2006" y1="705.6" x2="1988.9" y2="717.5"/>
				<line id="XMLID_1306_" class="st1" x1="2006.9" y1="706.8" x2="1989.8" y2="718.8"/>
				<line id="XMLID_1305_" class="st1" x1="2007.8" y1="708.1" x2="1990.7" y2="720.1"/>
				<line id="XMLID_1304_" class="st1" x1="2008.7" y1="709.4" x2="1991.6" y2="721.4"/>
				<line id="XMLID_1303_" class="st1" x1="2009.6" y1="710.7" x2="1992.5" y2="722.6"/>
				<line id="XMLID_1302_" class="st1" x1="2010.5" y1="712" x2="1993.4" y2="723.9"/>
				<line id="XMLID_1301_" class="st1" x1="2011.4" y1="713.2" x2="1994.3" y2="725.2"/>
				<line id="XMLID_1300_" class="st1" x1="2012.3" y1="714.5" x2="1995.2" y2="726.5"/>
				<line id="XMLID_1299_" class="st1" x1="2013.2" y1="715.8" x2="1996.1" y2="727.8"/>
				<line id="XMLID_1298_" class="st1" x1="2014.1" y1="717.1" x2="1997" y2="729"/>
				<line id="XMLID_1297_" class="st1" x1="2015" y1="718.4" x2="1997.9" y2="730.3"/>
				<line id="XMLID_1296_" class="st1" x1="2015.9" y1="719.6" x2="1998.8" y2="731.6"/>
				<line id="XMLID_1295_" class="st1" x1="2016.8" y1="720.9" x2="1999.7" y2="732.9"/>
				<line id="XMLID_1294_" class="st1" x1="2017.7" y1="722.3" x2="2000.6" y2="734.2"/>
				<line id="XMLID_1293_" class="st1" x1="2018.8" y1="723.7" x2="2001.7" y2="735.7"/>
			</g>
			<line id="XMLID_1291_" class="st3" x1="2015.6" y1="534.9" x2="2044.9" y2="534.9"/>
			<line id="XMLID_1290_" class="st3" x1="2015.6" y1="533.6" x2="2044.9" y2="533.6"/>
			<g id="XMLID_1267_">
				<line id="XMLID_1286_" class="st2" x1="2119.5" y1="497.8" x2="2119.5" y2="509.1"/>
				<line id="XMLID_1285_" class="st2" x1="2091.6" y1="523.8" x2="2091.6" y2="535"/>
				<line id="XMLID_1284_" class="st2" x1="2118.1" y1="497.8" x2="2118.1" y2="535.1"/>
				<line id="XMLID_1283_" class="st2" x1="2116.5" y1="497.8" x2="2116.5" y2="535.1"/>
				<line id="XMLID_1282_" class="st2" x1="2114.9" y1="497.8" x2="2114.9" y2="535.1"/>
				<line id="XMLID_1281_" class="st2" x1="2113.4" y1="497.8" x2="2113.4" y2="535.1"/>
				<line id="XMLID_1280_" class="st2" x1="2111.8" y1="497.8" x2="2111.8" y2="535.1"/>
				<line id="XMLID_1279_" class="st2" x1="2110.3" y1="497.8" x2="2110.3" y2="535.1"/>
				<line id="XMLID_1278_" class="st2" x1="2108.7" y1="497.8" x2="2108.7" y2="535.1"/>
				<line id="XMLID_1277_" class="st2" x1="2107.1" y1="497.8" x2="2107.1" y2="535.1"/>
				<line id="XMLID_1276_" class="st2" x1="2105.6" y1="497.8" x2="2105.6" y2="535.1"/>
				<line id="XMLID_1275_" class="st2" x1="2104" y1="497.8" x2="2104" y2="535.1"/>
				<line id="XMLID_1274_" class="st2" x1="2102.4" y1="497.8" x2="2102.4" y2="535.1"/>
				<line id="XMLID_1273_" class="st2" x1="2100.9" y1="497.8" x2="2100.9" y2="535.1"/>
				<line id="XMLID_1272_" class="st2" x1="2099.3" y1="497.8" x2="2099.3" y2="535.1"/>
				<line id="XMLID_1271_" class="st2" x1="2097.8" y1="497.8" x2="2097.8" y2="535.1"/>
				<line id="XMLID_1270_" class="st2" x1="2096.2" y1="497.8" x2="2096.2" y2="535.1"/>
				<line id="XMLID_1269_" class="st2" x1="2094.6" y1="497.8" x2="2094.6" y2="535.1"/>
				<line id="XMLID_1268_" class="st2" x1="2093.1" y1="497.8" x2="2093.1" y2="535.1"/>
			</g>
			<g id="XMLID_1246_">
				<line id="XMLID_1266_" class="st1" x1="2133.8" y1="699.2" x2="2141.1" y2="704.4"/>
				<line id="XMLID_1265_" class="st1" x1="2132.9" y1="700.4" x2="2150" y2="712.4"/>
				<line id="XMLID_1264_" class="st1" x1="2132" y1="701.7" x2="2149.1" y2="713.7"/>
				<line id="XMLID_1263_" class="st1" x1="2131.1" y1="703" x2="2148.2" y2="715"/>
				<line id="XMLID_1262_" class="st1" x1="2130.2" y1="704.3" x2="2147.3" y2="716.2"/>
				<line id="XMLID_1261_" class="st1" x1="2129.3" y1="705.6" x2="2146.4" y2="717.5"/>
				<line id="XMLID_1260_" class="st1" x1="2128.4" y1="706.8" x2="2145.5" y2="718.8"/>
				<line id="XMLID_1259_" class="st1" x1="2127.5" y1="708.1" x2="2144.6" y2="720.1"/>
				<line id="XMLID_1258_" class="st1" x1="2126.6" y1="709.4" x2="2143.7" y2="721.4"/>
				<line id="XMLID_1257_" class="st1" x1="2125.7" y1="710.7" x2="2142.8" y2="722.6"/>
				<line id="XMLID_1256_" class="st1" x1="2124.8" y1="712" x2="2141.9" y2="723.9"/>
				<line id="XMLID_1255_" class="st1" x1="2124" y1="713.2" x2="2141" y2="725.2"/>
				<line id="XMLID_1254_" class="st1" x1="2123.1" y1="714.5" x2="2140.1" y2="726.5"/>
				<line id="XMLID_1253_" class="st1" x1="2122.2" y1="715.8" x2="2139.3" y2="727.8"/>
				<line id="XMLID_1252_" class="st1" x1="2121.3" y1="717.1" x2="2138.4" y2="729"/>
				<line id="XMLID_1251_" class="st1" x1="2120.4" y1="718.4" x2="2137.5" y2="730.3"/>
				<line id="XMLID_1250_" class="st1" x1="2119.5" y1="719.6" x2="2136.6" y2="731.6"/>
				<line id="XMLID_1249_" class="st1" x1="2118.6" y1="720.9" x2="2135.7" y2="732.9"/>
				<line id="XMLID_1248_" class="st1" x1="2117.6" y1="722.3" x2="2134.7" y2="734.2"/>
				<line id="XMLID_1247_" class="st1" x1="2116.6" y1="723.7" x2="2133.7" y2="735.7"/>
			</g>
			<line id="XMLID_1245_" class="st3" x1="2119.8" y1="534.9" x2="2090.5" y2="534.9"/>
			<line id="XMLID_1244_" class="st3" x1="2119.8" y1="533.6" x2="2090.5" y2="533.6"/>
			<path id="XMLID_1222_" class="st4" d="M2119.5,497.8c0,0-5.4-0.6-9-0.6c-3.6,0-14.5-0.4-15.2-0.3c-0.7,0.1-4.7,0.6-4.7,2
				c0,1.4,0.8,5,0.6,10.1c-0.2,5.1,0.3,13.6,0,16.3s-0.5,5.9-1.1,11.8c-0.6,5.9-1.9,68.9-2.1,81.1s-0.3,20.8,0,27s1.2,14.5,1.6,18.6
				c0.4,4.1,0.8,7.8,0.2,11.1c-0.6,3.3-1.1,3.4-1.3,5.3s0.8,2.9-1,5.8c-1.8,2.9-3.3,4.3-4.2,7.6s-1.6,4.6-1.1,6.1s1.3,8.3,3.7,10.3
				c2.4,2.1,10.1,6,16.4,8.3s16.5,6.5,19.3,8.9c2.8,2.4,25.9,22.4,25.9,22.4l5.6,0.4c0,0,2.6-2.3,5.2-3.3s6-0.8,6.4-1.6
				c0.4-0.8,3.2-2.8,3.3-8s-1.9-7.3-2.6-8.1c-0.7-0.8-4-6.2-4.5-6.3s-0.6-2.4-1.8-3.5s-3-1.5-4.3-2s-4.3-5.7-11.3-11.2
				s-12.6-9-14.5-10.9c-1.9-1.9-8.4-9.4-9.6-13.8c-1.2-4.4-2.5-7.5-1.2-13.3s3.8-37.2,3.8-42.4c0.1-5.3-0.2-68.5-0.5-75
				c-0.3-6.5-1.8-13.1-2.1-17.9s-0.5-21.9-0.1-23.7c0.4-1.8,2-6.8,1.6-8.7C2120.7,498.6,2119.5,497.8,2119.5,497.8z"/>
			<path id="XMLID_1084_" class="st4" d="M2015.8,497.8c0,0,5.4-0.6,9-0.6c3.6,0,14.5-0.4,15.2-0.3c0.7,0.1,4.7,0.6,4.7,2
				c0,1.4-0.8,5-0.6,10.1c0.2,5.1-0.3,13.6,0,16.3s0.5,5.9,1.1,11.8c0.6,5.9,1.9,68.9,2.1,81.1c0.2,12.2,0.3,20.8,0,27
				s-1.2,14.5-1.6,18.6c-0.4,4.1-0.8,7.8-0.2,11.1c0.6,3.3,1.1,3.4,1.3,5.3s-0.8,2.9,1,5.8c1.8,2.9,3.3,4.3,4.2,7.6
				c0.9,3.3,1.6,4.6,1.1,6.1s-1.3,8.3-3.7,10.3c-2.4,2.1-10.1,6-16.4,8.3c-6.3,2.3-16.5,6.5-19.3,8.9s-25.9,22.4-25.9,22.4l-5.6,0.4
				c0,0-2.6-2.3-5.2-3.3c-2.6-1-6-0.8-6.4-1.6c-0.4-0.8-3.2-2.8-3.3-8c-0.2-5.3,1.9-7.3,2.6-8.1c0.7-0.8,4-6.2,4.5-6.3
				s0.6-2.4,1.8-3.5s3-1.5,4.3-2c1.3-0.5,4.3-5.7,11.3-11.2s12.6-9,14.5-10.9c1.9-1.9,8.4-9.4,9.6-13.8c1.2-4.4,2.5-7.5,1.2-13.3
				c-1.3-5.8-3.8-37.2-3.8-42.4s0.2-68.5,0.5-75s1.8-13.1,2.1-17.9c0.3-4.8,0.5-21.9,0.1-23.7c-0.4-1.8-2-6.8-1.6-8.7
				C2014.6,498.6,2015.8,497.8,2015.8,497.8z"/>
		</g>
		<g id="sara_2_">
			<g id="XMLID_1237_">
				<polygon id="XMLID_1240_" points="1972.8,724.3 1972.3,725.2 1973,725.9 1971.6,726.7 1971.4,726.6 1970,728.7 1974.6,726.1 
									"/>
				<path id="XMLID_1239_" d="M1981.7,733c-0.3-0.3-0.6-0.5-0.9-0.6c-0.3-0.1-0.7-0.2-1-0.1c-0.4,0-0.7,0.2-1,0.3
					c-0.3,0.2-0.6,0.4-0.7,0.6c-0.1,0.2-0.2,0.4-0.2,0.7c0,0.2,0.1,0.5,0.4,0.9c0.2,0.4,0.3,0.7,0.3,0.8c0,0.1-0.1,0.2-0.2,0.3
					c-0.1,0.1-0.3,0.1-0.4,0.1c-0.2,0-0.5-0.2-0.7-0.3c-0.2-0.2-0.3-0.4-0.2-0.5s0.2-0.3,0.4-0.5l-0.7-0.7c-0.5,0.3-0.8,0.6-0.8,1
					c-0.1,0.4,0.1,0.8,0.5,1.2c0.3,0.3,0.5,0.4,0.8,0.6c0.3,0.1,0.6,0.1,1,0.1c0.3,0,0.6-0.1,0.9-0.3c0.4-0.2,0.7-0.5,0.8-0.9
					c0.1-0.3,0-0.6-0.2-1.1c-0.2-0.3-0.3-0.6-0.3-0.7c-0.1-0.2-0.1-0.3,0-0.4c0-0.1,0.1-0.2,0.2-0.3c0.2-0.1,0.4-0.2,0.7-0.1
					c0.3,0,0.5,0.1,0.7,0.4c0.2,0.2,0.3,0.4,0.2,0.6c0,0.2-0.2,0.4-0.5,0.7l0.8,0.6c0.5-0.4,0.9-0.8,0.9-1.2
					C1982.3,733.8,1982.1,733.4,1981.7,733z"/>
				<polygon id="XMLID_1238_" points="1977.3,728.8 1976.4,729.3 1978.3,731.2 1976.9,732 1975.2,730.4 1974.3,730.9 1976,732.5 
					1974.8,733.2 1973,731.4 1972.9,731.5 1976.4,727.9 1975.6,727.1 1970,728.7 1969.7,729.1 1969.5,729.3 1969.9,729.7 
					1974.6,728.3 1971.6,731.4 1972.1,731.9 1972.3,732.1 1974.6,734.4 1979.9,731.4 				"/>
			</g>
			<g id="XMLID_1224_">
				<g id="XMLID_1225_">
					<polygon id="XMLID_1235_" points="2162.9,725.3 2162,723.8 2161.6,724.4 2164.2,729.9 2160.7,725.7 2158.6,728.6 2159.3,729.4 
						2160.8,727.2 2161.9,728.5 2160.5,730.5 2161.2,731.2 2162.5,729.3 2163.4,730.3 2161.9,732.4 2162.6,733.2 2164.5,730.5 
						2164.6,730.4 2165.1,729.7 2162.9,725.2 					"/>
					<path id="XMLID_1234_" d="M2157.9,729.7c0.8,0.9,1.9,2.1,2.5,3.1c-1.2-0.5-2.4-1-3.7-1.5l-0.5,0.8c1.3,1.6,2.6,3.1,3.9,4.7
						l0.5-0.7c-0.8-0.9-1.9-2.1-2.5-3.1c1.2,0.5,2.4,1,3.7,1.5l0.5-0.8c-1.3-1.6-2.6-3.1-3.9-4.7L2157.9,729.7z"/>
				</g>
			</g>
			<g id="XMLID_1377_">
				<g id="XMLID_1287_">
					<polygon id="XMLID_1289_" points="2013.5,587.1 2013.5,589 2017.7,589 2013.5,594.7 2013.5,595.8 2021.3,587.1 					"/>
					<polygon id="XMLID_1288_" points="2013.5,590.2 2013.5,592.9 2015.7,590.2 					"/>
				</g>
				<g id="XMLID_1412_">
					<polygon id="XMLID_1413_" points="2046.8,601.2 2013.9,601.2 2013.3,601.8 2013.2,601.5 2013.2,602.7 2046.8,602.7 					"/>
					<polygon id="XMLID_1414_" points="2046.9,604.8 2013.2,604.8 2013.2,606.4 2046.9,606.4 					"/>
					<polygon id="XMLID_1415_" points="2046.9,608.5 2013.2,608.5 2013.2,610.2 2047,610.2 					"/>
					<polygon id="XMLID_1416_" points="2047,612.1 2013.2,612.1 2013.2,614 2047,614 					"/>
					<polygon id="XMLID_1417_" points="2015.9,598.9 2046.8,598.9 2046.7,597.5 2017.1,597.5 					"/>
					<polygon id="XMLID_1418_" points="2022.6,591.4 2046.6,591.4 2046.6,590.3 2023.7,590.3 					"/>
					<polygon id="XMLID_1419_" points="2019.3,595.1 2046.7,595.1 2046.7,593.9 2020.4,593.9 					"/>
					<polygon id="XMLID_1420_" points="2013.8,636.6 2047.2,636.6 2047.2,634 2013.6,634 					"/>
					<polygon id="XMLID_1421_" points="2013.2,629 2047.2,629 2047.2,626.7 2013.2,626.7 					"/>
					<polygon id="XMLID_1422_" points="2013.5,632.8 2047.2,632.8 2047.2,630.4 2013.3,630.4 					"/>
					<polygon id="XMLID_1423_" points="2013.2,625.3 2047.2,625.3 2047.2,623.1 2013.2,623.1 					"/>
					<polygon id="XMLID_1424_" points="2047.1,615.8 2013.2,615.8 2013.2,617.7 2047.1,617.7 					"/>
					<polygon id="XMLID_1425_" points="2047.1,619.4 2013.2,619.4 2013.2,621.5 2047.2,621.5 					"/>
					<polygon id="XMLID_1426_" points="2014.1,640.3 2047.2,640.3 2047.2,637.7 2013.9,637.7 					"/>
					<polygon id="XMLID_1427_" points="2014.3,644.1 2047.2,644.1 2047.2,641.3 2014.1,641.3 					"/>
				</g>
			</g>
			<g id="XMLID_751_">
				<g id="XMLID_1241_">
					<polygon id="XMLID_1243_" points="2120.3,590.2 2116,590.2 2115.7,591.4 2117.9,591.4 2112.6,599.7 					"/>
					<polygon id="XMLID_1242_" points="2121.7,587.1 2117,587.1 2116.4,589 2121.7,589 2121.7,589.8 2113.5,601 2121.7,591.8 					
						"/>
				</g>
				<g id="XMLID_678_">
					<polygon id="XMLID_1378_" points="2122.2,601.2 2088.5,601.2 2088.5,602.7 2122.1,602.7 					"/>
					<polygon id="XMLID_1379_" points="2113.9,590.3 2088.7,590.3 2088.7,591.4 2113.5,591.4 					"/>
					<polygon id="XMLID_1380_" points="2122.1,608.5 2088.4,608.5 2088.4,610.2 2122.1,610.2 					"/>
					<polygon id="XMLID_1381_" points="2122.1,604.8 2088.4,604.8 2088.4,606.4 2122.1,606.4 					"/>
					<polygon id="XMLID_1382_" points="2112.6,593.9 2088.6,593.9 2088.6,595.1 2112.2,595.1 					"/>
					<polygon id="XMLID_1383_" points="2111.4,597.5 2088.6,597.5 2088.6,598.9 2110.9,598.9 					"/>
					<polygon id="XMLID_1384_" points="2122.1,612.1 2088.3,612.1 2088.3,614 2122.1,614 					"/>
					<polygon id="XMLID_1385_" points="2121.7,634 2088.2,634 2088.2,636.6 2121.5,636.6 					"/>
					<polygon id="XMLID_1387_" points="2121.4,637.7 2088.2,637.7 2088.2,640.3 2121.2,640.3 					"/>
					<polygon id="XMLID_1388_" points="2121.2,641.3 2088.2,641.3 2088.2,644.1 2121,644.1 					"/>
					<polygon id="XMLID_1390_" points="2122,630.4 2088.2,630.4 2088.2,632.8 2121.8,632.8 					"/>
					<polygon id="XMLID_1391_" points="2122.1,626.7 2088.2,626.7 2088.2,629 2122.1,629 					"/>
					<polygon id="XMLID_1392_" points="2122.1,615.8 2088.3,615.8 2088.2,617.7 2122.1,617.7 					"/>
					<polygon id="XMLID_1393_" points="2122.1,619.4 2088.2,619.4 2088.2,621.5 2122.1,621.5 					"/>
					<polygon id="XMLID_1394_" points="2122.1,623.1 2088.2,623.1 2088.2,625.3 2122.1,625.3 					"/>
				</g>
			</g>
			<g id="XMLID_1400_">
				<g id="XMLID_1198_">
					
						<rect id="XMLID_1074_" x="2123" y="725.9" transform="matrix(-0.8185 -0.5745 0.5745 -0.8185 3443.9902 2542.821)" width="1.3" height="3"/>
					
						<rect id="XMLID_1199_" x="2124.8" y="727.2" transform="matrix(-0.8185 -0.5745 0.5745 -0.8185 3446.5249 2546.1948)" width="1.3" height="3"/>
					
						<rect id="XMLID_1395_" x="2126.6" y="728.5" transform="matrix(-0.8185 -0.5745 0.5745 -0.8185 3449.0596 2549.5686)" width="1.3" height="3"/>
				</g>
				<g id="XMLID_1396_">
					
						<rect id="XMLID_1399_" x="2010.8" y="726" transform="matrix(0.8185 -0.5745 0.5745 0.8185 -52.8492 1287.6196)" width="1.3" height="3"/>
					
						<rect id="XMLID_1398_" x="2009" y="727.3" transform="matrix(0.8185 -0.5745 0.5745 0.8185 -53.9151 1286.8188)" width="1.3" height="3"/>
					
						<rect id="XMLID_1397_" x="2007.2" y="728.5" transform="matrix(0.8185 -0.5745 0.5745 0.8185 -54.9809 1286.0181)" width="1.3" height="3"/>
				</g>
			</g>
		</g>
	</g>
</g>
</svg>
